<?xml version="1.0" encoding="UTF-8" standalone="no"?>
<!-- Created with Inkscape (http://www.inkscape.org/) -->

<svg
   width="210mm"
   height="297mm"
   viewBox="0 0 210 297"
   version="1.1"
   id="svg1"
   xml:space="preserve"
   inkscape:version="1.4 (e7c3feb100, 2024-10-09)"
   sodipodi:docname="wildrobot.svg"
   xmlns:inkscape="http://www.inkscape.org/namespaces/inkscape"
   xmlns:sodipodi="http://sodipodi.sourceforge.net/DTD/sodipodi-0.dtd"
   xmlns="http://www.w3.org/2000/svg"
   xmlns:svg="http://www.w3.org/2000/svg"><sodipodi:namedview
     id="namedview1"
     pagecolor="#ffffff"
     bordercolor="#000000"
     borderopacity="0.25"
     inkscape:showpageshadow="2"
     inkscape:pageopacity="0.0"
     inkscape:pagecheckerboard="0"
     inkscape:deskcolor="#d1d1d1"
     inkscape:document-units="mm"
     inkscape:zoom="1.4689925"
     inkscape:cx="439.75718"
     inkscape:cy="748.47216"
     inkscape:window-width="1536"
     inkscape:window-height="792"
     inkscape:window-x="0"
     inkscape:window-y="0"
     inkscape:window-maximized="1"
     inkscape:current-layer="layer1" /><defs
     id="defs1" /><g
     inkscape:label="Layer 1"
     inkscape:groupmode="layer"
     id="layer1"><path
       style="fill:#000000"
       d="m 141.73313,236.82947 c -1.61278,-0.26607 -1.71979,-0.4059 -1.71979,-2.24732 0,-1.32716 -0.10691,-1.75993 -0.52916,-2.14206 -0.29105,-0.26339 -0.52917,-0.63938 -0.52917,-0.83552 0,-0.19615 0.43057,0.11996 0.95683,0.70246 1.28321,1.42036 1.56212,1.34849 2.51592,-0.64828 0.87011,-1.82156 1.56878,-2.45681 2.94453,-2.67722 0.8126,-0.13019 0.80334,-0.11656 -0.17231,0.25361 -0.56709,0.21516 -1.21769,0.57781 -1.44576,0.80589 -0.52187,0.52187 -0.0774,0.52872 0.60917,0.009 0.92717,-0.70127 2.46019,-0.49659 3.31844,0.44308 0.7595,0.83154 0.7595,0.83154 0.53339,-0.171 -0.12436,-0.55139 -0.38355,-1.10235 -0.57597,-1.22436 -0.28183,-0.17869 -0.28307,-0.22261 -0.006,-0.22588 0.18892,-0.002 0.51168,0.3829 0.71724,0.85585 0.37375,0.85989 0.37375,0.85989 0.38411,-0.13229 0.006,-0.54571 0.12942,-0.99219 0.27494,-0.99219 0.3807,0 0.32608,0.8587 -0.14238,2.23852 -0.39933,1.17619 -0.39157,1.23375 0.41327,3.06753 1.01618,2.31527 0.96309,2.70006 -0.40603,2.9429 -1.29305,0.22936 -5.69694,0.2151 -7.1409,-0.0231 z m 6.87917,-0.24859 c 0.97116,-0.17833 1.05363,-0.2588 1.00121,-0.97694 -0.12158,-1.66551 -2.92082,-2.07825 -4.43667,-0.65418 -0.57824,0.54323 -0.58527,0.54336 -2.19787,0.0415 -1.83041,-0.56969 -1.90729,-0.54341 -1.90729,0.65199 0,0.80584 0.0689,0.87318 0.99218,0.96976 1.77108,0.18526 5.46331,0.16717 6.54844,-0.0321 z m -7.42538,-2.39342 c 0.20283,-0.32818 -0.21359,-0.80713 -0.71056,-0.81728 -0.25312,-0.005 -0.25932,1.91417 -0.008,2.554 0.14813,0.37747 0.22463,0.27787 0.34594,-0.45037 0.0857,-0.51427 0.25345,-1.09313 0.37287,-1.28635 z m 5.70086,-0.29578 c 0.99603,-0.005 1.87005,-0.29007 1.70593,-0.55563 -0.34401,-0.55663 -3.02714,-0.25554 -3.6976,0.41493 -1.07369,1.07368 -0.84696,1.62053 0.33803,0.81531 0.5431,-0.36905 1.28724,-0.67262 1.65364,-0.67461 z m 0.0826,-1.05472 c 1.48209,0 1.48209,0 1.19462,-0.85989 -1.00128,-2.99507 -3.72113,-2.72577 -5.8149,0.57576 -0.97441,1.5365 -0.94686,1.77047 0.24292,2.06306 0.93894,0.23091 1.04325,0.18972 1.94373,-0.76746 0.883,-0.93861 1.05831,-1.01147 2.43363,-1.01147 z m -23.16278,3.81735 c -0.10914,-0.11076 -0.18657,-0.50895 -0.17206,-0.88488 0.0264,-0.68351 0.0264,-0.68351 0.20959,-0.0221 0.17296,0.62438 0.29943,0.66582 2.2564,0.73934 2.02431,0.076 4.41372,-0.2575 5.15225,-0.71922 0.25311,-0.15823 0.36153,-0.72778 0.34607,-1.81794 -0.0178,-1.25449 0.0853,-1.68506 0.49132,-2.05252 0.7309,-0.66146 0.77766,-3.97707 0.0508,-3.60273 -0.64711,0.33327 -3.80601,0.58114 -3.62252,0.28424 0.0814,-0.13173 0.84862,-0.2395 1.7049,-0.2395 2.42988,0 3.14263,-1.49498 1.56787,-3.28854 -0.79861,-0.90957 -0.8109,-0.9662 -0.70509,-3.25035 0.0592,-1.27856 0.20305,-2.62231 0.31961,-2.98612 0.17847,-0.55709 0.15404,-0.60723 -0.15482,-0.31783 -0.25873,0.24244 -0.40568,1.31257 -0.49901,3.63392 -0.15709,3.90701 -0.69068,4.82009 -2.96668,5.07663 -2.73329,0.30808 -3.63166,-0.97681 -3.68516,-5.27072 -0.0505,-4.05115 -0.42792,-1.5113 -0.46575,3.13407 -0.0262,3.21335 -0.0262,3.21335 0.96602,3.35784 5.56945,0.81104 6.019,1.11 6.64534,4.41916 0.2497,1.31922 0.22603,1.48538 -0.27173,1.90808 -0.61363,0.52109 -1.56055,0.60618 -1.98808,0.17865 -0.15641,-0.15641 -0.74577,-0.44884 -1.30969,-0.64985 -0.5949,-0.21205 -0.80318,-0.36993 -0.49615,-0.37609 0.29104,-0.006 0.919,0.22705 1.39546,0.51755 1.40912,0.85914 1.59035,0.43057 0.34469,-0.81509 -0.42537,-0.42537 -0.67408,-0.7734 -0.55269,-0.7734 0.25415,0 1.4782,1.40162 1.66668,1.90846 0.0927,0.24928 0.27597,0.19748 0.68409,-0.19334 0.55746,-0.53384 0.55746,-0.53384 -0.2062,-2.14861 -0.92551,-1.957 -1.60091,-2.47692 -3.2176,-2.47692 -1.40659,0 -1.81325,0.33488 -2.56979,2.11622 -0.50262,1.18347 -0.50262,1.18347 -0.46833,-0.13565 0.0403,-1.54844 0.44309,-2.39655 1.26977,-2.67327 0.50519,-0.16911 0.41741,-0.23126 -0.57834,-0.40944 -1.42303,-0.25465 -1.33892,-0.33335 -1.52013,1.42244 -0.10763,1.04276 -0.0302,1.66216 0.28348,2.26882 0.23734,0.45896 0.41623,0.92737 0.39753,1.04091 -0.11417,0.69328 0.0474,0.87646 0.54045,0.61261 0.28147,-0.15064 0.78749,-0.26171 1.12448,-0.24681 0.50588,0.0224 0.47431,0.0605 -0.18105,0.21864 -0.43656,0.10535 -1.06164,0.33548 -1.38906,0.51139 -0.56636,0.30428 -0.59531,0.2735 -0.59531,-0.63291 0,-0.52401 -0.11771,-1.17268 -0.26157,-1.44149 -0.51488,-0.96206 0.14246,-13.13588 0.80035,-14.8223 0.47217,-1.21033 0.52002,-1.61055 0.28439,-2.37836 -0.24287,-0.7914 -0.1952,-1.09351 0.33402,-2.11667 0.50224,-0.97102 0.6499,-1.78538 0.79212,-4.36851 0.0961,-1.74625 0.3575,-4.93049 0.5808,-7.07609 0.29821,-2.86522 0.33274,-4.16495 0.13005,-4.89479 -0.60665,-2.18445 0.15304,-3.50725 2.01423,-3.50725 0.70845,0 1.14924,-0.17636 1.53338,-0.61351 0.50724,-0.57727 0.6642,-0.60331 2.65577,-0.4407 2.11667,0.17282 2.11667,0.17282 -0.20523,0.21664 -2.3219,0.0438 -2.3219,0.0438 -1.91144,0.83757 0.39084,0.75579 0.92604,1.07255 0.92604,0.54807 0,-0.80134 0.87527,-1.07723 3.41748,-1.07723 2.67099,0 3.44606,0.3001 3.47049,1.34375 0.0135,0.57611 1.04953,-0.77931 1.04953,-1.37306 0,-0.44172 -0.22311,-0.5029 -1.91823,-0.52603 -1.05502,-0.0144 -2.57307,-0.12538 -3.37343,-0.24666 -1.08079,-0.16376 -0.75742,-0.18561 1.25677,-0.0849 2.33529,0.11675 2.71198,0.0784 2.71198,-0.27595 0,-0.33243 -0.13046,-0.36194 -0.67869,-0.1535 -0.37327,0.14192 -0.87929,0.25007 -1.12447,0.24033 -0.24519,-0.01 0.0344,-0.16813 0.62124,-0.352 1.15176,-0.36084 4.09233,-2.13897 4.09233,-2.47458 0,-0.11277 -0.77879,-0.42807 -1.73065,-0.70067 -1.73065,-0.49564 -1.73065,-0.49564 -2.38979,0.1236 -0.9248,0.8688 -3.77965,1.07751 -4.52625,0.33091 -0.49371,-0.49371 -0.53973,-0.48548 -2.60867,0.46614 -2.10609,0.96871 -2.10609,0.96871 0.37025,1.76223 2.12338,0.68041 2.35908,0.81073 1.65365,0.91426 -0.45249,0.0664 -0.8227,0.0309 -0.8227,-0.079 0,-0.10986 -0.68461,-0.44902 -1.52136,-0.75369 -3.12798,-1.13893 -3.39798,-1.32803 -5.25161,-3.67817 -1.96035,-2.48544 -2.14991,-3.07739 -2.20054,-6.87166 -0.0425,-3.18287 -1.87821,-0.99235 -2.39986,2.86367 -1.56258,11.55054 -1.62727,12.28679 -1.84499,20.99976 -0.2054,8.21982 -0.18962,8.79883 0.25338,9.29503 0.25984,0.29104 0.5591,0.94589 0.66503,1.45521 0.10593,0.50932 0.54095,1.69868 0.96672,2.64301 0.88982,1.97357 0.95865,3.77001 0.15031,3.92337 -0.31921,0.0606 -0.58842,-0.19026 -0.84954,-0.79147 -0.54242,-1.24891 -0.49052,-0.69676 0.1486,1.58093 0.93672,3.33827 -0.0945,3.29915 -3.62401,-0.13747 -2.85175,-2.77673 -3.69429,-4.66304 -3.02733,-6.77777 0.3341,-1.05933 0.41949,-2.20966 0.26838,-3.6156 -0.12365,-1.15038 0.5334,-11.37167 0.95244,-14.81667 0.43553,-3.58048 0.54124,-4.11953 2.3608,-12.03854 1.14328,-4.97577 1.1975,-5.38152 0.90824,-6.79689 -0.16919,-0.82788 -0.23452,-1.79652 -0.14516,-2.15254 0.10117,-0.40309 0.024,-0.76223 -0.20454,-0.9519 -0.68969,-0.5724 0.1845,-2.41895 1.45661,-3.07678 2.25082,-1.16395 4.13278,-0.15169 4.39227,2.36248 0.15196,1.47241 0.48868,1.91943 0.77168,1.02448 0.93117,-2.94463 3.1028,-4.90578 6.37647,-5.75847 1.8447,-0.48048 2.19048,-0.80191 2.37962,-2.21205 0.13903,-1.03656 0.0723,-1.17729 -1.19226,-2.51437 -3.49765,-3.69826 -0.96301,-9.45502 3.87121,-8.79241 5.20581,0.71353 5.72749,7.90605 0.70515,9.72215 -0.87558,0.31661 -0.92613,0.40129 -0.92613,1.55119 0,1.2163 0,1.2163 2.33348,1.51084 3.16642,0.39968 4.03571,0.81406 5.3922,2.57042 1.41493,1.83204 1.59343,1.83115 2.34136,-0.0116 0.47872,-1.17949 0.78641,-1.56335 1.48817,-1.85657 2.01169,-0.84053 5.15742,1.11691 4.3174,2.68651 -0.24677,0.46109 -0.25072,0.81609 -0.017,1.52434 0.25378,0.76897 0.22729,1.08559 -0.15851,1.89463 -0.46321,0.97136 -0.46321,0.97136 0.7774,4.59479 2.56085,7.47943 3.61878,12.86147 3.62864,18.46019 0.003,1.61178 0.19217,4.23116 0.42073,5.82084 0.26786,1.86306 0.35633,3.60881 0.24893,4.91187 -0.12637,1.53304 -0.0669,2.26014 0.2459,3.00888 1.29002,3.08744 -1.48422,7.83382 -5.39498,9.23017 -1.51103,0.53951 -1.58372,0.97002 -0.90921,5.38472 0.17181,1.12448 0.17181,1.12448 -1.25209,1.07678 -1.4239,-0.0477 -1.4239,-0.0477 -0.1372,-0.14801 1.27965,-0.0998 1.28581,-0.10476 1.12448,-0.91142 -0.0892,-0.44611 -0.16222,-0.92587 -0.16222,-1.06613 0,-0.14027 -0.36633,0.0532 -0.81405,0.42994 -2.3491,1.97664 -5.81141,9.4e-4 -5.75467,-3.28377 0.0128,-0.7405 0.0626,-0.64619 0.24857,0.4707 0.3923,2.35589 1.39749,3.39362 2.3574,2.43372 0.59894,-0.59895 2.33984,-0.71733 2.86251,-0.19465 0.52353,0.52353 0.82699,-0.23623 0.8316,-2.08206 0.003,-1.12229 -0.11809,-1.72262 -0.39282,-1.95063 -0.21828,-0.18115 -0.39688,-0.67198 -0.39688,-1.09073 0,-0.49601 -0.13655,-0.76135 -0.39183,-0.76135 -0.58123,0 -0.77322,-1.18738 -0.40476,-2.50338 0.39965,-1.42743 0.19041,-1.89134 -0.60256,-1.33591 -0.69017,0.48341 -1.63533,0.49431 -2.70189,0.0311 -0.73223,-0.31797 -0.8584,-0.28866 -1.62801,0.37822 -0.45884,0.39759 -0.99462,0.77986 -1.19062,0.84949 -0.26364,0.0936 -0.18907,0.30857 0.28658,0.82595 0.6034,0.65636 0.63929,0.86603 0.58367,3.40974 -0.0732,3.34778 -0.15289,3.6201 -1.11561,3.81264 -1.15857,0.23172 -1.05046,1.31515 0.22936,2.29851 0.95205,0.73151 1.05647,0.75079 3.3638,0.62123 1.6962,-0.0952 2.03872,-0.0707 1.19062,0.0853 -2.32711,0.42814 -3.5986,0.31293 -4.44966,-0.40319 -1.08485,-0.91284 -1.32402,-0.83637 -1.44826,0.46302 -0.0591,0.61847 -0.0535,-0.95911 0.0125,-3.50573 0.0792,-3.05492 0.27589,-5.30532 0.57822,-6.61458 1.04876,-4.54162 0.67266,-16.45135 -0.66503,-21.0592 -0.62576,-2.1555 -0.77579,-2.2649 -2.48592,-1.81283 -2.55614,0.67573 -5.21273,0.0429 -6.12626,-1.45924 -0.41261,-0.67849 -0.60226,-0.80336 -0.84513,-0.55648 -0.24199,0.24599 -0.15247,0.45753 0.39397,0.93104 0.7071,0.61273 0.7071,0.61273 0.26458,1.76753 -0.61724,1.61077 -0.56439,13.77784 0.0677,15.59325 0.22445,0.64458 0.40982,1.91255 0.41194,2.81771 0.003,1.30052 0.17053,1.97373 0.79847,3.20945 1.20506,2.37139 1.87635,12.74503 0.89515,13.83305 -0.3748,0.41561 -0.49914,0.95803 -0.49914,2.17742 0,1.62393 0,1.62393 -1.05834,2.14748 -1.10432,0.54631 -6.6493,0.95031 -7.0776,0.51567 z m 6.94531,-5.01186 c 0,-0.22042 -0.38695,-0.82181 -0.85989,-1.33642 -1.69036,-1.83931 -4.83253,-1.43998 -5.34172,0.67885 -0.1462,0.60837 -0.13199,0.62085 0.17706,0.15551 0.81409,-1.22582 1.2523,-1.47843 2.56467,-1.47843 1.39761,0 2.7327,0.81137 3.0667,1.86371 0.19576,0.61679 0.39318,0.67543 0.39318,0.11678 z m -2.24895,-5.15549 c 0,-0.46731 -1.90091,-0.71846 -2.31369,-0.30569 -0.48551,0.48551 0.10098,0.86381 1.21349,0.78274 0.76593,-0.0558 1.1002,-0.20075 1.1002,-0.47705 z m 18.50594,0.36598 c 0.32916,-0.12631 0.35663,-0.2459 0.12154,-0.52917 -0.45656,-0.55012 -1.92982,-0.45348 -2.4879,0.16319 -0.47226,0.52184 -0.46213,0.52917 0.7311,0.52917 0.6655,0 1.40137,-0.0734 1.63526,-0.16319 z m -21.01949,-0.76285 c 0.44916,-0.5412 2.09103,-0.50209 2.71736,0.0647 0.48966,0.44314 0.53542,0.42991 1.144,-0.33072 0.57613,-0.72009 0.63405,-1.04039 0.63525,-3.51281 8.3e-4,-1.73322 0.13602,-3.04289 0.37251,-3.60889 0.50374,-1.20561 -0.78204,-3.01333 -1.77895,-2.5011 -0.47526,0.2442 -0.51849,0.23477 -0.2459,-0.0536 0.4899,-0.51827 0.41301,-0.71708 -0.44988,-1.1633 -1.02205,-0.52853 -1.41276,-0.50928 -2.16664,0.10672 -0.802,0.65532 -0.42362,1.09923 1.15606,1.35624 1.11214,0.18094 1.1152,0.18432 0.19642,0.21692 -0.51332,0.0182 -1.20797,-0.15925 -1.54365,-0.39438 -1.17127,-0.82038 -1.69696,0.90749 -1.63921,5.38782 0.0523,4.05379 0.61809,5.61869 1.60263,4.43239 z m 14.76534,-0.99649 c 0.55832,-0.67273 0.47514,-5.9725 -0.10034,-6.3933 -0.27992,-0.20468 -0.56149,-0.31962 -0.6257,-0.25541 -0.0642,0.0642 0.14396,0.29935 0.4626,0.52254 0.31865,0.22318 0.57935,0.5266 0.57935,0.67427 0,0.14766 -0.19475,0.0737 -0.43278,-0.16431 -0.71814,-0.71814 -0.94304,-0.0957 -1.09066,3.01867 -0.13325,2.81135 -0.11691,2.93257 0.39525,2.93257 0.29383,0 0.65935,-0.15076 0.81228,-0.33503 z m -8.50775,-2.55347 c -0.19173,-2.92564 -0.37614,-3.71767 -0.7341,-3.15296 -0.43215,0.68173 -0.27324,4.76339 0.20606,5.29302 0.68401,0.75582 0.71073,0.64756 0.52804,-2.14006 z m -13.34315,1.94837 c 0.0805,-0.0805 -0.0762,-1.00325 -0.34824,-2.05052 -0.27205,-1.04728 -0.49301,-2.38039 -0.49103,-2.96248 0.004,-1.05833 0.004,-1.05833 0.59078,0.37697 0.73011,1.78467 1.24864,2.04713 1.24864,0.63202 0,-0.60684 -0.34806,-1.74361 -0.8599,-2.80847 -0.84621,-1.76052 -0.86936,-1.78229 -1.45521,-1.36881 -0.38856,0.27425 -0.60597,0.7136 -0.626,1.26507 -0.0177,0.48748 -0.0836,0.64017 -0.15572,0.36094 -0.20862,-0.80749 0.13845,-1.65822 0.79935,-1.95934 0.78421,-0.35731 0.68197,-1.72662 -0.17366,-2.32593 -0.86753,-0.60764 -3.13008,-0.50677 -4.00111,0.17838 -0.72277,0.56854 -0.72277,0.56854 0.12974,1.23573 1.6357,1.28013 2.46085,4.74915 1.40671,5.91396 -0.41057,0.45368 -0.40434,0.48386 0.0999,0.48386 0.73161,0 1.19546,-0.6267 1.43675,-1.94113 0.19184,-1.04504 0.19688,-1.03239 0.0982,0.24639 -0.0785,1.01713 0.0528,1.69899 0.53467,2.77813 0.40983,0.91774 0.47472,1.20279 0.1811,0.79557 -0.25165,-0.34902 -0.57661,-0.96536 -0.72213,-1.36965 -0.24077,-0.66889 -0.3193,-0.7056 -0.87236,-0.40777 -0.6021,0.32423 -0.59421,0.34013 0.84406,1.70037 1.34302,1.27018 1.96518,1.59697 2.33544,1.22671 z m 32.02711,-3.49997 c 1.8151,-0.97286 1.95208,-1.22314 1.02914,-1.88034 -0.77417,-0.55125 -0.77417,-0.55125 -1.10438,0.24596 -0.18162,0.43846 -0.82045,1.21879 -1.41962,1.73407 -1.27826,1.09928 -0.66593,1.05844 1.49486,-0.0997 z m -1.91755,0.0708 c 1.30086,-0.9015 2.20523,-2.52284 1.86727,-3.34759 -0.13918,-0.33964 -0.32685,-1.18165 -0.41706,-1.87114 -0.29924,-2.28713 -1.441,-2.72662 -2.09525,-0.80649 -0.23373,0.68595 -0.73009,1.68749 -1.10303,2.22564 -0.70996,1.02446 -0.807,2.4803 -0.16533,2.4803 0.18744,0 0.60416,-0.4647 0.92604,-1.03265 0.32188,-0.56796 0.7043,-1.00696 0.84982,-0.97555 0.45326,0.0978 0.14814,1.16895 -0.53657,1.88363 -0.59294,0.6189 -0.92489,2.10894 -0.46984,2.10894 0.10132,0 0.6161,-0.29929 1.14395,-0.66509 z m -33.92362,-1.36967 c 0.17807,-2.44971 -1.61546,-5.64977 -2.4935,-4.44897 -0.51654,0.70641 -0.46677,0.86137 0.42471,1.32237 0.96464,0.49884 1.2349,1.4248 0.82003,2.80952 -0.36213,1.20868 -0.19873,1.62059 0.59783,1.50708 0.46452,-0.0662 0.5853,-0.287 0.65093,-1.19 z m -1.37794,-0.78655 c 0.18926,-1.00884 -0.0235,-1.583 -0.75816,-2.04644 -0.68198,-0.43018 -0.74292,-0.10514 -0.28324,1.51074 0.49655,1.74547 0.78647,1.89461 1.0414,0.5357 z m 39.0466,-0.1723 c -1.2638,-1.34526 -0.0539,-6.00222 1.5594,-6.00222 0.56538,0 0.58324,-0.0335 0.34679,-0.64961 -0.5609,-1.46169 -3.24062,-1.59563 -4.49631,-0.22473 -1.02648,1.12066 -1.10794,1.53582 -0.37799,1.92648 0.54809,0.29332 1.06597,1.75194 1.06843,3.00921 9.9e-4,0.50351 0.30038,1.05297 0.90106,1.65365 1.00899,1.00899 1.9239,1.27213 0.99862,0.28722 z m 1.1091,-0.31682 c 0.0844,-0.22 0.0227,-0.68714 -0.13723,-1.03808 -0.45807,-1.00535 -0.0584,-2.41499 0.89651,-3.16235 0.83649,-0.65465 0.83649,-0.65465 0.0979,-0.99117 -0.67119,-0.30581 -0.78219,-0.2787 -1.21656,0.29716 -0.97043,1.28653 -1.42022,4.29968 -0.74294,4.97695 0.43461,0.43462 0.91774,0.39845 1.1023,-0.0825 z m 1.06501,-1.98659 c 0.52189,-1.30433 0.54526,-2.11131 0.0611,-2.11131 -0.74707,0 -1.49251,1.82652 -1.13047,2.76996 0.26095,0.68002 0.62292,0.45707 1.06935,-0.65865 z m -12.95377,-0.33468 c 0.20842,-0.32231 0.45726,-0.90467 0.55296,-1.29414 0.26472,-1.07732 1.07721,-1.66698 2.25437,-1.63611 1.02526,0.0269 1.02526,0.0269 0.63248,-0.73267 -0.31731,-0.61362 -0.58209,-0.76768 -1.37817,-0.80189 -0.98539,-0.0423 -0.98539,-0.0423 -0.0962,-0.15124 0.83513,-0.10227 0.87936,-0.158 0.72761,-0.91677 -0.0889,-0.44433 -0.16158,-0.97159 -0.16158,-1.17168 0,-0.20009 -0.20836,-0.3732 -0.46302,-0.38469 -0.2766,-0.0125 -0.32987,-0.0746 -0.13229,-0.15434 0.91766,-0.37028 0.2593,-2.11019 -0.86076,-2.27479 -0.79289,-0.11653 -0.79289,-0.11653 0.079,-0.15617 0.85847,-0.039 0.86913,-0.0549 0.69251,-1.03183 -0.23007,-1.27254 -0.12107,-1.20889 -1.69857,-0.99193 -1.45098,0.19956 -1.74571,0.51646 -1.47682,1.58783 0.12245,0.48786 0.35504,0.67125 0.88843,0.70051 0.72257,0.0396 0.72257,0.0396 -0.005,0.14987 -0.66776,0.10116 -0.7276,0.20669 -0.7276,1.28327 0,0.92911 0.0963,1.17944 0.46302,1.20375 0.44075,0.0292 0.44076,0.0365 1.8e-4,0.15165 -0.49289,0.12882 -0.83472,1.05134 -0.68248,1.84187 0.0745,0.38699 0.31952,0.46844 1.2802,0.42562 1.30754,-0.0583 1.18568,0.0648 -0.31139,0.3145 -1.14904,0.19165 -1.45237,1.17745 -1.13757,3.69704 0.19872,1.59048 0.68467,1.69707 1.56075,0.34234 z m 7.60918,-3.95893 c 0.79145,-1.24655 0.79517,-1.27005 0.48112,-3.04271 -0.17407,-0.98255 -0.41738,-5.17973 -0.5407,-9.32708 -0.23018,-7.74084 -0.44102,-9.71423 -1.86579,-17.4625 -0.80139,-4.35817 -1.14997,-5.2429 -1.94541,-4.93766 -0.33875,0.12999 -0.38428,0.38405 -0.23175,1.29295 0.39845,2.37421 0.25001,4.23844 -0.44603,5.60183 -0.65655,1.28604 -4.71286,5.64973 -6.19903,6.66877 -0.87748,0.60168 -0.74874,1.1637 0.26656,1.1637 0.55144,0 0.627,0.0952 0.49453,0.62298 -0.14916,0.59429 -0.0795,0.62995 1.51128,0.7742 2.03437,0.18447 2.75718,0.8281 2.41678,2.15203 -0.67102,2.60984 0.91042,14.32834 2.307,17.09496 0.42218,0.83633 0.91385,2.0997 1.09261,2.80749 0.325,1.28688 0.325,1.28688 1.09311,-0.43291 0.42247,-0.94589 1.12704,-2.28511 1.56572,-2.97605 z m -19.39582,0.40533 c -0.17787,-0.33236 -0.57118,-0.61809 -0.87401,-0.63497 -0.44665,-0.0249 -0.46319,-0.0535 -0.0876,-0.1517 0.35302,-0.0922 0.46302,-0.39925 0.46302,-1.29222 0,-1.17123 0,-1.17123 -1.98437,-1.17123 -1.98438,0 -1.98438,0 -1.98438,1.05834 0,0.96854 0.0617,1.06169 0.72761,1.09797 0.7276,0.0396 0.7276,0.0396 0.0464,0.1454 -0.79335,0.12315 -1.8323,1.97255 -1.8323,3.26162 0,1.0774 0.30331,0.97583 0.89122,-0.29843 1.01614,-2.20242 2.88576,-1.97731 4.09308,0.49284 0.70424,1.44085 0.70424,1.44085 0.7845,-0.23125 0.0465,-0.96836 -0.0558,-1.92641 -0.24315,-2.27637 z m 15.89937,3.37069 c 0.63183,-0.63183 0.41688,-1.46108 -0.56963,-2.19762 -0.87226,-0.65123 -1.96188,-0.37261 -2.48288,0.6349 -0.43309,0.8375 -0.25974,0.9545 0.52962,0.35746 0.7187,-0.5436 1.56853,-0.48381 2.30137,0.16191 0.62462,0.55036 0.62462,0.55036 -0.0296,0.13229 -0.89772,-0.57372 -1.65317,-0.52413 -2.53065,0.16609 -0.74265,0.58417 -0.74265,0.58417 0.0305,0.91411 1.13796,0.48564 2.15928,0.42285 2.75127,-0.16914 z m -18.72618,-1.59209 c 0.18913,8.9e-4 0.689,0.18162 1.11083,0.40161 1.07384,0.56 1.16014,0.29253 0.21165,-0.65595 -0.95857,-0.95858 -1.62129,-1.01793 -2.34834,-0.21031 -0.97862,1.08706 -1.01538,1.34076 -0.12774,0.88175 0.44535,-0.2303 0.96447,-0.418 1.1536,-0.4171 z m -11.79144,-1.32451 c 1.46394,0 1.30231,-0.45267 -0.25167,-0.70485 -0.67031,-0.10878 -1.17,-0.0216 -1.63925,0.28581 -0.77031,0.50473 -0.65246,1.10539 0.13427,0.68434 0.27264,-0.14591 1.06313,-0.2653 1.75665,-0.2653 z m -0.69698,-0.89621 c 0.50932,-0.0125 1.17848,0.0681 1.48702,0.17909 0.51701,0.186 0.57177,0.0924 0.69862,-1.19417 0.17185,-1.74302 0.27815,-1.66058 -2.14109,-1.66058 -2.02893,0 -2.02893,0 -2.10931,1.55593 -0.0786,1.52134 -0.0668,1.55134 0.52917,1.34919 0.33525,-0.11371 1.02626,-0.21697 1.53559,-0.22946 z m 39.4207,-1.75659 c -0.44356,-0.28042 -2.37883,-0.34262 -3.01886,-0.097 -0.75099,0.28819 -0.44069,0.5169 0.57368,0.42283 0.5457,-0.0506 1.28984,0.0231 1.65364,0.1638 0.78302,0.30284 1.42089,-0.0917 0.79154,-0.48961 z m 0.47906,-1.81262 c 0.0779,-1.32022 0.0607,-1.35635 -0.66146,-1.39144 -0.62397,-0.0303 -0.64712,-0.0542 -0.14612,-0.1507 0.46957,-0.0904 0.59455,-0.29241 0.5917,-0.95615 -0.008,-1.85612 -0.16779,-2.02726 -1.94547,-2.0831 -1.62279,-0.051 -1.62279,-0.051 0.0404,-0.14517 1.7449,-0.0988 1.8722,-0.34453 1.23489,-2.38354 -0.10924,-0.34948 -2.39997,-0.457 -3.49342,-0.16397 -0.7942,0.21284 -0.91461,2.72925 -0.1323,2.76455 0.27661,0.0125 0.32987,0.0746 0.1323,0.15434 -0.20758,0.0838 -0.33073,0.66827 -0.33073,1.56973 0,1.43629 0,1.43629 1.12448,1.30593 0.93164,-0.108 0.9844,-0.0931 0.30763,0.087 -1.49416,0.39748 -1.52618,0.47392 -1.01351,2.41934 0.083,0.31478 0.53344,0.39059 2.15822,0.36323 2.05339,-0.0346 2.05339,-0.0346 2.13336,-1.39 z m -37.57083,-0.62781 c -0.08,-1.38906 -0.08,-1.38906 -2.10424,-1.46586 -2.02427,-0.0768 -2.02427,-0.0768 -2.11667,1.24672 -0.0924,1.32353 -0.0924,1.32353 1.75968,1.4133 1.01865,0.0494 2.00714,0.11342 2.19664,0.14233 0.2543,0.0388 0.32361,-0.31131 0.26459,-1.33649 z m 12.48773,-0.0661 c 0,-1.19063 0,-1.19063 -1.85208,-1.19063 -1.85208,0 -1.85208,0 -1.85208,1.19063 0,1.19062 0,1.19062 1.85208,1.19062 1.85208,0 1.85208,0 1.85208,-1.19062 z m -12.54271,-3.99902 c -0.0967,-0.252 -0.60364,-0.36661 -1.62159,-0.36661 -2.0337,0 -2.50445,0.29805 -2.50445,1.58568 0,1.0379 0,1.0379 2.05052,1.11517 2.05052,0.0773 2.05052,0.0773 2.13336,-0.94518 0.0456,-0.56235 0.0195,-1.18743 -0.0578,-1.38906 z m 12.38711,1.88368 c -0.0911,-0.36307 -0.18269,-1.2858 -0.20347,-2.05052 -0.0378,-1.39039 -0.0378,-1.39039 -1.33512,-1.47269 -1.38782,-0.088 -1.73416,0.15198 -1.74134,1.20678 -0.003,0.4654 0.15473,0.60317 0.72355,0.63134 0.7151,0.0354 0.71624,0.0381 0.0662,0.15897 -0.79809,0.14832 -1.04891,0.49536 -1.05428,1.45864 -0.004,0.72503 0.002,0.72761 1.85307,0.72761 1.84782,0 1.8563,-0.003 1.69145,-0.66013 z m 12.92175,-1.62636 c 1.62919,-0.26929 1.33846,-1.94685 -0.3374,-1.94685 -1.5384,0 -1.75174,0.15681 -1.63016,1.19821 0.11551,0.98941 0.23525,1.03497 1.96756,0.74864 z M 117.25856,202.232 c 6.4e-4,-1.15493 -0.20459,-1.31555 -2.24834,-1.75966 -0.29104,-0.0633 -0.11245,-0.0816 0.39687,-0.0408 0.50933,0.0408 1.1344,0.15818 1.38907,0.26084 0.39537,0.1594 0.46302,0.0305 0.46302,-0.88239 0,-0.96315 -0.0721,-1.07999 -0.72761,-1.17929 -0.66438,-0.10065 -0.65143,-0.11367 0.14906,-0.14987 0.82292,-0.0372 0.87157,-0.0923 0.79375,-0.89892 -0.0806,-0.83582 -0.12986,-0.86766 -1.8027,-1.16657 -0.94589,-0.169 -1.73377,-0.28835 -1.75084,-0.2652 -0.0171,0.0232 -0.11177,0.48857 -0.21043,1.03428 -0.17938,0.99218 -0.17938,0.99218 0.95709,1.03841 1.13647,0.0462 1.13647,0.0462 0.012,0.1475 -0.83819,0.0755 -1.1254,0.21529 -1.12809,0.54909 -0.002,0.2463 -0.0754,0.7157 -0.16315,1.04312 -0.12336,0.46031 -0.0475,0.59714 0.33434,0.60336 0.46216,0.008 0.46414,0.0254 0.0309,0.27773 -0.32461,0.18907 -0.46309,0.60189 -0.46324,1.38102 -2.1e-4,1.11133 -2.1e-4,1.11133 1.98377,1.11133 1.98398,0 1.98398,0 1.98459,-1.10396 z m 12.17145,-1.27729 c 0,-0.92604 0,-0.92604 -1.45521,-0.92604 -1.45521,0 -1.45521,0 -1.45521,0.92604 0,0.92604 0,0.92604 1.45521,0.92604 1.45521,0 1.45521,0 1.45521,-0.92604 z m 13.70895,-0.0661 c 0.0778,-0.8073 0.0293,-0.86232 -0.79375,-0.89954 -0.80049,-0.0362 -0.81344,-0.0492 -0.14905,-0.14986 0.6683,-0.10124 0.7276,-0.20623 0.7276,-1.28832 0,-1.14357 -0.0213,-1.17388 -0.7276,-1.03467 -0.64437,0.12701 -0.66148,0.11416 -0.14959,-0.11233 0.79956,-0.35377 1.1872,-1.18783 1.09093,-2.34731 -0.0812,-0.97847 -0.0848,-0.98118 -1.40437,-1.05543 -2.67486,-0.15051 -3.90108,3.27838 -1.31419,3.67492 0.99521,0.15255 1.00504,0.16284 0.18972,0.19844 -1.2823,0.056 -1.22743,1.90201 0.0662,2.2252 0.46215,0.11546 0.45019,0.13609 -0.0944,0.1629 -0.45415,0.0224 -0.57998,0.14442 -0.46302,0.44921 0.0883,0.23018 0.16059,0.59359 0.16059,0.80757 0,0.30311 0.30687,0.3714 1.38907,0.30909 1.35458,-0.078 1.39112,-0.10131 1.47197,-0.93987 z m 9.37595,-0.0625 c 1.52135,-0.004 1.52135,-0.004 1.52135,-1.19424 0,-1.19062 0,-1.19062 -1.9513,-1.19062 -1.9513,0 -1.9513,0 -2.11667,0.82682 -0.31107,1.55533 -0.22574,1.89691 0.42995,1.72119 0.32742,-0.0877 1.27992,-0.16116 2.11667,-0.16315 z m -23.01102,-1.92184 c 0.1681,-1.07918 0.0759,-1.16266 -1.46294,-1.32432 -1.25677,-0.13203 -1.25677,-0.13203 -1.25677,1.02609 0,1.15812 0,1.15812 1.29288,1.15812 1.25478,0 1.29684,-0.0253 1.42683,-0.85989 z m 24.44022,-2.51366 c -0.0928,-0.98227 -0.16952,-2.11336 -0.17055,-2.51354 -0.002,-0.71059 -0.0406,-0.72878 -1.65553,-0.77764 -1.65365,-0.05 -1.65365,-0.05 -0.10584,-0.14628 1.54782,-0.0963 1.54782,-0.0963 1.41648,-1.07445 -0.41891,-3.12015 -0.61476,-3.71957 -1.18755,-3.63483 -0.2496,0.0369 -0.29126,0.0133 -0.0926,-0.0525 0.32747,-0.10842 0.28994,-1.75501 -0.0477,-2.09264 -0.0989,-0.099 -3.0993,0.60902 -3.23266,0.76278 -0.0335,0.0386 -0.001,0.4623 0.0718,0.94154 0.13164,0.86477 0.1419,0.87036 1.3577,0.73915 1.22506,-0.1322 1.22506,-0.1322 0.0236,0.13936 -1.17123,0.26472 -1.19881,0.2944 -1.09553,1.17908 0.1027,0.8797 0.1436,0.90898 1.33377,0.95521 1.22783,0.0477 1.22783,0.0477 -0.0513,0.1477 -1.0141,0.0793 -1.24711,0.18355 -1.12448,0.50312 0.0851,0.22171 0.15469,0.69102 0.15469,1.04292 0,0.43142 0.15081,0.64114 0.46302,0.64387 0.33633,0.003 0.37111,0.0624 0.12711,0.21726 -0.25241,0.1602 -0.29203,0.78403 -0.1594,2.50949 0.1765,2.29628 0.1765,2.29628 2.1601,2.29628 1.98361,0 1.98361,0 1.81494,-1.78593 z m -23.92524,-0.006 c 0.27982,-1.08617 -0.79541,-2.7062 -1.79613,-2.7062 -1.1482,0 -2.07088,1.08701 -1.86304,2.19486 0.22361,1.19194 0.74638,1.5253 2.26104,1.4418 1.08551,-0.0599 1.19212,-0.1308 1.39813,-0.93046 z m -12.50932,-1.18485 c -0.0298,-0.61846 0.0115,-1.30307 0.0917,-1.52135 0.39171,-1.06575 0.46504,-2.38138 0.13294,-2.3853 -0.27844,-0.003 -0.27893,-0.0445 -0.003,-0.21985 0.50789,-0.32225 0.75322,-2.15519 0.28983,-2.1654 -0.25054,-0.006 -0.21985,-0.0928 0.0977,-0.27773 0.2994,-0.17438 0.46302,-0.59228 0.46302,-1.18258 0,-0.68664 -0.11475,-0.91705 -0.46302,-0.92966 -0.35475,-0.0129 -0.32382,-0.0727 0.13229,-0.25606 0.38482,-0.15468 0.59532,-0.46313 0.59532,-0.87234 0,-0.34818 0.0733,-1.16782 0.16288,-1.82142 0.15708,-1.14606 0.13589,-1.19381 -0.59531,-1.34132 -0.41701,-0.0841 -0.95037,-0.22735 -1.18525,-0.31827 -0.51438,-0.19914 -0.96614,1.42705 -0.47991,1.72755 0.18937,0.11704 0.14459,0.2349 -0.12919,0.33996 -0.74672,0.28655 -0.53275,1.67652 0.30855,2.00434 0.71553,0.27881 0.71329,0.28102 -0.1346,0.13281 -0.79519,-0.13899 -0.87478,-0.0878 -1.02399,0.65821 -0.24143,1.20714 -0.2483,1.19489 0.85807,1.52891 0.56547,0.17072 0.82751,0.31955 0.58232,0.33073 -0.24518,0.0112 -0.74488,-0.0934 -1.11042,-0.23236 -0.53663,-0.20402 -0.68877,-0.16581 -0.78998,0.19844 -0.0689,0.24812 -0.20063,0.71358 -0.29263,1.03436 -0.14656,0.51097 -0.01,0.63448 1.10348,0.99702 0.72052,0.23462 0.92707,0.36244 0.47702,0.2952 -0.43657,-0.0652 -0.99387,-0.19605 -1.23846,-0.2907 -0.3466,-0.13414 -0.50679,0.0515 -0.72613,0.84136 -0.41278,1.48653 -0.36898,1.63332 0.57552,1.92891 0.8599,0.2691 0.8599,0.2691 -0.14739,0.12503 -1.00729,-0.14407 -1.00729,-0.14407 -0.92604,1.12752 0.0783,1.22491 0.11524,1.2776 1.00729,1.4352 2.28432,0.40358 2.42684,0.34993 2.36704,-0.89121 z m 19.63172,0.0234 c 0.86779,-0.26 1.00193,-0.39426 0.85946,-0.86027 -0.34123,-1.11615 -0.60676,-1.21365 -3.30535,-1.21365 -2.50319,0 -2.62501,0.027 -3.04964,0.67504 -1.01256,1.54537 2.24174,2.37374 5.49553,1.39888 z m 2.87076,-1.34631 c 0.003,-0.45517 -0.81186,-0.15018 -1.20602,0.45138 -0.66026,1.00769 -0.1585,1.45073 0.58734,0.51861 0.33955,-0.42436 0.61796,-0.86085 0.61868,-0.96999 z m -11.13487,-4.64561 c 2.30849,-1.14852 1.30547,-1.9043 -1.13751,-0.85712 -0.69516,0.29798 -1.46242,0.53749 -1.70501,0.53224 -0.51848,-0.0112 2.14657,-1.05164 3.17165,-1.23819 1.12843,-0.20537 1.15424,-1.78317 0.0478,-2.91976 -0.83742,-0.8602 -0.83742,-0.8602 -2.84427,0.63875 -2.3444,1.75107 -2.36311,1.82473 -0.86158,3.39181 1.3271,1.38504 1.42686,1.39859 3.32896,0.45227 z m 7.14654,-0.64996 c 1.47164,-0.75086 1.0046,-1.06462 -1.3971,-0.93856 -2.47247,0.12977 -2.80194,0.25485 -2.29148,0.86992 0.41283,0.49743 2.76248,0.54115 3.68858,0.0686 z m 4.33615,-1.14585 c -1.08749,-0.22043 -1.63874,-0.22943 -1.8845,-0.0308 -0.27584,0.22296 -0.31207,0.14013 -0.17594,-0.40225 0.25742,-1.02562 -0.23372,-1.7395 -1.12097,-1.62935 -0.46612,0.0579 -0.36217,-0.0156 0.28284,-0.20001 0.82132,-0.23476 1.11393,-0.50171 1.50333,-1.37145 0.59102,-1.32009 0.57263,-1.35221 -1.09105,-1.9048 -3.33014,-1.10609 -9.6764,0.71199 -8.72043,2.49824 0.4452,0.83187 1.26383,1.14395 3.5757,1.36317 2.12514,0.20152 2.12514,0.20152 -0.12382,0.15827 -2.24896,-0.0433 -2.24896,-0.0433 -2.32907,0.91527 -0.10321,1.23491 0.36334,1.4249 2.10231,0.85611 1.6308,-0.53341 4.63199,-0.3625 6.97363,0.39712 1.46337,0.47471 1.62495,0.48163 2.06631,0.0885 0.44987,-0.4007 0.38593,-0.44529 -1.05834,-0.73803 z m 2.79415,-0.99764 c 0.86322,-0.89061 0.86322,-0.89061 -0.41111,-1.81113 -1.56439,-1.13004 -2.9527,-1.94073 -3.05214,-1.78226 -1.45859,2.32443 -1.49774,3.79382 -0.11178,4.19542 1.73739,0.50343 2.65304,0.34924 3.57503,-0.60203 z m -17.31369,-0.92833 c 0.92553,-0.70938 2.41171,-1.7397 3.30263,-2.28961 1.70945,-1.05513 1.68874,-1.00223 1.05548,-2.69541 -0.20517,-0.54857 -0.40278,-0.5911 -3.07352,-0.66146 -2.85427,-0.0752 -2.85427,-0.0752 -2.92754,-1.39811 -0.17512,-3.1619 0.42193,-3.88465 3.54274,-4.28858 1.61739,-0.20934 1.61739,-0.20934 0.18024,-1.37849 -2.13029,-1.73303 -3.0112,-1.21755 -4.79658,2.80681 -1.14507,2.58107 -1.17755,8.52914 -0.055,10.07872 0.98655,1.3619 0.74838,1.37684 2.77159,-0.17387 z m 25.27213,0.46106 c 0.77664,-0.27074 0.84381,-0.37706 0.69818,-1.10519 -0.21065,-1.05326 -0.10357,-1.01498 -1.8274,-0.6534 -1.52915,0.32074 -1.74675,0.58647 -1.34261,1.63963 0.18949,0.49382 1.25009,0.54486 2.47183,0.11896 z m -6.17016,-2.21424 c 0.64359,-1.40577 0.65631,-1.5379 0.37264,-3.87095 -0.16154,-1.32852 -0.2367,-2.47249 -0.16704,-2.54215 0.0697,-0.0697 -0.10099,-0.7042 -0.37922,-1.41008 -0.33046,-0.83837 -0.41094,-1.34209 -0.23211,-1.45261 0.3842,-0.23745 -0.55907,-1.22984 -1.00596,-1.05835 -0.21004,0.0806 -0.84907,-0.504 -1.58051,-1.44588 -1.49831,-1.9294 -1.70396,-1.9413 -3.32196,-0.19212 -1.2849,1.38906 -1.2849,1.38906 0.97473,1.46548 2.16453,0.0732 2.27546,0.10707 2.63618,0.80462 0.66207,1.2803 1.10766,3.96162 0.72199,4.34446 -0.26711,0.26515 -0.29946,0.24212 -0.16312,-0.11612 0.18421,-0.48399 -0.29074,-3.11763 -0.74007,-4.10381 -0.32576,-0.71497 -1.3909,-0.7782 -6.01324,-0.35699 -1.52797,0.13923 -4.52035,0.39181 -6.64974,0.56127 -2.12939,0.16947 -3.99137,0.3833 -4.13773,0.47518 -0.4005,0.25141 -0.85105,2.12211 -0.85272,3.54049 -0.001,1.25677 -0.001,1.25677 2.88842,1.25677 2.8899,0 2.8899,0 3.20697,0.99219 0.44516,1.39304 0.54694,1.44863 1.82611,0.99731 0.62666,-0.2211 1.95094,-0.402 2.94283,-0.402 1.80344,0 1.80344,0 2.15773,-1.25677 0.35428,-1.25677 0.35428,-1.25677 2.72735,-1.27469 2.37307,-0.0179 2.37307,-0.0179 0.19388,0.0768 -2.35456,0.10233 -2.48796,0.18866 -2.79371,1.80785 -0.14688,0.77789 -0.0909,0.83567 1.48409,1.53144 0.9002,0.39768 2.35111,1.2444 3.22423,1.8816 2.00218,1.46117 1.89041,1.47172 2.67998,-0.25293 z m 5.47986,0.11203 c 0.92802,-0.25769 1.00093,-0.34356 0.84118,-0.99071 -0.24427,-0.98946 -0.52434,-1.20022 -1.15001,-0.86537 -0.2971,0.159 -0.91908,0.28909 -1.38218,0.28909 -0.74407,0 -0.82345,0.0692 -0.68247,0.59532 0.0877,0.32742 0.16117,0.74414 0.16315,0.92604 0.004,0.40429 0.85541,0.42186 2.21033,0.0456 z m -31.03975,-2.51025 c 0.40648,-1.06913 0.28041,-1.66949 -0.14493,-0.69016 -0.51271,1.18051 -1.20253,1.03011 -1.61933,-0.35306 -0.17506,-0.58092 -0.32744,-0.92228 -0.33862,-0.75857 -0.0112,0.16371 -0.092,0.65578 -0.1795,1.09348 -0.13961,0.69807 -0.0665,0.82955 0.59532,1.07051 1.16247,0.42325 1.40852,0.37043 1.68706,-0.3622 z m 30.80325,0.32488 c 0.51267,-0.37488 0.31346,-1.77129 -0.25042,-1.75542 -1.97474,0.0556 -2.54015,0.51336 -2.08836,1.69071 0.1995,0.51989 1.66099,0.56032 2.33878,0.0647 z m -31.20742,-0.96653 c 0.19998,-0.63008 -0.0209,-1.0607 -0.54403,-1.0607 -0.22303,0 -0.38126,0.25622 -0.38126,0.61736 0,1.03884 0.63909,1.34505 0.92529,0.44334 z m 30.86601,-1.22437 c 0.0955,-0.0558 0.10781,-0.35302 0.0274,-0.66051 -0.12689,-0.48525 -0.17775,-0.50268 -0.38518,-0.13203 -0.32632,0.5831 -0.93356,0.53656 -1.33243,-0.10212 -0.50468,-0.80813 -1.0437,-0.6791 -0.82894,0.19843 0.25967,1.06101 1.36983,1.36783 2.51915,0.69623 z m -29.14547,-0.49779 c 0.34177,-0.3638 0.766,-0.66146 0.94272,-0.66146 0.57678,0 0.75859,-1.90825 0.21938,-2.30253 -0.25822,-0.18882 -0.55191,-0.3433 -0.65264,-0.3433 -0.10074,0 -0.24954,-0.25385 -0.33068,-0.56411 -0.11598,-0.44353 -0.27811,-0.52692 -0.75846,-0.3901 -0.33602,0.0957 -1.17416,0.2468 -1.86253,0.33577 -1.46346,0.18914 -1.80547,0.98124 -1.27473,2.95227 0.43843,1.62819 2.57594,2.188 3.71694,0.97346 z m 28.08964,-1.78594 c 0.87719,-0.70839 1.32167,-2.49483 0.88233,-3.5463 -0.39222,-0.93872 -0.41689,-0.95088 -1.68316,-0.82921 -0.93447,0.0898 -1.57601,0.35727 -2.35131,0.98031 -1.0662,0.85683 -1.0662,0.85683 -0.64763,1.92242 0.23022,0.58607 0.60394,1.12115 0.8305,1.18906 0.22656,0.0679 0.59051,0.22694 0.8088,0.3534 0.5901,0.34188 1.69497,0.30625 2.16047,-0.0697 z m -26.86207,-3.0427 c -0.31552,-2.37054 -2.78053,-3.06402 -4.56132,-1.28323 -1.74865,1.74864 -0.97329,2.41281 2.01083,1.72245 1.06862,-0.24722 1.2313,-0.22045 1.5875,0.26118 0.7361,0.99529 1.14874,0.69517 0.96299,-0.7004 z m 14.7534,-0.84989 c 0.34629,-0.13166 1.01857,-0.78099 1.49395,-1.44296 0.47539,-0.66196 1.10605,-1.28029 1.40147,-1.37405 0.9711,-0.30821 -0.15762,-0.79206 -2.69674,-1.15601 -1.82705,-0.26188 -2.5562,-0.26684 -3.2967,-0.0225 -0.65898,0.21748 -1.10473,0.2314 -1.45238,0.0453 -0.3055,-0.1635 -0.5968,-0.17324 -0.74513,-0.0249 -0.13395,0.13394 -0.71773,0.35454 -1.2973,0.4902 -1.05377,0.24667 -1.05377,0.24667 0.079,0.27324 0.74413,0.0175 1.18503,0.16275 1.28508,0.42346 0.22743,0.59269 2.49961,0.5291 3.30114,-0.0924 0.34705,-0.26909 1.16678,-0.56149 1.82162,-0.64978 0.79168,-0.10673 1.01332,-0.082 0.66146,0.0738 -0.29104,0.12887 -0.80805,0.24268 -1.14889,0.2529 -0.34085,0.0102 -0.92246,0.25673 -1.29246,0.54777 -0.82993,0.65282 -3.01157,0.735 -3.51178,0.13229 -0.44438,-0.53545 -2.95706,-0.52316 -4.00663,0.0196 -0.80535,0.41646 -0.80535,0.41646 0.31857,1.38906 1.92778,1.66824 1.93451,1.67013 5.34447,1.50498 1.7114,-0.0829 3.39495,-0.25843 3.74123,-0.39008 z m 9.30991,-0.1423 c 0.50875,-0.54895 0.85718,-0.66146 2.04846,-0.66146 2.04879,0 2.38232,-0.49375 1.15953,-1.71655 -1.87692,-1.87691 -4.38371,-1.12251 -4.81834,1.45005 -0.28822,1.70596 0.47938,2.14829 1.61035,0.92796 z m -12.10846,-4.72622 c 0.0662,-0.33521 -0.1247,-0.43316 -0.84428,-0.43316 -1.08867,0 -1.50298,0.46577 -0.84335,0.9481 0.56382,0.41227 1.56484,0.10684 1.68763,-0.51494 z m -0.0181,-1.16076 c 0.0735,-0.22332 -0.199,-0.33073 -0.83917,-0.33073 -0.52145,0 -0.94809,0.10914 -0.94809,0.24254 0,0.58106 1.59896,0.65996 1.78726,0.0882 z m 1.23822,-1.6471 c 0.87565,-0.33292 0.92518,-1.36042 0.0834,-1.72974 -1.24082,-0.54438 -0.65765,-2.84214 0.84878,-3.34428 0.21976,-0.0733 0.40266,-0.68491 0.47859,-1.60044 0.15665,-1.88901 -0.51229,-2.46021 -2.88118,-2.46021 -1.84473,0 -1.83278,-0.0114 -2.00746,1.91494 -0.12852,1.41731 -0.078,1.62828 0.55236,2.30849 1.06947,1.15397 0.59589,3.05261 -0.7614,3.05261 -0.62152,0 -0.48333,1.23235 0.19116,1.70479 0.66194,0.46364 2.4715,0.54327 3.49578,0.15384 z m 3.09014,-3.29373 c 0.37916,-1.40808 0.0733,-3.18117 -0.70026,-4.05996 -0.63614,-0.72265 -0.63614,-0.72265 -0.6445,0.79871 -0.007,1.19687 0.10939,1.6391 0.54373,2.07345 0.68632,0.68631 0.50777,1.72259 -0.43083,2.50055 -0.35774,0.29651 -0.64559,0.77276 -0.63968,1.05833 0.0169,0.81666 1.52902,-1.09905 1.87154,-2.37108 z m -7.43854,1.80756 c 0,-0.23171 -0.23812,-0.72401 -0.52916,-1.09401 -0.84324,-1.07201 -0.64515,-2.32186 0.43296,-2.73175 0.56732,-0.2157 0.62449,-0.39186 0.61585,-1.89796 -0.01,-1.6602 -0.01,-1.6602 -0.66571,-0.86645 -1.37451,1.66263 -1.74396,4.1028 -0.88867,5.86959 0.56055,1.15793 1.03473,1.48815 1.03473,0.72058 z m 5.86146,-1.18795 c 0.4039,-0.21616 0.49429,-0.44851 0.36887,-0.94821 -0.11929,-0.47531 -0.077,-0.60682 0.14995,-0.46655 0.20118,0.12434 0.24648,0.0827 0.12461,-0.11444 -0.25785,-0.41721 -0.68405,-0.12074 -0.68405,0.47583 0,0.7283 -0.69917,1.2184 -1.1749,0.82358 -0.47973,-0.39814 -0.24575,-1.04644 0.48409,-1.34134 0.44337,-0.17915 0.46431,-0.22913 0.10159,-0.24244 -0.69576,-0.0255 -1.41403,1.20208 -0.99719,1.70434 0.38853,0.46814 0.8931,0.50202 1.62703,0.10923 z m -4.289,-0.49253 c 0.46199,-0.2923 0.0141,-1.51784 -0.6475,-1.77171 -0.80079,-0.3073 -1.63901,1.21915 -1.01315,1.84501 0.25263,0.25263 1.21247,0.21026 1.66065,-0.0733 z m -1.38491,-0.18012 c -0.34857,-0.34858 -0.19048,-1.09995 0.26849,-1.27608 0.48317,-0.18541 1.2124,0.53379 1.04816,1.03373 -0.10896,0.33167 -1.05347,0.50552 -1.31665,0.24235 z"
       id="path1" /></g></svg>
