%TF.GenerationSoftware,KiCad,Pcbnew,8.0.6*%
%TF.CreationDate,2024-10-31T12:42:16-07:00*%
%TF.ProjectId,veramonitor,76657261-6d6f-46e6-9974-6f722e6b6963,rev?*%
%TF.SameCoordinates,Original*%
%TF.FileFunction,Copper,L2,Bot*%
%TF.FilePolarity,Positive*%
%FSLAX46Y46*%
G04 Gerber Fmt 4.6, Leading zero omitted, Abs format (unit mm)*
G04 Created by KiCad (PCBNEW 8.0.6) date 2024-10-31 12:42:16*
%MOMM*%
%LPD*%
G01*
G04 APERTURE LIST*
%TA.AperFunction,ComponentPad*%
%ADD10R,1.600000X1.600000*%
%TD*%
%TA.AperFunction,ComponentPad*%
%ADD11C,1.600000*%
%TD*%
%TA.AperFunction,ComponentPad*%
%ADD12C,0.500000*%
%TD*%
%TA.AperFunction,ComponentPad*%
%ADD13C,0.700000*%
%TD*%
%TA.AperFunction,ComponentPad*%
%ADD14O,2.000000X1.200000*%
%TD*%
%TA.AperFunction,ComponentPad*%
%ADD15O,1.800000X1.200000*%
%TD*%
%TA.AperFunction,ComponentPad*%
%ADD16C,3.800000*%
%TD*%
%TA.AperFunction,ComponentPad*%
%ADD17C,1.700000*%
%TD*%
%TA.AperFunction,ViaPad*%
%ADD18C,0.800000*%
%TD*%
%TA.AperFunction,Conductor*%
%ADD19C,0.304800*%
%TD*%
%TA.AperFunction,Conductor*%
%ADD20C,0.250000*%
%TD*%
%TA.AperFunction,Conductor*%
%ADD21C,0.762000*%
%TD*%
%TA.AperFunction,Conductor*%
%ADD22C,0.508000*%
%TD*%
%TA.AperFunction,Conductor*%
%ADD23C,0.406400*%
%TD*%
%TA.AperFunction,Conductor*%
%ADD24C,0.400000*%
%TD*%
%TA.AperFunction,Conductor*%
%ADD25C,0.609600*%
%TD*%
%TA.AperFunction,Conductor*%
%ADD26C,0.850000*%
%TD*%
%TA.AperFunction,Conductor*%
%ADD27C,0.820000*%
%TD*%
%TA.AperFunction,Conductor*%
%ADD28C,0.254000*%
%TD*%
G04 APERTURE END LIST*
D10*
%TO.P,U11,1*%
%TO.N,vcc-1*%
X45130000Y-134030000D03*
D11*
%TO.P,U11,2*%
%TO.N,gnd*%
X45130000Y-131530000D03*
%TO.P,U11,3*%
%TO.N,p3*%
X45130000Y-129030000D03*
%TO.P,U11,4*%
%TO.N,p4*%
X45130000Y-126530000D03*
%TO.P,U11,5*%
%TO.N,p5*%
X45130000Y-124030000D03*
%TD*%
D12*
%TO.P,U3,*%
%TO.N,*%
X57870000Y-94125000D03*
%TD*%
%TO.P,U5,*%
%TO.N,*%
X48650000Y-81725000D03*
X50050000Y-81725000D03*
X47950000Y-81025000D03*
X49350000Y-81025000D03*
X50750000Y-81025000D03*
X48650000Y-80325000D03*
X50050000Y-80325000D03*
X47950000Y-79625000D03*
X49350000Y-79625000D03*
X50750000Y-79625000D03*
X48650000Y-78925000D03*
X50050000Y-78925000D03*
%TD*%
D13*
%TO.P,U2,*%
%TO.N,*%
X47185000Y-111435000D03*
X47185000Y-117215000D03*
D14*
%TO.P,U2,1*%
%TO.N,gnd*%
X47725000Y-110005000D03*
%TO.P,U2,2*%
X47725000Y-118645000D03*
D15*
%TO.P,U2,3*%
X43535000Y-110005000D03*
%TO.P,U2,4*%
X43535000Y-118645000D03*
%TD*%
D16*
%TO.P,U7,0*%
%TO.N,_0*%
X63435000Y-71850000D03*
X63435000Y-115850000D03*
X139505000Y-71850000D03*
X139505000Y-115850000D03*
D17*
%TO.P,U7,1*%
%TO.N,vcc-1*%
X144415000Y-110360000D03*
%TO.P,U7,2*%
%TO.N,gnd*%
X144415000Y-107820000D03*
%TO.P,U7,3*%
%TO.N,cs*%
X144415000Y-105280000D03*
%TO.P,U7,4*%
%TO.N,rst*%
X144415000Y-102740000D03*
%TO.P,U7,5*%
%TO.N,a0*%
X144415000Y-100200000D03*
%TO.P,U7,6*%
%TO.N,sda*%
X144415000Y-97660000D03*
%TO.P,U7,7*%
%TO.N,scl*%
X144415000Y-95120000D03*
%TO.P,U7,8*%
%TO.N,led*%
X144415000Y-92580000D03*
%TO.P,U7,9*%
%TO.N,lcd-nc*%
X144415000Y-90040000D03*
%TO.P,U7,10*%
X144415000Y-87500000D03*
%TO.P,U7,11*%
X144415000Y-84960000D03*
%TO.P,U7,12*%
X144415000Y-82420000D03*
%TO.P,U7,13*%
X144415000Y-79880000D03*
%TO.P,U7,14*%
X144415000Y-77340000D03*
%TO.P,U7,15*%
%TO.N,zk_minus_cs*%
X63435000Y-97660000D03*
%TO.P,U7,16*%
%TO.N,zk_minus_mosi*%
X63435000Y-95120000D03*
%TO.P,U7,17*%
%TO.N,zk_minus_miso*%
X63435000Y-92580000D03*
%TO.P,U7,18*%
%TO.N,zk_minus_sck*%
X63435000Y-90040000D03*
%TD*%
D18*
%TO.N,p5*%
X67820000Y-95590000D03*
%TO.N,p4*%
X69410000Y-95580000D03*
%TO.N,p3*%
X70920000Y-95540000D03*
%TO.N,gnd*%
X65860000Y-86200000D03*
X62020000Y-79520000D03*
X57110000Y-85890000D03*
X53300000Y-90270000D03*
X43040000Y-115930000D03*
X51050000Y-117700000D03*
X50160000Y-117720000D03*
X40760000Y-97820000D03*
X44730000Y-98600000D03*
X58390000Y-103440000D03*
X142160000Y-130320000D03*
X141930000Y-121430000D03*
X87010000Y-130160000D03*
X86930000Y-121240000D03*
X62250000Y-130090000D03*
X58930000Y-121150000D03*
X56100000Y-121240000D03*
X42590000Y-122650000D03*
X43030000Y-115010000D03*
X42000000Y-72700000D03*
X53950000Y-75980000D03*
X118760000Y-70280000D03*
X123990000Y-70730000D03*
X138420000Y-98170000D03*
X137980000Y-90000000D03*
X73760000Y-101770000D03*
X73730000Y-104110000D03*
X52960000Y-96480000D03*
%TO.N,*%
X57720000Y-97620000D03*
%TO.N,gnd*%
X52060000Y-107370000D03*
X48030000Y-105910000D03*
X46620000Y-101180000D03*
X55880000Y-94380000D03*
X61020000Y-96610000D03*
X51960000Y-105540000D03*
%TO.N,vcc*%
X49800000Y-110430000D03*
%TO.N,gnd*%
X42800000Y-98490000D03*
X44290000Y-103620000D03*
X42050000Y-68570000D03*
%TO.N,vcc*%
X59660000Y-107090000D03*
X54790000Y-114445002D03*
%TO.N,en*%
X44425000Y-92695000D03*
%TO.N,vcc-1*%
X60520000Y-89430000D03*
%TO.N,scl*%
X48190000Y-89060000D03*
%TO.N,sda*%
X49350000Y-89080000D03*
%TO.N,tx*%
X45510000Y-72670000D03*
%TO.N,rx*%
X46500000Y-71480000D03*
X59210000Y-109660000D03*
%TO.N,tx*%
X60240000Y-108850000D03*
%TO.N,scl*%
X49530000Y-84430000D03*
%TO.N,sda*%
X50590000Y-84450000D03*
%TO.N,gnd*%
X135620000Y-126690000D03*
X130720000Y-126690000D03*
X125620000Y-135015000D03*
X130720000Y-135015000D03*
X90220000Y-132615000D03*
X85220000Y-132615000D03*
X105220000Y-124290000D03*
X60520000Y-135015000D03*
X50825000Y-126795000D03*
X65720000Y-135015000D03*
X125220000Y-124290000D03*
X120720000Y-135015000D03*
X90225000Y-124295000D03*
X65220000Y-132615000D03*
X115220000Y-124290000D03*
X105220000Y-132615000D03*
X95225000Y-124295000D03*
X110520000Y-126690000D03*
X135220000Y-132615000D03*
X55520000Y-135115000D03*
X140720000Y-135015000D03*
X105520000Y-135115000D03*
X90720000Y-135015000D03*
X55225000Y-124295000D03*
X115220000Y-132615000D03*
X85225000Y-124295000D03*
X135220000Y-124290000D03*
X110520000Y-135015000D03*
X100220000Y-132615000D03*
X85620000Y-135015000D03*
X115720000Y-126690000D03*
X80225000Y-124295000D03*
X110220000Y-132615000D03*
X65225000Y-124295000D03*
X55525000Y-126795000D03*
X130220000Y-132615000D03*
X105520000Y-126790000D03*
X60225000Y-124295000D03*
X145220000Y-132615000D03*
X95525000Y-126695000D03*
X145220000Y-124290000D03*
X75620000Y-135015000D03*
X80725000Y-126695000D03*
X80720000Y-135015000D03*
X65725000Y-126695000D03*
X95520000Y-135015000D03*
X90725000Y-126695000D03*
X95220000Y-132615000D03*
X125620000Y-126690000D03*
X85625000Y-126695000D03*
X75225000Y-124295000D03*
X70225000Y-124295000D03*
X75220000Y-132615000D03*
X100820000Y-126790000D03*
X135620000Y-135015000D03*
X130220000Y-124290000D03*
X140220000Y-132615000D03*
X60220000Y-132615000D03*
X145520000Y-135015000D03*
X125220000Y-132615000D03*
X110220000Y-124290000D03*
X60525000Y-126695000D03*
X70720000Y-135015000D03*
X50220000Y-132615000D03*
X50225000Y-124295000D03*
X140720000Y-126690000D03*
X70725000Y-126695000D03*
X100820000Y-135115000D03*
X120220000Y-132615000D03*
X145520000Y-126690000D03*
X55220000Y-132615000D03*
X75625000Y-126695000D03*
X115720000Y-135015000D03*
X120220000Y-124290000D03*
X120720000Y-126690000D03*
X80220000Y-132615000D03*
X140220000Y-124290000D03*
X70220000Y-132615000D03*
X50820000Y-135115000D03*
X100220000Y-124290000D03*
%TO.N,sda*%
X44360000Y-105270000D03*
%TO.N,pdm_clk*%
X57770000Y-91040000D03*
X48125000Y-85315000D03*
%TO.N,tms*%
X54200000Y-101850000D03*
X47675000Y-71725000D03*
%TO.N,pdm_sel*%
X59407500Y-86877500D03*
X55880000Y-92170000D03*
%TO.N,scl*%
X44375751Y-106284799D03*
%TO.N,tdi*%
X48975000Y-71700000D03*
X55225000Y-98750000D03*
%TO.N,tdo*%
X50250000Y-71700000D03*
X56410000Y-98720000D03*
%TO.N,pdm_data*%
X46667347Y-86007347D03*
X56664847Y-91145153D03*
%TO.N,en*%
X43570000Y-97100000D03*
%TO.N,tck*%
X51575000Y-71675000D03*
X56690000Y-102050000D03*
%TO.N,vcc*%
X49525000Y-98000000D03*
X83520000Y-133915000D03*
X98520000Y-133915000D03*
X108520000Y-125590000D03*
X148520000Y-125590000D03*
X58525000Y-125595000D03*
X103520000Y-125590000D03*
X123520000Y-133915000D03*
X73520000Y-133915000D03*
X88520000Y-133915000D03*
X128520000Y-133915000D03*
X93525000Y-125595000D03*
X53520000Y-133915000D03*
X63520000Y-133915000D03*
X128520000Y-125590000D03*
X98525000Y-125595000D03*
X118520000Y-133915000D03*
X143520000Y-133915000D03*
X49800000Y-111350000D03*
X68525000Y-125595000D03*
X113520000Y-125590000D03*
X148520000Y-133915000D03*
X78525000Y-125595000D03*
X93520000Y-133915000D03*
X58520000Y-133915000D03*
X103520000Y-133915000D03*
X118520000Y-125590000D03*
X88525000Y-125595000D03*
X123520000Y-125590000D03*
X138520000Y-125590000D03*
X108520000Y-133915000D03*
X49175000Y-98015000D03*
X78520000Y-133915000D03*
X113520000Y-133915000D03*
X49800000Y-101350000D03*
X63525000Y-125595000D03*
X83525000Y-125595000D03*
X53525000Y-125595000D03*
X133520000Y-133915000D03*
X138520000Y-133915000D03*
X143520000Y-125590000D03*
X133520000Y-125590000D03*
X73525000Y-125595000D03*
X68520000Y-133915000D03*
%TO.N,ledrow2-dout*%
X50120000Y-133890000D03*
%TO.N,vdd*%
X52825000Y-115225000D03*
X57925000Y-107450000D03*
%TD*%
D19*
%TO.N,p4*%
X69410000Y-95580000D02*
X69410000Y-104890000D01*
X69410000Y-104890000D02*
X51660000Y-122640000D01*
X51660000Y-122640000D02*
X48990000Y-122640000D01*
X48990000Y-122640000D02*
X45130000Y-126500000D01*
X45130000Y-126500000D02*
X45130000Y-126530000D01*
%TO.N,p5*%
X45130000Y-124030000D02*
X45130000Y-123980000D01*
X45130000Y-123980000D02*
X47230000Y-121880000D01*
X47230000Y-121880000D02*
X51410000Y-121880000D01*
X51410000Y-121880000D02*
X67820000Y-105470000D01*
X67820000Y-105470000D02*
X67820000Y-95590000D01*
%TO.N,p3*%
X45130000Y-129030000D02*
X45740000Y-129030000D01*
X70920000Y-104390000D02*
X70920000Y-95540000D01*
X45740000Y-129030000D02*
X48350000Y-126420000D01*
X48350000Y-126420000D02*
X48350000Y-124450000D01*
X51910000Y-123400000D02*
X70920000Y-104390000D01*
X48350000Y-124450000D02*
X49400000Y-123400000D01*
X49400000Y-123400000D02*
X51910000Y-123400000D01*
D20*
%TO.N,rx*%
X59210000Y-109660000D02*
X59010000Y-109860000D01*
X59010000Y-109860000D02*
X59010000Y-112730000D01*
X59010000Y-112730000D02*
X55250000Y-116490000D01*
X41600000Y-75163604D02*
X45283604Y-71480000D01*
X55250000Y-116490000D02*
X47440000Y-116490000D01*
X47440000Y-116490000D02*
X41600000Y-110650000D01*
X41600000Y-110650000D02*
X41600000Y-75163604D01*
X45283604Y-71480000D02*
X46500000Y-71480000D01*
%TO.N,tx*%
X60240000Y-108850000D02*
X58714695Y-108850000D01*
X58714695Y-108850000D02*
X58230000Y-109334695D01*
X58230000Y-109334695D02*
X58230000Y-112873604D01*
X58230000Y-112873604D02*
X55073604Y-116030000D01*
X44900000Y-72670000D02*
X45510000Y-72670000D01*
X55073604Y-116030000D02*
X47810000Y-116030000D01*
X47810000Y-116030000D02*
X42050000Y-110270000D01*
X42050000Y-75520000D02*
X44900000Y-72670000D01*
X42050000Y-110270000D02*
X42050000Y-75520000D01*
%TO.N,tck*%
X44280000Y-78960000D02*
X51565000Y-71675000D01*
X51565000Y-71675000D02*
X51575000Y-71675000D01*
X52700000Y-97520000D02*
X44280000Y-89100000D01*
X56690000Y-102050000D02*
X57270000Y-101470000D01*
X57270000Y-101470000D02*
X57270000Y-98500000D01*
X57270000Y-98500000D02*
X56290000Y-97520000D01*
X56290000Y-97520000D02*
X52700000Y-97520000D01*
X44280000Y-89100000D02*
X44280000Y-78960000D01*
D21*
%TO.N,vcc*%
X49800000Y-110430000D02*
X49800000Y-110725000D01*
D22*
X54790000Y-114445002D02*
X54790000Y-111955865D01*
X54790000Y-111955865D02*
X58474865Y-108271000D01*
X58474865Y-108271000D02*
X58479000Y-108271000D01*
X58479000Y-108271000D02*
X59660000Y-107090000D01*
D20*
%TO.N,en*%
X44425000Y-92695000D02*
X44460000Y-92660000D01*
X44425000Y-92695000D02*
X43570000Y-93550000D01*
X43570000Y-93550000D02*
X43570000Y-97100000D01*
%TO.N,tms*%
X54200000Y-101850000D02*
X54200000Y-101649695D01*
X54200000Y-101649695D02*
X49825305Y-97275000D01*
X49825305Y-97275000D02*
X49825305Y-96598097D01*
X42800000Y-76600000D02*
X47675000Y-71725000D01*
X49825305Y-96598097D02*
X42800000Y-89572792D01*
X42800000Y-89572792D02*
X42800000Y-76600000D01*
%TO.N,tdi*%
X55225000Y-98750000D02*
X55025000Y-98550000D01*
X52413604Y-98550000D02*
X43260000Y-89396396D01*
X55025000Y-98550000D02*
X52413604Y-98550000D01*
X43260000Y-89396396D02*
X43260000Y-77415000D01*
X43260000Y-77415000D02*
X48975000Y-71700000D01*
%TO.N,tdo*%
X56410000Y-98720000D02*
X55690000Y-98000000D01*
X55690000Y-98000000D02*
X52500000Y-98000000D01*
X52500000Y-98000000D02*
X43760000Y-89260000D01*
X43760000Y-89260000D02*
X43760000Y-78210000D01*
X43760000Y-78210000D02*
X50250000Y-71720000D01*
X50250000Y-71720000D02*
X50250000Y-71700000D01*
D23*
%TO.N,vcc-1*%
X45130000Y-134030000D02*
X47018200Y-135918200D01*
X47018200Y-135918200D02*
X105852697Y-135918200D01*
X105852697Y-135918200D02*
X105880897Y-135890000D01*
X105880897Y-135890000D02*
X148090000Y-135890000D01*
X148090000Y-135890000D02*
X149440000Y-134540000D01*
X149440000Y-134540000D02*
X149440000Y-115385000D01*
X149440000Y-115385000D02*
X144415000Y-110360000D01*
D21*
%TO.N,gnd*%
X93720000Y-132615000D02*
X52100000Y-132615000D01*
X52100000Y-132615000D02*
X50220000Y-132615000D01*
X52100000Y-132615000D02*
X47355000Y-132615000D01*
X47355000Y-132615000D02*
X46270000Y-131530000D01*
X46270000Y-131530000D02*
X45130000Y-131530000D01*
D20*
%TO.N,scl*%
X48190000Y-89060000D02*
X48190000Y-90126396D01*
X60180000Y-99040000D02*
X60180000Y-103153604D01*
X48190000Y-90126396D02*
X54723604Y-96660000D01*
X47180000Y-113290000D02*
X46020000Y-112130000D01*
X44375751Y-107305751D02*
X44375751Y-106284799D01*
X54723604Y-96660000D02*
X57800000Y-96660000D01*
X57800000Y-96660000D02*
X60180000Y-99040000D01*
X60180000Y-103153604D02*
X50043604Y-113290000D01*
X50043604Y-113290000D02*
X47180000Y-113290000D01*
X46020000Y-112130000D02*
X46020000Y-108950000D01*
X46020000Y-108950000D02*
X44375751Y-107305751D01*
%TO.N,sda*%
X44360000Y-105270000D02*
X44140000Y-105270000D01*
X44140000Y-105270000D02*
X43530000Y-105880000D01*
X60630000Y-103340000D02*
X60630000Y-98853604D01*
X43530000Y-105880000D02*
X43530000Y-107260000D01*
X43530000Y-107260000D02*
X45420000Y-109150000D01*
X45420000Y-109150000D02*
X45420000Y-112230000D01*
X60630000Y-98853604D02*
X57986396Y-96210000D01*
X45420000Y-112230000D02*
X47010000Y-113820000D01*
X47010000Y-113820000D02*
X50150000Y-113820000D01*
X50150000Y-113820000D02*
X60630000Y-103340000D01*
X57986396Y-96210000D02*
X54910000Y-96210000D01*
X54910000Y-96210000D02*
X49350000Y-90650000D01*
X49350000Y-90650000D02*
X49350000Y-89080000D01*
D24*
%TO.N,vcc-1*%
X60520000Y-89430000D02*
X62100000Y-87850000D01*
X62100000Y-87850000D02*
X121905000Y-87850000D01*
X121905000Y-87850000D02*
X144415000Y-110360000D01*
D20*
%TO.N,pdm_sel*%
X55880000Y-92170000D02*
X57840000Y-92170000D01*
X59420000Y-90590000D02*
X59420000Y-86890000D01*
X57840000Y-92170000D02*
X59420000Y-90590000D01*
X59420000Y-86890000D02*
X59407500Y-86877500D01*
%TO.N,sda*%
X50590000Y-84450000D02*
X131205000Y-84450000D01*
X131205000Y-84450000D02*
X144415000Y-97660000D01*
%TO.N,scl*%
X49530000Y-84430000D02*
X50235000Y-83725000D01*
X50235000Y-83725000D02*
X133020000Y-83725000D01*
X133020000Y-83725000D02*
X144415000Y-95120000D01*
D25*
%TO.N,gnd*%
X94070000Y-126795000D02*
X91625000Y-126795000D01*
D21*
X87325000Y-124295000D02*
X85225000Y-124295000D01*
X137320000Y-124290000D02*
X115220000Y-124290000D01*
D25*
X93995000Y-135115000D02*
X91620000Y-135115000D01*
X104045000Y-135115000D02*
X93995000Y-135115000D01*
X135720000Y-126790000D02*
X135620000Y-126690000D01*
D21*
X93720000Y-132615000D02*
X87320000Y-132615000D01*
X87320000Y-132615000D02*
X85220000Y-132615000D01*
X93720000Y-132615000D02*
X90220000Y-132615000D01*
D25*
X139820000Y-126790000D02*
X131620000Y-126790000D01*
X81625000Y-126795000D02*
X80825000Y-126795000D01*
X80825000Y-126795000D02*
X80725000Y-126695000D01*
X139820000Y-135115000D02*
X131620000Y-135115000D01*
X145420000Y-135115000D02*
X141620000Y-135115000D01*
D21*
X103620000Y-132615000D02*
X100220000Y-132615000D01*
D25*
X91625000Y-126795000D02*
X90825000Y-126795000D01*
D21*
X103995000Y-124290000D02*
X101745000Y-124290000D01*
X93725000Y-124295000D02*
X87325000Y-124295000D01*
D25*
X91620000Y-135115000D02*
X89820000Y-135115000D01*
X89820000Y-135115000D02*
X85720000Y-135115000D01*
D21*
X101740000Y-124295000D02*
X101745000Y-124290000D01*
D25*
X139820000Y-135115000D02*
X135720000Y-135115000D01*
D21*
X101745000Y-124290000D02*
X100220000Y-124290000D01*
D25*
X131620000Y-135115000D02*
X104045000Y-135115000D01*
X85720000Y-135115000D02*
X85620000Y-135015000D01*
D21*
X103620000Y-132615000D02*
X93720000Y-132615000D01*
D25*
X139820000Y-126790000D02*
X135720000Y-126790000D01*
X145520000Y-126690000D02*
X145420000Y-126790000D01*
X135720000Y-135115000D02*
X135620000Y-135015000D01*
X95520000Y-135015000D02*
X95420000Y-135115000D01*
X94075000Y-126790000D02*
X94070000Y-126795000D01*
D21*
X143720000Y-132615000D02*
X103620000Y-132615000D01*
D25*
X141620000Y-135115000D02*
X139820000Y-135115000D01*
X80820000Y-135115000D02*
X80720000Y-135015000D01*
X131620000Y-126790000D02*
X130820000Y-126790000D01*
X103545000Y-126790000D02*
X94075000Y-126790000D01*
D21*
X143720000Y-124290000D02*
X103995000Y-124290000D01*
D25*
X104045000Y-135115000D02*
X100820000Y-135115000D01*
D21*
X95220000Y-132615000D02*
X93720000Y-132615000D01*
D25*
X85725000Y-126795000D02*
X85625000Y-126695000D01*
X130820000Y-135115000D02*
X130720000Y-135015000D01*
D21*
X94320000Y-124295000D02*
X93725000Y-124295000D01*
D25*
X141620000Y-126790000D02*
X140820000Y-126790000D01*
D21*
X137320000Y-132615000D02*
X135220000Y-132615000D01*
X145220000Y-132615000D02*
X143720000Y-132615000D01*
D25*
X131620000Y-126790000D02*
X103545000Y-126790000D01*
X131620000Y-135115000D02*
X130820000Y-135115000D01*
D21*
X87320000Y-132615000D02*
X65220000Y-132615000D01*
D25*
X95525000Y-126695000D02*
X95425000Y-126795000D01*
X130820000Y-126790000D02*
X130720000Y-126690000D01*
X145520000Y-135015000D02*
X145420000Y-135115000D01*
D21*
X95225000Y-124295000D02*
X94320000Y-124295000D01*
D25*
X140820000Y-126790000D02*
X140720000Y-126690000D01*
X89825000Y-126795000D02*
X81625000Y-126795000D01*
X89820000Y-135115000D02*
X81620000Y-135115000D01*
X91620000Y-135115000D02*
X90820000Y-135115000D01*
D21*
X93725000Y-124295000D02*
X90225000Y-124295000D01*
X143720000Y-132615000D02*
X140220000Y-132615000D01*
X93730000Y-124290000D02*
X93725000Y-124295000D01*
D25*
X95420000Y-135115000D02*
X93995000Y-135115000D01*
D21*
X145220000Y-124290000D02*
X143720000Y-124290000D01*
D25*
X103545000Y-126790000D02*
X100820000Y-126790000D01*
X81620000Y-135115000D02*
X80820000Y-135115000D01*
X81620000Y-135115000D02*
X50820000Y-135115000D01*
X90825000Y-126795000D02*
X90725000Y-126695000D01*
D21*
X143720000Y-124290000D02*
X140220000Y-124290000D01*
D25*
X145420000Y-126790000D02*
X141620000Y-126790000D01*
X141620000Y-126790000D02*
X139820000Y-126790000D01*
X89825000Y-126795000D02*
X85725000Y-126795000D01*
D21*
X143720000Y-132615000D02*
X137320000Y-132615000D01*
X143720000Y-124290000D02*
X137320000Y-124290000D01*
D25*
X90820000Y-135115000D02*
X90720000Y-135015000D01*
D21*
X103995000Y-124290000D02*
X93730000Y-124290000D01*
X137320000Y-124290000D02*
X135220000Y-124290000D01*
D25*
X140820000Y-135115000D02*
X140720000Y-135015000D01*
X81625000Y-126795000D02*
X50825000Y-126795000D01*
D21*
X93725000Y-124295000D02*
X50225000Y-124295000D01*
D25*
X141620000Y-135115000D02*
X140820000Y-135115000D01*
D21*
X87325000Y-124295000D02*
X65225000Y-124295000D01*
D25*
X95425000Y-126795000D02*
X94070000Y-126795000D01*
D21*
X137320000Y-132615000D02*
X115220000Y-132615000D01*
D25*
X91625000Y-126795000D02*
X89825000Y-126795000D01*
D20*
%TO.N,pdm_clk*%
X51055000Y-85325000D02*
X51045000Y-85315000D01*
X50445000Y-85315000D02*
X48125000Y-85315000D01*
X52045000Y-85315000D02*
X50445000Y-85315000D01*
X51870000Y-85325000D02*
X51055000Y-85325000D01*
X52245000Y-85515000D02*
X57770000Y-91040000D01*
X52245000Y-85515000D02*
X52045000Y-85315000D01*
X51045000Y-85315000D02*
X52045000Y-85315000D01*
X51045000Y-85315000D02*
X50445000Y-85315000D01*
%TO.N,tms*%
X47675000Y-71800000D02*
X47675000Y-71725000D01*
%TO.N,tdi*%
X48975000Y-71800000D02*
X48975000Y-71700000D01*
%TO.N,pdm_data*%
X46667347Y-86007347D02*
X46775000Y-86115000D01*
X56664847Y-90959847D02*
X51830000Y-86125000D01*
X51830000Y-86125000D02*
X51570000Y-86125000D01*
X56664847Y-91145153D02*
X56664847Y-90959847D01*
X46775000Y-86115000D02*
X51670000Y-86115000D01*
D26*
%TO.N,vcc*%
X53525000Y-125595000D02*
X55825000Y-125595000D01*
X82920000Y-133915000D02*
X88020000Y-133915000D01*
X67525000Y-125595000D02*
X72725000Y-125595000D01*
X132920000Y-125590000D02*
X138020000Y-125590000D01*
D27*
X88020000Y-133915000D02*
X88520000Y-133915000D01*
D26*
X96770000Y-125595000D02*
X98525000Y-125595000D01*
X132920000Y-133915000D02*
X138020000Y-133915000D01*
X104770000Y-125590000D02*
X105820000Y-125590000D01*
D27*
X122720000Y-125590000D02*
X123520000Y-125590000D01*
D26*
X53520000Y-133915000D02*
X55820000Y-133915000D01*
D27*
X142620000Y-125590000D02*
X143520000Y-125590000D01*
D26*
X78025000Y-125595000D02*
X82925000Y-125595000D01*
X128020000Y-133915000D02*
X132920000Y-133915000D01*
X78020000Y-133915000D02*
X82920000Y-133915000D01*
D27*
X138020000Y-125590000D02*
X138520000Y-125590000D01*
D26*
X92625000Y-125595000D02*
X96770000Y-125595000D01*
D27*
X132920000Y-125590000D02*
X133520000Y-125590000D01*
X55820000Y-133915000D02*
X58520000Y-133915000D01*
D26*
X96870000Y-133915000D02*
X98520000Y-133915000D01*
X105820000Y-125590000D02*
X111420000Y-125590000D01*
X117520000Y-125590000D02*
X122720000Y-125590000D01*
X92620000Y-133915000D02*
X96870000Y-133915000D01*
D27*
X82920000Y-133915000D02*
X83520000Y-133915000D01*
X105820000Y-125590000D02*
X108520000Y-125590000D01*
X128020000Y-125590000D02*
X128520000Y-125590000D01*
D26*
X61420000Y-133915000D02*
X68520000Y-133915000D01*
D27*
X72720000Y-133915000D02*
X73520000Y-133915000D01*
X92620000Y-133915000D02*
X93520000Y-133915000D01*
D26*
X138020000Y-133915000D02*
X142620000Y-133915000D01*
X138020000Y-125590000D02*
X142620000Y-125590000D01*
X72720000Y-133915000D02*
X78020000Y-133915000D01*
D27*
X61420000Y-133915000D02*
X63520000Y-133915000D01*
D26*
X88020000Y-133915000D02*
X92620000Y-133915000D01*
X117520000Y-133915000D02*
X122720000Y-133915000D01*
D21*
X49800000Y-101350000D02*
X49800000Y-110430000D01*
D26*
X67520000Y-133915000D02*
X72720000Y-133915000D01*
D27*
X128020000Y-133915000D02*
X128520000Y-133915000D01*
D26*
X72725000Y-125595000D02*
X78025000Y-125595000D01*
X88025000Y-125595000D02*
X92625000Y-125595000D01*
D27*
X72725000Y-125595000D02*
X73525000Y-125595000D01*
D26*
X96775000Y-125590000D02*
X96770000Y-125595000D01*
X111420000Y-125590000D02*
X118520000Y-125590000D01*
D27*
X142620000Y-133915000D02*
X143520000Y-133915000D01*
X88025000Y-125595000D02*
X88525000Y-125595000D01*
X111420000Y-125590000D02*
X113520000Y-125590000D01*
D21*
X49800000Y-98640000D02*
X49800000Y-101350000D01*
D27*
X55825000Y-125595000D02*
X58525000Y-125595000D01*
D26*
X103520000Y-133915000D02*
X105120000Y-133915000D01*
X142620000Y-125590000D02*
X148520000Y-125590000D01*
D27*
X111420000Y-133915000D02*
X113520000Y-133915000D01*
D21*
X49190000Y-98000000D02*
X49175000Y-98015000D01*
D27*
X82925000Y-125595000D02*
X83525000Y-125595000D01*
D26*
X142620000Y-133915000D02*
X148520000Y-133915000D01*
X103520000Y-125590000D02*
X104770000Y-125590000D01*
D27*
X78025000Y-125595000D02*
X78525000Y-125595000D01*
D26*
X122720000Y-125590000D02*
X128020000Y-125590000D01*
D27*
X122720000Y-133915000D02*
X123520000Y-133915000D01*
D21*
X49800000Y-110725000D02*
X49800000Y-111350000D01*
D26*
X61425000Y-125595000D02*
X68525000Y-125595000D01*
X55825000Y-125595000D02*
X61425000Y-125595000D01*
D21*
X49525000Y-98000000D02*
X49190000Y-98000000D01*
D26*
X105120000Y-133915000D02*
X105820000Y-133915000D01*
X105820000Y-133915000D02*
X111420000Y-133915000D01*
D27*
X92625000Y-125595000D02*
X93525000Y-125595000D01*
X78020000Y-133915000D02*
X78520000Y-133915000D01*
X61425000Y-125595000D02*
X63525000Y-125595000D01*
D26*
X82925000Y-125595000D02*
X88025000Y-125595000D01*
D27*
X132920000Y-133915000D02*
X133520000Y-133915000D01*
X105820000Y-133915000D02*
X108520000Y-133915000D01*
D26*
X96870000Y-133915000D02*
X105120000Y-133915000D01*
X96775000Y-125590000D02*
X104770000Y-125590000D01*
D21*
X49175000Y-98015000D02*
X49800000Y-98640000D01*
D26*
X111420000Y-133915000D02*
X118520000Y-133915000D01*
D27*
X138020000Y-133915000D02*
X138520000Y-133915000D01*
D26*
X122720000Y-133915000D02*
X128020000Y-133915000D01*
X55820000Y-133915000D02*
X61420000Y-133915000D01*
X128020000Y-125590000D02*
X132920000Y-125590000D01*
D28*
%TO.N,vdd*%
X52825000Y-112550000D02*
X52825000Y-115225000D01*
X57925000Y-107450000D02*
X52825000Y-112550000D01*
%TD*%
%TA.AperFunction,Conductor*%
%TO.N,gnd*%
G36*
X58473165Y-98237633D02*
G01*
X58523653Y-98268243D01*
X58694693Y-98439283D01*
X58728178Y-98500606D01*
X58723194Y-98570298D01*
X58681322Y-98626231D01*
X58654466Y-98641525D01*
X58551730Y-98684080D01*
X58551724Y-98684083D01*
X58429580Y-98765698D01*
X58429576Y-98765701D01*
X58325701Y-98869576D01*
X58325698Y-98869580D01*
X58244083Y-98991724D01*
X58244078Y-98991733D01*
X58187861Y-99127455D01*
X58187858Y-99127465D01*
X58159200Y-99271540D01*
X58159200Y-99418459D01*
X58187858Y-99562534D01*
X58187861Y-99562544D01*
X58244078Y-99698266D01*
X58244083Y-99698275D01*
X58325698Y-99820419D01*
X58325701Y-99820423D01*
X58429576Y-99924298D01*
X58429580Y-99924301D01*
X58551724Y-100005916D01*
X58551730Y-100005919D01*
X58551731Y-100005920D01*
X58687458Y-100062140D01*
X58831540Y-100090799D01*
X58831544Y-100090800D01*
X58831545Y-100090800D01*
X58978456Y-100090800D01*
X58978457Y-100090799D01*
X59122542Y-100062140D01*
X59258269Y-100005920D01*
X59361609Y-99936869D01*
X59428286Y-99915992D01*
X59495666Y-99934476D01*
X59542357Y-99986455D01*
X59554500Y-100039972D01*
X59554500Y-100680027D01*
X59534815Y-100747066D01*
X59482011Y-100792821D01*
X59412853Y-100802765D01*
X59361609Y-100783129D01*
X59258275Y-100714083D01*
X59258266Y-100714078D01*
X59136554Y-100663664D01*
X59122542Y-100657860D01*
X59122538Y-100657859D01*
X59122534Y-100657858D01*
X58978459Y-100629200D01*
X58978455Y-100629200D01*
X58831545Y-100629200D01*
X58831540Y-100629200D01*
X58687465Y-100657858D01*
X58687455Y-100657861D01*
X58551733Y-100714078D01*
X58551724Y-100714083D01*
X58429580Y-100795698D01*
X58429576Y-100795701D01*
X58325701Y-100899576D01*
X58325698Y-100899580D01*
X58244083Y-101021724D01*
X58244078Y-101021733D01*
X58187861Y-101157455D01*
X58187858Y-101157465D01*
X58159200Y-101301540D01*
X58159200Y-101448459D01*
X58187858Y-101592534D01*
X58187861Y-101592544D01*
X58244078Y-101728266D01*
X58244083Y-101728275D01*
X58325698Y-101850419D01*
X58325701Y-101850423D01*
X58429576Y-101954298D01*
X58429580Y-101954301D01*
X58551724Y-102035916D01*
X58551733Y-102035921D01*
X58557378Y-102038259D01*
X58687458Y-102092140D01*
X58831540Y-102120799D01*
X58831544Y-102120800D01*
X58831545Y-102120800D01*
X58978456Y-102120800D01*
X58978457Y-102120799D01*
X59122542Y-102092140D01*
X59258269Y-102035920D01*
X59361609Y-101966869D01*
X59428286Y-101945992D01*
X59495666Y-101964476D01*
X59542357Y-102016455D01*
X59554500Y-102069972D01*
X59554500Y-102843151D01*
X59534815Y-102910190D01*
X59518181Y-102930832D01*
X50906841Y-111542172D01*
X50845518Y-111575657D01*
X50775826Y-111570673D01*
X50719893Y-111528801D01*
X50695476Y-111463337D01*
X50695838Y-111441542D01*
X50705460Y-111350000D01*
X50685674Y-111161744D01*
X50685673Y-111161741D01*
X50685673Y-111161739D01*
X50684324Y-111155389D01*
X50685594Y-111155118D01*
X50681500Y-111129257D01*
X50681500Y-110650741D01*
X50685603Y-110624889D01*
X50684322Y-110624617D01*
X50685672Y-110618261D01*
X50685674Y-110618256D01*
X50705460Y-110430000D01*
X50685674Y-110241744D01*
X50685673Y-110241741D01*
X50685673Y-110241739D01*
X50684324Y-110235389D01*
X50685594Y-110235118D01*
X50681500Y-110209257D01*
X50681500Y-101570741D01*
X50685603Y-101544889D01*
X50684322Y-101544617D01*
X50685672Y-101538261D01*
X50685674Y-101538256D01*
X50705460Y-101350000D01*
X50685674Y-101161744D01*
X50685673Y-101161741D01*
X50685673Y-101161739D01*
X50684324Y-101155389D01*
X50685594Y-101155118D01*
X50681500Y-101129257D01*
X50681500Y-101085708D01*
X50701185Y-101018669D01*
X50753989Y-100972914D01*
X50823147Y-100962970D01*
X50874392Y-100982607D01*
X50931723Y-101020915D01*
X50931733Y-101020921D01*
X50956800Y-101031304D01*
X51067458Y-101077140D01*
X51210937Y-101105679D01*
X51211540Y-101105799D01*
X51211544Y-101105800D01*
X51211545Y-101105800D01*
X51358456Y-101105800D01*
X51358457Y-101105799D01*
X51502542Y-101077140D01*
X51638269Y-101020920D01*
X51760420Y-100939301D01*
X51864301Y-100835420D01*
X51945920Y-100713269D01*
X52001744Y-100578497D01*
X52045583Y-100524095D01*
X52111877Y-100502030D01*
X52179577Y-100519309D01*
X52203985Y-100538270D01*
X53273752Y-101608037D01*
X53307237Y-101669360D01*
X53309392Y-101708678D01*
X53294540Y-101849999D01*
X53294540Y-101850000D01*
X53314326Y-102038256D01*
X53314327Y-102038259D01*
X53372818Y-102218277D01*
X53372821Y-102218284D01*
X53467467Y-102382216D01*
X53499937Y-102418277D01*
X53594129Y-102522888D01*
X53747265Y-102634148D01*
X53747270Y-102634151D01*
X53920192Y-102711142D01*
X53920197Y-102711144D01*
X54105354Y-102750500D01*
X54105355Y-102750500D01*
X54294644Y-102750500D01*
X54294646Y-102750500D01*
X54479803Y-102711144D01*
X54652730Y-102634151D01*
X54805871Y-102522888D01*
X54932533Y-102382216D01*
X55027179Y-102218284D01*
X55085674Y-102038256D01*
X55105460Y-101850000D01*
X55085674Y-101661744D01*
X55027179Y-101481716D01*
X54932533Y-101317784D01*
X54805871Y-101177112D01*
X54782222Y-101159930D01*
X54652734Y-101065851D01*
X54652729Y-101065848D01*
X54479806Y-100988857D01*
X54479804Y-100988856D01*
X54479803Y-100988856D01*
X54450405Y-100982607D01*
X54444544Y-100981361D01*
X54383063Y-100948167D01*
X54382647Y-100947752D01*
X52822076Y-99387181D01*
X52788591Y-99325858D01*
X52793575Y-99256166D01*
X52835447Y-99200233D01*
X52900911Y-99175816D01*
X52909757Y-99175500D01*
X54359263Y-99175500D01*
X54426302Y-99195185D01*
X54466650Y-99237500D01*
X54492467Y-99282216D01*
X54615141Y-99418459D01*
X54619129Y-99422888D01*
X54772265Y-99534148D01*
X54772270Y-99534151D01*
X54945192Y-99611142D01*
X54945197Y-99611144D01*
X55130354Y-99650500D01*
X55130355Y-99650500D01*
X55319644Y-99650500D01*
X55319646Y-99650500D01*
X55504803Y-99611144D01*
X55677730Y-99534151D01*
X55765260Y-99470556D01*
X55831065Y-99447076D01*
X55899119Y-99462901D01*
X55911024Y-99470551D01*
X55911032Y-99470557D01*
X55957270Y-99504151D01*
X56130192Y-99581142D01*
X56130197Y-99581144D01*
X56315354Y-99620500D01*
X56315355Y-99620500D01*
X56504639Y-99620500D01*
X56504646Y-99620500D01*
X56504652Y-99620498D01*
X56507529Y-99620196D01*
X56509192Y-99620500D01*
X56511145Y-99620500D01*
X56511145Y-99620857D01*
X56576259Y-99632760D01*
X56627287Y-99680488D01*
X56644500Y-99743516D01*
X56644500Y-101038640D01*
X56624815Y-101105679D01*
X56572011Y-101151434D01*
X56546281Y-101159930D01*
X56410197Y-101188855D01*
X56410192Y-101188857D01*
X56237270Y-101265848D01*
X56237265Y-101265851D01*
X56084129Y-101377111D01*
X55957466Y-101517785D01*
X55862821Y-101681715D01*
X55862818Y-101681722D01*
X55808005Y-101850420D01*
X55804326Y-101861744D01*
X55784540Y-102050000D01*
X55804326Y-102238256D01*
X55804327Y-102238259D01*
X55862818Y-102418277D01*
X55862821Y-102418284D01*
X55957467Y-102582216D01*
X56004227Y-102634148D01*
X56084129Y-102722888D01*
X56237265Y-102834148D01*
X56237270Y-102834151D01*
X56410192Y-102911142D01*
X56410197Y-102911144D01*
X56595354Y-102950500D01*
X56595355Y-102950500D01*
X56784644Y-102950500D01*
X56784646Y-102950500D01*
X56969803Y-102911144D01*
X57142730Y-102834151D01*
X57295871Y-102722888D01*
X57422533Y-102582216D01*
X57517179Y-102418284D01*
X57575674Y-102238256D01*
X57593321Y-102070345D01*
X57619905Y-102005732D01*
X57628952Y-101995636D01*
X57668729Y-101955860D01*
X57668733Y-101955858D01*
X57755858Y-101868733D01*
X57786584Y-101822746D01*
X57807254Y-101791813D01*
X57807256Y-101791810D01*
X57814106Y-101781557D01*
X57824312Y-101766285D01*
X57859585Y-101681128D01*
X57871463Y-101652452D01*
X57888666Y-101565965D01*
X57894178Y-101538255D01*
X57894179Y-101538255D01*
X57894179Y-101538245D01*
X57895500Y-101531607D01*
X57895500Y-101408393D01*
X57895500Y-98603727D01*
X57915185Y-98536688D01*
X57967989Y-98490933D01*
X57993720Y-98482436D01*
X57999803Y-98481144D01*
X58172730Y-98404151D01*
X58325871Y-98292888D01*
X58343821Y-98272953D01*
X58403308Y-98236304D01*
X58473165Y-98237633D01*
G37*
%TD.AperFunction*%
%TA.AperFunction,Conductor*%
G36*
X42880703Y-107335629D02*
G01*
X42918477Y-107394407D01*
X42921118Y-107405152D01*
X42928537Y-107442454D01*
X42931657Y-107449982D01*
X42931661Y-107450002D01*
X42931664Y-107450001D01*
X42945037Y-107482285D01*
X42975688Y-107556286D01*
X42975690Y-107556290D01*
X43006259Y-107602038D01*
X43006260Y-107602039D01*
X43044140Y-107658731D01*
X43044141Y-107658732D01*
X43044142Y-107658733D01*
X43131267Y-107745858D01*
X43131268Y-107745858D01*
X43138335Y-107752925D01*
X43138334Y-107752925D01*
X43138338Y-107752928D01*
X44089967Y-108704557D01*
X44123452Y-108765880D01*
X44118468Y-108835572D01*
X44076596Y-108891505D01*
X44011132Y-108915922D01*
X43982889Y-108914712D01*
X43921566Y-108905000D01*
X43785000Y-108905000D01*
X43785000Y-109654988D01*
X43285000Y-109654988D01*
X43285000Y-108905000D01*
X43148429Y-108905000D01*
X42977414Y-108932086D01*
X42977411Y-108932086D01*
X42837818Y-108977443D01*
X42767977Y-108979438D01*
X42708144Y-108943357D01*
X42677316Y-108880656D01*
X42675500Y-108859512D01*
X42675500Y-107429342D01*
X42695185Y-107362303D01*
X42747989Y-107316548D01*
X42817147Y-107306604D01*
X42880703Y-107335629D01*
G37*
%TD.AperFunction*%
%TA.AperFunction,Conductor*%
G36*
X45411683Y-93070306D02*
G01*
X45422713Y-93080096D01*
X49163486Y-96820868D01*
X49196971Y-96882191D01*
X49199805Y-96908549D01*
X49199805Y-96990500D01*
X49180120Y-97057539D01*
X49127316Y-97103294D01*
X49086645Y-97112141D01*
X49086822Y-97113820D01*
X49080355Y-97114499D01*
X48895197Y-97153855D01*
X48895192Y-97153857D01*
X48722270Y-97230848D01*
X48722265Y-97230851D01*
X48569129Y-97342111D01*
X48442466Y-97482785D01*
X48347821Y-97646715D01*
X48347818Y-97646722D01*
X48306020Y-97775364D01*
X48289326Y-97826744D01*
X48269540Y-98015000D01*
X48289326Y-98203256D01*
X48289327Y-98203259D01*
X48347818Y-98383277D01*
X48347821Y-98383284D01*
X48442467Y-98547216D01*
X48569129Y-98687888D01*
X48678740Y-98767525D01*
X48693514Y-98780144D01*
X48820871Y-98907500D01*
X48882181Y-98968810D01*
X48915666Y-99030133D01*
X48918500Y-99056491D01*
X48918500Y-101129257D01*
X48914405Y-101155118D01*
X48915676Y-101155389D01*
X48914326Y-101161739D01*
X48897926Y-101317784D01*
X48894540Y-101350000D01*
X48914324Y-101538240D01*
X48914327Y-101538261D01*
X48915678Y-101544617D01*
X48914396Y-101544889D01*
X48918500Y-101570741D01*
X48918500Y-108978473D01*
X48898815Y-109045512D01*
X48846011Y-109091267D01*
X48776853Y-109101211D01*
X48721616Y-109078792D01*
X48701527Y-109064197D01*
X48547257Y-108985591D01*
X48382584Y-108932085D01*
X48211571Y-108905000D01*
X47975000Y-108905000D01*
X47975000Y-109654988D01*
X47475000Y-109654988D01*
X47475000Y-108905000D01*
X47238429Y-108905000D01*
X47067415Y-108932085D01*
X46902742Y-108985591D01*
X46825795Y-109024799D01*
X46757126Y-109037695D01*
X46692385Y-109011419D01*
X46652128Y-108954312D01*
X46645500Y-108914314D01*
X46645500Y-108888393D01*
X46645499Y-108888389D01*
X46621464Y-108767555D01*
X46621463Y-108767548D01*
X46574311Y-108653714D01*
X46574310Y-108653713D01*
X46574307Y-108653707D01*
X46505858Y-108551267D01*
X46505855Y-108551263D01*
X46415637Y-108461045D01*
X46415606Y-108461016D01*
X45037570Y-107082980D01*
X45004085Y-107021657D01*
X45001251Y-106995299D01*
X45001251Y-106983486D01*
X45020936Y-106916447D01*
X45033101Y-106900514D01*
X45053784Y-106877543D01*
X45108284Y-106817015D01*
X45202930Y-106653083D01*
X45261425Y-106473055D01*
X45281211Y-106284799D01*
X45261425Y-106096543D01*
X45202930Y-105916515D01*
X45150530Y-105825756D01*
X45134058Y-105757858D01*
X45150529Y-105701762D01*
X45187179Y-105638284D01*
X45245674Y-105458256D01*
X45265460Y-105270000D01*
X45245674Y-105081744D01*
X45187179Y-104901716D01*
X45092533Y-104737784D01*
X44965871Y-104597112D01*
X44965870Y-104597111D01*
X44812734Y-104485851D01*
X44812729Y-104485848D01*
X44639807Y-104408857D01*
X44639802Y-104408855D01*
X44494001Y-104377865D01*
X44454646Y-104369500D01*
X44265354Y-104369500D01*
X44232897Y-104376398D01*
X44080197Y-104408855D01*
X44080192Y-104408857D01*
X43907270Y-104485848D01*
X43907265Y-104485851D01*
X43754129Y-104597111D01*
X43627466Y-104737785D01*
X43532821Y-104901715D01*
X43532819Y-104901719D01*
X43498281Y-105008015D01*
X43468031Y-105057377D01*
X43131270Y-105394139D01*
X43044144Y-105481264D01*
X43044138Y-105481272D01*
X42975690Y-105583708D01*
X42975688Y-105583713D01*
X42943906Y-105660443D01*
X42928539Y-105697541D01*
X42928535Y-105697555D01*
X42921117Y-105734850D01*
X42888733Y-105796761D01*
X42828017Y-105831335D01*
X42758247Y-105827596D01*
X42701575Y-105786730D01*
X42675994Y-105721712D01*
X42675500Y-105710659D01*
X42675500Y-97775364D01*
X42695185Y-97708325D01*
X42747989Y-97662570D01*
X42817147Y-97652626D01*
X42880703Y-97681651D01*
X42891650Y-97692392D01*
X42964129Y-97772888D01*
X43117265Y-97884148D01*
X43117270Y-97884151D01*
X43290192Y-97961142D01*
X43290197Y-97961144D01*
X43475354Y-98000500D01*
X43475355Y-98000500D01*
X43664644Y-98000500D01*
X43664646Y-98000500D01*
X43849803Y-97961144D01*
X44022730Y-97884151D01*
X44175871Y-97772888D01*
X44302533Y-97632216D01*
X44397179Y-97468284D01*
X44455674Y-97288256D01*
X44475460Y-97100000D01*
X44455674Y-96911744D01*
X44397179Y-96731716D01*
X44302533Y-96567784D01*
X44227350Y-96484284D01*
X44197120Y-96421292D01*
X44195500Y-96401312D01*
X44195500Y-93860452D01*
X44215185Y-93793413D01*
X44231819Y-93772771D01*
X44372771Y-93631819D01*
X44434094Y-93598334D01*
X44460452Y-93595500D01*
X44519644Y-93595500D01*
X44519646Y-93595500D01*
X44704803Y-93556144D01*
X44877730Y-93479151D01*
X45030871Y-93367888D01*
X45157533Y-93227216D01*
X45227646Y-93105775D01*
X45278211Y-93057562D01*
X45346818Y-93044338D01*
X45411683Y-93070306D01*
G37*
%TD.AperFunction*%
%TA.AperFunction,Conductor*%
G36*
X130961587Y-85095185D02*
G01*
X130982229Y-85111819D01*
X143074762Y-97204352D01*
X143108247Y-97265675D01*
X143106856Y-97324126D01*
X143079938Y-97424586D01*
X143079936Y-97424596D01*
X143059341Y-97659999D01*
X143059341Y-97660000D01*
X143079936Y-97895403D01*
X143079938Y-97895413D01*
X143141094Y-98123655D01*
X143141096Y-98123659D01*
X143141097Y-98123663D01*
X143193623Y-98236304D01*
X143240965Y-98337830D01*
X143240967Y-98337834D01*
X143376501Y-98531395D01*
X143376506Y-98531402D01*
X143543597Y-98698493D01*
X143543603Y-98698498D01*
X143729158Y-98828425D01*
X143772783Y-98883002D01*
X143779977Y-98952500D01*
X143748454Y-99014855D01*
X143729158Y-99031575D01*
X143543597Y-99161505D01*
X143376505Y-99328597D01*
X143240965Y-99522169D01*
X143240964Y-99522171D01*
X143141098Y-99736335D01*
X143141094Y-99736344D01*
X143079938Y-99964586D01*
X143079936Y-99964596D01*
X143059341Y-100199999D01*
X143059341Y-100200000D01*
X143079936Y-100435403D01*
X143079938Y-100435413D01*
X143141094Y-100663655D01*
X143141096Y-100663659D01*
X143141097Y-100663663D01*
X143179989Y-100747066D01*
X143240965Y-100877830D01*
X143240967Y-100877834D01*
X143318706Y-100988856D01*
X143372617Y-101065849D01*
X143376501Y-101071395D01*
X143376506Y-101071402D01*
X143543597Y-101238493D01*
X143543603Y-101238498D01*
X143729158Y-101368425D01*
X143772783Y-101423002D01*
X143779977Y-101492500D01*
X143748454Y-101554855D01*
X143729158Y-101571575D01*
X143543597Y-101701505D01*
X143376505Y-101868597D01*
X143240965Y-102062169D01*
X143240964Y-102062171D01*
X143141098Y-102276335D01*
X143141094Y-102276344D01*
X143079938Y-102504586D01*
X143079936Y-102504596D01*
X143059341Y-102739999D01*
X143059341Y-102740000D01*
X143079936Y-102975403D01*
X143079938Y-102975413D01*
X143141094Y-103203655D01*
X143141096Y-103203659D01*
X143141097Y-103203663D01*
X143233400Y-103401607D01*
X143240965Y-103417830D01*
X143240967Y-103417834D01*
X143376501Y-103611395D01*
X143376506Y-103611402D01*
X143543597Y-103778493D01*
X143543603Y-103778498D01*
X143729158Y-103908425D01*
X143772783Y-103963002D01*
X143779977Y-104032500D01*
X143748454Y-104094855D01*
X143729158Y-104111575D01*
X143543597Y-104241505D01*
X143376505Y-104408597D01*
X143240965Y-104602169D01*
X143240964Y-104602171D01*
X143141098Y-104816335D01*
X143141094Y-104816344D01*
X143079938Y-105044586D01*
X143079936Y-105044596D01*
X143059341Y-105279999D01*
X143059341Y-105280000D01*
X143079936Y-105515403D01*
X143079938Y-105515413D01*
X143141094Y-105743655D01*
X143141096Y-105743659D01*
X143141097Y-105743663D01*
X143221702Y-105916521D01*
X143240965Y-105957830D01*
X143240967Y-105957834D01*
X143338090Y-106096539D01*
X143376505Y-106151401D01*
X143543599Y-106318495D01*
X143684439Y-106417112D01*
X143729594Y-106448730D01*
X143773218Y-106503307D01*
X143780411Y-106572806D01*
X143748889Y-106635160D01*
X143729593Y-106651880D01*
X143653626Y-106705072D01*
X143653625Y-106705072D01*
X144244755Y-107296202D01*
X144202703Y-107307470D01*
X144077285Y-107379881D01*
X143974881Y-107482285D01*
X143902470Y-107607703D01*
X143891202Y-107649755D01*
X143300072Y-107058625D01*
X143241401Y-107142419D01*
X143141570Y-107356507D01*
X143141566Y-107356516D01*
X143080432Y-107584673D01*
X143080430Y-107584683D01*
X143067396Y-107733657D01*
X143041943Y-107798726D01*
X142985352Y-107839704D01*
X142915590Y-107843582D01*
X142856187Y-107810530D01*
X122351546Y-87305888D01*
X122351545Y-87305887D01*
X122236807Y-87229222D01*
X122109332Y-87176421D01*
X122109322Y-87176418D01*
X121973996Y-87149500D01*
X121973994Y-87149500D01*
X121973993Y-87149500D01*
X62031007Y-87149500D01*
X62031003Y-87149500D01*
X61922590Y-87171065D01*
X61922589Y-87171065D01*
X61906379Y-87174289D01*
X61895669Y-87176420D01*
X61871852Y-87186286D01*
X61768188Y-87229225D01*
X61768188Y-87229226D01*
X61653456Y-87305886D01*
X60457026Y-88502316D01*
X60395703Y-88535801D01*
X60395126Y-88535925D01*
X60240197Y-88568855D01*
X60240196Y-88568855D01*
X60219935Y-88577877D01*
X60150685Y-88587161D01*
X60087409Y-88557532D01*
X60050196Y-88498397D01*
X60045500Y-88464597D01*
X60045500Y-87562304D01*
X60065185Y-87495265D01*
X60077350Y-87479332D01*
X60140033Y-87409716D01*
X60234679Y-87245784D01*
X60293174Y-87065756D01*
X60312960Y-86877500D01*
X60293174Y-86689244D01*
X60234679Y-86509216D01*
X60140033Y-86345284D01*
X60013371Y-86204612D01*
X60013370Y-86204611D01*
X59860234Y-86093351D01*
X59860229Y-86093348D01*
X59687307Y-86016357D01*
X59687302Y-86016355D01*
X59541501Y-85985365D01*
X59502146Y-85977000D01*
X59312854Y-85977000D01*
X59280397Y-85983898D01*
X59127697Y-86016355D01*
X59127692Y-86016357D01*
X58954770Y-86093348D01*
X58954765Y-86093351D01*
X58801629Y-86204611D01*
X58674966Y-86345285D01*
X58580321Y-86509215D01*
X58580318Y-86509222D01*
X58524753Y-86680235D01*
X58521826Y-86689244D01*
X58502040Y-86877500D01*
X58521826Y-87065756D01*
X58521827Y-87065759D01*
X58580318Y-87245777D01*
X58580321Y-87245784D01*
X58674964Y-87409712D01*
X58674965Y-87409714D01*
X58674967Y-87409716D01*
X58762651Y-87507098D01*
X58792880Y-87570088D01*
X58794500Y-87590069D01*
X58794500Y-90279546D01*
X58774815Y-90346585D01*
X58758181Y-90367228D01*
X58649459Y-90475949D01*
X58588136Y-90509433D01*
X58518444Y-90504449D01*
X58469629Y-90471240D01*
X58375871Y-90367112D01*
X58337931Y-90339547D01*
X58222734Y-90255851D01*
X58222729Y-90255848D01*
X58049807Y-90178857D01*
X58049802Y-90178855D01*
X57904001Y-90147865D01*
X57864646Y-90139500D01*
X57864645Y-90139500D01*
X57805452Y-90139500D01*
X57738413Y-90119815D01*
X57717771Y-90103181D01*
X52901771Y-85287181D01*
X52868286Y-85225858D01*
X52873270Y-85156166D01*
X52915142Y-85100233D01*
X52980606Y-85075816D01*
X52989452Y-85075500D01*
X130894548Y-85075500D01*
X130961587Y-85095185D01*
G37*
%TD.AperFunction*%
%TA.AperFunction,Conductor*%
G36*
X132776587Y-84370185D02*
G01*
X132797229Y-84386819D01*
X143074761Y-94664352D01*
X143108246Y-94725675D01*
X143106855Y-94784124D01*
X143079937Y-94884589D01*
X143079937Y-94884590D01*
X143059341Y-95119999D01*
X143059341Y-95120389D01*
X143059292Y-95120554D01*
X143058869Y-95125394D01*
X143057896Y-95125308D01*
X143039656Y-95187428D01*
X142986852Y-95233183D01*
X142917694Y-95243127D01*
X142854138Y-95214102D01*
X142847660Y-95208070D01*
X132201771Y-84562181D01*
X132168286Y-84500858D01*
X132173270Y-84431166D01*
X132215142Y-84375233D01*
X132280606Y-84350816D01*
X132289452Y-84350500D01*
X132709548Y-84350500D01*
X132776587Y-84370185D01*
G37*
%TD.AperFunction*%
%TA.AperFunction,Conductor*%
G36*
X151173212Y-66919685D02*
G01*
X151218967Y-66972489D01*
X151230173Y-67023877D01*
X151299876Y-137145899D01*
X151280258Y-137212958D01*
X151227500Y-137258765D01*
X151175898Y-137270022D01*
X40503951Y-137289977D01*
X40436908Y-137270305D01*
X40391144Y-137217509D01*
X40379929Y-137166049D01*
X40369262Y-118394999D01*
X42160884Y-118394999D01*
X42160885Y-118395000D01*
X42940022Y-118395000D01*
X42904934Y-118430088D01*
X42858854Y-118509901D01*
X42835001Y-118598920D01*
X42835001Y-118691080D01*
X42858854Y-118780099D01*
X42904934Y-118859912D01*
X42940022Y-118895000D01*
X42160885Y-118895000D01*
X42162085Y-118902584D01*
X42215591Y-119067255D01*
X42294195Y-119221524D01*
X42395967Y-119361602D01*
X42518397Y-119484032D01*
X42658475Y-119585804D01*
X42812742Y-119664408D01*
X42977415Y-119717914D01*
X43148429Y-119745000D01*
X43285000Y-119745000D01*
X43285000Y-118995012D01*
X43785000Y-118995012D01*
X43785000Y-119745000D01*
X43921571Y-119745000D01*
X44092584Y-119717914D01*
X44257257Y-119664408D01*
X44411524Y-119585804D01*
X44551602Y-119484032D01*
X44674032Y-119361602D01*
X44775804Y-119221524D01*
X44854408Y-119067255D01*
X44907914Y-118902584D01*
X44909115Y-118895000D01*
X44129978Y-118895000D01*
X44165066Y-118859912D01*
X44211146Y-118780099D01*
X44234999Y-118691080D01*
X44234999Y-118598920D01*
X44211146Y-118509901D01*
X44165066Y-118430088D01*
X44129978Y-118395000D01*
X44909115Y-118395000D01*
X44909115Y-118394999D01*
X44907914Y-118387415D01*
X44854408Y-118222744D01*
X44775804Y-118068475D01*
X44674032Y-117928397D01*
X44551602Y-117805967D01*
X44411524Y-117704195D01*
X44257257Y-117625591D01*
X44092584Y-117572085D01*
X43921571Y-117545000D01*
X43785000Y-117545000D01*
X43785000Y-118294988D01*
X43285000Y-118294988D01*
X43285000Y-117545000D01*
X43148429Y-117545000D01*
X42977415Y-117572085D01*
X42812742Y-117625591D01*
X42658475Y-117704195D01*
X42518397Y-117805967D01*
X42395967Y-117928397D01*
X42294195Y-118068475D01*
X42215591Y-118222744D01*
X42162085Y-118387415D01*
X42160884Y-118394999D01*
X40369262Y-118394999D01*
X40357743Y-98123655D01*
X40344661Y-75101993D01*
X40974500Y-75101993D01*
X40974500Y-75101998D01*
X40974500Y-110711606D01*
X40995619Y-110817784D01*
X40995620Y-110817787D01*
X40995619Y-110817787D01*
X40998535Y-110832446D01*
X40998536Y-110832450D01*
X40998537Y-110832451D01*
X41045688Y-110946286D01*
X41069633Y-110982121D01*
X41069634Y-110982124D01*
X41069635Y-110982124D01*
X41114141Y-111048732D01*
X41114144Y-111048736D01*
X41205586Y-111140178D01*
X41205608Y-111140198D01*
X46543629Y-116478219D01*
X46577114Y-116539542D01*
X46572130Y-116609234D01*
X46543633Y-116653578D01*
X46524373Y-116672838D01*
X46524369Y-116672843D01*
X46516877Y-116684056D01*
X46505932Y-116698128D01*
X46493142Y-116712333D01*
X46493138Y-116712338D01*
X46464392Y-116762127D01*
X46460109Y-116769014D01*
X46431302Y-116812126D01*
X46431296Y-116812137D01*
X46423683Y-116830517D01*
X46416513Y-116845055D01*
X46403752Y-116867158D01*
X46387959Y-116915761D01*
X46384592Y-116924887D01*
X46367183Y-116966919D01*
X46367183Y-116966921D01*
X46362052Y-116992714D01*
X46358367Y-117006834D01*
X46348504Y-117037192D01*
X46348502Y-117037202D01*
X46343828Y-117081664D01*
X46342126Y-117092885D01*
X46334500Y-117131228D01*
X46334500Y-117163924D01*
X46333821Y-117176885D01*
X46329815Y-117215000D01*
X46333821Y-117253114D01*
X46334500Y-117266075D01*
X46334500Y-117298770D01*
X46342126Y-117337114D01*
X46343828Y-117348336D01*
X46348502Y-117392797D01*
X46348503Y-117392804D01*
X46358366Y-117423160D01*
X46362051Y-117437281D01*
X46367183Y-117463079D01*
X46367184Y-117463084D01*
X46384586Y-117505095D01*
X46387955Y-117514226D01*
X46403750Y-117562836D01*
X46416508Y-117584933D01*
X46423682Y-117599479D01*
X46431296Y-117617862D01*
X46460110Y-117660984D01*
X46464396Y-117667876D01*
X46493142Y-117717667D01*
X46493143Y-117717668D01*
X46505928Y-117731867D01*
X46516874Y-117745939D01*
X46521033Y-117752162D01*
X46541918Y-117818837D01*
X46523440Y-117886219D01*
X46505621Y-117908742D01*
X46485971Y-117928391D01*
X46485966Y-117928398D01*
X46384198Y-118068471D01*
X46305591Y-118222744D01*
X46252085Y-118387415D01*
X46250884Y-118394999D01*
X46250885Y-118395000D01*
X46980022Y-118395000D01*
X46944934Y-118430088D01*
X46898854Y-118509901D01*
X46875001Y-118598920D01*
X46875001Y-118691080D01*
X46898854Y-118780099D01*
X46944934Y-118859912D01*
X46980022Y-118895000D01*
X46250885Y-118895000D01*
X46252085Y-118902584D01*
X46305591Y-119067255D01*
X46384195Y-119221524D01*
X46485967Y-119361602D01*
X46608397Y-119484032D01*
X46748475Y-119585804D01*
X46902742Y-119664408D01*
X47067415Y-119717914D01*
X47238429Y-119745000D01*
X47475000Y-119745000D01*
X47475000Y-118995012D01*
X47975000Y-118995012D01*
X47975000Y-119745000D01*
X48211571Y-119745000D01*
X48382584Y-119717914D01*
X48547257Y-119664408D01*
X48701524Y-119585804D01*
X48841602Y-119484032D01*
X48964032Y-119361602D01*
X49065804Y-119221524D01*
X49144408Y-119067255D01*
X49197914Y-118902584D01*
X49199115Y-118895000D01*
X48469978Y-118895000D01*
X48505066Y-118859912D01*
X48551146Y-118780099D01*
X48574999Y-118691080D01*
X48574999Y-118598920D01*
X48551146Y-118509901D01*
X48505066Y-118430088D01*
X48469978Y-118395000D01*
X49199115Y-118395000D01*
X49199115Y-118394999D01*
X49197914Y-118387415D01*
X49144408Y-118222744D01*
X49065804Y-118068475D01*
X48964032Y-117928397D01*
X48841602Y-117805967D01*
X48701524Y-117704195D01*
X48547257Y-117625591D01*
X48382584Y-117572085D01*
X48211571Y-117545000D01*
X48142274Y-117545000D01*
X48075235Y-117525315D01*
X48029480Y-117472511D01*
X48019536Y-117403353D01*
X48020982Y-117395226D01*
X48021495Y-117392808D01*
X48021497Y-117392803D01*
X48026171Y-117348322D01*
X48027875Y-117337098D01*
X48031137Y-117320703D01*
X48035500Y-117298767D01*
X48035500Y-117266075D01*
X48036179Y-117253114D01*
X48038972Y-117226539D01*
X48065556Y-117161924D01*
X48122853Y-117121939D01*
X48162293Y-117115500D01*
X54951797Y-117115500D01*
X55018836Y-117135185D01*
X55064591Y-117187989D01*
X55074535Y-117257147D01*
X55045510Y-117320703D01*
X55039478Y-117327181D01*
X51175878Y-121190781D01*
X51114555Y-121224266D01*
X51088197Y-121227100D01*
X47165693Y-121227100D01*
X47039561Y-121252189D01*
X47039555Y-121252191D01*
X46920737Y-121301407D01*
X46813797Y-121372861D01*
X46813796Y-121372862D01*
X45474826Y-122711831D01*
X45413503Y-122745316D01*
X45362237Y-122744102D01*
X45362025Y-122745306D01*
X45356686Y-122744364D01*
X45130001Y-122724532D01*
X45129998Y-122724532D01*
X44903313Y-122744364D01*
X44903302Y-122744366D01*
X44683511Y-122803258D01*
X44683502Y-122803261D01*
X44477267Y-122899431D01*
X44477265Y-122899432D01*
X44290858Y-123029954D01*
X44129954Y-123190858D01*
X43999432Y-123377265D01*
X43999431Y-123377267D01*
X43903261Y-123583502D01*
X43903258Y-123583511D01*
X43844366Y-123803302D01*
X43844364Y-123803313D01*
X43824532Y-124029998D01*
X43824532Y-124030001D01*
X43844364Y-124256686D01*
X43844366Y-124256697D01*
X43903258Y-124476488D01*
X43903261Y-124476497D01*
X43999431Y-124682732D01*
X43999432Y-124682734D01*
X44129954Y-124869141D01*
X44290858Y-125030045D01*
X44290861Y-125030047D01*
X44477266Y-125160568D01*
X44492387Y-125167619D01*
X44544825Y-125213791D01*
X44563976Y-125280985D01*
X44543760Y-125347866D01*
X44492387Y-125392380D01*
X44477266Y-125399432D01*
X44477264Y-125399433D01*
X44290858Y-125529954D01*
X44129954Y-125690858D01*
X43999432Y-125877265D01*
X43999431Y-125877267D01*
X43903261Y-126083502D01*
X43903258Y-126083511D01*
X43844366Y-126303302D01*
X43844364Y-126303313D01*
X43824532Y-126529998D01*
X43824532Y-126530001D01*
X43844364Y-126756686D01*
X43844366Y-126756697D01*
X43903258Y-126976488D01*
X43903261Y-126976497D01*
X43999431Y-127182732D01*
X43999432Y-127182734D01*
X44129954Y-127369141D01*
X44290858Y-127530045D01*
X44290861Y-127530047D01*
X44477266Y-127660568D01*
X44492387Y-127667619D01*
X44544825Y-127713791D01*
X44563976Y-127780985D01*
X44543760Y-127847866D01*
X44492387Y-127892380D01*
X44477266Y-127899432D01*
X44477264Y-127899433D01*
X44290858Y-128029954D01*
X44129954Y-128190858D01*
X43999432Y-128377265D01*
X43999431Y-128377267D01*
X43903261Y-128583502D01*
X43903258Y-128583511D01*
X43844366Y-128803302D01*
X43844364Y-128803313D01*
X43824532Y-129029998D01*
X43824532Y-129030001D01*
X43844364Y-129256686D01*
X43844366Y-129256697D01*
X43903258Y-129476488D01*
X43903261Y-129476497D01*
X43999431Y-129682732D01*
X43999432Y-129682734D01*
X44129954Y-129869141D01*
X44290858Y-130030045D01*
X44290861Y-130030047D01*
X44477266Y-130160568D01*
X44492975Y-130167893D01*
X44545414Y-130214064D01*
X44564567Y-130281257D01*
X44544352Y-130348138D01*
X44492979Y-130392656D01*
X44477514Y-130399867D01*
X44477512Y-130399868D01*
X44404526Y-130450973D01*
X44404526Y-130450974D01*
X45000591Y-131047038D01*
X44937008Y-131064076D01*
X44822994Y-131129902D01*
X44729902Y-131222994D01*
X44664076Y-131337008D01*
X44647038Y-131400590D01*
X44050974Y-130804526D01*
X44050973Y-130804526D01*
X43999868Y-130877512D01*
X43999866Y-130877516D01*
X43903734Y-131083673D01*
X43903730Y-131083682D01*
X43844860Y-131303389D01*
X43844858Y-131303400D01*
X43825034Y-131529997D01*
X43825034Y-131530002D01*
X43844858Y-131756599D01*
X43844860Y-131756610D01*
X43903730Y-131976317D01*
X43903735Y-131976331D01*
X43999863Y-132182478D01*
X44050974Y-132255472D01*
X44647038Y-131659408D01*
X44664076Y-131722992D01*
X44729902Y-131837006D01*
X44822994Y-131930098D01*
X44937008Y-131995924D01*
X45000591Y-132012961D01*
X44399352Y-132614199D01*
X44389506Y-132663194D01*
X44340890Y-132713377D01*
X44285367Y-132728049D01*
X44285423Y-132729099D01*
X44285429Y-132729146D01*
X44285426Y-132729146D01*
X44285436Y-132729324D01*
X44282123Y-132729501D01*
X44222516Y-132735908D01*
X44087671Y-132786202D01*
X44087664Y-132786206D01*
X43972455Y-132872452D01*
X43972452Y-132872455D01*
X43886206Y-132987664D01*
X43886202Y-132987671D01*
X43835908Y-133122517D01*
X43829501Y-133182116D01*
X43829501Y-133182123D01*
X43829500Y-133182135D01*
X43829500Y-134877870D01*
X43829501Y-134877876D01*
X43835908Y-134937483D01*
X43886202Y-135072328D01*
X43886206Y-135072335D01*
X43972452Y-135187544D01*
X43972455Y-135187547D01*
X44087664Y-135273793D01*
X44087671Y-135273797D01*
X44222517Y-135324091D01*
X44222516Y-135324091D01*
X44229444Y-135324835D01*
X44282127Y-135330500D01*
X45383955Y-135330499D01*
X45450994Y-135350184D01*
X45471636Y-135366818D01*
X46468474Y-136363656D01*
X46468503Y-136363687D01*
X46569614Y-136464798D01*
X46684876Y-136541813D01*
X46812935Y-136594856D01*
X46812936Y-136594856D01*
X46812938Y-136594857D01*
X46812942Y-136594857D01*
X46812943Y-136594858D01*
X46948888Y-136621901D01*
X46948891Y-136621901D01*
X47093622Y-136621901D01*
X47093642Y-136621900D01*
X105777255Y-136621900D01*
X105777275Y-136621901D01*
X105783389Y-136621901D01*
X105922007Y-136621901D01*
X106051799Y-136596083D01*
X106075991Y-136593700D01*
X148014558Y-136593700D01*
X148014578Y-136593701D01*
X148020692Y-136593701D01*
X148159310Y-136593701D01*
X148250768Y-136575507D01*
X148295262Y-136566657D01*
X148355246Y-136541811D01*
X148423323Y-136513613D01*
X148423324Y-136513612D01*
X148423327Y-136513611D01*
X148538583Y-136436600D01*
X148636600Y-136338583D01*
X148636601Y-136338581D01*
X148643667Y-136331515D01*
X148643670Y-136331511D01*
X149888579Y-135086602D01*
X149888583Y-135086600D01*
X149986600Y-134988583D01*
X150063611Y-134873327D01*
X150116657Y-134745262D01*
X150141129Y-134622232D01*
X150143700Y-134609309D01*
X150143700Y-134470692D01*
X150143700Y-115460442D01*
X150143701Y-115460421D01*
X150143701Y-115315688D01*
X150116658Y-115179743D01*
X150116657Y-115179739D01*
X150063612Y-115051676D01*
X150063611Y-115051673D01*
X150053636Y-115036744D01*
X150053633Y-115036740D01*
X149986603Y-114936421D01*
X149986597Y-114936413D01*
X149885487Y-114835303D01*
X149885456Y-114835274D01*
X145778608Y-110728426D01*
X145745123Y-110667103D01*
X145746513Y-110608653D01*
X145750063Y-110595408D01*
X145770659Y-110360000D01*
X145750063Y-110124592D01*
X145688903Y-109896337D01*
X145589035Y-109682171D01*
X145586704Y-109678841D01*
X145453494Y-109488597D01*
X145286402Y-109321506D01*
X145286401Y-109321505D01*
X145100405Y-109191269D01*
X145056781Y-109136692D01*
X145049588Y-109067193D01*
X145081110Y-109004839D01*
X145100405Y-108988119D01*
X145176373Y-108934925D01*
X144585244Y-108343797D01*
X144627297Y-108332530D01*
X144752715Y-108260119D01*
X144855119Y-108157715D01*
X144927530Y-108032297D01*
X144938797Y-107990245D01*
X145529925Y-108581373D01*
X145529926Y-108581373D01*
X145588598Y-108497582D01*
X145588600Y-108497578D01*
X145688429Y-108283492D01*
X145688433Y-108283483D01*
X145749567Y-108055326D01*
X145749569Y-108055315D01*
X145768764Y-107835920D01*
X147332562Y-107835920D01*
X147332562Y-108084079D01*
X147373408Y-108328862D01*
X147453984Y-108563572D01*
X147453989Y-108563582D01*
X147572094Y-108781822D01*
X147572100Y-108781831D01*
X147724517Y-108977656D01*
X147724520Y-108977660D01*
X147724522Y-108977662D01*
X147724523Y-108977663D01*
X147907102Y-109145739D01*
X147907104Y-109145740D01*
X148018129Y-109218277D01*
X148114855Y-109281471D01*
X148342116Y-109381157D01*
X148582685Y-109442077D01*
X148665123Y-109448908D01*
X148829994Y-109462571D01*
X148830000Y-109462571D01*
X148830006Y-109462571D01*
X148978389Y-109450274D01*
X149077315Y-109442077D01*
X149317884Y-109381157D01*
X149545145Y-109281471D01*
X149752898Y-109145739D01*
X149935477Y-108977663D01*
X150087902Y-108781828D01*
X150206014Y-108563576D01*
X150286592Y-108328859D01*
X150327438Y-108084081D01*
X150330000Y-107960000D01*
X150327438Y-107835919D01*
X150286592Y-107591141D01*
X150206014Y-107356424D01*
X150090203Y-107142423D01*
X150087905Y-107138177D01*
X150087899Y-107138168D01*
X149935482Y-106942343D01*
X149935479Y-106942339D01*
X149752899Y-106774262D01*
X149752895Y-106774259D01*
X149545146Y-106638529D01*
X149317884Y-106538843D01*
X149077311Y-106477922D01*
X148830006Y-106457430D01*
X148829994Y-106457430D01*
X148582688Y-106477922D01*
X148342115Y-106538843D01*
X148114853Y-106638529D01*
X147907104Y-106774259D01*
X147907100Y-106774262D01*
X147724520Y-106942339D01*
X147724517Y-106942343D01*
X147572100Y-107138168D01*
X147572094Y-107138177D01*
X147453989Y-107356417D01*
X147453984Y-107356427D01*
X147373408Y-107591137D01*
X147332562Y-107835920D01*
X145768764Y-107835920D01*
X145770157Y-107820001D01*
X145770157Y-107819998D01*
X145749569Y-107584684D01*
X145749567Y-107584673D01*
X145688433Y-107356516D01*
X145688429Y-107356507D01*
X145588600Y-107142423D01*
X145588599Y-107142421D01*
X145529925Y-107058626D01*
X145529925Y-107058625D01*
X144938797Y-107649754D01*
X144927530Y-107607703D01*
X144855119Y-107482285D01*
X144752715Y-107379881D01*
X144627297Y-107307470D01*
X144585245Y-107296202D01*
X145176373Y-106705073D01*
X145176373Y-106705072D01*
X145100405Y-106651880D01*
X145056780Y-106597304D01*
X145049586Y-106527805D01*
X145081108Y-106465451D01*
X145100399Y-106448734D01*
X145286401Y-106318495D01*
X145453495Y-106151401D01*
X145589035Y-105957830D01*
X145688903Y-105743663D01*
X145750063Y-105515408D01*
X145770659Y-105280000D01*
X145750063Y-105044592D01*
X145688903Y-104816337D01*
X145589035Y-104602171D01*
X145565247Y-104568197D01*
X145453494Y-104408597D01*
X145286402Y-104241506D01*
X145286396Y-104241501D01*
X145100842Y-104111575D01*
X145057217Y-104056998D01*
X145050023Y-103987500D01*
X145081546Y-103925145D01*
X145100842Y-103908425D01*
X145208658Y-103832931D01*
X145286401Y-103778495D01*
X145453495Y-103611401D01*
X145589035Y-103417830D01*
X145688903Y-103203663D01*
X145750063Y-102975408D01*
X145770659Y-102740000D01*
X145750063Y-102504592D01*
X145688903Y-102276337D01*
X145589035Y-102062171D01*
X145570652Y-102035916D01*
X145453494Y-101868597D01*
X145286402Y-101701506D01*
X145286396Y-101701501D01*
X145100842Y-101571575D01*
X145057217Y-101516998D01*
X145050023Y-101447500D01*
X145081546Y-101385145D01*
X145100842Y-101368425D01*
X145123026Y-101352891D01*
X145286401Y-101238495D01*
X145453495Y-101071401D01*
X145589035Y-100877830D01*
X145688903Y-100663663D01*
X145750063Y-100435408D01*
X145770659Y-100200000D01*
X145750063Y-99964592D01*
X145690827Y-99743516D01*
X145688905Y-99736344D01*
X145688904Y-99736343D01*
X145688903Y-99736337D01*
X145589035Y-99522171D01*
X145576418Y-99504151D01*
X145453494Y-99328597D01*
X145286402Y-99161506D01*
X145286396Y-99161501D01*
X145100842Y-99031575D01*
X145057217Y-98976998D01*
X145050023Y-98907500D01*
X145081546Y-98845145D01*
X145100842Y-98828425D01*
X145152869Y-98791995D01*
X145286401Y-98698495D01*
X145453495Y-98531401D01*
X145589035Y-98337830D01*
X145688903Y-98123663D01*
X145750063Y-97895408D01*
X145770659Y-97660000D01*
X145750063Y-97424592D01*
X145688903Y-97196337D01*
X145589035Y-96982171D01*
X145527648Y-96894500D01*
X145453494Y-96788597D01*
X145286402Y-96621506D01*
X145286396Y-96621501D01*
X145100842Y-96491575D01*
X145057217Y-96436998D01*
X145050023Y-96367500D01*
X145081546Y-96305145D01*
X145100842Y-96288425D01*
X145239669Y-96191217D01*
X145286401Y-96158495D01*
X145453495Y-95991401D01*
X145589035Y-95797830D01*
X145688903Y-95583663D01*
X145750063Y-95355408D01*
X145770659Y-95120000D01*
X145750063Y-94884592D01*
X145697789Y-94689500D01*
X145688905Y-94656344D01*
X145688904Y-94656343D01*
X145688903Y-94656337D01*
X145589035Y-94442171D01*
X145554423Y-94392739D01*
X145453494Y-94248597D01*
X145286402Y-94081506D01*
X145286396Y-94081501D01*
X145100842Y-93951575D01*
X145057217Y-93896998D01*
X145050023Y-93827500D01*
X145081546Y-93765145D01*
X145100842Y-93748425D01*
X145143926Y-93718257D01*
X145286401Y-93618495D01*
X145453495Y-93451401D01*
X145589035Y-93257830D01*
X145688903Y-93043663D01*
X145750063Y-92815408D01*
X145770659Y-92580000D01*
X145750063Y-92344592D01*
X145688903Y-92116337D01*
X145589035Y-91902171D01*
X145585838Y-91897604D01*
X145453494Y-91708597D01*
X145286402Y-91541506D01*
X145286396Y-91541501D01*
X145100842Y-91411575D01*
X145057217Y-91356998D01*
X145050023Y-91287500D01*
X145081546Y-91225145D01*
X145100842Y-91208425D01*
X145191202Y-91145154D01*
X145286401Y-91078495D01*
X145453495Y-90911401D01*
X145589035Y-90717830D01*
X145688903Y-90503663D01*
X145750063Y-90275408D01*
X145770659Y-90040000D01*
X145750063Y-89804592D01*
X145688903Y-89576337D01*
X145589035Y-89362171D01*
X145523278Y-89268259D01*
X145453494Y-89168597D01*
X145286402Y-89001506D01*
X145286396Y-89001501D01*
X145100842Y-88871575D01*
X145057217Y-88816998D01*
X145050023Y-88747500D01*
X145081546Y-88685145D01*
X145100842Y-88668425D01*
X145189087Y-88606635D01*
X145286401Y-88538495D01*
X145453495Y-88371401D01*
X145589035Y-88177830D01*
X145688903Y-87963663D01*
X145750063Y-87735408D01*
X145770659Y-87500000D01*
X145750063Y-87264592D01*
X145688903Y-87036337D01*
X145589035Y-86822171D01*
X145564282Y-86786819D01*
X145453494Y-86628597D01*
X145286402Y-86461506D01*
X145286396Y-86461501D01*
X145100842Y-86331575D01*
X145057217Y-86276998D01*
X145050023Y-86207500D01*
X145081546Y-86145145D01*
X145100842Y-86128425D01*
X145150933Y-86093351D01*
X145286401Y-85998495D01*
X145453495Y-85831401D01*
X145589035Y-85637830D01*
X145688903Y-85423663D01*
X145750063Y-85195408D01*
X145770659Y-84960000D01*
X145750063Y-84724592D01*
X145688903Y-84496337D01*
X145589035Y-84282171D01*
X145453495Y-84088599D01*
X145453494Y-84088597D01*
X145286402Y-83921506D01*
X145286396Y-83921501D01*
X145100842Y-83791575D01*
X145057217Y-83736998D01*
X145050023Y-83667500D01*
X145081546Y-83605145D01*
X145100842Y-83588425D01*
X145236864Y-83493181D01*
X145286401Y-83458495D01*
X145453495Y-83291401D01*
X145589035Y-83097830D01*
X145688903Y-82883663D01*
X145750063Y-82655408D01*
X145770659Y-82420000D01*
X145750063Y-82184592D01*
X145688903Y-81956337D01*
X145589035Y-81742171D01*
X145563325Y-81705452D01*
X145453494Y-81548597D01*
X145286402Y-81381506D01*
X145286396Y-81381501D01*
X145100842Y-81251575D01*
X145057217Y-81196998D01*
X145050023Y-81127500D01*
X145081546Y-81065145D01*
X145100842Y-81048425D01*
X145134296Y-81025000D01*
X145286401Y-80918495D01*
X145453495Y-80751401D01*
X145589035Y-80557830D01*
X145688903Y-80343663D01*
X145750063Y-80115408D01*
X145770659Y-79880000D01*
X145750063Y-79644592D01*
X145688903Y-79416337D01*
X145589035Y-79202171D01*
X145555383Y-79154110D01*
X145453494Y-79008597D01*
X145286402Y-78841506D01*
X145286392Y-78841498D01*
X145100842Y-78711575D01*
X145057217Y-78656998D01*
X145050023Y-78587500D01*
X145081546Y-78525145D01*
X145100842Y-78508425D01*
X145168116Y-78461319D01*
X145286401Y-78378495D01*
X145453495Y-78211401D01*
X145589035Y-78017830D01*
X145688903Y-77803663D01*
X145750063Y-77575408D01*
X145770659Y-77340000D01*
X145750063Y-77104592D01*
X145688903Y-76876337D01*
X145589035Y-76662171D01*
X145453495Y-76468599D01*
X145453494Y-76468597D01*
X145286402Y-76301506D01*
X145286395Y-76301501D01*
X145092834Y-76165967D01*
X145092830Y-76165965D01*
X145092828Y-76165964D01*
X144878663Y-76066097D01*
X144878659Y-76066096D01*
X144878655Y-76066094D01*
X144650413Y-76004938D01*
X144650403Y-76004936D01*
X144415001Y-75984341D01*
X144414999Y-75984341D01*
X144179596Y-76004936D01*
X144179586Y-76004938D01*
X143951344Y-76066094D01*
X143951335Y-76066098D01*
X143737171Y-76165964D01*
X143737169Y-76165965D01*
X143543597Y-76301505D01*
X143376505Y-76468597D01*
X143240965Y-76662169D01*
X143240964Y-76662171D01*
X143141098Y-76876335D01*
X143141094Y-76876344D01*
X143079938Y-77104586D01*
X143079936Y-77104596D01*
X143059341Y-77339999D01*
X143059341Y-77340000D01*
X143079936Y-77575403D01*
X143079938Y-77575413D01*
X143141094Y-77803655D01*
X143141096Y-77803659D01*
X143141097Y-77803663D01*
X143240965Y-78017830D01*
X143240967Y-78017834D01*
X143347341Y-78169751D01*
X143360600Y-78188687D01*
X143376501Y-78211395D01*
X143376506Y-78211402D01*
X143543597Y-78378493D01*
X143543603Y-78378498D01*
X143729158Y-78508425D01*
X143772783Y-78563002D01*
X143779977Y-78632500D01*
X143748454Y-78694855D01*
X143729158Y-78711575D01*
X143543597Y-78841505D01*
X143376505Y-79008597D01*
X143240965Y-79202169D01*
X143240964Y-79202171D01*
X143141098Y-79416335D01*
X143141094Y-79416344D01*
X143079938Y-79644586D01*
X143079936Y-79644596D01*
X143059341Y-79879999D01*
X143059341Y-79880000D01*
X143079936Y-80115403D01*
X143079938Y-80115413D01*
X143141094Y-80343655D01*
X143141096Y-80343659D01*
X143141097Y-80343663D01*
X143183465Y-80434521D01*
X143240965Y-80557830D01*
X143240967Y-80557834D01*
X143376501Y-80751395D01*
X143376506Y-80751402D01*
X143543597Y-80918493D01*
X143543603Y-80918498D01*
X143729158Y-81048425D01*
X143772783Y-81103002D01*
X143779977Y-81172500D01*
X143748454Y-81234855D01*
X143729158Y-81251575D01*
X143543597Y-81381505D01*
X143376505Y-81548597D01*
X143240965Y-81742169D01*
X143240964Y-81742171D01*
X143141098Y-81956335D01*
X143141094Y-81956344D01*
X143079938Y-82184586D01*
X143079936Y-82184596D01*
X143059341Y-82419999D01*
X143059341Y-82420000D01*
X143079936Y-82655403D01*
X143079938Y-82655413D01*
X143141094Y-82883655D01*
X143141096Y-82883659D01*
X143141097Y-82883663D01*
X143240965Y-83097830D01*
X143240967Y-83097834D01*
X143376501Y-83291395D01*
X143376506Y-83291402D01*
X143543597Y-83458493D01*
X143543603Y-83458498D01*
X143729158Y-83588425D01*
X143772783Y-83643002D01*
X143779977Y-83712500D01*
X143748454Y-83774855D01*
X143729158Y-83791575D01*
X143543597Y-83921505D01*
X143376505Y-84088597D01*
X143240965Y-84282169D01*
X143240964Y-84282171D01*
X143141098Y-84496335D01*
X143141094Y-84496344D01*
X143079938Y-84724586D01*
X143079936Y-84724596D01*
X143059341Y-84959999D01*
X143059341Y-84960000D01*
X143079936Y-85195403D01*
X143079938Y-85195413D01*
X143141094Y-85423655D01*
X143141096Y-85423659D01*
X143141097Y-85423663D01*
X143240965Y-85637830D01*
X143240967Y-85637834D01*
X143349281Y-85792521D01*
X143367885Y-85819091D01*
X143376501Y-85831395D01*
X143376506Y-85831402D01*
X143543597Y-85998493D01*
X143543603Y-85998498D01*
X143729158Y-86128425D01*
X143772783Y-86183002D01*
X143779977Y-86252500D01*
X143748454Y-86314855D01*
X143729158Y-86331575D01*
X143543597Y-86461505D01*
X143376505Y-86628597D01*
X143240965Y-86822169D01*
X143240964Y-86822171D01*
X143141098Y-87036335D01*
X143141094Y-87036344D01*
X143079938Y-87264586D01*
X143079936Y-87264596D01*
X143059341Y-87499999D01*
X143059341Y-87500000D01*
X143079936Y-87735403D01*
X143079938Y-87735413D01*
X143141094Y-87963655D01*
X143141096Y-87963659D01*
X143141097Y-87963663D01*
X143232418Y-88159500D01*
X143240965Y-88177830D01*
X143240967Y-88177834D01*
X143376501Y-88371395D01*
X143376506Y-88371402D01*
X143543597Y-88538493D01*
X143543603Y-88538498D01*
X143729158Y-88668425D01*
X143772783Y-88723002D01*
X143779977Y-88792500D01*
X143748454Y-88854855D01*
X143729158Y-88871575D01*
X143543597Y-89001505D01*
X143376505Y-89168597D01*
X143240965Y-89362169D01*
X143240964Y-89362171D01*
X143141098Y-89576335D01*
X143141094Y-89576344D01*
X143079938Y-89804586D01*
X143079936Y-89804596D01*
X143059341Y-90039999D01*
X143059341Y-90040000D01*
X143079936Y-90275403D01*
X143079938Y-90275413D01*
X143141094Y-90503655D01*
X143141096Y-90503659D01*
X143141097Y-90503663D01*
X143240965Y-90717830D01*
X143240967Y-90717834D01*
X143376501Y-90911395D01*
X143376506Y-90911402D01*
X143543597Y-91078493D01*
X143543603Y-91078498D01*
X143729158Y-91208425D01*
X143772783Y-91263002D01*
X143779977Y-91332500D01*
X143748454Y-91394855D01*
X143729158Y-91411575D01*
X143543597Y-91541505D01*
X143376505Y-91708597D01*
X143240965Y-91902169D01*
X143240964Y-91902171D01*
X143141098Y-92116335D01*
X143141094Y-92116344D01*
X143079938Y-92344586D01*
X143079936Y-92344596D01*
X143059341Y-92579999D01*
X143059341Y-92580388D01*
X143059292Y-92580553D01*
X143058869Y-92585394D01*
X143057896Y-92585308D01*
X143039656Y-92647427D01*
X142986852Y-92693182D01*
X142917694Y-92703126D01*
X142854138Y-92674101D01*
X142847660Y-92668069D01*
X133512928Y-83333338D01*
X133512925Y-83333334D01*
X133512925Y-83333335D01*
X133505858Y-83326268D01*
X133505858Y-83326267D01*
X133418733Y-83239142D01*
X133418732Y-83239141D01*
X133418731Y-83239140D01*
X133367509Y-83204915D01*
X133316287Y-83170689D01*
X133316286Y-83170688D01*
X133316283Y-83170686D01*
X133316280Y-83170685D01*
X133235792Y-83137347D01*
X133202453Y-83123537D01*
X133192427Y-83121543D01*
X133142029Y-83111518D01*
X133081610Y-83099500D01*
X133081607Y-83099500D01*
X133081606Y-83099500D01*
X50302741Y-83099500D01*
X50302721Y-83099499D01*
X50296607Y-83099499D01*
X50173394Y-83099499D01*
X50072597Y-83119548D01*
X50072592Y-83119548D01*
X50052549Y-83123536D01*
X50052547Y-83123536D01*
X50005397Y-83143067D01*
X49938719Y-83170685D01*
X49938717Y-83170686D01*
X49836266Y-83239141D01*
X49836263Y-83239144D01*
X49582228Y-83493181D01*
X49520905Y-83526666D01*
X49494547Y-83529500D01*
X49435354Y-83529500D01*
X49402897Y-83536398D01*
X49250197Y-83568855D01*
X49250192Y-83568857D01*
X49077270Y-83645848D01*
X49077265Y-83645851D01*
X48924129Y-83757111D01*
X48797466Y-83897785D01*
X48702821Y-84061715D01*
X48702818Y-84061722D01*
X48644327Y-84241740D01*
X48644326Y-84241744D01*
X48640077Y-84282171D01*
X48630161Y-84376513D01*
X48603576Y-84441128D01*
X48546278Y-84481112D01*
X48476459Y-84483772D01*
X48456404Y-84476830D01*
X48404807Y-84453857D01*
X48404802Y-84453855D01*
X48259001Y-84422865D01*
X48219646Y-84414500D01*
X48030354Y-84414500D01*
X47997897Y-84421398D01*
X47845197Y-84453855D01*
X47845192Y-84453857D01*
X47672270Y-84530848D01*
X47672265Y-84530851D01*
X47519129Y-84642111D01*
X47392466Y-84782785D01*
X47297821Y-84946715D01*
X47297818Y-84946722D01*
X47239433Y-85126413D01*
X47199995Y-85184089D01*
X47135637Y-85211287D01*
X47071066Y-85201374D01*
X46947154Y-85146204D01*
X46947149Y-85146202D01*
X46801348Y-85115212D01*
X46761993Y-85106847D01*
X46572701Y-85106847D01*
X46540244Y-85113745D01*
X46387544Y-85146202D01*
X46387539Y-85146204D01*
X46214617Y-85223195D01*
X46214612Y-85223198D01*
X46061476Y-85334458D01*
X45934813Y-85475132D01*
X45840168Y-85639062D01*
X45840165Y-85639069D01*
X45781674Y-85819087D01*
X45781673Y-85819091D01*
X45761887Y-86007347D01*
X45781673Y-86195603D01*
X45781674Y-86195606D01*
X45840165Y-86375624D01*
X45840168Y-86375631D01*
X45934814Y-86539563D01*
X46014981Y-86628597D01*
X46061476Y-86680235D01*
X46214612Y-86791495D01*
X46214617Y-86791498D01*
X46387539Y-86868489D01*
X46387544Y-86868491D01*
X46572701Y-86907847D01*
X46572702Y-86907847D01*
X46761991Y-86907847D01*
X46761993Y-86907847D01*
X46947150Y-86868491D01*
X47120077Y-86791498D01*
X47149412Y-86770185D01*
X47157675Y-86764182D01*
X47223481Y-86740702D01*
X47230560Y-86740500D01*
X51445905Y-86740500D01*
X51470094Y-86742881D01*
X51508394Y-86750500D01*
X51519548Y-86750500D01*
X51586587Y-86770185D01*
X51607229Y-86786819D01*
X55737173Y-90916763D01*
X55770658Y-90978086D01*
X55772813Y-91017404D01*
X55759387Y-91145154D01*
X55759387Y-91145156D01*
X55761067Y-91161147D01*
X55748495Y-91229877D01*
X55700761Y-91280899D01*
X55663528Y-91295394D01*
X55600196Y-91308856D01*
X55600192Y-91308857D01*
X55427270Y-91385848D01*
X55427265Y-91385851D01*
X55274129Y-91497111D01*
X55147466Y-91637785D01*
X55052821Y-91801715D01*
X55052818Y-91801722D01*
X55017361Y-91910849D01*
X54994326Y-91981744D01*
X54974540Y-92170000D01*
X54994326Y-92358256D01*
X54994327Y-92358259D01*
X55052818Y-92538277D01*
X55052821Y-92538284D01*
X55147467Y-92702216D01*
X55249381Y-92815403D01*
X55274129Y-92842888D01*
X55427265Y-92954148D01*
X55427270Y-92954151D01*
X55600192Y-93031142D01*
X55600197Y-93031144D01*
X55785354Y-93070500D01*
X55785355Y-93070500D01*
X55974644Y-93070500D01*
X55974646Y-93070500D01*
X56159803Y-93031144D01*
X56332730Y-92954151D01*
X56485871Y-92842888D01*
X56488788Y-92839647D01*
X56491600Y-92836526D01*
X56551087Y-92799879D01*
X56583748Y-92795500D01*
X57901607Y-92795500D01*
X57962029Y-92783481D01*
X58022452Y-92771463D01*
X58072496Y-92750734D01*
X58136286Y-92724312D01*
X58187509Y-92690084D01*
X58238733Y-92655858D01*
X58325858Y-92568733D01*
X58325858Y-92568731D01*
X58336066Y-92558524D01*
X58336067Y-92558521D01*
X59905857Y-90988734D01*
X59974311Y-90886286D01*
X60021463Y-90772452D01*
X60045500Y-90651607D01*
X60045500Y-90528394D01*
X60045500Y-90395402D01*
X60065185Y-90328363D01*
X60117989Y-90282608D01*
X60187147Y-90272664D01*
X60219936Y-90282123D01*
X60240197Y-90291144D01*
X60425354Y-90330500D01*
X60425355Y-90330500D01*
X60614644Y-90330500D01*
X60614646Y-90330500D01*
X60799803Y-90291144D01*
X60972730Y-90214151D01*
X61125871Y-90102888D01*
X61252533Y-89962216D01*
X61347179Y-89798284D01*
X61405674Y-89618256D01*
X61410864Y-89568869D01*
X61437447Y-89504258D01*
X61446494Y-89494161D01*
X62353837Y-88586819D01*
X62415160Y-88553334D01*
X62441518Y-88550500D01*
X62874359Y-88550500D01*
X62941398Y-88570185D01*
X62987153Y-88622989D01*
X62997097Y-88692147D01*
X62968072Y-88755703D01*
X62926764Y-88786882D01*
X62757171Y-88865964D01*
X62757169Y-88865965D01*
X62563597Y-89001505D01*
X62396505Y-89168597D01*
X62260965Y-89362169D01*
X62260964Y-89362171D01*
X62161098Y-89576335D01*
X62161094Y-89576344D01*
X62099938Y-89804586D01*
X62099936Y-89804596D01*
X62079341Y-90039999D01*
X62079341Y-90040000D01*
X62099936Y-90275403D01*
X62099938Y-90275413D01*
X62161094Y-90503655D01*
X62161096Y-90503659D01*
X62161097Y-90503663D01*
X62260965Y-90717830D01*
X62260967Y-90717834D01*
X62396501Y-90911395D01*
X62396506Y-90911402D01*
X62563597Y-91078493D01*
X62563603Y-91078498D01*
X62749158Y-91208425D01*
X62792783Y-91263002D01*
X62799977Y-91332500D01*
X62768454Y-91394855D01*
X62749158Y-91411575D01*
X62563597Y-91541505D01*
X62396505Y-91708597D01*
X62260965Y-91902169D01*
X62260964Y-91902171D01*
X62161098Y-92116335D01*
X62161094Y-92116344D01*
X62099938Y-92344586D01*
X62099936Y-92344596D01*
X62079341Y-92579999D01*
X62079341Y-92580000D01*
X62099936Y-92815403D01*
X62099938Y-92815413D01*
X62161094Y-93043655D01*
X62161096Y-93043659D01*
X62161097Y-93043663D01*
X62178086Y-93080096D01*
X62260965Y-93257830D01*
X62260967Y-93257834D01*
X62396501Y-93451395D01*
X62396506Y-93451402D01*
X62563597Y-93618493D01*
X62563603Y-93618498D01*
X62749158Y-93748425D01*
X62792783Y-93803002D01*
X62799977Y-93872500D01*
X62768454Y-93934855D01*
X62749158Y-93951575D01*
X62563597Y-94081505D01*
X62396505Y-94248597D01*
X62260965Y-94442169D01*
X62260964Y-94442171D01*
X62161098Y-94656335D01*
X62161094Y-94656344D01*
X62099938Y-94884586D01*
X62099936Y-94884596D01*
X62079341Y-95119999D01*
X62079341Y-95120000D01*
X62099936Y-95355403D01*
X62099938Y-95355413D01*
X62161094Y-95583655D01*
X62161096Y-95583659D01*
X62161097Y-95583663D01*
X62251839Y-95778259D01*
X62260965Y-95797830D01*
X62260967Y-95797834D01*
X62396501Y-95991395D01*
X62396506Y-95991402D01*
X62563597Y-96158493D01*
X62563603Y-96158498D01*
X62749158Y-96288425D01*
X62792783Y-96343002D01*
X62799977Y-96412500D01*
X62768454Y-96474855D01*
X62749158Y-96491575D01*
X62563597Y-96621505D01*
X62396505Y-96788597D01*
X62260965Y-96982169D01*
X62260964Y-96982171D01*
X62161098Y-97196335D01*
X62161094Y-97196344D01*
X62099938Y-97424586D01*
X62099936Y-97424596D01*
X62079341Y-97659999D01*
X62079341Y-97660000D01*
X62099936Y-97895403D01*
X62099938Y-97895413D01*
X62161094Y-98123655D01*
X62161096Y-98123659D01*
X62161097Y-98123663D01*
X62213623Y-98236304D01*
X62260965Y-98337830D01*
X62260967Y-98337834D01*
X62332003Y-98439283D01*
X62396505Y-98531401D01*
X62563599Y-98698495D01*
X62659575Y-98765698D01*
X62757165Y-98834032D01*
X62757167Y-98834033D01*
X62757170Y-98834035D01*
X62971337Y-98933903D01*
X63199592Y-98995063D01*
X63387918Y-99011539D01*
X63434999Y-99015659D01*
X63435000Y-99015659D01*
X63435001Y-99015659D01*
X63474234Y-99012226D01*
X63670408Y-98995063D01*
X63898663Y-98933903D01*
X64112830Y-98834035D01*
X64306401Y-98698495D01*
X64473495Y-98531401D01*
X64609035Y-98337830D01*
X64708903Y-98123663D01*
X64770063Y-97895408D01*
X64790659Y-97660000D01*
X64770063Y-97424592D01*
X64708903Y-97196337D01*
X64609035Y-96982171D01*
X64547648Y-96894500D01*
X64473494Y-96788597D01*
X64306402Y-96621506D01*
X64306396Y-96621501D01*
X64120842Y-96491575D01*
X64077217Y-96436998D01*
X64070023Y-96367500D01*
X64101546Y-96305145D01*
X64120842Y-96288425D01*
X64259669Y-96191217D01*
X64306401Y-96158495D01*
X64473495Y-95991401D01*
X64609035Y-95797830D01*
X64708903Y-95583663D01*
X64770063Y-95355408D01*
X64790659Y-95120000D01*
X64770063Y-94884592D01*
X64717789Y-94689500D01*
X64708905Y-94656344D01*
X64708904Y-94656343D01*
X64708903Y-94656337D01*
X64609035Y-94442171D01*
X64574423Y-94392739D01*
X64473494Y-94248597D01*
X64306402Y-94081506D01*
X64306396Y-94081501D01*
X64120842Y-93951575D01*
X64077217Y-93896998D01*
X64070023Y-93827500D01*
X64101546Y-93765145D01*
X64120842Y-93748425D01*
X64163926Y-93718257D01*
X64306401Y-93618495D01*
X64473495Y-93451401D01*
X64609035Y-93257830D01*
X64708903Y-93043663D01*
X64770063Y-92815408D01*
X64790659Y-92580000D01*
X64770063Y-92344592D01*
X64708903Y-92116337D01*
X64609035Y-91902171D01*
X64605838Y-91897604D01*
X64473494Y-91708597D01*
X64306402Y-91541506D01*
X64306396Y-91541501D01*
X64120842Y-91411575D01*
X64077217Y-91356998D01*
X64070023Y-91287500D01*
X64101546Y-91225145D01*
X64120842Y-91208425D01*
X64211202Y-91145154D01*
X64306401Y-91078495D01*
X64473495Y-90911401D01*
X64609035Y-90717830D01*
X64708903Y-90503663D01*
X64770063Y-90275408D01*
X64790659Y-90040000D01*
X64770063Y-89804592D01*
X64708903Y-89576337D01*
X64609035Y-89362171D01*
X64543278Y-89268259D01*
X64473494Y-89168597D01*
X64306402Y-89001506D01*
X64306395Y-89001501D01*
X64112834Y-88865967D01*
X64112830Y-88865965D01*
X64089005Y-88854855D01*
X63943235Y-88786881D01*
X63890797Y-88740710D01*
X63871645Y-88673516D01*
X63891861Y-88606635D01*
X63945026Y-88561300D01*
X63995641Y-88550500D01*
X121563481Y-88550500D01*
X121630520Y-88570185D01*
X121651162Y-88586819D01*
X143052348Y-109988005D01*
X143085833Y-110049328D01*
X143084442Y-110107778D01*
X143079939Y-110124584D01*
X143079936Y-110124597D01*
X143059341Y-110359999D01*
X143059341Y-110360000D01*
X143079936Y-110595403D01*
X143079938Y-110595413D01*
X143141094Y-110823655D01*
X143141096Y-110823659D01*
X143141097Y-110823663D01*
X143198277Y-110946286D01*
X143240965Y-111037830D01*
X143240967Y-111037834D01*
X143331304Y-111166848D01*
X143376505Y-111231401D01*
X143543599Y-111398495D01*
X143605058Y-111441529D01*
X143737165Y-111534032D01*
X143737167Y-111534033D01*
X143737170Y-111534035D01*
X143951337Y-111633903D01*
X144179592Y-111695063D01*
X144367918Y-111711539D01*
X144414999Y-111715659D01*
X144415000Y-111715659D01*
X144415001Y-111715659D01*
X144454234Y-111712226D01*
X144650408Y-111695063D01*
X144663652Y-111691514D01*
X144733500Y-111693177D01*
X144783426Y-111723608D01*
X148699981Y-115640163D01*
X148733466Y-115701486D01*
X148736300Y-115727844D01*
X148736300Y-124540500D01*
X148716615Y-124607539D01*
X148663811Y-124653294D01*
X148612300Y-124664500D01*
X148611154Y-124664500D01*
X142711154Y-124664500D01*
X138111154Y-124664500D01*
X133011154Y-124664500D01*
X128111154Y-124664500D01*
X122811154Y-124664500D01*
X118611154Y-124664500D01*
X111511154Y-124664500D01*
X105911154Y-124664500D01*
X104861154Y-124664500D01*
X96866154Y-124664500D01*
X96683846Y-124664500D01*
X96670688Y-124667117D01*
X96646497Y-124669500D01*
X53433844Y-124669500D01*
X53255047Y-124705065D01*
X53255037Y-124705068D01*
X53086612Y-124774831D01*
X53086608Y-124774833D01*
X52935032Y-124876113D01*
X52935024Y-124876119D01*
X52806119Y-125005024D01*
X52806113Y-125005032D01*
X52704833Y-125156608D01*
X52704831Y-125156612D01*
X52635068Y-125325037D01*
X52635065Y-125325047D01*
X52599500Y-125503843D01*
X52599500Y-125503846D01*
X52599500Y-125686154D01*
X52599500Y-125686156D01*
X52599499Y-125686156D01*
X52635065Y-125864952D01*
X52635068Y-125864962D01*
X52704831Y-126033387D01*
X52704833Y-126033391D01*
X52806113Y-126184967D01*
X52806119Y-126184975D01*
X52935024Y-126313880D01*
X52935032Y-126313886D01*
X53086608Y-126415166D01*
X53086612Y-126415168D01*
X53253526Y-126484305D01*
X53255042Y-126484933D01*
X53255046Y-126484933D01*
X53255047Y-126484934D01*
X53433843Y-126520500D01*
X53433846Y-126520500D01*
X98616154Y-126520500D01*
X98629311Y-126517882D01*
X98653503Y-126515500D01*
X148612300Y-126515500D01*
X148679339Y-126535185D01*
X148725094Y-126587989D01*
X148736300Y-126639500D01*
X148736300Y-132865500D01*
X148716615Y-132932539D01*
X148663811Y-132978294D01*
X148612300Y-132989500D01*
X53428844Y-132989500D01*
X53250047Y-133025065D01*
X53250037Y-133025068D01*
X53081612Y-133094831D01*
X53081608Y-133094833D01*
X52930032Y-133196113D01*
X52930024Y-133196119D01*
X52801119Y-133325024D01*
X52801113Y-133325032D01*
X52699833Y-133476608D01*
X52699831Y-133476612D01*
X52630068Y-133645037D01*
X52630065Y-133645047D01*
X52594500Y-133823843D01*
X52594500Y-133823846D01*
X52594500Y-134006154D01*
X52594500Y-134006156D01*
X52594499Y-134006156D01*
X52630065Y-134184952D01*
X52630068Y-134184962D01*
X52699831Y-134353387D01*
X52699833Y-134353391D01*
X52801113Y-134504967D01*
X52801119Y-134504975D01*
X52930024Y-134633880D01*
X52930032Y-134633886D01*
X53081608Y-134735166D01*
X53081612Y-134735168D01*
X53215197Y-134790500D01*
X53250042Y-134804933D01*
X53250046Y-134804933D01*
X53250047Y-134804934D01*
X53428843Y-134840500D01*
X53428846Y-134840500D01*
X55728846Y-134840500D01*
X61328846Y-134840500D01*
X67428846Y-134840500D01*
X72628846Y-134840500D01*
X77928846Y-134840500D01*
X82828846Y-134840500D01*
X87928846Y-134840500D01*
X92528846Y-134840500D01*
X96778846Y-134840500D01*
X103428846Y-134840500D01*
X105028846Y-134840500D01*
X105728846Y-134840500D01*
X111328846Y-134840500D01*
X117428846Y-134840500D01*
X122628846Y-134840500D01*
X127928846Y-134840500D01*
X132828846Y-134840500D01*
X137928846Y-134840500D01*
X142528846Y-134840500D01*
X147844956Y-134840500D01*
X147911995Y-134860185D01*
X147957750Y-134912989D01*
X147967694Y-134982147D01*
X147938669Y-135045703D01*
X147932637Y-135052181D01*
X147834837Y-135149981D01*
X147773514Y-135183466D01*
X147747156Y-135186300D01*
X105956340Y-135186300D01*
X105956320Y-135186299D01*
X105950206Y-135186299D01*
X105811589Y-135186299D01*
X105811587Y-135186299D01*
X105681795Y-135212117D01*
X105657603Y-135214500D01*
X47361044Y-135214500D01*
X47294005Y-135194815D01*
X47273363Y-135178181D01*
X46466818Y-134371636D01*
X46433333Y-134310313D01*
X46430499Y-134283955D01*
X46430499Y-133890000D01*
X49214540Y-133890000D01*
X49234326Y-134078256D01*
X49234327Y-134078259D01*
X49292818Y-134258277D01*
X49292821Y-134258284D01*
X49387467Y-134422216D01*
X49461977Y-134504967D01*
X49514129Y-134562888D01*
X49667265Y-134674148D01*
X49667270Y-134674151D01*
X49840192Y-134751142D01*
X49840197Y-134751144D01*
X50025354Y-134790500D01*
X50025355Y-134790500D01*
X50214644Y-134790500D01*
X50214646Y-134790500D01*
X50399803Y-134751144D01*
X50572730Y-134674151D01*
X50725871Y-134562888D01*
X50852533Y-134422216D01*
X50947179Y-134258284D01*
X51005674Y-134078256D01*
X51025460Y-133890000D01*
X51005674Y-133701744D01*
X50947179Y-133521716D01*
X50852533Y-133357784D01*
X50725871Y-133217112D01*
X50725870Y-133217111D01*
X50572734Y-133105851D01*
X50572729Y-133105848D01*
X50399807Y-133028857D01*
X50399802Y-133028855D01*
X50254001Y-132997865D01*
X50214646Y-132989500D01*
X50025354Y-132989500D01*
X49992897Y-132996398D01*
X49840197Y-133028855D01*
X49840192Y-133028857D01*
X49667270Y-133105848D01*
X49667265Y-133105851D01*
X49514129Y-133217111D01*
X49387466Y-133357785D01*
X49292821Y-133521715D01*
X49292818Y-133521722D01*
X49252748Y-133645047D01*
X49234326Y-133701744D01*
X49214540Y-133890000D01*
X46430499Y-133890000D01*
X46430499Y-133182129D01*
X46430498Y-133182123D01*
X46430497Y-133182116D01*
X46424091Y-133122517D01*
X46417874Y-133105849D01*
X46373797Y-132987671D01*
X46373793Y-132987664D01*
X46287547Y-132872455D01*
X46287544Y-132872452D01*
X46172335Y-132786206D01*
X46172328Y-132786202D01*
X46037482Y-132735908D01*
X46037483Y-132735908D01*
X45977883Y-132729501D01*
X45977881Y-132729500D01*
X45977873Y-132729500D01*
X45977864Y-132729500D01*
X45974548Y-132729322D01*
X45974627Y-132727847D01*
X45913215Y-132709815D01*
X45867460Y-132657011D01*
X45859969Y-132613522D01*
X45259408Y-132012961D01*
X45322992Y-131995924D01*
X45437006Y-131930098D01*
X45530098Y-131837006D01*
X45595924Y-131722992D01*
X45612961Y-131659408D01*
X46209024Y-132255471D01*
X46260136Y-132182478D01*
X46356264Y-131976331D01*
X46356269Y-131976317D01*
X46415139Y-131756610D01*
X46415141Y-131756599D01*
X46434966Y-131530002D01*
X46434966Y-131529997D01*
X46415141Y-131303400D01*
X46415139Y-131303389D01*
X46356269Y-131083682D01*
X46356264Y-131083668D01*
X46260136Y-130877521D01*
X46260132Y-130877513D01*
X46209025Y-130804526D01*
X45612961Y-131400590D01*
X45595924Y-131337008D01*
X45530098Y-131222994D01*
X45437006Y-131129902D01*
X45322992Y-131064076D01*
X45259409Y-131047038D01*
X45855472Y-130450974D01*
X45782480Y-130399864D01*
X45767024Y-130392657D01*
X45714585Y-130346484D01*
X45695433Y-130279290D01*
X45715649Y-130212409D01*
X45767023Y-130167893D01*
X45782734Y-130160568D01*
X45969139Y-130030047D01*
X46130047Y-129869139D01*
X46260568Y-129682734D01*
X46356739Y-129476496D01*
X46399344Y-129317489D01*
X46431435Y-129261904D01*
X48857140Y-126836200D01*
X48928592Y-126729264D01*
X48977809Y-126610444D01*
X48981019Y-126594305D01*
X49002775Y-126484933D01*
X49002900Y-126484306D01*
X49002900Y-124771802D01*
X49022585Y-124704763D01*
X49039219Y-124684121D01*
X49634121Y-124089219D01*
X49695444Y-124055734D01*
X49721802Y-124052900D01*
X51974307Y-124052900D01*
X52089439Y-124029998D01*
X52100444Y-124027809D01*
X52219264Y-123978592D01*
X52326200Y-123907141D01*
X60849496Y-115383842D01*
X60910817Y-115350359D01*
X60980509Y-115355343D01*
X61036442Y-115397215D01*
X61060859Y-115462679D01*
X61058979Y-115494758D01*
X61048720Y-115548539D01*
X61048718Y-115548553D01*
X61029754Y-115849994D01*
X61029754Y-115850005D01*
X61048718Y-116151446D01*
X61048719Y-116151453D01*
X61105320Y-116448164D01*
X61198659Y-116735431D01*
X61198661Y-116735436D01*
X61327265Y-117008732D01*
X61327268Y-117008738D01*
X61489111Y-117263763D01*
X61489114Y-117263767D01*
X61489115Y-117263768D01*
X61653999Y-117463079D01*
X61681652Y-117496505D01*
X61901836Y-117703272D01*
X61901846Y-117703280D01*
X62146193Y-117880808D01*
X62146198Y-117880810D01*
X62146205Y-117880816D01*
X62410896Y-118026332D01*
X62410901Y-118026334D01*
X62410903Y-118026335D01*
X62410904Y-118026336D01*
X62691734Y-118137524D01*
X62691737Y-118137525D01*
X62789259Y-118162564D01*
X62984302Y-118212642D01*
X63131039Y-118231179D01*
X63283963Y-118250499D01*
X63283969Y-118250499D01*
X63283973Y-118250500D01*
X63283975Y-118250500D01*
X63586025Y-118250500D01*
X63586027Y-118250500D01*
X63586032Y-118250499D01*
X63586036Y-118250499D01*
X63665591Y-118240448D01*
X63885698Y-118212642D01*
X64178262Y-118137525D01*
X64178265Y-118137524D01*
X64459095Y-118026336D01*
X64459096Y-118026335D01*
X64459094Y-118026335D01*
X64459104Y-118026332D01*
X64723795Y-117880816D01*
X64968162Y-117703274D01*
X65188349Y-117496504D01*
X65380885Y-117263768D01*
X65542733Y-117008736D01*
X65671341Y-116735430D01*
X65764681Y-116448160D01*
X65821280Y-116151457D01*
X65840246Y-115850000D01*
X65840246Y-115849994D01*
X137099754Y-115849994D01*
X137099754Y-115850005D01*
X137118718Y-116151446D01*
X137118719Y-116151453D01*
X137175320Y-116448164D01*
X137268659Y-116735431D01*
X137268661Y-116735436D01*
X137397265Y-117008732D01*
X137397268Y-117008738D01*
X137559111Y-117263763D01*
X137559114Y-117263767D01*
X137559115Y-117263768D01*
X137723999Y-117463079D01*
X137751652Y-117496505D01*
X137971836Y-117703272D01*
X137971846Y-117703280D01*
X138216193Y-117880808D01*
X138216198Y-117880810D01*
X138216205Y-117880816D01*
X138480896Y-118026332D01*
X138480901Y-118026334D01*
X138480903Y-118026335D01*
X138480904Y-118026336D01*
X138761734Y-118137524D01*
X138761737Y-118137525D01*
X138859259Y-118162564D01*
X139054302Y-118212642D01*
X139201039Y-118231179D01*
X139353963Y-118250499D01*
X139353969Y-118250499D01*
X139353973Y-118250500D01*
X139353975Y-118250500D01*
X139656025Y-118250500D01*
X139656027Y-118250500D01*
X139656032Y-118250499D01*
X139656036Y-118250499D01*
X139735591Y-118240448D01*
X139955698Y-118212642D01*
X140248262Y-118137525D01*
X140248265Y-118137524D01*
X140529095Y-118026336D01*
X140529096Y-118026335D01*
X140529094Y-118026335D01*
X140529104Y-118026332D01*
X140793795Y-117880816D01*
X141038162Y-117703274D01*
X141258349Y-117496504D01*
X141450885Y-117263768D01*
X141612733Y-117008736D01*
X141741341Y-116735430D01*
X141834681Y-116448160D01*
X141891280Y-116151457D01*
X141910246Y-115850000D01*
X141900902Y-115701486D01*
X141891281Y-115548553D01*
X141891280Y-115548546D01*
X141891280Y-115548543D01*
X141834681Y-115251840D01*
X141741341Y-114964570D01*
X141728091Y-114936413D01*
X141681970Y-114838400D01*
X141612733Y-114691264D01*
X141472463Y-114470233D01*
X141450888Y-114436236D01*
X141427243Y-114407654D01*
X141258349Y-114203496D01*
X141038162Y-113996726D01*
X141038159Y-113996724D01*
X141038153Y-113996719D01*
X140793806Y-113819191D01*
X140793799Y-113819186D01*
X140793795Y-113819184D01*
X140529104Y-113673668D01*
X140529101Y-113673666D01*
X140529096Y-113673664D01*
X140529095Y-113673663D01*
X140248265Y-113562475D01*
X140248262Y-113562474D01*
X139955695Y-113487357D01*
X139656036Y-113449500D01*
X139656027Y-113449500D01*
X139353973Y-113449500D01*
X139353963Y-113449500D01*
X139054304Y-113487357D01*
X138761737Y-113562474D01*
X138761734Y-113562475D01*
X138480904Y-113673663D01*
X138480903Y-113673664D01*
X138216205Y-113819184D01*
X138216193Y-113819191D01*
X137971846Y-113996719D01*
X137971836Y-113996727D01*
X137751652Y-114203494D01*
X137559111Y-114436236D01*
X137397268Y-114691261D01*
X137397265Y-114691267D01*
X137268661Y-114964563D01*
X137268659Y-114964568D01*
X137175320Y-115251835D01*
X137118719Y-115548546D01*
X137118718Y-115548553D01*
X137099754Y-115849994D01*
X65840246Y-115849994D01*
X65830902Y-115701486D01*
X65821281Y-115548553D01*
X65821280Y-115548546D01*
X65821280Y-115548543D01*
X65764681Y-115251840D01*
X65671341Y-114964570D01*
X65658091Y-114936413D01*
X65611970Y-114838400D01*
X65542733Y-114691264D01*
X65402463Y-114470233D01*
X65380888Y-114436236D01*
X65357243Y-114407654D01*
X65188349Y-114203496D01*
X64968162Y-113996726D01*
X64968159Y-113996724D01*
X64968153Y-113996719D01*
X64723806Y-113819191D01*
X64723799Y-113819186D01*
X64723795Y-113819184D01*
X64459104Y-113673668D01*
X64459101Y-113673666D01*
X64459096Y-113673664D01*
X64459095Y-113673663D01*
X64178265Y-113562475D01*
X64178262Y-113562474D01*
X63885695Y-113487357D01*
X63586036Y-113449500D01*
X63586027Y-113449500D01*
X63283973Y-113449500D01*
X63283963Y-113449500D01*
X63070840Y-113476425D01*
X63001862Y-113465298D01*
X62949849Y-113418645D01*
X62931316Y-113351279D01*
X62952146Y-113284586D01*
X62967617Y-113265722D01*
X67047375Y-109185965D01*
X71427141Y-104806199D01*
X71498592Y-104699264D01*
X71547809Y-104580444D01*
X71566625Y-104485849D01*
X71572900Y-104454305D01*
X71572900Y-96208256D01*
X71592585Y-96141217D01*
X71604750Y-96125284D01*
X71652533Y-96072216D01*
X71747179Y-95908284D01*
X71805674Y-95728256D01*
X71825460Y-95540000D01*
X71805674Y-95351744D01*
X71747179Y-95171716D01*
X71652533Y-95007784D01*
X71525871Y-94867112D01*
X71525245Y-94866657D01*
X71372734Y-94755851D01*
X71372729Y-94755848D01*
X71199807Y-94678857D01*
X71199802Y-94678855D01*
X71054001Y-94647865D01*
X71014646Y-94639500D01*
X70825354Y-94639500D01*
X70792897Y-94646398D01*
X70640197Y-94678855D01*
X70640192Y-94678857D01*
X70467270Y-94755848D01*
X70467265Y-94755851D01*
X70314129Y-94867111D01*
X70314128Y-94867112D01*
X70239140Y-94950394D01*
X70179653Y-94987042D01*
X70109796Y-94985711D01*
X70054841Y-94950393D01*
X70015870Y-94907111D01*
X69862734Y-94795851D01*
X69862729Y-94795848D01*
X69689807Y-94718857D01*
X69689802Y-94718855D01*
X69544001Y-94687865D01*
X69504646Y-94679500D01*
X69315354Y-94679500D01*
X69282897Y-94686398D01*
X69130197Y-94718855D01*
X69130192Y-94718857D01*
X68957270Y-94795848D01*
X68957265Y-94795851D01*
X68804129Y-94907111D01*
X68804128Y-94907112D01*
X68702646Y-95019818D01*
X68643159Y-95056466D01*
X68573302Y-95055135D01*
X68518347Y-95019817D01*
X68507513Y-95007785D01*
X68425871Y-94917112D01*
X68425870Y-94917111D01*
X68272734Y-94805851D01*
X68272729Y-94805848D01*
X68099807Y-94728857D01*
X68099802Y-94728855D01*
X67954001Y-94697865D01*
X67914646Y-94689500D01*
X67725354Y-94689500D01*
X67692897Y-94696398D01*
X67540197Y-94728855D01*
X67540192Y-94728857D01*
X67367270Y-94805848D01*
X67367265Y-94805851D01*
X67214129Y-94917111D01*
X67087466Y-95057785D01*
X66992821Y-95221715D01*
X66992818Y-95221722D01*
X66934327Y-95401740D01*
X66934326Y-95401744D01*
X66914540Y-95590000D01*
X66934326Y-95778256D01*
X66934327Y-95778259D01*
X66992818Y-95958277D01*
X66992821Y-95958284D01*
X67087467Y-96122216D01*
X67104576Y-96141217D01*
X67135250Y-96175284D01*
X67165480Y-96238275D01*
X67167100Y-96258256D01*
X67167100Y-105148197D01*
X67147415Y-105215236D01*
X67130781Y-105235878D01*
X59847181Y-112519478D01*
X59785858Y-112552963D01*
X59716166Y-112547979D01*
X59660233Y-112506107D01*
X59635816Y-112440643D01*
X59635500Y-112431797D01*
X59635500Y-110527115D01*
X59655185Y-110460076D01*
X59686610Y-110426801D01*
X59815871Y-110332888D01*
X59942533Y-110192216D01*
X60037179Y-110028284D01*
X60095674Y-109848256D01*
X60095674Y-109848255D01*
X60097682Y-109842076D01*
X60098939Y-109842484D01*
X60128771Y-109787234D01*
X60189935Y-109753460D01*
X60216866Y-109750500D01*
X60334644Y-109750500D01*
X60334646Y-109750500D01*
X60519803Y-109711144D01*
X60692730Y-109634151D01*
X60845871Y-109522888D01*
X60972533Y-109382216D01*
X61067179Y-109218284D01*
X61125674Y-109038256D01*
X61145460Y-108850000D01*
X61125674Y-108661744D01*
X61067179Y-108481716D01*
X60972533Y-108317784D01*
X60845871Y-108177112D01*
X60845870Y-108177111D01*
X60692734Y-108065851D01*
X60692729Y-108065848D01*
X60519807Y-107988857D01*
X60519802Y-107988855D01*
X60345965Y-107951906D01*
X60284483Y-107918714D01*
X60250707Y-107857551D01*
X60255359Y-107787836D01*
X60279592Y-107747648D01*
X60392533Y-107622216D01*
X60487179Y-107458284D01*
X60545674Y-107278256D01*
X60565460Y-107090000D01*
X60545674Y-106901744D01*
X60487179Y-106721716D01*
X60392533Y-106557784D01*
X60265871Y-106417112D01*
X60265870Y-106417111D01*
X60112734Y-106305851D01*
X60112729Y-106305848D01*
X59939807Y-106228857D01*
X59939802Y-106228855D01*
X59794001Y-106197865D01*
X59754646Y-106189500D01*
X59565354Y-106189500D01*
X59532897Y-106196398D01*
X59380197Y-106228855D01*
X59380192Y-106228857D01*
X59207270Y-106305848D01*
X59207265Y-106305851D01*
X59054129Y-106417111D01*
X58927466Y-106557785D01*
X58832821Y-106721715D01*
X58832820Y-106721717D01*
X58805894Y-106804586D01*
X58766455Y-106862261D01*
X58702096Y-106889458D01*
X58633250Y-106877543D01*
X58595815Y-106849239D01*
X58530871Y-106777112D01*
X58454625Y-106721716D01*
X58385725Y-106671657D01*
X58343060Y-106616327D01*
X58337081Y-106546713D01*
X58369687Y-106484918D01*
X58370856Y-106483732D01*
X61028729Y-103825860D01*
X61028733Y-103825858D01*
X61115858Y-103738733D01*
X61161147Y-103670954D01*
X61161148Y-103670953D01*
X61184309Y-103636290D01*
X61184312Y-103636286D01*
X61231463Y-103522451D01*
X61255500Y-103401607D01*
X61255500Y-103278393D01*
X61255500Y-98921345D01*
X61255501Y-98921324D01*
X61255501Y-98791995D01*
X61233710Y-98682451D01*
X61233708Y-98682443D01*
X61231462Y-98671149D01*
X61211954Y-98624053D01*
X61211944Y-98624032D01*
X61211932Y-98624001D01*
X61184312Y-98557319D01*
X61177561Y-98547216D01*
X61115858Y-98454871D01*
X61115855Y-98454867D01*
X58479324Y-95818338D01*
X58479321Y-95818334D01*
X58479321Y-95818335D01*
X58472254Y-95811268D01*
X58472254Y-95811267D01*
X58385129Y-95724142D01*
X58385128Y-95724141D01*
X58385127Y-95724140D01*
X58333905Y-95689915D01*
X58282683Y-95655689D01*
X58282682Y-95655688D01*
X58282679Y-95655686D01*
X58282676Y-95655685D01*
X58190738Y-95617604D01*
X58168851Y-95608538D01*
X58168849Y-95608537D01*
X58168848Y-95608537D01*
X58108425Y-95596518D01*
X58048006Y-95584500D01*
X58048003Y-95584500D01*
X58048002Y-95584500D01*
X55220453Y-95584500D01*
X55153414Y-95564815D01*
X55132772Y-95548181D01*
X53709588Y-94124997D01*
X57114751Y-94124997D01*
X57114751Y-94125000D01*
X57118720Y-94160223D01*
X57119500Y-94174108D01*
X57119500Y-94198916D01*
X57126739Y-94235312D01*
X57128341Y-94245616D01*
X57133687Y-94293059D01*
X57141330Y-94314902D01*
X57145904Y-94331659D01*
X57147125Y-94337799D01*
X57148341Y-94343910D01*
X57167235Y-94389525D01*
X57169708Y-94396003D01*
X57169719Y-94396033D01*
X57189543Y-94452687D01*
X57189546Y-94452694D01*
X57195295Y-94461844D01*
X57204851Y-94480340D01*
X57204912Y-94480488D01*
X57204916Y-94480495D01*
X57239169Y-94531760D01*
X57241054Y-94534669D01*
X57279523Y-94595890D01*
X57399110Y-94715477D01*
X57460303Y-94753927D01*
X57460338Y-94753949D01*
X57463247Y-94755834D01*
X57514505Y-94790084D01*
X57514648Y-94790143D01*
X57533162Y-94799708D01*
X57542310Y-94805456D01*
X57596332Y-94824358D01*
X57598979Y-94825285D01*
X57605477Y-94827766D01*
X57651087Y-94846658D01*
X57651095Y-94846660D01*
X57663332Y-94849094D01*
X57680101Y-94853671D01*
X57701938Y-94861312D01*
X57701941Y-94861313D01*
X57749398Y-94866659D01*
X57759689Y-94868260D01*
X57771926Y-94870694D01*
X57796081Y-94875500D01*
X57796082Y-94875500D01*
X57820890Y-94875500D01*
X57834774Y-94876280D01*
X57869998Y-94880249D01*
X57870000Y-94880249D01*
X57870002Y-94880249D01*
X57905226Y-94876280D01*
X57919110Y-94875500D01*
X57943918Y-94875500D01*
X57980317Y-94868259D01*
X57990599Y-94866659D01*
X58038059Y-94861313D01*
X58059911Y-94853665D01*
X58076660Y-94849094D01*
X58088913Y-94846658D01*
X58134531Y-94827762D01*
X58140988Y-94825295D01*
X58197690Y-94805456D01*
X58206836Y-94799708D01*
X58225365Y-94790138D01*
X58225415Y-94790116D01*
X58225495Y-94790084D01*
X58276780Y-94755815D01*
X58279618Y-94753975D01*
X58340890Y-94715477D01*
X58460477Y-94595890D01*
X58498975Y-94534618D01*
X58500821Y-94531772D01*
X58500829Y-94531760D01*
X58535084Y-94480495D01*
X58535138Y-94480365D01*
X58544708Y-94461836D01*
X58550456Y-94452690D01*
X58570295Y-94395988D01*
X58572762Y-94389531D01*
X58591655Y-94343920D01*
X58591654Y-94343920D01*
X58591658Y-94343913D01*
X58594094Y-94331660D01*
X58598665Y-94314911D01*
X58606313Y-94293059D01*
X58611659Y-94245599D01*
X58613260Y-94235312D01*
X58620500Y-94198918D01*
X58620500Y-94174108D01*
X58621280Y-94160223D01*
X58625249Y-94125000D01*
X58625249Y-94124997D01*
X58621280Y-94089774D01*
X58620500Y-94075890D01*
X58620500Y-94051081D01*
X58613261Y-94014692D01*
X58611659Y-94004398D01*
X58606313Y-93956941D01*
X58602472Y-93945965D01*
X58598671Y-93935101D01*
X58594094Y-93918332D01*
X58591660Y-93906095D01*
X58591658Y-93906087D01*
X58572766Y-93860477D01*
X58570285Y-93853979D01*
X58568893Y-93850000D01*
X58550456Y-93797310D01*
X58544708Y-93788162D01*
X58535143Y-93769648D01*
X58535084Y-93769505D01*
X58500834Y-93718247D01*
X58498949Y-93715338D01*
X58460477Y-93654110D01*
X58340890Y-93534523D01*
X58340889Y-93534522D01*
X58279677Y-93496060D01*
X58276760Y-93494169D01*
X58225495Y-93459916D01*
X58225488Y-93459912D01*
X58225340Y-93459851D01*
X58206844Y-93450295D01*
X58197694Y-93444546D01*
X58197691Y-93444544D01*
X58197690Y-93444544D01*
X58141003Y-93424708D01*
X58134530Y-93422237D01*
X58088913Y-93403342D01*
X58088911Y-93403341D01*
X58088910Y-93403341D01*
X58082799Y-93402125D01*
X58076659Y-93400904D01*
X58059902Y-93396330D01*
X58038059Y-93388687D01*
X58038060Y-93388687D01*
X58006794Y-93385163D01*
X57990614Y-93383340D01*
X57980312Y-93381739D01*
X57943918Y-93374500D01*
X57943917Y-93374500D01*
X57919110Y-93374500D01*
X57905226Y-93373720D01*
X57870002Y-93369751D01*
X57869998Y-93369751D01*
X57834774Y-93373720D01*
X57820890Y-93374500D01*
X57796082Y-93374500D01*
X57759685Y-93381739D01*
X57749382Y-93383341D01*
X57701940Y-93388687D01*
X57701939Y-93388687D01*
X57680097Y-93396330D01*
X57663341Y-93400903D01*
X57651097Y-93403339D01*
X57651088Y-93403341D01*
X57605466Y-93422237D01*
X57598974Y-93424715D01*
X57542314Y-93444542D01*
X57542309Y-93444544D01*
X57533147Y-93450300D01*
X57514657Y-93459852D01*
X57514513Y-93459911D01*
X57514499Y-93459918D01*
X57463254Y-93494159D01*
X57460339Y-93496048D01*
X57399114Y-93534519D01*
X57399107Y-93534525D01*
X57279525Y-93654107D01*
X57279519Y-93654114D01*
X57241048Y-93715339D01*
X57239159Y-93718254D01*
X57204918Y-93769499D01*
X57204911Y-93769513D01*
X57204852Y-93769657D01*
X57195300Y-93788147D01*
X57189544Y-93797309D01*
X57189542Y-93797314D01*
X57169715Y-93853974D01*
X57167237Y-93860466D01*
X57148341Y-93906088D01*
X57148339Y-93906097D01*
X57145903Y-93918341D01*
X57141330Y-93935097D01*
X57133687Y-93956939D01*
X57133687Y-93956940D01*
X57128341Y-94004382D01*
X57126739Y-94014685D01*
X57119500Y-94051081D01*
X57119500Y-94075890D01*
X57118720Y-94089774D01*
X57114751Y-94124997D01*
X53709588Y-94124997D01*
X50011819Y-90427228D01*
X49978334Y-90365905D01*
X49975500Y-90339547D01*
X49975500Y-89778687D01*
X49995185Y-89711648D01*
X50007350Y-89695715D01*
X50025891Y-89675122D01*
X50082533Y-89612216D01*
X50177179Y-89448284D01*
X50235674Y-89268256D01*
X50255460Y-89080000D01*
X50235674Y-88891744D01*
X50177179Y-88711716D01*
X50082533Y-88547784D01*
X49955871Y-88407112D01*
X49955870Y-88407111D01*
X49802734Y-88295851D01*
X49802729Y-88295848D01*
X49629807Y-88218857D01*
X49629802Y-88218855D01*
X49484001Y-88187865D01*
X49444646Y-88179500D01*
X49255354Y-88179500D01*
X49222897Y-88186398D01*
X49070197Y-88218855D01*
X49070192Y-88218857D01*
X48897271Y-88295848D01*
X48856646Y-88325363D01*
X48790839Y-88348841D01*
X48722785Y-88333014D01*
X48710880Y-88325363D01*
X48642730Y-88275849D01*
X48642729Y-88275848D01*
X48469807Y-88198857D01*
X48469802Y-88198855D01*
X48324001Y-88167865D01*
X48284646Y-88159500D01*
X48095354Y-88159500D01*
X48062897Y-88166398D01*
X47910197Y-88198855D01*
X47910192Y-88198857D01*
X47737270Y-88275848D01*
X47737265Y-88275851D01*
X47584129Y-88387111D01*
X47457466Y-88527785D01*
X47362821Y-88691715D01*
X47362818Y-88691722D01*
X47306203Y-88865967D01*
X47304326Y-88871744D01*
X47284540Y-89060000D01*
X47304326Y-89248256D01*
X47304327Y-89248259D01*
X47362818Y-89428277D01*
X47362821Y-89428284D01*
X47457467Y-89592216D01*
X47500772Y-89640310D01*
X47532650Y-89675715D01*
X47562880Y-89738706D01*
X47564500Y-89758687D01*
X47564500Y-90188007D01*
X47588535Y-90308840D01*
X47588540Y-90308857D01*
X47635685Y-90422677D01*
X47635687Y-90422680D01*
X47665667Y-90467547D01*
X47665668Y-90467549D01*
X47704140Y-90525127D01*
X47704141Y-90525128D01*
X47704142Y-90525129D01*
X47791267Y-90612254D01*
X47791268Y-90612254D01*
X47798335Y-90619321D01*
X47798334Y-90619321D01*
X47798338Y-90619324D01*
X53861832Y-96682819D01*
X53895317Y-96744142D01*
X53890333Y-96813834D01*
X53848461Y-96869767D01*
X53782997Y-96894184D01*
X53774151Y-96894500D01*
X53010452Y-96894500D01*
X52943413Y-96874815D01*
X52922771Y-96858181D01*
X44941819Y-88877229D01*
X44908334Y-88815906D01*
X44905500Y-88789548D01*
X44905500Y-79624997D01*
X47194751Y-79624997D01*
X47194751Y-79625002D01*
X47213685Y-79793056D01*
X47269545Y-79952694D01*
X47269547Y-79952697D01*
X47359518Y-80095884D01*
X47359523Y-80095890D01*
X47479109Y-80215476D01*
X47479112Y-80215478D01*
X47486319Y-80220007D01*
X47532610Y-80272342D01*
X47543257Y-80341396D01*
X47514881Y-80405244D01*
X47486319Y-80429993D01*
X47479112Y-80434521D01*
X47479109Y-80434523D01*
X47359523Y-80554109D01*
X47359518Y-80554115D01*
X47269547Y-80697302D01*
X47269545Y-80697305D01*
X47213685Y-80856943D01*
X47194751Y-81024997D01*
X47194751Y-81025002D01*
X47213685Y-81193056D01*
X47269545Y-81352694D01*
X47269547Y-81352697D01*
X47359518Y-81495884D01*
X47359523Y-81495890D01*
X47479109Y-81615476D01*
X47479115Y-81615481D01*
X47622302Y-81705452D01*
X47622305Y-81705454D01*
X47622309Y-81705455D01*
X47622310Y-81705456D01*
X47781941Y-81761313D01*
X47802078Y-81763581D01*
X47866491Y-81790646D01*
X47906048Y-81848239D01*
X47911417Y-81872914D01*
X47913687Y-81893058D01*
X47969544Y-82052692D01*
X47969547Y-82052697D01*
X48059518Y-82195884D01*
X48059523Y-82195890D01*
X48179109Y-82315476D01*
X48179115Y-82315481D01*
X48322302Y-82405452D01*
X48322305Y-82405454D01*
X48322309Y-82405455D01*
X48322310Y-82405456D01*
X48363872Y-82419999D01*
X48481943Y-82461314D01*
X48649997Y-82480249D01*
X48650000Y-82480249D01*
X48650003Y-82480249D01*
X48818056Y-82461314D01*
X48818059Y-82461313D01*
X48977690Y-82405456D01*
X48977692Y-82405454D01*
X48977694Y-82405454D01*
X48977697Y-82405452D01*
X49120884Y-82315481D01*
X49120885Y-82315480D01*
X49120890Y-82315477D01*
X49240477Y-82195890D01*
X49245006Y-82188682D01*
X49297338Y-82142391D01*
X49366391Y-82131741D01*
X49430240Y-82160115D01*
X49454995Y-82188683D01*
X49459523Y-82195890D01*
X49579109Y-82315476D01*
X49579115Y-82315481D01*
X49722302Y-82405452D01*
X49722305Y-82405454D01*
X49722309Y-82405455D01*
X49722310Y-82405456D01*
X49763872Y-82419999D01*
X49881943Y-82461314D01*
X50049997Y-82480249D01*
X50050000Y-82480249D01*
X50050003Y-82480249D01*
X50218056Y-82461314D01*
X50218059Y-82461313D01*
X50377690Y-82405456D01*
X50377692Y-82405454D01*
X50377694Y-82405454D01*
X50377697Y-82405452D01*
X50520884Y-82315481D01*
X50520885Y-82315480D01*
X50520890Y-82315477D01*
X50640477Y-82195890D01*
X50640481Y-82195884D01*
X50730452Y-82052697D01*
X50730454Y-82052694D01*
X50730454Y-82052692D01*
X50730456Y-82052690D01*
X50786313Y-81893059D01*
X50788582Y-81872920D01*
X50815646Y-81808508D01*
X50873239Y-81768951D01*
X50897915Y-81763582D01*
X50918059Y-81761313D01*
X51077690Y-81705456D01*
X51077692Y-81705454D01*
X51077694Y-81705454D01*
X51077697Y-81705452D01*
X51220884Y-81615481D01*
X51220885Y-81615480D01*
X51220890Y-81615477D01*
X51340477Y-81495890D01*
X51412350Y-81381506D01*
X51430452Y-81352697D01*
X51430454Y-81352694D01*
X51430454Y-81352692D01*
X51430456Y-81352690D01*
X51486313Y-81193059D01*
X51486313Y-81193058D01*
X51486314Y-81193056D01*
X51505249Y-81025002D01*
X51505249Y-81024997D01*
X51486314Y-80856943D01*
X51455860Y-80769913D01*
X51430456Y-80697310D01*
X51430455Y-80697309D01*
X51430454Y-80697305D01*
X51430452Y-80697302D01*
X51340481Y-80554115D01*
X51340476Y-80554109D01*
X51220890Y-80434523D01*
X51220887Y-80434521D01*
X51213682Y-80429993D01*
X51167391Y-80377662D01*
X51156741Y-80308609D01*
X51185115Y-80244760D01*
X51213680Y-80220006D01*
X51220890Y-80215477D01*
X51340477Y-80095890D01*
X51430452Y-79952697D01*
X51430454Y-79952694D01*
X51430454Y-79952692D01*
X51430456Y-79952690D01*
X51486313Y-79793059D01*
X51486313Y-79793058D01*
X51486314Y-79793056D01*
X51505249Y-79625002D01*
X51505249Y-79624997D01*
X51486314Y-79456943D01*
X51430454Y-79297305D01*
X51430452Y-79297302D01*
X51340481Y-79154115D01*
X51340476Y-79154109D01*
X51220890Y-79034523D01*
X51220884Y-79034518D01*
X51077697Y-78944547D01*
X51077692Y-78944544D01*
X50971269Y-78907306D01*
X50918059Y-78888687D01*
X50897914Y-78886417D01*
X50833501Y-78859348D01*
X50793948Y-78801751D01*
X50788582Y-78777082D01*
X50786313Y-78756941D01*
X50730456Y-78597310D01*
X50730455Y-78597309D01*
X50730454Y-78597305D01*
X50730452Y-78597302D01*
X50640481Y-78454115D01*
X50640476Y-78454109D01*
X50520890Y-78334523D01*
X50520884Y-78334518D01*
X50377697Y-78244547D01*
X50377694Y-78244545D01*
X50218056Y-78188685D01*
X50050003Y-78169751D01*
X50049997Y-78169751D01*
X49881943Y-78188685D01*
X49722305Y-78244545D01*
X49722302Y-78244547D01*
X49579115Y-78334518D01*
X49579109Y-78334523D01*
X49459523Y-78454109D01*
X49459521Y-78454112D01*
X49454993Y-78461319D01*
X49402658Y-78507610D01*
X49333604Y-78518257D01*
X49269756Y-78489881D01*
X49245007Y-78461319D01*
X49240478Y-78454112D01*
X49240476Y-78454109D01*
X49120890Y-78334523D01*
X49120884Y-78334518D01*
X48977697Y-78244547D01*
X48977694Y-78244545D01*
X48818056Y-78188685D01*
X48650003Y-78169751D01*
X48649997Y-78169751D01*
X48481943Y-78188685D01*
X48322305Y-78244545D01*
X48322302Y-78244547D01*
X48179115Y-78334518D01*
X48179109Y-78334523D01*
X48059523Y-78454109D01*
X48059518Y-78454115D01*
X47969547Y-78597302D01*
X47969544Y-78597307D01*
X47913687Y-78756941D01*
X47911417Y-78777085D01*
X47884347Y-78841498D01*
X47826751Y-78881051D01*
X47802085Y-78886417D01*
X47781941Y-78888687D01*
X47622307Y-78944544D01*
X47622302Y-78944547D01*
X47479115Y-79034518D01*
X47479109Y-79034523D01*
X47359523Y-79154109D01*
X47359518Y-79154115D01*
X47269547Y-79297302D01*
X47269545Y-79297305D01*
X47213685Y-79456943D01*
X47194751Y-79624997D01*
X44905500Y-79624997D01*
X44905500Y-79270452D01*
X44925185Y-79203413D01*
X44941819Y-79182771D01*
X51512771Y-72611819D01*
X51574094Y-72578334D01*
X51600452Y-72575500D01*
X51669644Y-72575500D01*
X51669646Y-72575500D01*
X51854803Y-72536144D01*
X52027730Y-72459151D01*
X52180871Y-72347888D01*
X52307533Y-72207216D01*
X52402179Y-72043284D01*
X52460674Y-71863256D01*
X52462068Y-71849994D01*
X61029754Y-71849994D01*
X61029754Y-71850005D01*
X61048718Y-72151446D01*
X61048719Y-72151453D01*
X61105320Y-72448164D01*
X61198659Y-72735431D01*
X61198661Y-72735436D01*
X61327265Y-73008732D01*
X61327268Y-73008738D01*
X61489111Y-73263763D01*
X61489114Y-73263767D01*
X61489115Y-73263768D01*
X61647629Y-73455379D01*
X61681652Y-73496505D01*
X61901836Y-73703272D01*
X61901846Y-73703280D01*
X62146193Y-73880808D01*
X62146198Y-73880810D01*
X62146205Y-73880816D01*
X62410896Y-74026332D01*
X62410901Y-74026334D01*
X62410903Y-74026335D01*
X62410904Y-74026336D01*
X62691734Y-74137524D01*
X62691737Y-74137525D01*
X62789259Y-74162564D01*
X62984302Y-74212642D01*
X63131039Y-74231179D01*
X63283963Y-74250499D01*
X63283969Y-74250499D01*
X63283973Y-74250500D01*
X63283975Y-74250500D01*
X63586025Y-74250500D01*
X63586027Y-74250500D01*
X63586032Y-74250499D01*
X63586036Y-74250499D01*
X63665591Y-74240448D01*
X63885698Y-74212642D01*
X64178262Y-74137525D01*
X64178265Y-74137524D01*
X64459095Y-74026336D01*
X64459096Y-74026335D01*
X64459094Y-74026335D01*
X64459104Y-74026332D01*
X64723795Y-73880816D01*
X64968162Y-73703274D01*
X65188349Y-73496504D01*
X65380885Y-73263768D01*
X65542733Y-73008736D01*
X65671341Y-72735430D01*
X65764681Y-72448160D01*
X65821280Y-72151457D01*
X65840246Y-71850000D01*
X65840246Y-71849994D01*
X137099754Y-71849994D01*
X137099754Y-71850005D01*
X137118718Y-72151446D01*
X137118719Y-72151453D01*
X137175320Y-72448164D01*
X137268659Y-72735431D01*
X137268661Y-72735436D01*
X137397265Y-73008732D01*
X137397268Y-73008738D01*
X137559111Y-73263763D01*
X137559114Y-73263767D01*
X137559115Y-73263768D01*
X137717629Y-73455379D01*
X137751652Y-73496505D01*
X137971836Y-73703272D01*
X137971846Y-73703280D01*
X138216193Y-73880808D01*
X138216198Y-73880810D01*
X138216205Y-73880816D01*
X138480896Y-74026332D01*
X138480901Y-74026334D01*
X138480903Y-74026335D01*
X138480904Y-74026336D01*
X138761734Y-74137524D01*
X138761737Y-74137525D01*
X138859259Y-74162564D01*
X139054302Y-74212642D01*
X139201039Y-74231179D01*
X139353963Y-74250499D01*
X139353969Y-74250499D01*
X139353973Y-74250500D01*
X139353975Y-74250500D01*
X139656025Y-74250500D01*
X139656027Y-74250500D01*
X139656032Y-74250499D01*
X139656036Y-74250499D01*
X139735591Y-74240448D01*
X139955698Y-74212642D01*
X140248262Y-74137525D01*
X140248265Y-74137524D01*
X140529095Y-74026336D01*
X140529096Y-74026335D01*
X140529094Y-74026335D01*
X140529104Y-74026332D01*
X140793795Y-73880816D01*
X141038162Y-73703274D01*
X141258349Y-73496504D01*
X141450885Y-73263768D01*
X141612733Y-73008736D01*
X141741341Y-72735430D01*
X141834681Y-72448160D01*
X141891280Y-72151457D01*
X141910246Y-71850000D01*
X141891280Y-71548543D01*
X141834681Y-71251840D01*
X141741341Y-70964570D01*
X141730178Y-70940848D01*
X141682185Y-70838857D01*
X141612733Y-70691264D01*
X141541806Y-70579500D01*
X141450888Y-70436236D01*
X141377614Y-70347663D01*
X141258349Y-70203496D01*
X141038162Y-69996726D01*
X141038159Y-69996724D01*
X141038153Y-69996719D01*
X140793806Y-69819191D01*
X140793799Y-69819186D01*
X140793795Y-69819184D01*
X140529104Y-69673668D01*
X140529101Y-69673666D01*
X140529096Y-69673664D01*
X140529095Y-69673663D01*
X140248265Y-69562475D01*
X140248262Y-69562474D01*
X139955695Y-69487357D01*
X139656036Y-69449500D01*
X139656027Y-69449500D01*
X139353973Y-69449500D01*
X139353963Y-69449500D01*
X139054304Y-69487357D01*
X138761737Y-69562474D01*
X138761734Y-69562475D01*
X138480904Y-69673663D01*
X138480903Y-69673664D01*
X138216205Y-69819184D01*
X138216193Y-69819191D01*
X137971846Y-69996719D01*
X137971836Y-69996727D01*
X137751652Y-70203494D01*
X137559111Y-70436236D01*
X137397268Y-70691261D01*
X137397265Y-70691267D01*
X137268661Y-70964563D01*
X137268659Y-70964568D01*
X137175320Y-71251835D01*
X137118719Y-71548546D01*
X137118718Y-71548553D01*
X137099754Y-71849994D01*
X65840246Y-71849994D01*
X65821280Y-71548543D01*
X65764681Y-71251840D01*
X65671341Y-70964570D01*
X65660178Y-70940848D01*
X65612185Y-70838857D01*
X65542733Y-70691264D01*
X65471806Y-70579500D01*
X65380888Y-70436236D01*
X65307614Y-70347663D01*
X65188349Y-70203496D01*
X64968162Y-69996726D01*
X64968159Y-69996724D01*
X64968153Y-69996719D01*
X64723806Y-69819191D01*
X64723799Y-69819186D01*
X64723795Y-69819184D01*
X64459104Y-69673668D01*
X64459101Y-69673666D01*
X64459096Y-69673664D01*
X64459095Y-69673663D01*
X64178265Y-69562475D01*
X64178262Y-69562474D01*
X63885695Y-69487357D01*
X63586036Y-69449500D01*
X63586027Y-69449500D01*
X63283973Y-69449500D01*
X63283963Y-69449500D01*
X62984304Y-69487357D01*
X62691737Y-69562474D01*
X62691734Y-69562475D01*
X62410904Y-69673663D01*
X62410903Y-69673664D01*
X62146205Y-69819184D01*
X62146193Y-69819191D01*
X61901846Y-69996719D01*
X61901836Y-69996727D01*
X61681652Y-70203494D01*
X61489111Y-70436236D01*
X61327268Y-70691261D01*
X61327265Y-70691267D01*
X61198661Y-70964563D01*
X61198659Y-70964568D01*
X61105320Y-71251835D01*
X61048719Y-71548546D01*
X61048718Y-71548553D01*
X61029754Y-71849994D01*
X52462068Y-71849994D01*
X52480460Y-71675000D01*
X52460674Y-71486744D01*
X52402179Y-71306716D01*
X52307533Y-71142784D01*
X52180871Y-71002112D01*
X52180870Y-71002111D01*
X52027734Y-70890851D01*
X52027729Y-70890848D01*
X51854807Y-70813857D01*
X51854802Y-70813855D01*
X51709001Y-70782865D01*
X51669646Y-70774500D01*
X51480354Y-70774500D01*
X51447897Y-70781398D01*
X51295197Y-70813855D01*
X51295192Y-70813857D01*
X51122270Y-70890848D01*
X51122265Y-70890851D01*
X50968180Y-71002801D01*
X50902374Y-71026281D01*
X50834320Y-71010455D01*
X50822410Y-71002801D01*
X50702734Y-70915851D01*
X50702729Y-70915848D01*
X50529807Y-70838857D01*
X50529802Y-70838855D01*
X50380453Y-70807111D01*
X50344646Y-70799500D01*
X50155354Y-70799500D01*
X50122897Y-70806398D01*
X49970197Y-70838855D01*
X49970192Y-70838857D01*
X49797270Y-70915848D01*
X49797265Y-70915851D01*
X49685385Y-70997137D01*
X49619579Y-71020617D01*
X49551525Y-71004791D01*
X49539615Y-70997137D01*
X49427734Y-70915851D01*
X49427729Y-70915848D01*
X49254807Y-70838857D01*
X49254802Y-70838855D01*
X49105453Y-70807111D01*
X49069646Y-70799500D01*
X48880354Y-70799500D01*
X48847897Y-70806398D01*
X48695197Y-70838855D01*
X48695192Y-70838857D01*
X48522270Y-70915848D01*
X48522265Y-70915851D01*
X48380680Y-71018719D01*
X48314874Y-71042199D01*
X48246820Y-71026373D01*
X48234910Y-71018719D01*
X48127734Y-70940851D01*
X48127729Y-70940848D01*
X47954807Y-70863857D01*
X47954802Y-70863855D01*
X47807617Y-70832571D01*
X47769646Y-70824500D01*
X47580354Y-70824500D01*
X47542383Y-70832571D01*
X47395198Y-70863855D01*
X47395197Y-70863855D01*
X47307439Y-70902928D01*
X47238189Y-70912212D01*
X47174912Y-70882583D01*
X47164861Y-70872627D01*
X47105871Y-70807112D01*
X47105870Y-70807111D01*
X46952734Y-70695851D01*
X46952729Y-70695848D01*
X46779807Y-70618857D01*
X46779802Y-70618855D01*
X46634001Y-70587865D01*
X46594646Y-70579500D01*
X46405354Y-70579500D01*
X46372897Y-70586398D01*
X46220197Y-70618855D01*
X46220192Y-70618857D01*
X46047270Y-70695848D01*
X46047265Y-70695851D01*
X45894130Y-70807110D01*
X45894126Y-70807114D01*
X45888400Y-70813474D01*
X45828913Y-70850121D01*
X45796252Y-70854500D01*
X45221993Y-70854500D01*
X45101157Y-70878535D01*
X45101145Y-70878539D01*
X45071430Y-70890848D01*
X45054001Y-70898067D01*
X45042266Y-70902928D01*
X44987317Y-70925688D01*
X44977161Y-70932475D01*
X44977053Y-70932547D01*
X44884872Y-70994140D01*
X44860294Y-71018719D01*
X44797746Y-71081267D01*
X41114144Y-74764868D01*
X41114138Y-74764876D01*
X41045690Y-74867312D01*
X41045689Y-74867314D01*
X41024472Y-74918536D01*
X41024473Y-74918537D01*
X40998536Y-74981153D01*
X40998535Y-74981159D01*
X40974500Y-75101993D01*
X40344661Y-75101993D01*
X40341311Y-69205920D01*
X147262562Y-69205920D01*
X147262562Y-69454079D01*
X147303408Y-69698862D01*
X147383984Y-69933572D01*
X147383989Y-69933582D01*
X147502094Y-70151822D01*
X147502100Y-70151831D01*
X147654517Y-70347656D01*
X147654520Y-70347660D01*
X147654522Y-70347662D01*
X147654523Y-70347663D01*
X147837102Y-70515739D01*
X147837104Y-70515740D01*
X147994935Y-70618857D01*
X148044855Y-70651471D01*
X148272116Y-70751157D01*
X148512685Y-70812077D01*
X148595123Y-70818908D01*
X148759994Y-70832571D01*
X148760000Y-70832571D01*
X148760006Y-70832571D01*
X148908389Y-70820274D01*
X149007315Y-70812077D01*
X149247884Y-70751157D01*
X149475145Y-70651471D01*
X149682898Y-70515739D01*
X149865477Y-70347663D01*
X150017902Y-70151828D01*
X150136014Y-69933576D01*
X150216592Y-69698859D01*
X150257438Y-69454081D01*
X150260000Y-69330000D01*
X150257438Y-69205919D01*
X150216592Y-68961141D01*
X150136014Y-68726424D01*
X150017902Y-68508172D01*
X149865477Y-68312337D01*
X149682898Y-68144261D01*
X149682895Y-68144259D01*
X149475146Y-68008529D01*
X149247884Y-67908843D01*
X149007311Y-67847922D01*
X148760006Y-67827430D01*
X148759994Y-67827430D01*
X148512688Y-67847922D01*
X148272115Y-67908843D01*
X148044853Y-68008529D01*
X147837104Y-68144259D01*
X147837100Y-68144262D01*
X147654520Y-68312339D01*
X147654517Y-68312343D01*
X147502100Y-68508168D01*
X147502094Y-68508177D01*
X147383989Y-68726417D01*
X147383984Y-68726427D01*
X147303408Y-68961137D01*
X147262562Y-69205920D01*
X40341311Y-69205920D01*
X40340071Y-67024070D01*
X40359717Y-66957020D01*
X40412495Y-66911235D01*
X40464071Y-66900000D01*
X151106173Y-66900000D01*
X151173212Y-66919685D01*
G37*
%TD.AperFunction*%
%TD*%
M02*
