%TF.GenerationSoftware,KiCad,Pcbnew,8.0.6*%
%TF.CreationDate,2024-10-31T13:08:25-07:00*%
%TF.ProjectId,veramonitor,76657261-6d6f-46e6-9974-6f722e6b6963,rev?*%
%TF.SameCoordinates,Original*%
%TF.FileFunction,Drillmap*%
%TF.FilePolarity,Positive*%
%FSLAX45Y45*%
G04 Gerber Fmt 4.5, Leading zero omitted, Abs format (unit mm)*
G04 Created by KiCad (PCBNEW 8.0.6) date 2024-10-31 13:08:25*
%MOMM*%
%LPD*%
G01*
G04 APERTURE LIST*
%ADD10C,0.200000*%
%ADD11C,0.100000*%
G04 APERTURE END LIST*
D10*
X15033000Y-10796000D02*
G75*
G02*
X14733000Y-10796000I-150000J0D01*
G01*
X14733000Y-10796000D02*
G75*
G02*
X15033000Y-10796000I150000J0D01*
G01*
X15026000Y-6933000D02*
G75*
G02*
X14726000Y-6933000I-150000J0D01*
G01*
X14726000Y-6933000D02*
G75*
G02*
X15026000Y-6933000I150000J0D01*
G01*
X4008000Y-6690000D02*
X15130000Y-6690000D01*
X15130000Y-13730000D01*
X4008000Y-13730000D01*
X4008000Y-6690000D01*
D11*
X5078970Y-9986470D02*
X5178030Y-10085530D01*
X5178030Y-9986470D02*
X5078970Y-10085530D01*
X5840970Y-9884970D02*
X5940030Y-9984030D01*
X5940030Y-9884970D02*
X5840970Y-9984030D01*
X5840970Y-10087970D02*
X5940030Y-10187030D01*
X5940030Y-10087970D02*
X5840970Y-10187030D01*
D10*
X4258777Y-14051484D02*
X4258777Y-13851484D01*
X4258777Y-13851484D02*
X4306396Y-13851484D01*
X4306396Y-13851484D02*
X4334967Y-13861008D01*
X4334967Y-13861008D02*
X4354015Y-13880055D01*
X4354015Y-13880055D02*
X4363539Y-13899103D01*
X4363539Y-13899103D02*
X4373063Y-13937198D01*
X4373063Y-13937198D02*
X4373063Y-13965769D01*
X4373063Y-13965769D02*
X4363539Y-14003865D01*
X4363539Y-14003865D02*
X4354015Y-14022912D01*
X4354015Y-14022912D02*
X4334967Y-14041960D01*
X4334967Y-14041960D02*
X4306396Y-14051484D01*
X4306396Y-14051484D02*
X4258777Y-14051484D01*
X4458777Y-14051484D02*
X4458777Y-13918150D01*
X4458777Y-13956246D02*
X4468301Y-13937198D01*
X4468301Y-13937198D02*
X4477824Y-13927674D01*
X4477824Y-13927674D02*
X4496872Y-13918150D01*
X4496872Y-13918150D02*
X4515920Y-13918150D01*
X4582586Y-14051484D02*
X4582586Y-13918150D01*
X4582586Y-13851484D02*
X4573063Y-13861008D01*
X4573063Y-13861008D02*
X4582586Y-13870531D01*
X4582586Y-13870531D02*
X4592110Y-13861008D01*
X4592110Y-13861008D02*
X4582586Y-13851484D01*
X4582586Y-13851484D02*
X4582586Y-13870531D01*
X4706396Y-14051484D02*
X4687348Y-14041960D01*
X4687348Y-14041960D02*
X4677824Y-14022912D01*
X4677824Y-14022912D02*
X4677824Y-13851484D01*
X4811158Y-14051484D02*
X4792110Y-14041960D01*
X4792110Y-14041960D02*
X4782586Y-14022912D01*
X4782586Y-14022912D02*
X4782586Y-13851484D01*
X5039729Y-14051484D02*
X5039729Y-13851484D01*
X5039729Y-13851484D02*
X5106396Y-13994341D01*
X5106396Y-13994341D02*
X5173063Y-13851484D01*
X5173063Y-13851484D02*
X5173063Y-14051484D01*
X5354015Y-14051484D02*
X5354015Y-13946722D01*
X5354015Y-13946722D02*
X5344491Y-13927674D01*
X5344491Y-13927674D02*
X5325444Y-13918150D01*
X5325444Y-13918150D02*
X5287348Y-13918150D01*
X5287348Y-13918150D02*
X5268301Y-13927674D01*
X5354015Y-14041960D02*
X5334967Y-14051484D01*
X5334967Y-14051484D02*
X5287348Y-14051484D01*
X5287348Y-14051484D02*
X5268301Y-14041960D01*
X5268301Y-14041960D02*
X5258777Y-14022912D01*
X5258777Y-14022912D02*
X5258777Y-14003865D01*
X5258777Y-14003865D02*
X5268301Y-13984817D01*
X5268301Y-13984817D02*
X5287348Y-13975293D01*
X5287348Y-13975293D02*
X5334967Y-13975293D01*
X5334967Y-13975293D02*
X5354015Y-13965769D01*
X5449253Y-13918150D02*
X5449253Y-14118150D01*
X5449253Y-13927674D02*
X5468301Y-13918150D01*
X5468301Y-13918150D02*
X5506396Y-13918150D01*
X5506396Y-13918150D02*
X5525444Y-13927674D01*
X5525444Y-13927674D02*
X5534967Y-13937198D01*
X5534967Y-13937198D02*
X5544491Y-13956246D01*
X5544491Y-13956246D02*
X5544491Y-14013388D01*
X5544491Y-14013388D02*
X5534967Y-14032436D01*
X5534967Y-14032436D02*
X5525444Y-14041960D01*
X5525444Y-14041960D02*
X5506396Y-14051484D01*
X5506396Y-14051484D02*
X5468301Y-14051484D01*
X5468301Y-14051484D02*
X5449253Y-14041960D01*
X5630205Y-14032436D02*
X5639729Y-14041960D01*
X5639729Y-14041960D02*
X5630205Y-14051484D01*
X5630205Y-14051484D02*
X5620682Y-14041960D01*
X5620682Y-14041960D02*
X5630205Y-14032436D01*
X5630205Y-14032436D02*
X5630205Y-14051484D01*
X5630205Y-13927674D02*
X5639729Y-13937198D01*
X5639729Y-13937198D02*
X5630205Y-13946722D01*
X5630205Y-13946722D02*
X5620682Y-13937198D01*
X5620682Y-13937198D02*
X5630205Y-13927674D01*
X5630205Y-13927674D02*
X5630205Y-13946722D01*
D11*
X3898940Y-14330470D02*
X3998000Y-14429530D01*
X3998000Y-14330470D02*
X3898940Y-14429530D01*
D10*
X4296872Y-14271484D02*
X4315920Y-14271484D01*
X4315920Y-14271484D02*
X4334967Y-14281008D01*
X4334967Y-14281008D02*
X4344491Y-14290531D01*
X4344491Y-14290531D02*
X4354015Y-14309579D01*
X4354015Y-14309579D02*
X4363539Y-14347674D01*
X4363539Y-14347674D02*
X4363539Y-14395293D01*
X4363539Y-14395293D02*
X4354015Y-14433388D01*
X4354015Y-14433388D02*
X4344491Y-14452436D01*
X4344491Y-14452436D02*
X4334967Y-14461960D01*
X4334967Y-14461960D02*
X4315920Y-14471484D01*
X4315920Y-14471484D02*
X4296872Y-14471484D01*
X4296872Y-14471484D02*
X4277824Y-14461960D01*
X4277824Y-14461960D02*
X4268301Y-14452436D01*
X4268301Y-14452436D02*
X4258777Y-14433388D01*
X4258777Y-14433388D02*
X4249253Y-14395293D01*
X4249253Y-14395293D02*
X4249253Y-14347674D01*
X4249253Y-14347674D02*
X4258777Y-14309579D01*
X4258777Y-14309579D02*
X4268301Y-14290531D01*
X4268301Y-14290531D02*
X4277824Y-14281008D01*
X4277824Y-14281008D02*
X4296872Y-14271484D01*
X4449253Y-14452436D02*
X4458777Y-14461960D01*
X4458777Y-14461960D02*
X4449253Y-14471484D01*
X4449253Y-14471484D02*
X4439729Y-14461960D01*
X4439729Y-14461960D02*
X4449253Y-14452436D01*
X4449253Y-14452436D02*
X4449253Y-14471484D01*
X4554015Y-14471484D02*
X4592110Y-14471484D01*
X4592110Y-14471484D02*
X4611158Y-14461960D01*
X4611158Y-14461960D02*
X4620682Y-14452436D01*
X4620682Y-14452436D02*
X4639729Y-14423865D01*
X4639729Y-14423865D02*
X4649253Y-14385769D01*
X4649253Y-14385769D02*
X4649253Y-14309579D01*
X4649253Y-14309579D02*
X4639729Y-14290531D01*
X4639729Y-14290531D02*
X4630205Y-14281008D01*
X4630205Y-14281008D02*
X4611158Y-14271484D01*
X4611158Y-14271484D02*
X4573063Y-14271484D01*
X4573063Y-14271484D02*
X4554015Y-14281008D01*
X4554015Y-14281008D02*
X4544491Y-14290531D01*
X4544491Y-14290531D02*
X4534967Y-14309579D01*
X4534967Y-14309579D02*
X4534967Y-14357198D01*
X4534967Y-14357198D02*
X4544491Y-14376246D01*
X4544491Y-14376246D02*
X4554015Y-14385769D01*
X4554015Y-14385769D02*
X4573063Y-14395293D01*
X4573063Y-14395293D02*
X4611158Y-14395293D01*
X4611158Y-14395293D02*
X4630205Y-14385769D01*
X4630205Y-14385769D02*
X4639729Y-14376246D01*
X4639729Y-14376246D02*
X4649253Y-14357198D01*
X4744491Y-14471484D02*
X4782586Y-14471484D01*
X4782586Y-14471484D02*
X4801634Y-14461960D01*
X4801634Y-14461960D02*
X4811158Y-14452436D01*
X4811158Y-14452436D02*
X4830205Y-14423865D01*
X4830205Y-14423865D02*
X4839729Y-14385769D01*
X4839729Y-14385769D02*
X4839729Y-14309579D01*
X4839729Y-14309579D02*
X4830205Y-14290531D01*
X4830205Y-14290531D02*
X4820682Y-14281008D01*
X4820682Y-14281008D02*
X4801634Y-14271484D01*
X4801634Y-14271484D02*
X4763539Y-14271484D01*
X4763539Y-14271484D02*
X4744491Y-14281008D01*
X4744491Y-14281008D02*
X4734967Y-14290531D01*
X4734967Y-14290531D02*
X4725444Y-14309579D01*
X4725444Y-14309579D02*
X4725444Y-14357198D01*
X4725444Y-14357198D02*
X4734967Y-14376246D01*
X4734967Y-14376246D02*
X4744491Y-14385769D01*
X4744491Y-14385769D02*
X4763539Y-14395293D01*
X4763539Y-14395293D02*
X4801634Y-14395293D01*
X4801634Y-14395293D02*
X4820682Y-14385769D01*
X4820682Y-14385769D02*
X4830205Y-14376246D01*
X4830205Y-14376246D02*
X4839729Y-14357198D01*
X5030205Y-14471484D02*
X4915920Y-14471484D01*
X4973063Y-14471484D02*
X4973063Y-14271484D01*
X4973063Y-14271484D02*
X4954015Y-14300055D01*
X4954015Y-14300055D02*
X4934967Y-14319103D01*
X4934967Y-14319103D02*
X4915920Y-14328627D01*
X5115920Y-14471484D02*
X5115920Y-14338150D01*
X5115920Y-14357198D02*
X5125444Y-14347674D01*
X5125444Y-14347674D02*
X5144491Y-14338150D01*
X5144491Y-14338150D02*
X5173063Y-14338150D01*
X5173063Y-14338150D02*
X5192110Y-14347674D01*
X5192110Y-14347674D02*
X5201634Y-14366722D01*
X5201634Y-14366722D02*
X5201634Y-14471484D01*
X5201634Y-14366722D02*
X5211158Y-14347674D01*
X5211158Y-14347674D02*
X5230205Y-14338150D01*
X5230205Y-14338150D02*
X5258777Y-14338150D01*
X5258777Y-14338150D02*
X5277825Y-14347674D01*
X5277825Y-14347674D02*
X5287348Y-14366722D01*
X5287348Y-14366722D02*
X5287348Y-14471484D01*
X5382586Y-14471484D02*
X5382586Y-14338150D01*
X5382586Y-14357198D02*
X5392110Y-14347674D01*
X5392110Y-14347674D02*
X5411158Y-14338150D01*
X5411158Y-14338150D02*
X5439729Y-14338150D01*
X5439729Y-14338150D02*
X5458777Y-14347674D01*
X5458777Y-14347674D02*
X5468301Y-14366722D01*
X5468301Y-14366722D02*
X5468301Y-14471484D01*
X5468301Y-14366722D02*
X5477825Y-14347674D01*
X5477825Y-14347674D02*
X5496872Y-14338150D01*
X5496872Y-14338150D02*
X5525444Y-14338150D01*
X5525444Y-14338150D02*
X5544491Y-14347674D01*
X5544491Y-14347674D02*
X5554015Y-14366722D01*
X5554015Y-14366722D02*
X5554015Y-14471484D01*
X5944491Y-14261960D02*
X5773063Y-14519103D01*
X6201634Y-14271484D02*
X6220682Y-14271484D01*
X6220682Y-14271484D02*
X6239729Y-14281008D01*
X6239729Y-14281008D02*
X6249253Y-14290531D01*
X6249253Y-14290531D02*
X6258777Y-14309579D01*
X6258777Y-14309579D02*
X6268301Y-14347674D01*
X6268301Y-14347674D02*
X6268301Y-14395293D01*
X6268301Y-14395293D02*
X6258777Y-14433388D01*
X6258777Y-14433388D02*
X6249253Y-14452436D01*
X6249253Y-14452436D02*
X6239729Y-14461960D01*
X6239729Y-14461960D02*
X6220682Y-14471484D01*
X6220682Y-14471484D02*
X6201634Y-14471484D01*
X6201634Y-14471484D02*
X6182586Y-14461960D01*
X6182586Y-14461960D02*
X6173063Y-14452436D01*
X6173063Y-14452436D02*
X6163539Y-14433388D01*
X6163539Y-14433388D02*
X6154015Y-14395293D01*
X6154015Y-14395293D02*
X6154015Y-14347674D01*
X6154015Y-14347674D02*
X6163539Y-14309579D01*
X6163539Y-14309579D02*
X6173063Y-14290531D01*
X6173063Y-14290531D02*
X6182586Y-14281008D01*
X6182586Y-14281008D02*
X6201634Y-14271484D01*
X6354015Y-14452436D02*
X6363539Y-14461960D01*
X6363539Y-14461960D02*
X6354015Y-14471484D01*
X6354015Y-14471484D02*
X6344491Y-14461960D01*
X6344491Y-14461960D02*
X6354015Y-14452436D01*
X6354015Y-14452436D02*
X6354015Y-14471484D01*
X6487348Y-14271484D02*
X6506396Y-14271484D01*
X6506396Y-14271484D02*
X6525444Y-14281008D01*
X6525444Y-14281008D02*
X6534967Y-14290531D01*
X6534967Y-14290531D02*
X6544491Y-14309579D01*
X6544491Y-14309579D02*
X6554015Y-14347674D01*
X6554015Y-14347674D02*
X6554015Y-14395293D01*
X6554015Y-14395293D02*
X6544491Y-14433388D01*
X6544491Y-14433388D02*
X6534967Y-14452436D01*
X6534967Y-14452436D02*
X6525444Y-14461960D01*
X6525444Y-14461960D02*
X6506396Y-14471484D01*
X6506396Y-14471484D02*
X6487348Y-14471484D01*
X6487348Y-14471484D02*
X6468301Y-14461960D01*
X6468301Y-14461960D02*
X6458777Y-14452436D01*
X6458777Y-14452436D02*
X6449253Y-14433388D01*
X6449253Y-14433388D02*
X6439729Y-14395293D01*
X6439729Y-14395293D02*
X6439729Y-14347674D01*
X6439729Y-14347674D02*
X6449253Y-14309579D01*
X6449253Y-14309579D02*
X6458777Y-14290531D01*
X6458777Y-14290531D02*
X6468301Y-14281008D01*
X6468301Y-14281008D02*
X6487348Y-14271484D01*
X6620682Y-14271484D02*
X6744491Y-14271484D01*
X6744491Y-14271484D02*
X6677825Y-14347674D01*
X6677825Y-14347674D02*
X6706396Y-14347674D01*
X6706396Y-14347674D02*
X6725444Y-14357198D01*
X6725444Y-14357198D02*
X6734967Y-14366722D01*
X6734967Y-14366722D02*
X6744491Y-14385769D01*
X6744491Y-14385769D02*
X6744491Y-14433388D01*
X6744491Y-14433388D02*
X6734967Y-14452436D01*
X6734967Y-14452436D02*
X6725444Y-14461960D01*
X6725444Y-14461960D02*
X6706396Y-14471484D01*
X6706396Y-14471484D02*
X6649253Y-14471484D01*
X6649253Y-14471484D02*
X6630206Y-14461960D01*
X6630206Y-14461960D02*
X6620682Y-14452436D01*
X6839729Y-14471484D02*
X6877825Y-14471484D01*
X6877825Y-14471484D02*
X6896872Y-14461960D01*
X6896872Y-14461960D02*
X6906396Y-14452436D01*
X6906396Y-14452436D02*
X6925444Y-14423865D01*
X6925444Y-14423865D02*
X6934967Y-14385769D01*
X6934967Y-14385769D02*
X6934967Y-14309579D01*
X6934967Y-14309579D02*
X6925444Y-14290531D01*
X6925444Y-14290531D02*
X6915920Y-14281008D01*
X6915920Y-14281008D02*
X6896872Y-14271484D01*
X6896872Y-14271484D02*
X6858777Y-14271484D01*
X6858777Y-14271484D02*
X6839729Y-14281008D01*
X6839729Y-14281008D02*
X6830206Y-14290531D01*
X6830206Y-14290531D02*
X6820682Y-14309579D01*
X6820682Y-14309579D02*
X6820682Y-14357198D01*
X6820682Y-14357198D02*
X6830206Y-14376246D01*
X6830206Y-14376246D02*
X6839729Y-14385769D01*
X6839729Y-14385769D02*
X6858777Y-14395293D01*
X6858777Y-14395293D02*
X6896872Y-14395293D01*
X6896872Y-14395293D02*
X6915920Y-14385769D01*
X6915920Y-14385769D02*
X6925444Y-14376246D01*
X6925444Y-14376246D02*
X6934967Y-14357198D01*
X7058777Y-14271484D02*
X7077825Y-14271484D01*
X7077825Y-14271484D02*
X7096872Y-14281008D01*
X7096872Y-14281008D02*
X7106396Y-14290531D01*
X7106396Y-14290531D02*
X7115920Y-14309579D01*
X7115920Y-14309579D02*
X7125444Y-14347674D01*
X7125444Y-14347674D02*
X7125444Y-14395293D01*
X7125444Y-14395293D02*
X7115920Y-14433388D01*
X7115920Y-14433388D02*
X7106396Y-14452436D01*
X7106396Y-14452436D02*
X7096872Y-14461960D01*
X7096872Y-14461960D02*
X7077825Y-14471484D01*
X7077825Y-14471484D02*
X7058777Y-14471484D01*
X7058777Y-14471484D02*
X7039729Y-14461960D01*
X7039729Y-14461960D02*
X7030206Y-14452436D01*
X7030206Y-14452436D02*
X7020682Y-14433388D01*
X7020682Y-14433388D02*
X7011158Y-14395293D01*
X7011158Y-14395293D02*
X7011158Y-14347674D01*
X7011158Y-14347674D02*
X7020682Y-14309579D01*
X7020682Y-14309579D02*
X7030206Y-14290531D01*
X7030206Y-14290531D02*
X7039729Y-14281008D01*
X7039729Y-14281008D02*
X7058777Y-14271484D01*
X7201634Y-14271484D02*
X7201634Y-14309579D01*
X7277825Y-14271484D02*
X7277825Y-14309579D01*
X7573063Y-14547674D02*
X7563539Y-14538150D01*
X7563539Y-14538150D02*
X7544491Y-14509579D01*
X7544491Y-14509579D02*
X7534968Y-14490531D01*
X7534968Y-14490531D02*
X7525444Y-14461960D01*
X7525444Y-14461960D02*
X7515920Y-14414341D01*
X7515920Y-14414341D02*
X7515920Y-14376246D01*
X7515920Y-14376246D02*
X7525444Y-14328627D01*
X7525444Y-14328627D02*
X7534968Y-14300055D01*
X7534968Y-14300055D02*
X7544491Y-14281008D01*
X7544491Y-14281008D02*
X7563539Y-14252436D01*
X7563539Y-14252436D02*
X7573063Y-14242912D01*
X7630206Y-14271484D02*
X7754015Y-14271484D01*
X7754015Y-14271484D02*
X7687348Y-14347674D01*
X7687348Y-14347674D02*
X7715920Y-14347674D01*
X7715920Y-14347674D02*
X7734968Y-14357198D01*
X7734968Y-14357198D02*
X7744491Y-14366722D01*
X7744491Y-14366722D02*
X7754015Y-14385769D01*
X7754015Y-14385769D02*
X7754015Y-14433388D01*
X7754015Y-14433388D02*
X7744491Y-14452436D01*
X7744491Y-14452436D02*
X7734968Y-14461960D01*
X7734968Y-14461960D02*
X7715920Y-14471484D01*
X7715920Y-14471484D02*
X7658777Y-14471484D01*
X7658777Y-14471484D02*
X7639729Y-14461960D01*
X7639729Y-14461960D02*
X7630206Y-14452436D01*
X7992110Y-14471484D02*
X7992110Y-14271484D01*
X8077825Y-14471484D02*
X8077825Y-14366722D01*
X8077825Y-14366722D02*
X8068301Y-14347674D01*
X8068301Y-14347674D02*
X8049253Y-14338150D01*
X8049253Y-14338150D02*
X8020682Y-14338150D01*
X8020682Y-14338150D02*
X8001634Y-14347674D01*
X8001634Y-14347674D02*
X7992110Y-14357198D01*
X8201634Y-14471484D02*
X8182587Y-14461960D01*
X8182587Y-14461960D02*
X8173063Y-14452436D01*
X8173063Y-14452436D02*
X8163539Y-14433388D01*
X8163539Y-14433388D02*
X8163539Y-14376246D01*
X8163539Y-14376246D02*
X8173063Y-14357198D01*
X8173063Y-14357198D02*
X8182587Y-14347674D01*
X8182587Y-14347674D02*
X8201634Y-14338150D01*
X8201634Y-14338150D02*
X8230206Y-14338150D01*
X8230206Y-14338150D02*
X8249253Y-14347674D01*
X8249253Y-14347674D02*
X8258777Y-14357198D01*
X8258777Y-14357198D02*
X8268301Y-14376246D01*
X8268301Y-14376246D02*
X8268301Y-14433388D01*
X8268301Y-14433388D02*
X8258777Y-14452436D01*
X8258777Y-14452436D02*
X8249253Y-14461960D01*
X8249253Y-14461960D02*
X8230206Y-14471484D01*
X8230206Y-14471484D02*
X8201634Y-14471484D01*
X8382587Y-14471484D02*
X8363539Y-14461960D01*
X8363539Y-14461960D02*
X8354015Y-14442912D01*
X8354015Y-14442912D02*
X8354015Y-14271484D01*
X8534968Y-14461960D02*
X8515920Y-14471484D01*
X8515920Y-14471484D02*
X8477825Y-14471484D01*
X8477825Y-14471484D02*
X8458777Y-14461960D01*
X8458777Y-14461960D02*
X8449253Y-14442912D01*
X8449253Y-14442912D02*
X8449253Y-14366722D01*
X8449253Y-14366722D02*
X8458777Y-14347674D01*
X8458777Y-14347674D02*
X8477825Y-14338150D01*
X8477825Y-14338150D02*
X8515920Y-14338150D01*
X8515920Y-14338150D02*
X8534968Y-14347674D01*
X8534968Y-14347674D02*
X8544492Y-14366722D01*
X8544492Y-14366722D02*
X8544492Y-14385769D01*
X8544492Y-14385769D02*
X8449253Y-14404817D01*
X8620682Y-14461960D02*
X8639730Y-14471484D01*
X8639730Y-14471484D02*
X8677825Y-14471484D01*
X8677825Y-14471484D02*
X8696873Y-14461960D01*
X8696873Y-14461960D02*
X8706396Y-14442912D01*
X8706396Y-14442912D02*
X8706396Y-14433388D01*
X8706396Y-14433388D02*
X8696873Y-14414341D01*
X8696873Y-14414341D02*
X8677825Y-14404817D01*
X8677825Y-14404817D02*
X8649253Y-14404817D01*
X8649253Y-14404817D02*
X8630206Y-14395293D01*
X8630206Y-14395293D02*
X8620682Y-14376246D01*
X8620682Y-14376246D02*
X8620682Y-14366722D01*
X8620682Y-14366722D02*
X8630206Y-14347674D01*
X8630206Y-14347674D02*
X8649253Y-14338150D01*
X8649253Y-14338150D02*
X8677825Y-14338150D01*
X8677825Y-14338150D02*
X8696873Y-14347674D01*
X8773063Y-14547674D02*
X8782587Y-14538150D01*
X8782587Y-14538150D02*
X8801634Y-14509579D01*
X8801634Y-14509579D02*
X8811158Y-14490531D01*
X8811158Y-14490531D02*
X8820682Y-14461960D01*
X8820682Y-14461960D02*
X8830206Y-14414341D01*
X8830206Y-14414341D02*
X8830206Y-14376246D01*
X8830206Y-14376246D02*
X8820682Y-14328627D01*
X8820682Y-14328627D02*
X8811158Y-14300055D01*
X8811158Y-14300055D02*
X8801634Y-14281008D01*
X8801634Y-14281008D02*
X8782587Y-14252436D01*
X8782587Y-14252436D02*
X8773063Y-14242912D01*
X9134968Y-14547674D02*
X9125444Y-14538150D01*
X9125444Y-14538150D02*
X9106396Y-14509579D01*
X9106396Y-14509579D02*
X9096873Y-14490531D01*
X9096873Y-14490531D02*
X9087349Y-14461960D01*
X9087349Y-14461960D02*
X9077825Y-14414341D01*
X9077825Y-14414341D02*
X9077825Y-14376246D01*
X9077825Y-14376246D02*
X9087349Y-14328627D01*
X9087349Y-14328627D02*
X9096873Y-14300055D01*
X9096873Y-14300055D02*
X9106396Y-14281008D01*
X9106396Y-14281008D02*
X9125444Y-14252436D01*
X9125444Y-14252436D02*
X9134968Y-14242912D01*
X9211158Y-14338150D02*
X9211158Y-14471484D01*
X9211158Y-14357198D02*
X9220682Y-14347674D01*
X9220682Y-14347674D02*
X9239730Y-14338150D01*
X9239730Y-14338150D02*
X9268301Y-14338150D01*
X9268301Y-14338150D02*
X9287349Y-14347674D01*
X9287349Y-14347674D02*
X9296873Y-14366722D01*
X9296873Y-14366722D02*
X9296873Y-14471484D01*
X9420682Y-14471484D02*
X9401634Y-14461960D01*
X9401634Y-14461960D02*
X9392111Y-14452436D01*
X9392111Y-14452436D02*
X9382587Y-14433388D01*
X9382587Y-14433388D02*
X9382587Y-14376246D01*
X9382587Y-14376246D02*
X9392111Y-14357198D01*
X9392111Y-14357198D02*
X9401634Y-14347674D01*
X9401634Y-14347674D02*
X9420682Y-14338150D01*
X9420682Y-14338150D02*
X9449254Y-14338150D01*
X9449254Y-14338150D02*
X9468301Y-14347674D01*
X9468301Y-14347674D02*
X9477825Y-14357198D01*
X9477825Y-14357198D02*
X9487349Y-14376246D01*
X9487349Y-14376246D02*
X9487349Y-14433388D01*
X9487349Y-14433388D02*
X9477825Y-14452436D01*
X9477825Y-14452436D02*
X9468301Y-14461960D01*
X9468301Y-14461960D02*
X9449254Y-14471484D01*
X9449254Y-14471484D02*
X9420682Y-14471484D01*
X9544492Y-14338150D02*
X9620682Y-14338150D01*
X9573063Y-14271484D02*
X9573063Y-14442912D01*
X9573063Y-14442912D02*
X9582587Y-14461960D01*
X9582587Y-14461960D02*
X9601634Y-14471484D01*
X9601634Y-14471484D02*
X9620682Y-14471484D01*
X9839730Y-14338150D02*
X9839730Y-14538150D01*
X9839730Y-14347674D02*
X9858777Y-14338150D01*
X9858777Y-14338150D02*
X9896873Y-14338150D01*
X9896873Y-14338150D02*
X9915920Y-14347674D01*
X9915920Y-14347674D02*
X9925444Y-14357198D01*
X9925444Y-14357198D02*
X9934968Y-14376246D01*
X9934968Y-14376246D02*
X9934968Y-14433388D01*
X9934968Y-14433388D02*
X9925444Y-14452436D01*
X9925444Y-14452436D02*
X9915920Y-14461960D01*
X9915920Y-14461960D02*
X9896873Y-14471484D01*
X9896873Y-14471484D02*
X9858777Y-14471484D01*
X9858777Y-14471484D02*
X9839730Y-14461960D01*
X10049254Y-14471484D02*
X10030206Y-14461960D01*
X10030206Y-14461960D02*
X10020682Y-14442912D01*
X10020682Y-14442912D02*
X10020682Y-14271484D01*
X10211158Y-14471484D02*
X10211158Y-14366722D01*
X10211158Y-14366722D02*
X10201635Y-14347674D01*
X10201635Y-14347674D02*
X10182587Y-14338150D01*
X10182587Y-14338150D02*
X10144492Y-14338150D01*
X10144492Y-14338150D02*
X10125444Y-14347674D01*
X10211158Y-14461960D02*
X10192111Y-14471484D01*
X10192111Y-14471484D02*
X10144492Y-14471484D01*
X10144492Y-14471484D02*
X10125444Y-14461960D01*
X10125444Y-14461960D02*
X10115920Y-14442912D01*
X10115920Y-14442912D02*
X10115920Y-14423865D01*
X10115920Y-14423865D02*
X10125444Y-14404817D01*
X10125444Y-14404817D02*
X10144492Y-14395293D01*
X10144492Y-14395293D02*
X10192111Y-14395293D01*
X10192111Y-14395293D02*
X10211158Y-14385769D01*
X10277825Y-14338150D02*
X10354015Y-14338150D01*
X10306396Y-14271484D02*
X10306396Y-14442912D01*
X10306396Y-14442912D02*
X10315920Y-14461960D01*
X10315920Y-14461960D02*
X10334968Y-14471484D01*
X10334968Y-14471484D02*
X10354015Y-14471484D01*
X10496873Y-14461960D02*
X10477825Y-14471484D01*
X10477825Y-14471484D02*
X10439730Y-14471484D01*
X10439730Y-14471484D02*
X10420682Y-14461960D01*
X10420682Y-14461960D02*
X10411158Y-14442912D01*
X10411158Y-14442912D02*
X10411158Y-14366722D01*
X10411158Y-14366722D02*
X10420682Y-14347674D01*
X10420682Y-14347674D02*
X10439730Y-14338150D01*
X10439730Y-14338150D02*
X10477825Y-14338150D01*
X10477825Y-14338150D02*
X10496873Y-14347674D01*
X10496873Y-14347674D02*
X10506396Y-14366722D01*
X10506396Y-14366722D02*
X10506396Y-14385769D01*
X10506396Y-14385769D02*
X10411158Y-14404817D01*
X10677825Y-14471484D02*
X10677825Y-14271484D01*
X10677825Y-14461960D02*
X10658777Y-14471484D01*
X10658777Y-14471484D02*
X10620682Y-14471484D01*
X10620682Y-14471484D02*
X10601635Y-14461960D01*
X10601635Y-14461960D02*
X10592111Y-14452436D01*
X10592111Y-14452436D02*
X10582587Y-14433388D01*
X10582587Y-14433388D02*
X10582587Y-14376246D01*
X10582587Y-14376246D02*
X10592111Y-14357198D01*
X10592111Y-14357198D02*
X10601635Y-14347674D01*
X10601635Y-14347674D02*
X10620682Y-14338150D01*
X10620682Y-14338150D02*
X10658777Y-14338150D01*
X10658777Y-14338150D02*
X10677825Y-14347674D01*
X10754016Y-14547674D02*
X10763539Y-14538150D01*
X10763539Y-14538150D02*
X10782587Y-14509579D01*
X10782587Y-14509579D02*
X10792111Y-14490531D01*
X10792111Y-14490531D02*
X10801635Y-14461960D01*
X10801635Y-14461960D02*
X10811158Y-14414341D01*
X10811158Y-14414341D02*
X10811158Y-14376246D01*
X10811158Y-14376246D02*
X10801635Y-14328627D01*
X10801635Y-14328627D02*
X10792111Y-14300055D01*
X10792111Y-14300055D02*
X10782587Y-14281008D01*
X10782587Y-14281008D02*
X10763539Y-14252436D01*
X10763539Y-14252436D02*
X10754016Y-14242912D01*
M02*
