%TF.GenerationSoftware,KiCad,Pcbnew,8.0.6*%
%TF.CreationDate,2024-10-31T13:08:30-07:00*%
%TF.ProjectId,veramonitor,76657261-6d6f-46e6-9974-6f722e6b6963,rev?*%
%TF.SameCoordinates,Original*%
%TF.FileFunction,Legend,Top*%
%TF.FilePolarity,Positive*%
%FSLAX46Y46*%
G04 Gerber Fmt 4.6, Leading zero omitted, Abs format (unit mm)*
G04 Created by KiCad (PCBNEW 8.0.6) date 2024-10-31 13:08:30*
%MOMM*%
%LPD*%
G01*
G04 APERTURE LIST*
%ADD10C,0.200000*%
%ADD11C,0.300000*%
%ADD12C,0.100000*%
%ADD13C,0.150000*%
%ADD14C,0.080000*%
%ADD15C,0.120000*%
%ADD16C,0.250000*%
G04 APERTURE END LIST*
D10*
X49120000Y-120165000D02*
X149820000Y-120165000D01*
X149820000Y-128315000D01*
X49120000Y-128315000D01*
X49120000Y-120165000D01*
X49145000Y-128540000D02*
X149845000Y-128540000D01*
X149845000Y-136690000D01*
X49145000Y-136690000D01*
X49145000Y-128540000D01*
D11*
X50403082Y-130262257D02*
X51117368Y-130262257D01*
X50260225Y-130690828D02*
X50760225Y-129190828D01*
X50760225Y-129190828D02*
X51260225Y-130690828D01*
X51545939Y-129190828D02*
X52045939Y-130690828D01*
X52045939Y-130690828D02*
X52545939Y-129190828D01*
X53045938Y-129905114D02*
X53545938Y-129905114D01*
X53760224Y-130690828D02*
X53045938Y-130690828D01*
X53045938Y-130690828D02*
X53045938Y-129190828D01*
X53045938Y-129190828D02*
X53760224Y-129190828D01*
X55260224Y-130690828D02*
X54760224Y-129976542D01*
X54403081Y-130690828D02*
X54403081Y-129190828D01*
X54403081Y-129190828D02*
X54974510Y-129190828D01*
X54974510Y-129190828D02*
X55117367Y-129262257D01*
X55117367Y-129262257D02*
X55188796Y-129333685D01*
X55188796Y-129333685D02*
X55260224Y-129476542D01*
X55260224Y-129476542D02*
X55260224Y-129690828D01*
X55260224Y-129690828D02*
X55188796Y-129833685D01*
X55188796Y-129833685D02*
X55117367Y-129905114D01*
X55117367Y-129905114D02*
X54974510Y-129976542D01*
X54974510Y-129976542D02*
X54403081Y-129976542D01*
X55831653Y-130262257D02*
X56545939Y-130262257D01*
X55688796Y-130690828D02*
X56188796Y-129190828D01*
X56188796Y-129190828D02*
X56688796Y-130690828D01*
X57974510Y-129262257D02*
X57831653Y-129190828D01*
X57831653Y-129190828D02*
X57617367Y-129190828D01*
X57617367Y-129190828D02*
X57403081Y-129262257D01*
X57403081Y-129262257D02*
X57260224Y-129405114D01*
X57260224Y-129405114D02*
X57188795Y-129547971D01*
X57188795Y-129547971D02*
X57117367Y-129833685D01*
X57117367Y-129833685D02*
X57117367Y-130047971D01*
X57117367Y-130047971D02*
X57188795Y-130333685D01*
X57188795Y-130333685D02*
X57260224Y-130476542D01*
X57260224Y-130476542D02*
X57403081Y-130619400D01*
X57403081Y-130619400D02*
X57617367Y-130690828D01*
X57617367Y-130690828D02*
X57760224Y-130690828D01*
X57760224Y-130690828D02*
X57974510Y-130619400D01*
X57974510Y-130619400D02*
X58045938Y-130547971D01*
X58045938Y-130547971D02*
X58045938Y-130047971D01*
X58045938Y-130047971D02*
X57760224Y-130047971D01*
X58688795Y-129905114D02*
X59188795Y-129905114D01*
X59403081Y-130690828D02*
X58688795Y-130690828D01*
X58688795Y-130690828D02*
X58688795Y-129190828D01*
X58688795Y-129190828D02*
X59403081Y-129190828D01*
X51163796Y-122315828D02*
X50449510Y-122315828D01*
X50449510Y-122315828D02*
X50449510Y-120815828D01*
X51663796Y-122315828D02*
X51663796Y-120815828D01*
X52163797Y-120815828D02*
X52663797Y-122315828D01*
X52663797Y-122315828D02*
X53163797Y-120815828D01*
X53663796Y-121530114D02*
X54163796Y-121530114D01*
X54378082Y-122315828D02*
X53663796Y-122315828D01*
X53663796Y-122315828D02*
X53663796Y-120815828D01*
X53663796Y-120815828D02*
X54378082Y-120815828D01*
D12*
X80941428Y-131206764D02*
X80941428Y-131813907D01*
X80941428Y-131813907D02*
X80977142Y-131885335D01*
X80977142Y-131885335D02*
X81012857Y-131921050D01*
X81012857Y-131921050D02*
X81084285Y-131956764D01*
X81084285Y-131956764D02*
X81227142Y-131956764D01*
X81227142Y-131956764D02*
X81298571Y-131921050D01*
X81298571Y-131921050D02*
X81334285Y-131885335D01*
X81334285Y-131885335D02*
X81369999Y-131813907D01*
X81369999Y-131813907D02*
X81369999Y-131206764D01*
X81655713Y-131206764D02*
X82119999Y-131206764D01*
X82119999Y-131206764D02*
X81869999Y-131492478D01*
X81869999Y-131492478D02*
X81977142Y-131492478D01*
X81977142Y-131492478D02*
X82048571Y-131528192D01*
X82048571Y-131528192D02*
X82084285Y-131563907D01*
X82084285Y-131563907D02*
X82119999Y-131635335D01*
X82119999Y-131635335D02*
X82119999Y-131813907D01*
X82119999Y-131813907D02*
X82084285Y-131885335D01*
X82084285Y-131885335D02*
X82048571Y-131921050D01*
X82048571Y-131921050D02*
X81977142Y-131956764D01*
X81977142Y-131956764D02*
X81762856Y-131956764D01*
X81762856Y-131956764D02*
X81691428Y-131921050D01*
X81691428Y-131921050D02*
X81655713Y-131885335D01*
X82548571Y-131528192D02*
X82477142Y-131492478D01*
X82477142Y-131492478D02*
X82441428Y-131456764D01*
X82441428Y-131456764D02*
X82405714Y-131385335D01*
X82405714Y-131385335D02*
X82405714Y-131349621D01*
X82405714Y-131349621D02*
X82441428Y-131278192D01*
X82441428Y-131278192D02*
X82477142Y-131242478D01*
X82477142Y-131242478D02*
X82548571Y-131206764D01*
X82548571Y-131206764D02*
X82691428Y-131206764D01*
X82691428Y-131206764D02*
X82762857Y-131242478D01*
X82762857Y-131242478D02*
X82798571Y-131278192D01*
X82798571Y-131278192D02*
X82834285Y-131349621D01*
X82834285Y-131349621D02*
X82834285Y-131385335D01*
X82834285Y-131385335D02*
X82798571Y-131456764D01*
X82798571Y-131456764D02*
X82762857Y-131492478D01*
X82762857Y-131492478D02*
X82691428Y-131528192D01*
X82691428Y-131528192D02*
X82548571Y-131528192D01*
X82548571Y-131528192D02*
X82477142Y-131563907D01*
X82477142Y-131563907D02*
X82441428Y-131599621D01*
X82441428Y-131599621D02*
X82405714Y-131671050D01*
X82405714Y-131671050D02*
X82405714Y-131813907D01*
X82405714Y-131813907D02*
X82441428Y-131885335D01*
X82441428Y-131885335D02*
X82477142Y-131921050D01*
X82477142Y-131921050D02*
X82548571Y-131956764D01*
X82548571Y-131956764D02*
X82691428Y-131956764D01*
X82691428Y-131956764D02*
X82762857Y-131921050D01*
X82762857Y-131921050D02*
X82798571Y-131885335D01*
X82798571Y-131885335D02*
X82834285Y-131813907D01*
X82834285Y-131813907D02*
X82834285Y-131671050D01*
X82834285Y-131671050D02*
X82798571Y-131599621D01*
X82798571Y-131599621D02*
X82762857Y-131563907D01*
X82762857Y-131563907D02*
X82691428Y-131528192D01*
X141637856Y-136285335D02*
X141602142Y-136321050D01*
X141602142Y-136321050D02*
X141494999Y-136356764D01*
X141494999Y-136356764D02*
X141423571Y-136356764D01*
X141423571Y-136356764D02*
X141316428Y-136321050D01*
X141316428Y-136321050D02*
X141244999Y-136249621D01*
X141244999Y-136249621D02*
X141209285Y-136178192D01*
X141209285Y-136178192D02*
X141173571Y-136035335D01*
X141173571Y-136035335D02*
X141173571Y-135928192D01*
X141173571Y-135928192D02*
X141209285Y-135785335D01*
X141209285Y-135785335D02*
X141244999Y-135713907D01*
X141244999Y-135713907D02*
X141316428Y-135642478D01*
X141316428Y-135642478D02*
X141423571Y-135606764D01*
X141423571Y-135606764D02*
X141494999Y-135606764D01*
X141494999Y-135606764D02*
X141602142Y-135642478D01*
X141602142Y-135642478D02*
X141637856Y-135678192D01*
X142280714Y-135856764D02*
X142280714Y-136356764D01*
X142102142Y-135571050D02*
X141923571Y-136106764D01*
X141923571Y-136106764D02*
X142387856Y-136106764D01*
X142709285Y-136356764D02*
X142852142Y-136356764D01*
X142852142Y-136356764D02*
X142923571Y-136321050D01*
X142923571Y-136321050D02*
X142959285Y-136285335D01*
X142959285Y-136285335D02*
X143030714Y-136178192D01*
X143030714Y-136178192D02*
X143066428Y-136035335D01*
X143066428Y-136035335D02*
X143066428Y-135749621D01*
X143066428Y-135749621D02*
X143030714Y-135678192D01*
X143030714Y-135678192D02*
X142995000Y-135642478D01*
X142995000Y-135642478D02*
X142923571Y-135606764D01*
X142923571Y-135606764D02*
X142780714Y-135606764D01*
X142780714Y-135606764D02*
X142709285Y-135642478D01*
X142709285Y-135642478D02*
X142673571Y-135678192D01*
X142673571Y-135678192D02*
X142637857Y-135749621D01*
X142637857Y-135749621D02*
X142637857Y-135928192D01*
X142637857Y-135928192D02*
X142673571Y-135999621D01*
X142673571Y-135999621D02*
X142709285Y-136035335D01*
X142709285Y-136035335D02*
X142780714Y-136071050D01*
X142780714Y-136071050D02*
X142923571Y-136071050D01*
X142923571Y-136071050D02*
X142995000Y-136035335D01*
X142995000Y-136035335D02*
X143030714Y-135999621D01*
X143030714Y-135999621D02*
X143066428Y-135928192D01*
X96442856Y-127965335D02*
X96407142Y-128001050D01*
X96407142Y-128001050D02*
X96299999Y-128036764D01*
X96299999Y-128036764D02*
X96228571Y-128036764D01*
X96228571Y-128036764D02*
X96121428Y-128001050D01*
X96121428Y-128001050D02*
X96049999Y-127929621D01*
X96049999Y-127929621D02*
X96014285Y-127858192D01*
X96014285Y-127858192D02*
X95978571Y-127715335D01*
X95978571Y-127715335D02*
X95978571Y-127608192D01*
X95978571Y-127608192D02*
X96014285Y-127465335D01*
X96014285Y-127465335D02*
X96049999Y-127393907D01*
X96049999Y-127393907D02*
X96121428Y-127322478D01*
X96121428Y-127322478D02*
X96228571Y-127286764D01*
X96228571Y-127286764D02*
X96299999Y-127286764D01*
X96299999Y-127286764D02*
X96407142Y-127322478D01*
X96407142Y-127322478D02*
X96442856Y-127358192D01*
X96728571Y-127358192D02*
X96764285Y-127322478D01*
X96764285Y-127322478D02*
X96835714Y-127286764D01*
X96835714Y-127286764D02*
X97014285Y-127286764D01*
X97014285Y-127286764D02*
X97085714Y-127322478D01*
X97085714Y-127322478D02*
X97121428Y-127358192D01*
X97121428Y-127358192D02*
X97157142Y-127429621D01*
X97157142Y-127429621D02*
X97157142Y-127501050D01*
X97157142Y-127501050D02*
X97121428Y-127608192D01*
X97121428Y-127608192D02*
X96692856Y-128036764D01*
X96692856Y-128036764D02*
X97157142Y-128036764D01*
X97621428Y-127286764D02*
X97692857Y-127286764D01*
X97692857Y-127286764D02*
X97764285Y-127322478D01*
X97764285Y-127322478D02*
X97800000Y-127358192D01*
X97800000Y-127358192D02*
X97835714Y-127429621D01*
X97835714Y-127429621D02*
X97871428Y-127572478D01*
X97871428Y-127572478D02*
X97871428Y-127751050D01*
X97871428Y-127751050D02*
X97835714Y-127893907D01*
X97835714Y-127893907D02*
X97800000Y-127965335D01*
X97800000Y-127965335D02*
X97764285Y-128001050D01*
X97764285Y-128001050D02*
X97692857Y-128036764D01*
X97692857Y-128036764D02*
X97621428Y-128036764D01*
X97621428Y-128036764D02*
X97550000Y-128001050D01*
X97550000Y-128001050D02*
X97514285Y-127965335D01*
X97514285Y-127965335D02*
X97478571Y-127893907D01*
X97478571Y-127893907D02*
X97442857Y-127751050D01*
X97442857Y-127751050D02*
X97442857Y-127572478D01*
X97442857Y-127572478D02*
X97478571Y-127429621D01*
X97478571Y-127429621D02*
X97514285Y-127358192D01*
X97514285Y-127358192D02*
X97550000Y-127322478D01*
X97550000Y-127322478D02*
X97621428Y-127286764D01*
X111537856Y-136285335D02*
X111502142Y-136321050D01*
X111502142Y-136321050D02*
X111394999Y-136356764D01*
X111394999Y-136356764D02*
X111323571Y-136356764D01*
X111323571Y-136356764D02*
X111216428Y-136321050D01*
X111216428Y-136321050D02*
X111144999Y-136249621D01*
X111144999Y-136249621D02*
X111109285Y-136178192D01*
X111109285Y-136178192D02*
X111073571Y-136035335D01*
X111073571Y-136035335D02*
X111073571Y-135928192D01*
X111073571Y-135928192D02*
X111109285Y-135785335D01*
X111109285Y-135785335D02*
X111144999Y-135713907D01*
X111144999Y-135713907D02*
X111216428Y-135642478D01*
X111216428Y-135642478D02*
X111323571Y-135606764D01*
X111323571Y-135606764D02*
X111394999Y-135606764D01*
X111394999Y-135606764D02*
X111502142Y-135642478D01*
X111502142Y-135642478D02*
X111537856Y-135678192D01*
X112180714Y-135856764D02*
X112180714Y-136356764D01*
X112002142Y-135571050D02*
X111823571Y-136106764D01*
X111823571Y-136106764D02*
X112287856Y-136106764D01*
X112502142Y-135606764D02*
X112966428Y-135606764D01*
X112966428Y-135606764D02*
X112716428Y-135892478D01*
X112716428Y-135892478D02*
X112823571Y-135892478D01*
X112823571Y-135892478D02*
X112895000Y-135928192D01*
X112895000Y-135928192D02*
X112930714Y-135963907D01*
X112930714Y-135963907D02*
X112966428Y-136035335D01*
X112966428Y-136035335D02*
X112966428Y-136213907D01*
X112966428Y-136213907D02*
X112930714Y-136285335D01*
X112930714Y-136285335D02*
X112895000Y-136321050D01*
X112895000Y-136321050D02*
X112823571Y-136356764D01*
X112823571Y-136356764D02*
X112609285Y-136356764D01*
X112609285Y-136356764D02*
X112537857Y-136321050D01*
X112537857Y-136321050D02*
X112502142Y-136285335D01*
D13*
X43921905Y-120244819D02*
X43921905Y-121054342D01*
X43921905Y-121054342D02*
X43969524Y-121149580D01*
X43969524Y-121149580D02*
X44017143Y-121197200D01*
X44017143Y-121197200D02*
X44112381Y-121244819D01*
X44112381Y-121244819D02*
X44302857Y-121244819D01*
X44302857Y-121244819D02*
X44398095Y-121197200D01*
X44398095Y-121197200D02*
X44445714Y-121149580D01*
X44445714Y-121149580D02*
X44493333Y-121054342D01*
X44493333Y-121054342D02*
X44493333Y-120244819D01*
X45493333Y-121244819D02*
X44921905Y-121244819D01*
X45207619Y-121244819D02*
X45207619Y-120244819D01*
X45207619Y-120244819D02*
X45112381Y-120387676D01*
X45112381Y-120387676D02*
X45017143Y-120482914D01*
X45017143Y-120482914D02*
X44921905Y-120530533D01*
X46445714Y-121244819D02*
X45874286Y-121244819D01*
X46160000Y-121244819D02*
X46160000Y-120244819D01*
X46160000Y-120244819D02*
X46064762Y-120387676D01*
X46064762Y-120387676D02*
X45969524Y-120482914D01*
X45969524Y-120482914D02*
X45874286Y-120530533D01*
D14*
X44416666Y-93329530D02*
X44392857Y-93353340D01*
X44392857Y-93353340D02*
X44321428Y-93377149D01*
X44321428Y-93377149D02*
X44273809Y-93377149D01*
X44273809Y-93377149D02*
X44202381Y-93353340D01*
X44202381Y-93353340D02*
X44154762Y-93305720D01*
X44154762Y-93305720D02*
X44130952Y-93258101D01*
X44130952Y-93258101D02*
X44107143Y-93162863D01*
X44107143Y-93162863D02*
X44107143Y-93091435D01*
X44107143Y-93091435D02*
X44130952Y-92996197D01*
X44130952Y-92996197D02*
X44154762Y-92948578D01*
X44154762Y-92948578D02*
X44202381Y-92900959D01*
X44202381Y-92900959D02*
X44273809Y-92877149D01*
X44273809Y-92877149D02*
X44321428Y-92877149D01*
X44321428Y-92877149D02*
X44392857Y-92900959D01*
X44392857Y-92900959D02*
X44416666Y-92924768D01*
X44845238Y-92877149D02*
X44750000Y-92877149D01*
X44750000Y-92877149D02*
X44702381Y-92900959D01*
X44702381Y-92900959D02*
X44678571Y-92924768D01*
X44678571Y-92924768D02*
X44630952Y-92996197D01*
X44630952Y-92996197D02*
X44607143Y-93091435D01*
X44607143Y-93091435D02*
X44607143Y-93281911D01*
X44607143Y-93281911D02*
X44630952Y-93329530D01*
X44630952Y-93329530D02*
X44654762Y-93353340D01*
X44654762Y-93353340D02*
X44702381Y-93377149D01*
X44702381Y-93377149D02*
X44797619Y-93377149D01*
X44797619Y-93377149D02*
X44845238Y-93353340D01*
X44845238Y-93353340D02*
X44869047Y-93329530D01*
X44869047Y-93329530D02*
X44892857Y-93281911D01*
X44892857Y-93281911D02*
X44892857Y-93162863D01*
X44892857Y-93162863D02*
X44869047Y-93115244D01*
X44869047Y-93115244D02*
X44845238Y-93091435D01*
X44845238Y-93091435D02*
X44797619Y-93067625D01*
X44797619Y-93067625D02*
X44702381Y-93067625D01*
X44702381Y-93067625D02*
X44654762Y-93091435D01*
X44654762Y-93091435D02*
X44630952Y-93115244D01*
X44630952Y-93115244D02*
X44607143Y-93162863D01*
D13*
X60838095Y-67304819D02*
X60838095Y-68114342D01*
X60838095Y-68114342D02*
X60885714Y-68209580D01*
X60885714Y-68209580D02*
X60933333Y-68257200D01*
X60933333Y-68257200D02*
X61028571Y-68304819D01*
X61028571Y-68304819D02*
X61219047Y-68304819D01*
X61219047Y-68304819D02*
X61314285Y-68257200D01*
X61314285Y-68257200D02*
X61361904Y-68209580D01*
X61361904Y-68209580D02*
X61409523Y-68114342D01*
X61409523Y-68114342D02*
X61409523Y-67304819D01*
X61790476Y-67304819D02*
X62457142Y-67304819D01*
X62457142Y-67304819D02*
X62028571Y-68304819D01*
D14*
X56906666Y-107057149D02*
X56740000Y-106819054D01*
X56620952Y-107057149D02*
X56620952Y-106557149D01*
X56620952Y-106557149D02*
X56811428Y-106557149D01*
X56811428Y-106557149D02*
X56859047Y-106580959D01*
X56859047Y-106580959D02*
X56882857Y-106604768D01*
X56882857Y-106604768D02*
X56906666Y-106652387D01*
X56906666Y-106652387D02*
X56906666Y-106723816D01*
X56906666Y-106723816D02*
X56882857Y-106771435D01*
X56882857Y-106771435D02*
X56859047Y-106795244D01*
X56859047Y-106795244D02*
X56811428Y-106819054D01*
X56811428Y-106819054D02*
X56620952Y-106819054D01*
X57073333Y-106557149D02*
X57406666Y-106557149D01*
X57406666Y-106557149D02*
X57192381Y-107057149D01*
D12*
X101637856Y-136385335D02*
X101602142Y-136421050D01*
X101602142Y-136421050D02*
X101494999Y-136456764D01*
X101494999Y-136456764D02*
X101423571Y-136456764D01*
X101423571Y-136456764D02*
X101316428Y-136421050D01*
X101316428Y-136421050D02*
X101244999Y-136349621D01*
X101244999Y-136349621D02*
X101209285Y-136278192D01*
X101209285Y-136278192D02*
X101173571Y-136135335D01*
X101173571Y-136135335D02*
X101173571Y-136028192D01*
X101173571Y-136028192D02*
X101209285Y-135885335D01*
X101209285Y-135885335D02*
X101244999Y-135813907D01*
X101244999Y-135813907D02*
X101316428Y-135742478D01*
X101316428Y-135742478D02*
X101423571Y-135706764D01*
X101423571Y-135706764D02*
X101494999Y-135706764D01*
X101494999Y-135706764D02*
X101602142Y-135742478D01*
X101602142Y-135742478D02*
X101637856Y-135778192D01*
X102280714Y-135956764D02*
X102280714Y-136456764D01*
X102102142Y-135671050D02*
X101923571Y-136206764D01*
X101923571Y-136206764D02*
X102387856Y-136206764D01*
X103066428Y-136456764D02*
X102637857Y-136456764D01*
X102852142Y-136456764D02*
X102852142Y-135706764D01*
X102852142Y-135706764D02*
X102780714Y-135813907D01*
X102780714Y-135813907D02*
X102709285Y-135885335D01*
X102709285Y-135885335D02*
X102637857Y-135921050D01*
X105891428Y-131206764D02*
X105891428Y-131813907D01*
X105891428Y-131813907D02*
X105927142Y-131885335D01*
X105927142Y-131885335D02*
X105962857Y-131921050D01*
X105962857Y-131921050D02*
X106034285Y-131956764D01*
X106034285Y-131956764D02*
X106177142Y-131956764D01*
X106177142Y-131956764D02*
X106248571Y-131921050D01*
X106248571Y-131921050D02*
X106284285Y-131885335D01*
X106284285Y-131885335D02*
X106319999Y-131813907D01*
X106319999Y-131813907D02*
X106319999Y-131206764D01*
X106998571Y-131456764D02*
X106998571Y-131956764D01*
X106819999Y-131171050D02*
X106641428Y-131706764D01*
X106641428Y-131706764D02*
X107105713Y-131706764D01*
X107319999Y-131206764D02*
X107784285Y-131206764D01*
X107784285Y-131206764D02*
X107534285Y-131492478D01*
X107534285Y-131492478D02*
X107641428Y-131492478D01*
X107641428Y-131492478D02*
X107712857Y-131528192D01*
X107712857Y-131528192D02*
X107748571Y-131563907D01*
X107748571Y-131563907D02*
X107784285Y-131635335D01*
X107784285Y-131635335D02*
X107784285Y-131813907D01*
X107784285Y-131813907D02*
X107748571Y-131885335D01*
X107748571Y-131885335D02*
X107712857Y-131921050D01*
X107712857Y-131921050D02*
X107641428Y-131956764D01*
X107641428Y-131956764D02*
X107427142Y-131956764D01*
X107427142Y-131956764D02*
X107355714Y-131921050D01*
X107355714Y-131921050D02*
X107319999Y-131885335D01*
X65991428Y-131206764D02*
X65991428Y-131813907D01*
X65991428Y-131813907D02*
X66027142Y-131885335D01*
X66027142Y-131885335D02*
X66062857Y-131921050D01*
X66062857Y-131921050D02*
X66134285Y-131956764D01*
X66134285Y-131956764D02*
X66277142Y-131956764D01*
X66277142Y-131956764D02*
X66348571Y-131921050D01*
X66348571Y-131921050D02*
X66384285Y-131885335D01*
X66384285Y-131885335D02*
X66419999Y-131813907D01*
X66419999Y-131813907D02*
X66419999Y-131206764D01*
X66705713Y-131206764D02*
X67169999Y-131206764D01*
X67169999Y-131206764D02*
X66919999Y-131492478D01*
X66919999Y-131492478D02*
X67027142Y-131492478D01*
X67027142Y-131492478D02*
X67098571Y-131528192D01*
X67098571Y-131528192D02*
X67134285Y-131563907D01*
X67134285Y-131563907D02*
X67169999Y-131635335D01*
X67169999Y-131635335D02*
X67169999Y-131813907D01*
X67169999Y-131813907D02*
X67134285Y-131885335D01*
X67134285Y-131885335D02*
X67098571Y-131921050D01*
X67098571Y-131921050D02*
X67027142Y-131956764D01*
X67027142Y-131956764D02*
X66812856Y-131956764D01*
X66812856Y-131956764D02*
X66741428Y-131921050D01*
X66741428Y-131921050D02*
X66705713Y-131885335D01*
X67848571Y-131206764D02*
X67491428Y-131206764D01*
X67491428Y-131206764D02*
X67455714Y-131563907D01*
X67455714Y-131563907D02*
X67491428Y-131528192D01*
X67491428Y-131528192D02*
X67562857Y-131492478D01*
X67562857Y-131492478D02*
X67741428Y-131492478D01*
X67741428Y-131492478D02*
X67812857Y-131528192D01*
X67812857Y-131528192D02*
X67848571Y-131563907D01*
X67848571Y-131563907D02*
X67884285Y-131635335D01*
X67884285Y-131635335D02*
X67884285Y-131813907D01*
X67884285Y-131813907D02*
X67848571Y-131885335D01*
X67848571Y-131885335D02*
X67812857Y-131921050D01*
X67812857Y-131921050D02*
X67741428Y-131956764D01*
X67741428Y-131956764D02*
X67562857Y-131956764D01*
X67562857Y-131956764D02*
X67491428Y-131921050D01*
X67491428Y-131921050D02*
X67455714Y-131885335D01*
X61537856Y-136285335D02*
X61502142Y-136321050D01*
X61502142Y-136321050D02*
X61394999Y-136356764D01*
X61394999Y-136356764D02*
X61323571Y-136356764D01*
X61323571Y-136356764D02*
X61216428Y-136321050D01*
X61216428Y-136321050D02*
X61144999Y-136249621D01*
X61144999Y-136249621D02*
X61109285Y-136178192D01*
X61109285Y-136178192D02*
X61073571Y-136035335D01*
X61073571Y-136035335D02*
X61073571Y-135928192D01*
X61073571Y-135928192D02*
X61109285Y-135785335D01*
X61109285Y-135785335D02*
X61144999Y-135713907D01*
X61144999Y-135713907D02*
X61216428Y-135642478D01*
X61216428Y-135642478D02*
X61323571Y-135606764D01*
X61323571Y-135606764D02*
X61394999Y-135606764D01*
X61394999Y-135606764D02*
X61502142Y-135642478D01*
X61502142Y-135642478D02*
X61537856Y-135678192D01*
X61787856Y-135606764D02*
X62252142Y-135606764D01*
X62252142Y-135606764D02*
X62002142Y-135892478D01*
X62002142Y-135892478D02*
X62109285Y-135892478D01*
X62109285Y-135892478D02*
X62180714Y-135928192D01*
X62180714Y-135928192D02*
X62216428Y-135963907D01*
X62216428Y-135963907D02*
X62252142Y-136035335D01*
X62252142Y-136035335D02*
X62252142Y-136213907D01*
X62252142Y-136213907D02*
X62216428Y-136285335D01*
X62216428Y-136285335D02*
X62180714Y-136321050D01*
X62180714Y-136321050D02*
X62109285Y-136356764D01*
X62109285Y-136356764D02*
X61894999Y-136356764D01*
X61894999Y-136356764D02*
X61823571Y-136321050D01*
X61823571Y-136321050D02*
X61787856Y-136285335D01*
X62502142Y-135606764D02*
X62966428Y-135606764D01*
X62966428Y-135606764D02*
X62716428Y-135892478D01*
X62716428Y-135892478D02*
X62823571Y-135892478D01*
X62823571Y-135892478D02*
X62895000Y-135928192D01*
X62895000Y-135928192D02*
X62930714Y-135963907D01*
X62930714Y-135963907D02*
X62966428Y-136035335D01*
X62966428Y-136035335D02*
X62966428Y-136213907D01*
X62966428Y-136213907D02*
X62930714Y-136285335D01*
X62930714Y-136285335D02*
X62895000Y-136321050D01*
X62895000Y-136321050D02*
X62823571Y-136356764D01*
X62823571Y-136356764D02*
X62609285Y-136356764D01*
X62609285Y-136356764D02*
X62537857Y-136321050D01*
X62537857Y-136321050D02*
X62502142Y-136285335D01*
X55896428Y-122886764D02*
X55896428Y-123493907D01*
X55896428Y-123493907D02*
X55932142Y-123565335D01*
X55932142Y-123565335D02*
X55967857Y-123601050D01*
X55967857Y-123601050D02*
X56039285Y-123636764D01*
X56039285Y-123636764D02*
X56182142Y-123636764D01*
X56182142Y-123636764D02*
X56253571Y-123601050D01*
X56253571Y-123601050D02*
X56289285Y-123565335D01*
X56289285Y-123565335D02*
X56324999Y-123493907D01*
X56324999Y-123493907D02*
X56324999Y-122886764D01*
X57074999Y-123636764D02*
X56646428Y-123636764D01*
X56860713Y-123636764D02*
X56860713Y-122886764D01*
X56860713Y-122886764D02*
X56789285Y-122993907D01*
X56789285Y-122993907D02*
X56717856Y-123065335D01*
X56717856Y-123065335D02*
X56646428Y-123101050D01*
X57324999Y-122886764D02*
X57789285Y-122886764D01*
X57789285Y-122886764D02*
X57539285Y-123172478D01*
X57539285Y-123172478D02*
X57646428Y-123172478D01*
X57646428Y-123172478D02*
X57717857Y-123208192D01*
X57717857Y-123208192D02*
X57753571Y-123243907D01*
X57753571Y-123243907D02*
X57789285Y-123315335D01*
X57789285Y-123315335D02*
X57789285Y-123493907D01*
X57789285Y-123493907D02*
X57753571Y-123565335D01*
X57753571Y-123565335D02*
X57717857Y-123601050D01*
X57717857Y-123601050D02*
X57646428Y-123636764D01*
X57646428Y-123636764D02*
X57432142Y-123636764D01*
X57432142Y-123636764D02*
X57360714Y-123601050D01*
X57360714Y-123601050D02*
X57324999Y-123565335D01*
X51637856Y-136385335D02*
X51602142Y-136421050D01*
X51602142Y-136421050D02*
X51494999Y-136456764D01*
X51494999Y-136456764D02*
X51423571Y-136456764D01*
X51423571Y-136456764D02*
X51316428Y-136421050D01*
X51316428Y-136421050D02*
X51244999Y-136349621D01*
X51244999Y-136349621D02*
X51209285Y-136278192D01*
X51209285Y-136278192D02*
X51173571Y-136135335D01*
X51173571Y-136135335D02*
X51173571Y-136028192D01*
X51173571Y-136028192D02*
X51209285Y-135885335D01*
X51209285Y-135885335D02*
X51244999Y-135813907D01*
X51244999Y-135813907D02*
X51316428Y-135742478D01*
X51316428Y-135742478D02*
X51423571Y-135706764D01*
X51423571Y-135706764D02*
X51494999Y-135706764D01*
X51494999Y-135706764D02*
X51602142Y-135742478D01*
X51602142Y-135742478D02*
X51637856Y-135778192D01*
X51887856Y-135706764D02*
X52352142Y-135706764D01*
X52352142Y-135706764D02*
X52102142Y-135992478D01*
X52102142Y-135992478D02*
X52209285Y-135992478D01*
X52209285Y-135992478D02*
X52280714Y-136028192D01*
X52280714Y-136028192D02*
X52316428Y-136063907D01*
X52316428Y-136063907D02*
X52352142Y-136135335D01*
X52352142Y-136135335D02*
X52352142Y-136313907D01*
X52352142Y-136313907D02*
X52316428Y-136385335D01*
X52316428Y-136385335D02*
X52280714Y-136421050D01*
X52280714Y-136421050D02*
X52209285Y-136456764D01*
X52209285Y-136456764D02*
X51994999Y-136456764D01*
X51994999Y-136456764D02*
X51923571Y-136421050D01*
X51923571Y-136421050D02*
X51887856Y-136385335D01*
X53066428Y-136456764D02*
X52637857Y-136456764D01*
X52852142Y-136456764D02*
X52852142Y-135706764D01*
X52852142Y-135706764D02*
X52780714Y-135813907D01*
X52780714Y-135813907D02*
X52709285Y-135885335D01*
X52709285Y-135885335D02*
X52637857Y-135921050D01*
X145891428Y-131206764D02*
X145891428Y-131813907D01*
X145891428Y-131813907D02*
X145927142Y-131885335D01*
X145927142Y-131885335D02*
X145962857Y-131921050D01*
X145962857Y-131921050D02*
X146034285Y-131956764D01*
X146034285Y-131956764D02*
X146177142Y-131956764D01*
X146177142Y-131956764D02*
X146248571Y-131921050D01*
X146248571Y-131921050D02*
X146284285Y-131885335D01*
X146284285Y-131885335D02*
X146319999Y-131813907D01*
X146319999Y-131813907D02*
X146319999Y-131206764D01*
X147034285Y-131206764D02*
X146677142Y-131206764D01*
X146677142Y-131206764D02*
X146641428Y-131563907D01*
X146641428Y-131563907D02*
X146677142Y-131528192D01*
X146677142Y-131528192D02*
X146748571Y-131492478D01*
X146748571Y-131492478D02*
X146927142Y-131492478D01*
X146927142Y-131492478D02*
X146998571Y-131528192D01*
X146998571Y-131528192D02*
X147034285Y-131563907D01*
X147034285Y-131563907D02*
X147069999Y-131635335D01*
X147069999Y-131635335D02*
X147069999Y-131813907D01*
X147069999Y-131813907D02*
X147034285Y-131885335D01*
X147034285Y-131885335D02*
X146998571Y-131921050D01*
X146998571Y-131921050D02*
X146927142Y-131956764D01*
X146927142Y-131956764D02*
X146748571Y-131956764D01*
X146748571Y-131956764D02*
X146677142Y-131921050D01*
X146677142Y-131921050D02*
X146641428Y-131885335D01*
X147784285Y-131956764D02*
X147355714Y-131956764D01*
X147569999Y-131956764D02*
X147569999Y-131206764D01*
X147569999Y-131206764D02*
X147498571Y-131313907D01*
X147498571Y-131313907D02*
X147427142Y-131385335D01*
X147427142Y-131385335D02*
X147355714Y-131421050D01*
X85896428Y-122886764D02*
X85896428Y-123493907D01*
X85896428Y-123493907D02*
X85932142Y-123565335D01*
X85932142Y-123565335D02*
X85967857Y-123601050D01*
X85967857Y-123601050D02*
X86039285Y-123636764D01*
X86039285Y-123636764D02*
X86182142Y-123636764D01*
X86182142Y-123636764D02*
X86253571Y-123601050D01*
X86253571Y-123601050D02*
X86289285Y-123565335D01*
X86289285Y-123565335D02*
X86324999Y-123493907D01*
X86324999Y-123493907D02*
X86324999Y-122886764D01*
X87074999Y-123636764D02*
X86646428Y-123636764D01*
X86860713Y-123636764D02*
X86860713Y-122886764D01*
X86860713Y-122886764D02*
X86789285Y-122993907D01*
X86789285Y-122993907D02*
X86717856Y-123065335D01*
X86717856Y-123065335D02*
X86646428Y-123101050D01*
X87432142Y-123636764D02*
X87574999Y-123636764D01*
X87574999Y-123636764D02*
X87646428Y-123601050D01*
X87646428Y-123601050D02*
X87682142Y-123565335D01*
X87682142Y-123565335D02*
X87753571Y-123458192D01*
X87753571Y-123458192D02*
X87789285Y-123315335D01*
X87789285Y-123315335D02*
X87789285Y-123029621D01*
X87789285Y-123029621D02*
X87753571Y-122958192D01*
X87753571Y-122958192D02*
X87717857Y-122922478D01*
X87717857Y-122922478D02*
X87646428Y-122886764D01*
X87646428Y-122886764D02*
X87503571Y-122886764D01*
X87503571Y-122886764D02*
X87432142Y-122922478D01*
X87432142Y-122922478D02*
X87396428Y-122958192D01*
X87396428Y-122958192D02*
X87360714Y-123029621D01*
X87360714Y-123029621D02*
X87360714Y-123208192D01*
X87360714Y-123208192D02*
X87396428Y-123279621D01*
X87396428Y-123279621D02*
X87432142Y-123315335D01*
X87432142Y-123315335D02*
X87503571Y-123351050D01*
X87503571Y-123351050D02*
X87646428Y-123351050D01*
X87646428Y-123351050D02*
X87717857Y-123315335D01*
X87717857Y-123315335D02*
X87753571Y-123279621D01*
X87753571Y-123279621D02*
X87789285Y-123208192D01*
D14*
X45066666Y-89277149D02*
X44900000Y-89039054D01*
X44780952Y-89277149D02*
X44780952Y-88777149D01*
X44780952Y-88777149D02*
X44971428Y-88777149D01*
X44971428Y-88777149D02*
X45019047Y-88800959D01*
X45019047Y-88800959D02*
X45042857Y-88824768D01*
X45042857Y-88824768D02*
X45066666Y-88872387D01*
X45066666Y-88872387D02*
X45066666Y-88943816D01*
X45066666Y-88943816D02*
X45042857Y-88991435D01*
X45042857Y-88991435D02*
X45019047Y-89015244D01*
X45019047Y-89015244D02*
X44971428Y-89039054D01*
X44971428Y-89039054D02*
X44780952Y-89039054D01*
X45233333Y-88777149D02*
X45542857Y-88777149D01*
X45542857Y-88777149D02*
X45376190Y-88967625D01*
X45376190Y-88967625D02*
X45447619Y-88967625D01*
X45447619Y-88967625D02*
X45495238Y-88991435D01*
X45495238Y-88991435D02*
X45519047Y-89015244D01*
X45519047Y-89015244D02*
X45542857Y-89062863D01*
X45542857Y-89062863D02*
X45542857Y-89181911D01*
X45542857Y-89181911D02*
X45519047Y-89229530D01*
X45519047Y-89229530D02*
X45495238Y-89253340D01*
X45495238Y-89253340D02*
X45447619Y-89277149D01*
X45447619Y-89277149D02*
X45304762Y-89277149D01*
X45304762Y-89277149D02*
X45257143Y-89253340D01*
X45257143Y-89253340D02*
X45233333Y-89229530D01*
D12*
X75941428Y-131206764D02*
X75941428Y-131813907D01*
X75941428Y-131813907D02*
X75977142Y-131885335D01*
X75977142Y-131885335D02*
X76012857Y-131921050D01*
X76012857Y-131921050D02*
X76084285Y-131956764D01*
X76084285Y-131956764D02*
X76227142Y-131956764D01*
X76227142Y-131956764D02*
X76298571Y-131921050D01*
X76298571Y-131921050D02*
X76334285Y-131885335D01*
X76334285Y-131885335D02*
X76369999Y-131813907D01*
X76369999Y-131813907D02*
X76369999Y-131206764D01*
X76655713Y-131206764D02*
X77119999Y-131206764D01*
X77119999Y-131206764D02*
X76869999Y-131492478D01*
X76869999Y-131492478D02*
X76977142Y-131492478D01*
X76977142Y-131492478D02*
X77048571Y-131528192D01*
X77048571Y-131528192D02*
X77084285Y-131563907D01*
X77084285Y-131563907D02*
X77119999Y-131635335D01*
X77119999Y-131635335D02*
X77119999Y-131813907D01*
X77119999Y-131813907D02*
X77084285Y-131885335D01*
X77084285Y-131885335D02*
X77048571Y-131921050D01*
X77048571Y-131921050D02*
X76977142Y-131956764D01*
X76977142Y-131956764D02*
X76762856Y-131956764D01*
X76762856Y-131956764D02*
X76691428Y-131921050D01*
X76691428Y-131921050D02*
X76655713Y-131885335D01*
X77369999Y-131206764D02*
X77869999Y-131206764D01*
X77869999Y-131206764D02*
X77548571Y-131956764D01*
X86542856Y-127965335D02*
X86507142Y-128001050D01*
X86507142Y-128001050D02*
X86399999Y-128036764D01*
X86399999Y-128036764D02*
X86328571Y-128036764D01*
X86328571Y-128036764D02*
X86221428Y-128001050D01*
X86221428Y-128001050D02*
X86149999Y-127929621D01*
X86149999Y-127929621D02*
X86114285Y-127858192D01*
X86114285Y-127858192D02*
X86078571Y-127715335D01*
X86078571Y-127715335D02*
X86078571Y-127608192D01*
X86078571Y-127608192D02*
X86114285Y-127465335D01*
X86114285Y-127465335D02*
X86149999Y-127393907D01*
X86149999Y-127393907D02*
X86221428Y-127322478D01*
X86221428Y-127322478D02*
X86328571Y-127286764D01*
X86328571Y-127286764D02*
X86399999Y-127286764D01*
X86399999Y-127286764D02*
X86507142Y-127322478D01*
X86507142Y-127322478D02*
X86542856Y-127358192D01*
X87257142Y-128036764D02*
X86828571Y-128036764D01*
X87042856Y-128036764D02*
X87042856Y-127286764D01*
X87042856Y-127286764D02*
X86971428Y-127393907D01*
X86971428Y-127393907D02*
X86899999Y-127465335D01*
X86899999Y-127465335D02*
X86828571Y-127501050D01*
X87685714Y-127608192D02*
X87614285Y-127572478D01*
X87614285Y-127572478D02*
X87578571Y-127536764D01*
X87578571Y-127536764D02*
X87542857Y-127465335D01*
X87542857Y-127465335D02*
X87542857Y-127429621D01*
X87542857Y-127429621D02*
X87578571Y-127358192D01*
X87578571Y-127358192D02*
X87614285Y-127322478D01*
X87614285Y-127322478D02*
X87685714Y-127286764D01*
X87685714Y-127286764D02*
X87828571Y-127286764D01*
X87828571Y-127286764D02*
X87900000Y-127322478D01*
X87900000Y-127322478D02*
X87935714Y-127358192D01*
X87935714Y-127358192D02*
X87971428Y-127429621D01*
X87971428Y-127429621D02*
X87971428Y-127465335D01*
X87971428Y-127465335D02*
X87935714Y-127536764D01*
X87935714Y-127536764D02*
X87900000Y-127572478D01*
X87900000Y-127572478D02*
X87828571Y-127608192D01*
X87828571Y-127608192D02*
X87685714Y-127608192D01*
X87685714Y-127608192D02*
X87614285Y-127643907D01*
X87614285Y-127643907D02*
X87578571Y-127679621D01*
X87578571Y-127679621D02*
X87542857Y-127751050D01*
X87542857Y-127751050D02*
X87542857Y-127893907D01*
X87542857Y-127893907D02*
X87578571Y-127965335D01*
X87578571Y-127965335D02*
X87614285Y-128001050D01*
X87614285Y-128001050D02*
X87685714Y-128036764D01*
X87685714Y-128036764D02*
X87828571Y-128036764D01*
X87828571Y-128036764D02*
X87900000Y-128001050D01*
X87900000Y-128001050D02*
X87935714Y-127965335D01*
X87935714Y-127965335D02*
X87971428Y-127893907D01*
X87971428Y-127893907D02*
X87971428Y-127751050D01*
X87971428Y-127751050D02*
X87935714Y-127679621D01*
X87935714Y-127679621D02*
X87900000Y-127643907D01*
X87900000Y-127643907D02*
X87828571Y-127608192D01*
D14*
X45991666Y-99554530D02*
X45967857Y-99578340D01*
X45967857Y-99578340D02*
X45896428Y-99602149D01*
X45896428Y-99602149D02*
X45848809Y-99602149D01*
X45848809Y-99602149D02*
X45777381Y-99578340D01*
X45777381Y-99578340D02*
X45729762Y-99530720D01*
X45729762Y-99530720D02*
X45705952Y-99483101D01*
X45705952Y-99483101D02*
X45682143Y-99387863D01*
X45682143Y-99387863D02*
X45682143Y-99316435D01*
X45682143Y-99316435D02*
X45705952Y-99221197D01*
X45705952Y-99221197D02*
X45729762Y-99173578D01*
X45729762Y-99173578D02*
X45777381Y-99125959D01*
X45777381Y-99125959D02*
X45848809Y-99102149D01*
X45848809Y-99102149D02*
X45896428Y-99102149D01*
X45896428Y-99102149D02*
X45967857Y-99125959D01*
X45967857Y-99125959D02*
X45991666Y-99149768D01*
X46182143Y-99149768D02*
X46205952Y-99125959D01*
X46205952Y-99125959D02*
X46253571Y-99102149D01*
X46253571Y-99102149D02*
X46372619Y-99102149D01*
X46372619Y-99102149D02*
X46420238Y-99125959D01*
X46420238Y-99125959D02*
X46444047Y-99149768D01*
X46444047Y-99149768D02*
X46467857Y-99197387D01*
X46467857Y-99197387D02*
X46467857Y-99245006D01*
X46467857Y-99245006D02*
X46444047Y-99316435D01*
X46444047Y-99316435D02*
X46158333Y-99602149D01*
X46158333Y-99602149D02*
X46467857Y-99602149D01*
D12*
X66537856Y-136285335D02*
X66502142Y-136321050D01*
X66502142Y-136321050D02*
X66394999Y-136356764D01*
X66394999Y-136356764D02*
X66323571Y-136356764D01*
X66323571Y-136356764D02*
X66216428Y-136321050D01*
X66216428Y-136321050D02*
X66144999Y-136249621D01*
X66144999Y-136249621D02*
X66109285Y-136178192D01*
X66109285Y-136178192D02*
X66073571Y-136035335D01*
X66073571Y-136035335D02*
X66073571Y-135928192D01*
X66073571Y-135928192D02*
X66109285Y-135785335D01*
X66109285Y-135785335D02*
X66144999Y-135713907D01*
X66144999Y-135713907D02*
X66216428Y-135642478D01*
X66216428Y-135642478D02*
X66323571Y-135606764D01*
X66323571Y-135606764D02*
X66394999Y-135606764D01*
X66394999Y-135606764D02*
X66502142Y-135642478D01*
X66502142Y-135642478D02*
X66537856Y-135678192D01*
X66787856Y-135606764D02*
X67252142Y-135606764D01*
X67252142Y-135606764D02*
X67002142Y-135892478D01*
X67002142Y-135892478D02*
X67109285Y-135892478D01*
X67109285Y-135892478D02*
X67180714Y-135928192D01*
X67180714Y-135928192D02*
X67216428Y-135963907D01*
X67216428Y-135963907D02*
X67252142Y-136035335D01*
X67252142Y-136035335D02*
X67252142Y-136213907D01*
X67252142Y-136213907D02*
X67216428Y-136285335D01*
X67216428Y-136285335D02*
X67180714Y-136321050D01*
X67180714Y-136321050D02*
X67109285Y-136356764D01*
X67109285Y-136356764D02*
X66894999Y-136356764D01*
X66894999Y-136356764D02*
X66823571Y-136321050D01*
X66823571Y-136321050D02*
X66787856Y-136285335D01*
X67895000Y-135856764D02*
X67895000Y-136356764D01*
X67716428Y-135571050D02*
X67537857Y-136106764D01*
X67537857Y-136106764D02*
X68002142Y-136106764D01*
X91637856Y-136285335D02*
X91602142Y-136321050D01*
X91602142Y-136321050D02*
X91494999Y-136356764D01*
X91494999Y-136356764D02*
X91423571Y-136356764D01*
X91423571Y-136356764D02*
X91316428Y-136321050D01*
X91316428Y-136321050D02*
X91244999Y-136249621D01*
X91244999Y-136249621D02*
X91209285Y-136178192D01*
X91209285Y-136178192D02*
X91173571Y-136035335D01*
X91173571Y-136035335D02*
X91173571Y-135928192D01*
X91173571Y-135928192D02*
X91209285Y-135785335D01*
X91209285Y-135785335D02*
X91244999Y-135713907D01*
X91244999Y-135713907D02*
X91316428Y-135642478D01*
X91316428Y-135642478D02*
X91423571Y-135606764D01*
X91423571Y-135606764D02*
X91494999Y-135606764D01*
X91494999Y-135606764D02*
X91602142Y-135642478D01*
X91602142Y-135642478D02*
X91637856Y-135678192D01*
X91887856Y-135606764D02*
X92352142Y-135606764D01*
X92352142Y-135606764D02*
X92102142Y-135892478D01*
X92102142Y-135892478D02*
X92209285Y-135892478D01*
X92209285Y-135892478D02*
X92280714Y-135928192D01*
X92280714Y-135928192D02*
X92316428Y-135963907D01*
X92316428Y-135963907D02*
X92352142Y-136035335D01*
X92352142Y-136035335D02*
X92352142Y-136213907D01*
X92352142Y-136213907D02*
X92316428Y-136285335D01*
X92316428Y-136285335D02*
X92280714Y-136321050D01*
X92280714Y-136321050D02*
X92209285Y-136356764D01*
X92209285Y-136356764D02*
X91994999Y-136356764D01*
X91994999Y-136356764D02*
X91923571Y-136321050D01*
X91923571Y-136321050D02*
X91887856Y-136285335D01*
X92709285Y-136356764D02*
X92852142Y-136356764D01*
X92852142Y-136356764D02*
X92923571Y-136321050D01*
X92923571Y-136321050D02*
X92959285Y-136285335D01*
X92959285Y-136285335D02*
X93030714Y-136178192D01*
X93030714Y-136178192D02*
X93066428Y-136035335D01*
X93066428Y-136035335D02*
X93066428Y-135749621D01*
X93066428Y-135749621D02*
X93030714Y-135678192D01*
X93030714Y-135678192D02*
X92995000Y-135642478D01*
X92995000Y-135642478D02*
X92923571Y-135606764D01*
X92923571Y-135606764D02*
X92780714Y-135606764D01*
X92780714Y-135606764D02*
X92709285Y-135642478D01*
X92709285Y-135642478D02*
X92673571Y-135678192D01*
X92673571Y-135678192D02*
X92637857Y-135749621D01*
X92637857Y-135749621D02*
X92637857Y-135928192D01*
X92637857Y-135928192D02*
X92673571Y-135999621D01*
X92673571Y-135999621D02*
X92709285Y-136035335D01*
X92709285Y-136035335D02*
X92780714Y-136071050D01*
X92780714Y-136071050D02*
X92923571Y-136071050D01*
X92923571Y-136071050D02*
X92995000Y-136035335D01*
X92995000Y-136035335D02*
X93030714Y-135999621D01*
X93030714Y-135999621D02*
X93066428Y-135928192D01*
X121537856Y-136285335D02*
X121502142Y-136321050D01*
X121502142Y-136321050D02*
X121394999Y-136356764D01*
X121394999Y-136356764D02*
X121323571Y-136356764D01*
X121323571Y-136356764D02*
X121216428Y-136321050D01*
X121216428Y-136321050D02*
X121144999Y-136249621D01*
X121144999Y-136249621D02*
X121109285Y-136178192D01*
X121109285Y-136178192D02*
X121073571Y-136035335D01*
X121073571Y-136035335D02*
X121073571Y-135928192D01*
X121073571Y-135928192D02*
X121109285Y-135785335D01*
X121109285Y-135785335D02*
X121144999Y-135713907D01*
X121144999Y-135713907D02*
X121216428Y-135642478D01*
X121216428Y-135642478D02*
X121323571Y-135606764D01*
X121323571Y-135606764D02*
X121394999Y-135606764D01*
X121394999Y-135606764D02*
X121502142Y-135642478D01*
X121502142Y-135642478D02*
X121537856Y-135678192D01*
X122180714Y-135856764D02*
X122180714Y-136356764D01*
X122002142Y-135571050D02*
X121823571Y-136106764D01*
X121823571Y-136106764D02*
X122287856Y-136106764D01*
X122930714Y-135606764D02*
X122573571Y-135606764D01*
X122573571Y-135606764D02*
X122537857Y-135963907D01*
X122537857Y-135963907D02*
X122573571Y-135928192D01*
X122573571Y-135928192D02*
X122645000Y-135892478D01*
X122645000Y-135892478D02*
X122823571Y-135892478D01*
X122823571Y-135892478D02*
X122895000Y-135928192D01*
X122895000Y-135928192D02*
X122930714Y-135963907D01*
X122930714Y-135963907D02*
X122966428Y-136035335D01*
X122966428Y-136035335D02*
X122966428Y-136213907D01*
X122966428Y-136213907D02*
X122930714Y-136285335D01*
X122930714Y-136285335D02*
X122895000Y-136321050D01*
X122895000Y-136321050D02*
X122823571Y-136356764D01*
X122823571Y-136356764D02*
X122645000Y-136356764D01*
X122645000Y-136356764D02*
X122573571Y-136321050D01*
X122573571Y-136321050D02*
X122537857Y-136285335D01*
X51637856Y-127985335D02*
X51602142Y-128021050D01*
X51602142Y-128021050D02*
X51494999Y-128056764D01*
X51494999Y-128056764D02*
X51423571Y-128056764D01*
X51423571Y-128056764D02*
X51316428Y-128021050D01*
X51316428Y-128021050D02*
X51244999Y-127949621D01*
X51244999Y-127949621D02*
X51209285Y-127878192D01*
X51209285Y-127878192D02*
X51173571Y-127735335D01*
X51173571Y-127735335D02*
X51173571Y-127628192D01*
X51173571Y-127628192D02*
X51209285Y-127485335D01*
X51209285Y-127485335D02*
X51244999Y-127413907D01*
X51244999Y-127413907D02*
X51316428Y-127342478D01*
X51316428Y-127342478D02*
X51423571Y-127306764D01*
X51423571Y-127306764D02*
X51494999Y-127306764D01*
X51494999Y-127306764D02*
X51602142Y-127342478D01*
X51602142Y-127342478D02*
X51637856Y-127378192D01*
X52352142Y-128056764D02*
X51923571Y-128056764D01*
X52137856Y-128056764D02*
X52137856Y-127306764D01*
X52137856Y-127306764D02*
X52066428Y-127413907D01*
X52066428Y-127413907D02*
X51994999Y-127485335D01*
X51994999Y-127485335D02*
X51923571Y-127521050D01*
X53066428Y-128056764D02*
X52637857Y-128056764D01*
X52852142Y-128056764D02*
X52852142Y-127306764D01*
X52852142Y-127306764D02*
X52780714Y-127413907D01*
X52780714Y-127413907D02*
X52709285Y-127485335D01*
X52709285Y-127485335D02*
X52637857Y-127521050D01*
X115991428Y-131206764D02*
X115991428Y-131813907D01*
X115991428Y-131813907D02*
X116027142Y-131885335D01*
X116027142Y-131885335D02*
X116062857Y-131921050D01*
X116062857Y-131921050D02*
X116134285Y-131956764D01*
X116134285Y-131956764D02*
X116277142Y-131956764D01*
X116277142Y-131956764D02*
X116348571Y-131921050D01*
X116348571Y-131921050D02*
X116384285Y-131885335D01*
X116384285Y-131885335D02*
X116419999Y-131813907D01*
X116419999Y-131813907D02*
X116419999Y-131206764D01*
X117098571Y-131456764D02*
X117098571Y-131956764D01*
X116919999Y-131171050D02*
X116741428Y-131706764D01*
X116741428Y-131706764D02*
X117205713Y-131706764D01*
X117848571Y-131206764D02*
X117491428Y-131206764D01*
X117491428Y-131206764D02*
X117455714Y-131563907D01*
X117455714Y-131563907D02*
X117491428Y-131528192D01*
X117491428Y-131528192D02*
X117562857Y-131492478D01*
X117562857Y-131492478D02*
X117741428Y-131492478D01*
X117741428Y-131492478D02*
X117812857Y-131528192D01*
X117812857Y-131528192D02*
X117848571Y-131563907D01*
X117848571Y-131563907D02*
X117884285Y-131635335D01*
X117884285Y-131635335D02*
X117884285Y-131813907D01*
X117884285Y-131813907D02*
X117848571Y-131885335D01*
X117848571Y-131885335D02*
X117812857Y-131921050D01*
X117812857Y-131921050D02*
X117741428Y-131956764D01*
X117741428Y-131956764D02*
X117562857Y-131956764D01*
X117562857Y-131956764D02*
X117491428Y-131921050D01*
X117491428Y-131921050D02*
X117455714Y-131885335D01*
X71537856Y-136285335D02*
X71502142Y-136321050D01*
X71502142Y-136321050D02*
X71394999Y-136356764D01*
X71394999Y-136356764D02*
X71323571Y-136356764D01*
X71323571Y-136356764D02*
X71216428Y-136321050D01*
X71216428Y-136321050D02*
X71144999Y-136249621D01*
X71144999Y-136249621D02*
X71109285Y-136178192D01*
X71109285Y-136178192D02*
X71073571Y-136035335D01*
X71073571Y-136035335D02*
X71073571Y-135928192D01*
X71073571Y-135928192D02*
X71109285Y-135785335D01*
X71109285Y-135785335D02*
X71144999Y-135713907D01*
X71144999Y-135713907D02*
X71216428Y-135642478D01*
X71216428Y-135642478D02*
X71323571Y-135606764D01*
X71323571Y-135606764D02*
X71394999Y-135606764D01*
X71394999Y-135606764D02*
X71502142Y-135642478D01*
X71502142Y-135642478D02*
X71537856Y-135678192D01*
X71787856Y-135606764D02*
X72252142Y-135606764D01*
X72252142Y-135606764D02*
X72002142Y-135892478D01*
X72002142Y-135892478D02*
X72109285Y-135892478D01*
X72109285Y-135892478D02*
X72180714Y-135928192D01*
X72180714Y-135928192D02*
X72216428Y-135963907D01*
X72216428Y-135963907D02*
X72252142Y-136035335D01*
X72252142Y-136035335D02*
X72252142Y-136213907D01*
X72252142Y-136213907D02*
X72216428Y-136285335D01*
X72216428Y-136285335D02*
X72180714Y-136321050D01*
X72180714Y-136321050D02*
X72109285Y-136356764D01*
X72109285Y-136356764D02*
X71894999Y-136356764D01*
X71894999Y-136356764D02*
X71823571Y-136321050D01*
X71823571Y-136321050D02*
X71787856Y-136285335D01*
X72930714Y-135606764D02*
X72573571Y-135606764D01*
X72573571Y-135606764D02*
X72537857Y-135963907D01*
X72537857Y-135963907D02*
X72573571Y-135928192D01*
X72573571Y-135928192D02*
X72645000Y-135892478D01*
X72645000Y-135892478D02*
X72823571Y-135892478D01*
X72823571Y-135892478D02*
X72895000Y-135928192D01*
X72895000Y-135928192D02*
X72930714Y-135963907D01*
X72930714Y-135963907D02*
X72966428Y-136035335D01*
X72966428Y-136035335D02*
X72966428Y-136213907D01*
X72966428Y-136213907D02*
X72930714Y-136285335D01*
X72930714Y-136285335D02*
X72895000Y-136321050D01*
X72895000Y-136321050D02*
X72823571Y-136356764D01*
X72823571Y-136356764D02*
X72645000Y-136356764D01*
X72645000Y-136356764D02*
X72573571Y-136321050D01*
X72573571Y-136321050D02*
X72537857Y-136285335D01*
D14*
X53218571Y-117569530D02*
X53194762Y-117593340D01*
X53194762Y-117593340D02*
X53123333Y-117617149D01*
X53123333Y-117617149D02*
X53075714Y-117617149D01*
X53075714Y-117617149D02*
X53004286Y-117593340D01*
X53004286Y-117593340D02*
X52956667Y-117545720D01*
X52956667Y-117545720D02*
X52932857Y-117498101D01*
X52932857Y-117498101D02*
X52909048Y-117402863D01*
X52909048Y-117402863D02*
X52909048Y-117331435D01*
X52909048Y-117331435D02*
X52932857Y-117236197D01*
X52932857Y-117236197D02*
X52956667Y-117188578D01*
X52956667Y-117188578D02*
X53004286Y-117140959D01*
X53004286Y-117140959D02*
X53075714Y-117117149D01*
X53075714Y-117117149D02*
X53123333Y-117117149D01*
X53123333Y-117117149D02*
X53194762Y-117140959D01*
X53194762Y-117140959D02*
X53218571Y-117164768D01*
X53694762Y-117617149D02*
X53409048Y-117617149D01*
X53551905Y-117617149D02*
X53551905Y-117117149D01*
X53551905Y-117117149D02*
X53504286Y-117188578D01*
X53504286Y-117188578D02*
X53456667Y-117236197D01*
X53456667Y-117236197D02*
X53409048Y-117260006D01*
X54004285Y-117117149D02*
X54051904Y-117117149D01*
X54051904Y-117117149D02*
X54099523Y-117140959D01*
X54099523Y-117140959D02*
X54123333Y-117164768D01*
X54123333Y-117164768D02*
X54147142Y-117212387D01*
X54147142Y-117212387D02*
X54170952Y-117307625D01*
X54170952Y-117307625D02*
X54170952Y-117426673D01*
X54170952Y-117426673D02*
X54147142Y-117521911D01*
X54147142Y-117521911D02*
X54123333Y-117569530D01*
X54123333Y-117569530D02*
X54099523Y-117593340D01*
X54099523Y-117593340D02*
X54051904Y-117617149D01*
X54051904Y-117617149D02*
X54004285Y-117617149D01*
X54004285Y-117617149D02*
X53956666Y-117593340D01*
X53956666Y-117593340D02*
X53932857Y-117569530D01*
X53932857Y-117569530D02*
X53909047Y-117521911D01*
X53909047Y-117521911D02*
X53885238Y-117426673D01*
X53885238Y-117426673D02*
X53885238Y-117307625D01*
X53885238Y-117307625D02*
X53909047Y-117212387D01*
X53909047Y-117212387D02*
X53932857Y-117164768D01*
X53932857Y-117164768D02*
X53956666Y-117140959D01*
X53956666Y-117140959D02*
X54004285Y-117117149D01*
D13*
X58324819Y-91386904D02*
X59134342Y-91386904D01*
X59134342Y-91386904D02*
X59229580Y-91339285D01*
X59229580Y-91339285D02*
X59277200Y-91291666D01*
X59277200Y-91291666D02*
X59324819Y-91196428D01*
X59324819Y-91196428D02*
X59324819Y-91005952D01*
X59324819Y-91005952D02*
X59277200Y-90910714D01*
X59277200Y-90910714D02*
X59229580Y-90863095D01*
X59229580Y-90863095D02*
X59134342Y-90815476D01*
X59134342Y-90815476D02*
X58324819Y-90815476D01*
X58324819Y-90434523D02*
X58324819Y-89815476D01*
X58324819Y-89815476D02*
X58705771Y-90148809D01*
X58705771Y-90148809D02*
X58705771Y-90005952D01*
X58705771Y-90005952D02*
X58753390Y-89910714D01*
X58753390Y-89910714D02*
X58801009Y-89863095D01*
X58801009Y-89863095D02*
X58896247Y-89815476D01*
X58896247Y-89815476D02*
X59134342Y-89815476D01*
X59134342Y-89815476D02*
X59229580Y-89863095D01*
X59229580Y-89863095D02*
X59277200Y-89910714D01*
X59277200Y-89910714D02*
X59324819Y-90005952D01*
X59324819Y-90005952D02*
X59324819Y-90291666D01*
X59324819Y-90291666D02*
X59277200Y-90386904D01*
X59277200Y-90386904D02*
X59229580Y-90434523D01*
D12*
X121537856Y-127960335D02*
X121502142Y-127996050D01*
X121502142Y-127996050D02*
X121394999Y-128031764D01*
X121394999Y-128031764D02*
X121323571Y-128031764D01*
X121323571Y-128031764D02*
X121216428Y-127996050D01*
X121216428Y-127996050D02*
X121144999Y-127924621D01*
X121144999Y-127924621D02*
X121109285Y-127853192D01*
X121109285Y-127853192D02*
X121073571Y-127710335D01*
X121073571Y-127710335D02*
X121073571Y-127603192D01*
X121073571Y-127603192D02*
X121109285Y-127460335D01*
X121109285Y-127460335D02*
X121144999Y-127388907D01*
X121144999Y-127388907D02*
X121216428Y-127317478D01*
X121216428Y-127317478D02*
X121323571Y-127281764D01*
X121323571Y-127281764D02*
X121394999Y-127281764D01*
X121394999Y-127281764D02*
X121502142Y-127317478D01*
X121502142Y-127317478D02*
X121537856Y-127353192D01*
X121823571Y-127353192D02*
X121859285Y-127317478D01*
X121859285Y-127317478D02*
X121930714Y-127281764D01*
X121930714Y-127281764D02*
X122109285Y-127281764D01*
X122109285Y-127281764D02*
X122180714Y-127317478D01*
X122180714Y-127317478D02*
X122216428Y-127353192D01*
X122216428Y-127353192D02*
X122252142Y-127424621D01*
X122252142Y-127424621D02*
X122252142Y-127496050D01*
X122252142Y-127496050D02*
X122216428Y-127603192D01*
X122216428Y-127603192D02*
X121787856Y-128031764D01*
X121787856Y-128031764D02*
X122252142Y-128031764D01*
X122930714Y-127281764D02*
X122573571Y-127281764D01*
X122573571Y-127281764D02*
X122537857Y-127638907D01*
X122537857Y-127638907D02*
X122573571Y-127603192D01*
X122573571Y-127603192D02*
X122645000Y-127567478D01*
X122645000Y-127567478D02*
X122823571Y-127567478D01*
X122823571Y-127567478D02*
X122895000Y-127603192D01*
X122895000Y-127603192D02*
X122930714Y-127638907D01*
X122930714Y-127638907D02*
X122966428Y-127710335D01*
X122966428Y-127710335D02*
X122966428Y-127888907D01*
X122966428Y-127888907D02*
X122930714Y-127960335D01*
X122930714Y-127960335D02*
X122895000Y-127996050D01*
X122895000Y-127996050D02*
X122823571Y-128031764D01*
X122823571Y-128031764D02*
X122645000Y-128031764D01*
X122645000Y-128031764D02*
X122573571Y-127996050D01*
X122573571Y-127996050D02*
X122537857Y-127960335D01*
D13*
X43138095Y-67304819D02*
X43138095Y-68114342D01*
X43138095Y-68114342D02*
X43185714Y-68209580D01*
X43185714Y-68209580D02*
X43233333Y-68257200D01*
X43233333Y-68257200D02*
X43328571Y-68304819D01*
X43328571Y-68304819D02*
X43519047Y-68304819D01*
X43519047Y-68304819D02*
X43614285Y-68257200D01*
X43614285Y-68257200D02*
X43661904Y-68209580D01*
X43661904Y-68209580D02*
X43709523Y-68114342D01*
X43709523Y-68114342D02*
X43709523Y-67304819D01*
X44661904Y-67304819D02*
X44185714Y-67304819D01*
X44185714Y-67304819D02*
X44138095Y-67781009D01*
X44138095Y-67781009D02*
X44185714Y-67733390D01*
X44185714Y-67733390D02*
X44280952Y-67685771D01*
X44280952Y-67685771D02*
X44519047Y-67685771D01*
X44519047Y-67685771D02*
X44614285Y-67733390D01*
X44614285Y-67733390D02*
X44661904Y-67781009D01*
X44661904Y-67781009D02*
X44709523Y-67876247D01*
X44709523Y-67876247D02*
X44709523Y-68114342D01*
X44709523Y-68114342D02*
X44661904Y-68209580D01*
X44661904Y-68209580D02*
X44614285Y-68257200D01*
X44614285Y-68257200D02*
X44519047Y-68304819D01*
X44519047Y-68304819D02*
X44280952Y-68304819D01*
X44280952Y-68304819D02*
X44185714Y-68257200D01*
X44185714Y-68257200D02*
X44138095Y-68209580D01*
X50363095Y-118154819D02*
X50363095Y-118964342D01*
X50363095Y-118964342D02*
X50410714Y-119059580D01*
X50410714Y-119059580D02*
X50458333Y-119107200D01*
X50458333Y-119107200D02*
X50553571Y-119154819D01*
X50553571Y-119154819D02*
X50744047Y-119154819D01*
X50744047Y-119154819D02*
X50839285Y-119107200D01*
X50839285Y-119107200D02*
X50886904Y-119059580D01*
X50886904Y-119059580D02*
X50934523Y-118964342D01*
X50934523Y-118964342D02*
X50934523Y-118154819D01*
X51363095Y-118250057D02*
X51410714Y-118202438D01*
X51410714Y-118202438D02*
X51505952Y-118154819D01*
X51505952Y-118154819D02*
X51744047Y-118154819D01*
X51744047Y-118154819D02*
X51839285Y-118202438D01*
X51839285Y-118202438D02*
X51886904Y-118250057D01*
X51886904Y-118250057D02*
X51934523Y-118345295D01*
X51934523Y-118345295D02*
X51934523Y-118440533D01*
X51934523Y-118440533D02*
X51886904Y-118583390D01*
X51886904Y-118583390D02*
X51315476Y-119154819D01*
X51315476Y-119154819D02*
X51934523Y-119154819D01*
D12*
X146437856Y-127960335D02*
X146402142Y-127996050D01*
X146402142Y-127996050D02*
X146294999Y-128031764D01*
X146294999Y-128031764D02*
X146223571Y-128031764D01*
X146223571Y-128031764D02*
X146116428Y-127996050D01*
X146116428Y-127996050D02*
X146044999Y-127924621D01*
X146044999Y-127924621D02*
X146009285Y-127853192D01*
X146009285Y-127853192D02*
X145973571Y-127710335D01*
X145973571Y-127710335D02*
X145973571Y-127603192D01*
X145973571Y-127603192D02*
X146009285Y-127460335D01*
X146009285Y-127460335D02*
X146044999Y-127388907D01*
X146044999Y-127388907D02*
X146116428Y-127317478D01*
X146116428Y-127317478D02*
X146223571Y-127281764D01*
X146223571Y-127281764D02*
X146294999Y-127281764D01*
X146294999Y-127281764D02*
X146402142Y-127317478D01*
X146402142Y-127317478D02*
X146437856Y-127353192D01*
X146687856Y-127281764D02*
X147152142Y-127281764D01*
X147152142Y-127281764D02*
X146902142Y-127567478D01*
X146902142Y-127567478D02*
X147009285Y-127567478D01*
X147009285Y-127567478D02*
X147080714Y-127603192D01*
X147080714Y-127603192D02*
X147116428Y-127638907D01*
X147116428Y-127638907D02*
X147152142Y-127710335D01*
X147152142Y-127710335D02*
X147152142Y-127888907D01*
X147152142Y-127888907D02*
X147116428Y-127960335D01*
X147116428Y-127960335D02*
X147080714Y-127996050D01*
X147080714Y-127996050D02*
X147009285Y-128031764D01*
X147009285Y-128031764D02*
X146794999Y-128031764D01*
X146794999Y-128031764D02*
X146723571Y-127996050D01*
X146723571Y-127996050D02*
X146687856Y-127960335D01*
X147616428Y-127281764D02*
X147687857Y-127281764D01*
X147687857Y-127281764D02*
X147759285Y-127317478D01*
X147759285Y-127317478D02*
X147795000Y-127353192D01*
X147795000Y-127353192D02*
X147830714Y-127424621D01*
X147830714Y-127424621D02*
X147866428Y-127567478D01*
X147866428Y-127567478D02*
X147866428Y-127746050D01*
X147866428Y-127746050D02*
X147830714Y-127888907D01*
X147830714Y-127888907D02*
X147795000Y-127960335D01*
X147795000Y-127960335D02*
X147759285Y-127996050D01*
X147759285Y-127996050D02*
X147687857Y-128031764D01*
X147687857Y-128031764D02*
X147616428Y-128031764D01*
X147616428Y-128031764D02*
X147545000Y-127996050D01*
X147545000Y-127996050D02*
X147509285Y-127960335D01*
X147509285Y-127960335D02*
X147473571Y-127888907D01*
X147473571Y-127888907D02*
X147437857Y-127746050D01*
X147437857Y-127746050D02*
X147437857Y-127567478D01*
X147437857Y-127567478D02*
X147473571Y-127424621D01*
X147473571Y-127424621D02*
X147509285Y-127353192D01*
X147509285Y-127353192D02*
X147545000Y-127317478D01*
X147545000Y-127317478D02*
X147616428Y-127281764D01*
X110891428Y-131206764D02*
X110891428Y-131813907D01*
X110891428Y-131813907D02*
X110927142Y-131885335D01*
X110927142Y-131885335D02*
X110962857Y-131921050D01*
X110962857Y-131921050D02*
X111034285Y-131956764D01*
X111034285Y-131956764D02*
X111177142Y-131956764D01*
X111177142Y-131956764D02*
X111248571Y-131921050D01*
X111248571Y-131921050D02*
X111284285Y-131885335D01*
X111284285Y-131885335D02*
X111319999Y-131813907D01*
X111319999Y-131813907D02*
X111319999Y-131206764D01*
X111998571Y-131456764D02*
X111998571Y-131956764D01*
X111819999Y-131171050D02*
X111641428Y-131706764D01*
X111641428Y-131706764D02*
X112105713Y-131706764D01*
X112712857Y-131456764D02*
X112712857Y-131956764D01*
X112534285Y-131171050D02*
X112355714Y-131706764D01*
X112355714Y-131706764D02*
X112819999Y-131706764D01*
D13*
X58989580Y-91756666D02*
X59037200Y-91804285D01*
X59037200Y-91804285D02*
X59084819Y-91947142D01*
X59084819Y-91947142D02*
X59084819Y-92042380D01*
X59084819Y-92042380D02*
X59037200Y-92185237D01*
X59037200Y-92185237D02*
X58941961Y-92280475D01*
X58941961Y-92280475D02*
X58846723Y-92328094D01*
X58846723Y-92328094D02*
X58656247Y-92375713D01*
X58656247Y-92375713D02*
X58513390Y-92375713D01*
X58513390Y-92375713D02*
X58322914Y-92328094D01*
X58322914Y-92328094D02*
X58227676Y-92280475D01*
X58227676Y-92280475D02*
X58132438Y-92185237D01*
X58132438Y-92185237D02*
X58084819Y-92042380D01*
X58084819Y-92042380D02*
X58084819Y-91947142D01*
X58084819Y-91947142D02*
X58132438Y-91804285D01*
X58132438Y-91804285D02*
X58180057Y-91756666D01*
X59084819Y-90804285D02*
X59084819Y-91375713D01*
X59084819Y-91089999D02*
X58084819Y-91089999D01*
X58084819Y-91089999D02*
X58227676Y-91185237D01*
X58227676Y-91185237D02*
X58322914Y-91280475D01*
X58322914Y-91280475D02*
X58370533Y-91375713D01*
D12*
X95896428Y-122886764D02*
X95896428Y-123493907D01*
X95896428Y-123493907D02*
X95932142Y-123565335D01*
X95932142Y-123565335D02*
X95967857Y-123601050D01*
X95967857Y-123601050D02*
X96039285Y-123636764D01*
X96039285Y-123636764D02*
X96182142Y-123636764D01*
X96182142Y-123636764D02*
X96253571Y-123601050D01*
X96253571Y-123601050D02*
X96289285Y-123565335D01*
X96289285Y-123565335D02*
X96324999Y-123493907D01*
X96324999Y-123493907D02*
X96324999Y-122886764D01*
X96646428Y-122958192D02*
X96682142Y-122922478D01*
X96682142Y-122922478D02*
X96753571Y-122886764D01*
X96753571Y-122886764D02*
X96932142Y-122886764D01*
X96932142Y-122886764D02*
X97003571Y-122922478D01*
X97003571Y-122922478D02*
X97039285Y-122958192D01*
X97039285Y-122958192D02*
X97074999Y-123029621D01*
X97074999Y-123029621D02*
X97074999Y-123101050D01*
X97074999Y-123101050D02*
X97039285Y-123208192D01*
X97039285Y-123208192D02*
X96610713Y-123636764D01*
X96610713Y-123636764D02*
X97074999Y-123636764D01*
X97789285Y-123636764D02*
X97360714Y-123636764D01*
X97574999Y-123636764D02*
X97574999Y-122886764D01*
X97574999Y-122886764D02*
X97503571Y-122993907D01*
X97503571Y-122993907D02*
X97432142Y-123065335D01*
X97432142Y-123065335D02*
X97360714Y-123101050D01*
D14*
X44616666Y-97479530D02*
X44592857Y-97503340D01*
X44592857Y-97503340D02*
X44521428Y-97527149D01*
X44521428Y-97527149D02*
X44473809Y-97527149D01*
X44473809Y-97527149D02*
X44402381Y-97503340D01*
X44402381Y-97503340D02*
X44354762Y-97455720D01*
X44354762Y-97455720D02*
X44330952Y-97408101D01*
X44330952Y-97408101D02*
X44307143Y-97312863D01*
X44307143Y-97312863D02*
X44307143Y-97241435D01*
X44307143Y-97241435D02*
X44330952Y-97146197D01*
X44330952Y-97146197D02*
X44354762Y-97098578D01*
X44354762Y-97098578D02*
X44402381Y-97050959D01*
X44402381Y-97050959D02*
X44473809Y-97027149D01*
X44473809Y-97027149D02*
X44521428Y-97027149D01*
X44521428Y-97027149D02*
X44592857Y-97050959D01*
X44592857Y-97050959D02*
X44616666Y-97074768D01*
X44783333Y-97027149D02*
X45092857Y-97027149D01*
X45092857Y-97027149D02*
X44926190Y-97217625D01*
X44926190Y-97217625D02*
X44997619Y-97217625D01*
X44997619Y-97217625D02*
X45045238Y-97241435D01*
X45045238Y-97241435D02*
X45069047Y-97265244D01*
X45069047Y-97265244D02*
X45092857Y-97312863D01*
X45092857Y-97312863D02*
X45092857Y-97431911D01*
X45092857Y-97431911D02*
X45069047Y-97479530D01*
X45069047Y-97479530D02*
X45045238Y-97503340D01*
X45045238Y-97503340D02*
X44997619Y-97527149D01*
X44997619Y-97527149D02*
X44854762Y-97527149D01*
X44854762Y-97527149D02*
X44807143Y-97503340D01*
X44807143Y-97503340D02*
X44783333Y-97479530D01*
D12*
X125941428Y-122881764D02*
X125941428Y-123488907D01*
X125941428Y-123488907D02*
X125977142Y-123560335D01*
X125977142Y-123560335D02*
X126012857Y-123596050D01*
X126012857Y-123596050D02*
X126084285Y-123631764D01*
X126084285Y-123631764D02*
X126227142Y-123631764D01*
X126227142Y-123631764D02*
X126298571Y-123596050D01*
X126298571Y-123596050D02*
X126334285Y-123560335D01*
X126334285Y-123560335D02*
X126369999Y-123488907D01*
X126369999Y-123488907D02*
X126369999Y-122881764D01*
X126691428Y-122953192D02*
X126727142Y-122917478D01*
X126727142Y-122917478D02*
X126798571Y-122881764D01*
X126798571Y-122881764D02*
X126977142Y-122881764D01*
X126977142Y-122881764D02*
X127048571Y-122917478D01*
X127048571Y-122917478D02*
X127084285Y-122953192D01*
X127084285Y-122953192D02*
X127119999Y-123024621D01*
X127119999Y-123024621D02*
X127119999Y-123096050D01*
X127119999Y-123096050D02*
X127084285Y-123203192D01*
X127084285Y-123203192D02*
X126655713Y-123631764D01*
X126655713Y-123631764D02*
X127119999Y-123631764D01*
X127369999Y-122881764D02*
X127869999Y-122881764D01*
X127869999Y-122881764D02*
X127548571Y-123631764D01*
X146437856Y-136285335D02*
X146402142Y-136321050D01*
X146402142Y-136321050D02*
X146294999Y-136356764D01*
X146294999Y-136356764D02*
X146223571Y-136356764D01*
X146223571Y-136356764D02*
X146116428Y-136321050D01*
X146116428Y-136321050D02*
X146044999Y-136249621D01*
X146044999Y-136249621D02*
X146009285Y-136178192D01*
X146009285Y-136178192D02*
X145973571Y-136035335D01*
X145973571Y-136035335D02*
X145973571Y-135928192D01*
X145973571Y-135928192D02*
X146009285Y-135785335D01*
X146009285Y-135785335D02*
X146044999Y-135713907D01*
X146044999Y-135713907D02*
X146116428Y-135642478D01*
X146116428Y-135642478D02*
X146223571Y-135606764D01*
X146223571Y-135606764D02*
X146294999Y-135606764D01*
X146294999Y-135606764D02*
X146402142Y-135642478D01*
X146402142Y-135642478D02*
X146437856Y-135678192D01*
X147116428Y-135606764D02*
X146759285Y-135606764D01*
X146759285Y-135606764D02*
X146723571Y-135963907D01*
X146723571Y-135963907D02*
X146759285Y-135928192D01*
X146759285Y-135928192D02*
X146830714Y-135892478D01*
X146830714Y-135892478D02*
X147009285Y-135892478D01*
X147009285Y-135892478D02*
X147080714Y-135928192D01*
X147080714Y-135928192D02*
X147116428Y-135963907D01*
X147116428Y-135963907D02*
X147152142Y-136035335D01*
X147152142Y-136035335D02*
X147152142Y-136213907D01*
X147152142Y-136213907D02*
X147116428Y-136285335D01*
X147116428Y-136285335D02*
X147080714Y-136321050D01*
X147080714Y-136321050D02*
X147009285Y-136356764D01*
X147009285Y-136356764D02*
X146830714Y-136356764D01*
X146830714Y-136356764D02*
X146759285Y-136321050D01*
X146759285Y-136321050D02*
X146723571Y-136285335D01*
X147616428Y-135606764D02*
X147687857Y-135606764D01*
X147687857Y-135606764D02*
X147759285Y-135642478D01*
X147759285Y-135642478D02*
X147795000Y-135678192D01*
X147795000Y-135678192D02*
X147830714Y-135749621D01*
X147830714Y-135749621D02*
X147866428Y-135892478D01*
X147866428Y-135892478D02*
X147866428Y-136071050D01*
X147866428Y-136071050D02*
X147830714Y-136213907D01*
X147830714Y-136213907D02*
X147795000Y-136285335D01*
X147795000Y-136285335D02*
X147759285Y-136321050D01*
X147759285Y-136321050D02*
X147687857Y-136356764D01*
X147687857Y-136356764D02*
X147616428Y-136356764D01*
X147616428Y-136356764D02*
X147545000Y-136321050D01*
X147545000Y-136321050D02*
X147509285Y-136285335D01*
X147509285Y-136285335D02*
X147473571Y-136213907D01*
X147473571Y-136213907D02*
X147437857Y-136071050D01*
X147437857Y-136071050D02*
X147437857Y-135892478D01*
X147437857Y-135892478D02*
X147473571Y-135749621D01*
X147473571Y-135749621D02*
X147509285Y-135678192D01*
X147509285Y-135678192D02*
X147545000Y-135642478D01*
X147545000Y-135642478D02*
X147616428Y-135606764D01*
X56537856Y-136385335D02*
X56502142Y-136421050D01*
X56502142Y-136421050D02*
X56394999Y-136456764D01*
X56394999Y-136456764D02*
X56323571Y-136456764D01*
X56323571Y-136456764D02*
X56216428Y-136421050D01*
X56216428Y-136421050D02*
X56144999Y-136349621D01*
X56144999Y-136349621D02*
X56109285Y-136278192D01*
X56109285Y-136278192D02*
X56073571Y-136135335D01*
X56073571Y-136135335D02*
X56073571Y-136028192D01*
X56073571Y-136028192D02*
X56109285Y-135885335D01*
X56109285Y-135885335D02*
X56144999Y-135813907D01*
X56144999Y-135813907D02*
X56216428Y-135742478D01*
X56216428Y-135742478D02*
X56323571Y-135706764D01*
X56323571Y-135706764D02*
X56394999Y-135706764D01*
X56394999Y-135706764D02*
X56502142Y-135742478D01*
X56502142Y-135742478D02*
X56537856Y-135778192D01*
X56787856Y-135706764D02*
X57252142Y-135706764D01*
X57252142Y-135706764D02*
X57002142Y-135992478D01*
X57002142Y-135992478D02*
X57109285Y-135992478D01*
X57109285Y-135992478D02*
X57180714Y-136028192D01*
X57180714Y-136028192D02*
X57216428Y-136063907D01*
X57216428Y-136063907D02*
X57252142Y-136135335D01*
X57252142Y-136135335D02*
X57252142Y-136313907D01*
X57252142Y-136313907D02*
X57216428Y-136385335D01*
X57216428Y-136385335D02*
X57180714Y-136421050D01*
X57180714Y-136421050D02*
X57109285Y-136456764D01*
X57109285Y-136456764D02*
X56894999Y-136456764D01*
X56894999Y-136456764D02*
X56823571Y-136421050D01*
X56823571Y-136421050D02*
X56787856Y-136385335D01*
X57537857Y-135778192D02*
X57573571Y-135742478D01*
X57573571Y-135742478D02*
X57645000Y-135706764D01*
X57645000Y-135706764D02*
X57823571Y-135706764D01*
X57823571Y-135706764D02*
X57895000Y-135742478D01*
X57895000Y-135742478D02*
X57930714Y-135778192D01*
X57930714Y-135778192D02*
X57966428Y-135849621D01*
X57966428Y-135849621D02*
X57966428Y-135921050D01*
X57966428Y-135921050D02*
X57930714Y-136028192D01*
X57930714Y-136028192D02*
X57502142Y-136456764D01*
X57502142Y-136456764D02*
X57966428Y-136456764D01*
X65996428Y-122886764D02*
X65996428Y-123493907D01*
X65996428Y-123493907D02*
X66032142Y-123565335D01*
X66032142Y-123565335D02*
X66067857Y-123601050D01*
X66067857Y-123601050D02*
X66139285Y-123636764D01*
X66139285Y-123636764D02*
X66282142Y-123636764D01*
X66282142Y-123636764D02*
X66353571Y-123601050D01*
X66353571Y-123601050D02*
X66389285Y-123565335D01*
X66389285Y-123565335D02*
X66424999Y-123493907D01*
X66424999Y-123493907D02*
X66424999Y-122886764D01*
X67174999Y-123636764D02*
X66746428Y-123636764D01*
X66960713Y-123636764D02*
X66960713Y-122886764D01*
X66960713Y-122886764D02*
X66889285Y-122993907D01*
X66889285Y-122993907D02*
X66817856Y-123065335D01*
X66817856Y-123065335D02*
X66746428Y-123101050D01*
X67853571Y-122886764D02*
X67496428Y-122886764D01*
X67496428Y-122886764D02*
X67460714Y-123243907D01*
X67460714Y-123243907D02*
X67496428Y-123208192D01*
X67496428Y-123208192D02*
X67567857Y-123172478D01*
X67567857Y-123172478D02*
X67746428Y-123172478D01*
X67746428Y-123172478D02*
X67817857Y-123208192D01*
X67817857Y-123208192D02*
X67853571Y-123243907D01*
X67853571Y-123243907D02*
X67889285Y-123315335D01*
X67889285Y-123315335D02*
X67889285Y-123493907D01*
X67889285Y-123493907D02*
X67853571Y-123565335D01*
X67853571Y-123565335D02*
X67817857Y-123601050D01*
X67817857Y-123601050D02*
X67746428Y-123636764D01*
X67746428Y-123636764D02*
X67567857Y-123636764D01*
X67567857Y-123636764D02*
X67496428Y-123601050D01*
X67496428Y-123601050D02*
X67460714Y-123565335D01*
D13*
X51661905Y-111279819D02*
X51661905Y-112089342D01*
X51661905Y-112089342D02*
X51709524Y-112184580D01*
X51709524Y-112184580D02*
X51757143Y-112232200D01*
X51757143Y-112232200D02*
X51852381Y-112279819D01*
X51852381Y-112279819D02*
X52042857Y-112279819D01*
X52042857Y-112279819D02*
X52138095Y-112232200D01*
X52138095Y-112232200D02*
X52185714Y-112184580D01*
X52185714Y-112184580D02*
X52233333Y-112089342D01*
X52233333Y-112089342D02*
X52233333Y-111279819D01*
X53233333Y-112279819D02*
X52661905Y-112279819D01*
X52947619Y-112279819D02*
X52947619Y-111279819D01*
X52947619Y-111279819D02*
X52852381Y-111422676D01*
X52852381Y-111422676D02*
X52757143Y-111517914D01*
X52757143Y-111517914D02*
X52661905Y-111565533D01*
X53852381Y-111279819D02*
X53947619Y-111279819D01*
X53947619Y-111279819D02*
X54042857Y-111327438D01*
X54042857Y-111327438D02*
X54090476Y-111375057D01*
X54090476Y-111375057D02*
X54138095Y-111470295D01*
X54138095Y-111470295D02*
X54185714Y-111660771D01*
X54185714Y-111660771D02*
X54185714Y-111898866D01*
X54185714Y-111898866D02*
X54138095Y-112089342D01*
X54138095Y-112089342D02*
X54090476Y-112184580D01*
X54090476Y-112184580D02*
X54042857Y-112232200D01*
X54042857Y-112232200D02*
X53947619Y-112279819D01*
X53947619Y-112279819D02*
X53852381Y-112279819D01*
X53852381Y-112279819D02*
X53757143Y-112232200D01*
X53757143Y-112232200D02*
X53709524Y-112184580D01*
X53709524Y-112184580D02*
X53661905Y-112089342D01*
X53661905Y-112089342D02*
X53614286Y-111898866D01*
X53614286Y-111898866D02*
X53614286Y-111660771D01*
X53614286Y-111660771D02*
X53661905Y-111470295D01*
X53661905Y-111470295D02*
X53709524Y-111375057D01*
X53709524Y-111375057D02*
X53757143Y-111327438D01*
X53757143Y-111327438D02*
X53852381Y-111279819D01*
D12*
X56537856Y-127985335D02*
X56502142Y-128021050D01*
X56502142Y-128021050D02*
X56394999Y-128056764D01*
X56394999Y-128056764D02*
X56323571Y-128056764D01*
X56323571Y-128056764D02*
X56216428Y-128021050D01*
X56216428Y-128021050D02*
X56144999Y-127949621D01*
X56144999Y-127949621D02*
X56109285Y-127878192D01*
X56109285Y-127878192D02*
X56073571Y-127735335D01*
X56073571Y-127735335D02*
X56073571Y-127628192D01*
X56073571Y-127628192D02*
X56109285Y-127485335D01*
X56109285Y-127485335D02*
X56144999Y-127413907D01*
X56144999Y-127413907D02*
X56216428Y-127342478D01*
X56216428Y-127342478D02*
X56323571Y-127306764D01*
X56323571Y-127306764D02*
X56394999Y-127306764D01*
X56394999Y-127306764D02*
X56502142Y-127342478D01*
X56502142Y-127342478D02*
X56537856Y-127378192D01*
X57252142Y-128056764D02*
X56823571Y-128056764D01*
X57037856Y-128056764D02*
X57037856Y-127306764D01*
X57037856Y-127306764D02*
X56966428Y-127413907D01*
X56966428Y-127413907D02*
X56894999Y-127485335D01*
X56894999Y-127485335D02*
X56823571Y-127521050D01*
X57537857Y-127378192D02*
X57573571Y-127342478D01*
X57573571Y-127342478D02*
X57645000Y-127306764D01*
X57645000Y-127306764D02*
X57823571Y-127306764D01*
X57823571Y-127306764D02*
X57895000Y-127342478D01*
X57895000Y-127342478D02*
X57930714Y-127378192D01*
X57930714Y-127378192D02*
X57966428Y-127449621D01*
X57966428Y-127449621D02*
X57966428Y-127521050D01*
X57966428Y-127521050D02*
X57930714Y-127628192D01*
X57930714Y-127628192D02*
X57502142Y-128056764D01*
X57502142Y-128056764D02*
X57966428Y-128056764D01*
D14*
X54686666Y-117549530D02*
X54662857Y-117573340D01*
X54662857Y-117573340D02*
X54591428Y-117597149D01*
X54591428Y-117597149D02*
X54543809Y-117597149D01*
X54543809Y-117597149D02*
X54472381Y-117573340D01*
X54472381Y-117573340D02*
X54424762Y-117525720D01*
X54424762Y-117525720D02*
X54400952Y-117478101D01*
X54400952Y-117478101D02*
X54377143Y-117382863D01*
X54377143Y-117382863D02*
X54377143Y-117311435D01*
X54377143Y-117311435D02*
X54400952Y-117216197D01*
X54400952Y-117216197D02*
X54424762Y-117168578D01*
X54424762Y-117168578D02*
X54472381Y-117120959D01*
X54472381Y-117120959D02*
X54543809Y-117097149D01*
X54543809Y-117097149D02*
X54591428Y-117097149D01*
X54591428Y-117097149D02*
X54662857Y-117120959D01*
X54662857Y-117120959D02*
X54686666Y-117144768D01*
X54853333Y-117097149D02*
X55186666Y-117097149D01*
X55186666Y-117097149D02*
X54972381Y-117597149D01*
D12*
X130941428Y-122881764D02*
X130941428Y-123488907D01*
X130941428Y-123488907D02*
X130977142Y-123560335D01*
X130977142Y-123560335D02*
X131012857Y-123596050D01*
X131012857Y-123596050D02*
X131084285Y-123631764D01*
X131084285Y-123631764D02*
X131227142Y-123631764D01*
X131227142Y-123631764D02*
X131298571Y-123596050D01*
X131298571Y-123596050D02*
X131334285Y-123560335D01*
X131334285Y-123560335D02*
X131369999Y-123488907D01*
X131369999Y-123488907D02*
X131369999Y-122881764D01*
X131691428Y-122953192D02*
X131727142Y-122917478D01*
X131727142Y-122917478D02*
X131798571Y-122881764D01*
X131798571Y-122881764D02*
X131977142Y-122881764D01*
X131977142Y-122881764D02*
X132048571Y-122917478D01*
X132048571Y-122917478D02*
X132084285Y-122953192D01*
X132084285Y-122953192D02*
X132119999Y-123024621D01*
X132119999Y-123024621D02*
X132119999Y-123096050D01*
X132119999Y-123096050D02*
X132084285Y-123203192D01*
X132084285Y-123203192D02*
X131655713Y-123631764D01*
X131655713Y-123631764D02*
X132119999Y-123631764D01*
X132548571Y-123203192D02*
X132477142Y-123167478D01*
X132477142Y-123167478D02*
X132441428Y-123131764D01*
X132441428Y-123131764D02*
X132405714Y-123060335D01*
X132405714Y-123060335D02*
X132405714Y-123024621D01*
X132405714Y-123024621D02*
X132441428Y-122953192D01*
X132441428Y-122953192D02*
X132477142Y-122917478D01*
X132477142Y-122917478D02*
X132548571Y-122881764D01*
X132548571Y-122881764D02*
X132691428Y-122881764D01*
X132691428Y-122881764D02*
X132762857Y-122917478D01*
X132762857Y-122917478D02*
X132798571Y-122953192D01*
X132798571Y-122953192D02*
X132834285Y-123024621D01*
X132834285Y-123024621D02*
X132834285Y-123060335D01*
X132834285Y-123060335D02*
X132798571Y-123131764D01*
X132798571Y-123131764D02*
X132762857Y-123167478D01*
X132762857Y-123167478D02*
X132691428Y-123203192D01*
X132691428Y-123203192D02*
X132548571Y-123203192D01*
X132548571Y-123203192D02*
X132477142Y-123238907D01*
X132477142Y-123238907D02*
X132441428Y-123274621D01*
X132441428Y-123274621D02*
X132405714Y-123346050D01*
X132405714Y-123346050D02*
X132405714Y-123488907D01*
X132405714Y-123488907D02*
X132441428Y-123560335D01*
X132441428Y-123560335D02*
X132477142Y-123596050D01*
X132477142Y-123596050D02*
X132548571Y-123631764D01*
X132548571Y-123631764D02*
X132691428Y-123631764D01*
X132691428Y-123631764D02*
X132762857Y-123596050D01*
X132762857Y-123596050D02*
X132798571Y-123560335D01*
X132798571Y-123560335D02*
X132834285Y-123488907D01*
X132834285Y-123488907D02*
X132834285Y-123346050D01*
X132834285Y-123346050D02*
X132798571Y-123274621D01*
X132798571Y-123274621D02*
X132762857Y-123238907D01*
X132762857Y-123238907D02*
X132691428Y-123203192D01*
X95891428Y-131206764D02*
X95891428Y-131813907D01*
X95891428Y-131813907D02*
X95927142Y-131885335D01*
X95927142Y-131885335D02*
X95962857Y-131921050D01*
X95962857Y-131921050D02*
X96034285Y-131956764D01*
X96034285Y-131956764D02*
X96177142Y-131956764D01*
X96177142Y-131956764D02*
X96248571Y-131921050D01*
X96248571Y-131921050D02*
X96284285Y-131885335D01*
X96284285Y-131885335D02*
X96319999Y-131813907D01*
X96319999Y-131813907D02*
X96319999Y-131206764D01*
X96998571Y-131456764D02*
X96998571Y-131956764D01*
X96819999Y-131171050D02*
X96641428Y-131706764D01*
X96641428Y-131706764D02*
X97105713Y-131706764D01*
X97784285Y-131956764D02*
X97355714Y-131956764D01*
X97569999Y-131956764D02*
X97569999Y-131206764D01*
X97569999Y-131206764D02*
X97498571Y-131313907D01*
X97498571Y-131313907D02*
X97427142Y-131385335D01*
X97427142Y-131385335D02*
X97355714Y-131421050D01*
D14*
X53176666Y-113529530D02*
X53152857Y-113553340D01*
X53152857Y-113553340D02*
X53081428Y-113577149D01*
X53081428Y-113577149D02*
X53033809Y-113577149D01*
X53033809Y-113577149D02*
X52962381Y-113553340D01*
X52962381Y-113553340D02*
X52914762Y-113505720D01*
X52914762Y-113505720D02*
X52890952Y-113458101D01*
X52890952Y-113458101D02*
X52867143Y-113362863D01*
X52867143Y-113362863D02*
X52867143Y-113291435D01*
X52867143Y-113291435D02*
X52890952Y-113196197D01*
X52890952Y-113196197D02*
X52914762Y-113148578D01*
X52914762Y-113148578D02*
X52962381Y-113100959D01*
X52962381Y-113100959D02*
X53033809Y-113077149D01*
X53033809Y-113077149D02*
X53081428Y-113077149D01*
X53081428Y-113077149D02*
X53152857Y-113100959D01*
X53152857Y-113100959D02*
X53176666Y-113124768D01*
X53414762Y-113577149D02*
X53510000Y-113577149D01*
X53510000Y-113577149D02*
X53557619Y-113553340D01*
X53557619Y-113553340D02*
X53581428Y-113529530D01*
X53581428Y-113529530D02*
X53629047Y-113458101D01*
X53629047Y-113458101D02*
X53652857Y-113362863D01*
X53652857Y-113362863D02*
X53652857Y-113172387D01*
X53652857Y-113172387D02*
X53629047Y-113124768D01*
X53629047Y-113124768D02*
X53605238Y-113100959D01*
X53605238Y-113100959D02*
X53557619Y-113077149D01*
X53557619Y-113077149D02*
X53462381Y-113077149D01*
X53462381Y-113077149D02*
X53414762Y-113100959D01*
X53414762Y-113100959D02*
X53390952Y-113124768D01*
X53390952Y-113124768D02*
X53367143Y-113172387D01*
X53367143Y-113172387D02*
X53367143Y-113291435D01*
X53367143Y-113291435D02*
X53390952Y-113339054D01*
X53390952Y-113339054D02*
X53414762Y-113362863D01*
X53414762Y-113362863D02*
X53462381Y-113386673D01*
X53462381Y-113386673D02*
X53557619Y-113386673D01*
X53557619Y-113386673D02*
X53605238Y-113362863D01*
X53605238Y-113362863D02*
X53629047Y-113339054D01*
X53629047Y-113339054D02*
X53652857Y-113291435D01*
X44416666Y-91254530D02*
X44392857Y-91278340D01*
X44392857Y-91278340D02*
X44321428Y-91302149D01*
X44321428Y-91302149D02*
X44273809Y-91302149D01*
X44273809Y-91302149D02*
X44202381Y-91278340D01*
X44202381Y-91278340D02*
X44154762Y-91230720D01*
X44154762Y-91230720D02*
X44130952Y-91183101D01*
X44130952Y-91183101D02*
X44107143Y-91087863D01*
X44107143Y-91087863D02*
X44107143Y-91016435D01*
X44107143Y-91016435D02*
X44130952Y-90921197D01*
X44130952Y-90921197D02*
X44154762Y-90873578D01*
X44154762Y-90873578D02*
X44202381Y-90825959D01*
X44202381Y-90825959D02*
X44273809Y-90802149D01*
X44273809Y-90802149D02*
X44321428Y-90802149D01*
X44321428Y-90802149D02*
X44392857Y-90825959D01*
X44392857Y-90825959D02*
X44416666Y-90849768D01*
X44869047Y-90802149D02*
X44630952Y-90802149D01*
X44630952Y-90802149D02*
X44607143Y-91040244D01*
X44607143Y-91040244D02*
X44630952Y-91016435D01*
X44630952Y-91016435D02*
X44678571Y-90992625D01*
X44678571Y-90992625D02*
X44797619Y-90992625D01*
X44797619Y-90992625D02*
X44845238Y-91016435D01*
X44845238Y-91016435D02*
X44869047Y-91040244D01*
X44869047Y-91040244D02*
X44892857Y-91087863D01*
X44892857Y-91087863D02*
X44892857Y-91206911D01*
X44892857Y-91206911D02*
X44869047Y-91254530D01*
X44869047Y-91254530D02*
X44845238Y-91278340D01*
X44845238Y-91278340D02*
X44797619Y-91302149D01*
X44797619Y-91302149D02*
X44678571Y-91302149D01*
X44678571Y-91302149D02*
X44630952Y-91278340D01*
X44630952Y-91278340D02*
X44607143Y-91254530D01*
D12*
X140941428Y-122881764D02*
X140941428Y-123488907D01*
X140941428Y-123488907D02*
X140977142Y-123560335D01*
X140977142Y-123560335D02*
X141012857Y-123596050D01*
X141012857Y-123596050D02*
X141084285Y-123631764D01*
X141084285Y-123631764D02*
X141227142Y-123631764D01*
X141227142Y-123631764D02*
X141298571Y-123596050D01*
X141298571Y-123596050D02*
X141334285Y-123560335D01*
X141334285Y-123560335D02*
X141369999Y-123488907D01*
X141369999Y-123488907D02*
X141369999Y-122881764D01*
X141655713Y-122881764D02*
X142119999Y-122881764D01*
X142119999Y-122881764D02*
X141869999Y-123167478D01*
X141869999Y-123167478D02*
X141977142Y-123167478D01*
X141977142Y-123167478D02*
X142048571Y-123203192D01*
X142048571Y-123203192D02*
X142084285Y-123238907D01*
X142084285Y-123238907D02*
X142119999Y-123310335D01*
X142119999Y-123310335D02*
X142119999Y-123488907D01*
X142119999Y-123488907D02*
X142084285Y-123560335D01*
X142084285Y-123560335D02*
X142048571Y-123596050D01*
X142048571Y-123596050D02*
X141977142Y-123631764D01*
X141977142Y-123631764D02*
X141762856Y-123631764D01*
X141762856Y-123631764D02*
X141691428Y-123596050D01*
X141691428Y-123596050D02*
X141655713Y-123560335D01*
X142584285Y-122881764D02*
X142655714Y-122881764D01*
X142655714Y-122881764D02*
X142727142Y-122917478D01*
X142727142Y-122917478D02*
X142762857Y-122953192D01*
X142762857Y-122953192D02*
X142798571Y-123024621D01*
X142798571Y-123024621D02*
X142834285Y-123167478D01*
X142834285Y-123167478D02*
X142834285Y-123346050D01*
X142834285Y-123346050D02*
X142798571Y-123488907D01*
X142798571Y-123488907D02*
X142762857Y-123560335D01*
X142762857Y-123560335D02*
X142727142Y-123596050D01*
X142727142Y-123596050D02*
X142655714Y-123631764D01*
X142655714Y-123631764D02*
X142584285Y-123631764D01*
X142584285Y-123631764D02*
X142512857Y-123596050D01*
X142512857Y-123596050D02*
X142477142Y-123560335D01*
X142477142Y-123560335D02*
X142441428Y-123488907D01*
X142441428Y-123488907D02*
X142405714Y-123346050D01*
X142405714Y-123346050D02*
X142405714Y-123167478D01*
X142405714Y-123167478D02*
X142441428Y-123024621D01*
X142441428Y-123024621D02*
X142477142Y-122953192D01*
X142477142Y-122953192D02*
X142512857Y-122917478D01*
X142512857Y-122917478D02*
X142584285Y-122881764D01*
X86537856Y-136285335D02*
X86502142Y-136321050D01*
X86502142Y-136321050D02*
X86394999Y-136356764D01*
X86394999Y-136356764D02*
X86323571Y-136356764D01*
X86323571Y-136356764D02*
X86216428Y-136321050D01*
X86216428Y-136321050D02*
X86144999Y-136249621D01*
X86144999Y-136249621D02*
X86109285Y-136178192D01*
X86109285Y-136178192D02*
X86073571Y-136035335D01*
X86073571Y-136035335D02*
X86073571Y-135928192D01*
X86073571Y-135928192D02*
X86109285Y-135785335D01*
X86109285Y-135785335D02*
X86144999Y-135713907D01*
X86144999Y-135713907D02*
X86216428Y-135642478D01*
X86216428Y-135642478D02*
X86323571Y-135606764D01*
X86323571Y-135606764D02*
X86394999Y-135606764D01*
X86394999Y-135606764D02*
X86502142Y-135642478D01*
X86502142Y-135642478D02*
X86537856Y-135678192D01*
X86787856Y-135606764D02*
X87252142Y-135606764D01*
X87252142Y-135606764D02*
X87002142Y-135892478D01*
X87002142Y-135892478D02*
X87109285Y-135892478D01*
X87109285Y-135892478D02*
X87180714Y-135928192D01*
X87180714Y-135928192D02*
X87216428Y-135963907D01*
X87216428Y-135963907D02*
X87252142Y-136035335D01*
X87252142Y-136035335D02*
X87252142Y-136213907D01*
X87252142Y-136213907D02*
X87216428Y-136285335D01*
X87216428Y-136285335D02*
X87180714Y-136321050D01*
X87180714Y-136321050D02*
X87109285Y-136356764D01*
X87109285Y-136356764D02*
X86894999Y-136356764D01*
X86894999Y-136356764D02*
X86823571Y-136321050D01*
X86823571Y-136321050D02*
X86787856Y-136285335D01*
X87680714Y-135928192D02*
X87609285Y-135892478D01*
X87609285Y-135892478D02*
X87573571Y-135856764D01*
X87573571Y-135856764D02*
X87537857Y-135785335D01*
X87537857Y-135785335D02*
X87537857Y-135749621D01*
X87537857Y-135749621D02*
X87573571Y-135678192D01*
X87573571Y-135678192D02*
X87609285Y-135642478D01*
X87609285Y-135642478D02*
X87680714Y-135606764D01*
X87680714Y-135606764D02*
X87823571Y-135606764D01*
X87823571Y-135606764D02*
X87895000Y-135642478D01*
X87895000Y-135642478D02*
X87930714Y-135678192D01*
X87930714Y-135678192D02*
X87966428Y-135749621D01*
X87966428Y-135749621D02*
X87966428Y-135785335D01*
X87966428Y-135785335D02*
X87930714Y-135856764D01*
X87930714Y-135856764D02*
X87895000Y-135892478D01*
X87895000Y-135892478D02*
X87823571Y-135928192D01*
X87823571Y-135928192D02*
X87680714Y-135928192D01*
X87680714Y-135928192D02*
X87609285Y-135963907D01*
X87609285Y-135963907D02*
X87573571Y-135999621D01*
X87573571Y-135999621D02*
X87537857Y-136071050D01*
X87537857Y-136071050D02*
X87537857Y-136213907D01*
X87537857Y-136213907D02*
X87573571Y-136285335D01*
X87573571Y-136285335D02*
X87609285Y-136321050D01*
X87609285Y-136321050D02*
X87680714Y-136356764D01*
X87680714Y-136356764D02*
X87823571Y-136356764D01*
X87823571Y-136356764D02*
X87895000Y-136321050D01*
X87895000Y-136321050D02*
X87930714Y-136285335D01*
X87930714Y-136285335D02*
X87966428Y-136213907D01*
X87966428Y-136213907D02*
X87966428Y-136071050D01*
X87966428Y-136071050D02*
X87930714Y-135999621D01*
X87930714Y-135999621D02*
X87895000Y-135963907D01*
X87895000Y-135963907D02*
X87823571Y-135928192D01*
X111537856Y-127960335D02*
X111502142Y-127996050D01*
X111502142Y-127996050D02*
X111394999Y-128031764D01*
X111394999Y-128031764D02*
X111323571Y-128031764D01*
X111323571Y-128031764D02*
X111216428Y-127996050D01*
X111216428Y-127996050D02*
X111144999Y-127924621D01*
X111144999Y-127924621D02*
X111109285Y-127853192D01*
X111109285Y-127853192D02*
X111073571Y-127710335D01*
X111073571Y-127710335D02*
X111073571Y-127603192D01*
X111073571Y-127603192D02*
X111109285Y-127460335D01*
X111109285Y-127460335D02*
X111144999Y-127388907D01*
X111144999Y-127388907D02*
X111216428Y-127317478D01*
X111216428Y-127317478D02*
X111323571Y-127281764D01*
X111323571Y-127281764D02*
X111394999Y-127281764D01*
X111394999Y-127281764D02*
X111502142Y-127317478D01*
X111502142Y-127317478D02*
X111537856Y-127353192D01*
X111823571Y-127353192D02*
X111859285Y-127317478D01*
X111859285Y-127317478D02*
X111930714Y-127281764D01*
X111930714Y-127281764D02*
X112109285Y-127281764D01*
X112109285Y-127281764D02*
X112180714Y-127317478D01*
X112180714Y-127317478D02*
X112216428Y-127353192D01*
X112216428Y-127353192D02*
X112252142Y-127424621D01*
X112252142Y-127424621D02*
X112252142Y-127496050D01*
X112252142Y-127496050D02*
X112216428Y-127603192D01*
X112216428Y-127603192D02*
X111787856Y-128031764D01*
X111787856Y-128031764D02*
X112252142Y-128031764D01*
X112502142Y-127281764D02*
X112966428Y-127281764D01*
X112966428Y-127281764D02*
X112716428Y-127567478D01*
X112716428Y-127567478D02*
X112823571Y-127567478D01*
X112823571Y-127567478D02*
X112895000Y-127603192D01*
X112895000Y-127603192D02*
X112930714Y-127638907D01*
X112930714Y-127638907D02*
X112966428Y-127710335D01*
X112966428Y-127710335D02*
X112966428Y-127888907D01*
X112966428Y-127888907D02*
X112930714Y-127960335D01*
X112930714Y-127960335D02*
X112895000Y-127996050D01*
X112895000Y-127996050D02*
X112823571Y-128031764D01*
X112823571Y-128031764D02*
X112609285Y-128031764D01*
X112609285Y-128031764D02*
X112537857Y-127996050D01*
X112537857Y-127996050D02*
X112502142Y-127960335D01*
D14*
X50391666Y-112252149D02*
X50225000Y-112014054D01*
X50105952Y-112252149D02*
X50105952Y-111752149D01*
X50105952Y-111752149D02*
X50296428Y-111752149D01*
X50296428Y-111752149D02*
X50344047Y-111775959D01*
X50344047Y-111775959D02*
X50367857Y-111799768D01*
X50367857Y-111799768D02*
X50391666Y-111847387D01*
X50391666Y-111847387D02*
X50391666Y-111918816D01*
X50391666Y-111918816D02*
X50367857Y-111966435D01*
X50367857Y-111966435D02*
X50344047Y-111990244D01*
X50344047Y-111990244D02*
X50296428Y-112014054D01*
X50296428Y-112014054D02*
X50105952Y-112014054D01*
X50867857Y-112252149D02*
X50582143Y-112252149D01*
X50725000Y-112252149D02*
X50725000Y-111752149D01*
X50725000Y-111752149D02*
X50677381Y-111823578D01*
X50677381Y-111823578D02*
X50629762Y-111871197D01*
X50629762Y-111871197D02*
X50582143Y-111895006D01*
D12*
X75946428Y-122886764D02*
X75946428Y-123493907D01*
X75946428Y-123493907D02*
X75982142Y-123565335D01*
X75982142Y-123565335D02*
X76017857Y-123601050D01*
X76017857Y-123601050D02*
X76089285Y-123636764D01*
X76089285Y-123636764D02*
X76232142Y-123636764D01*
X76232142Y-123636764D02*
X76303571Y-123601050D01*
X76303571Y-123601050D02*
X76339285Y-123565335D01*
X76339285Y-123565335D02*
X76374999Y-123493907D01*
X76374999Y-123493907D02*
X76374999Y-122886764D01*
X77124999Y-123636764D02*
X76696428Y-123636764D01*
X76910713Y-123636764D02*
X76910713Y-122886764D01*
X76910713Y-122886764D02*
X76839285Y-122993907D01*
X76839285Y-122993907D02*
X76767856Y-123065335D01*
X76767856Y-123065335D02*
X76696428Y-123101050D01*
X77374999Y-122886764D02*
X77874999Y-122886764D01*
X77874999Y-122886764D02*
X77553571Y-123636764D01*
D13*
X46636666Y-107454819D02*
X46636666Y-108169104D01*
X46636666Y-108169104D02*
X46589047Y-108311961D01*
X46589047Y-108311961D02*
X46493809Y-108407200D01*
X46493809Y-108407200D02*
X46350952Y-108454819D01*
X46350952Y-108454819D02*
X46255714Y-108454819D01*
X47636666Y-108454819D02*
X47065238Y-108454819D01*
X47350952Y-108454819D02*
X47350952Y-107454819D01*
X47350952Y-107454819D02*
X47255714Y-107597676D01*
X47255714Y-107597676D02*
X47160476Y-107692914D01*
X47160476Y-107692914D02*
X47065238Y-107740533D01*
D12*
X61542856Y-127965335D02*
X61507142Y-128001050D01*
X61507142Y-128001050D02*
X61399999Y-128036764D01*
X61399999Y-128036764D02*
X61328571Y-128036764D01*
X61328571Y-128036764D02*
X61221428Y-128001050D01*
X61221428Y-128001050D02*
X61149999Y-127929621D01*
X61149999Y-127929621D02*
X61114285Y-127858192D01*
X61114285Y-127858192D02*
X61078571Y-127715335D01*
X61078571Y-127715335D02*
X61078571Y-127608192D01*
X61078571Y-127608192D02*
X61114285Y-127465335D01*
X61114285Y-127465335D02*
X61149999Y-127393907D01*
X61149999Y-127393907D02*
X61221428Y-127322478D01*
X61221428Y-127322478D02*
X61328571Y-127286764D01*
X61328571Y-127286764D02*
X61399999Y-127286764D01*
X61399999Y-127286764D02*
X61507142Y-127322478D01*
X61507142Y-127322478D02*
X61542856Y-127358192D01*
X62257142Y-128036764D02*
X61828571Y-128036764D01*
X62042856Y-128036764D02*
X62042856Y-127286764D01*
X62042856Y-127286764D02*
X61971428Y-127393907D01*
X61971428Y-127393907D02*
X61899999Y-127465335D01*
X61899999Y-127465335D02*
X61828571Y-127501050D01*
X62507142Y-127286764D02*
X62971428Y-127286764D01*
X62971428Y-127286764D02*
X62721428Y-127572478D01*
X62721428Y-127572478D02*
X62828571Y-127572478D01*
X62828571Y-127572478D02*
X62900000Y-127608192D01*
X62900000Y-127608192D02*
X62935714Y-127643907D01*
X62935714Y-127643907D02*
X62971428Y-127715335D01*
X62971428Y-127715335D02*
X62971428Y-127893907D01*
X62971428Y-127893907D02*
X62935714Y-127965335D01*
X62935714Y-127965335D02*
X62900000Y-128001050D01*
X62900000Y-128001050D02*
X62828571Y-128036764D01*
X62828571Y-128036764D02*
X62614285Y-128036764D01*
X62614285Y-128036764D02*
X62542857Y-128001050D01*
X62542857Y-128001050D02*
X62507142Y-127965335D01*
X70996428Y-122886764D02*
X70996428Y-123493907D01*
X70996428Y-123493907D02*
X71032142Y-123565335D01*
X71032142Y-123565335D02*
X71067857Y-123601050D01*
X71067857Y-123601050D02*
X71139285Y-123636764D01*
X71139285Y-123636764D02*
X71282142Y-123636764D01*
X71282142Y-123636764D02*
X71353571Y-123601050D01*
X71353571Y-123601050D02*
X71389285Y-123565335D01*
X71389285Y-123565335D02*
X71424999Y-123493907D01*
X71424999Y-123493907D02*
X71424999Y-122886764D01*
X72174999Y-123636764D02*
X71746428Y-123636764D01*
X71960713Y-123636764D02*
X71960713Y-122886764D01*
X71960713Y-122886764D02*
X71889285Y-122993907D01*
X71889285Y-122993907D02*
X71817856Y-123065335D01*
X71817856Y-123065335D02*
X71746428Y-123101050D01*
X72817857Y-122886764D02*
X72674999Y-122886764D01*
X72674999Y-122886764D02*
X72603571Y-122922478D01*
X72603571Y-122922478D02*
X72567857Y-122958192D01*
X72567857Y-122958192D02*
X72496428Y-123065335D01*
X72496428Y-123065335D02*
X72460714Y-123208192D01*
X72460714Y-123208192D02*
X72460714Y-123493907D01*
X72460714Y-123493907D02*
X72496428Y-123565335D01*
X72496428Y-123565335D02*
X72532142Y-123601050D01*
X72532142Y-123601050D02*
X72603571Y-123636764D01*
X72603571Y-123636764D02*
X72746428Y-123636764D01*
X72746428Y-123636764D02*
X72817857Y-123601050D01*
X72817857Y-123601050D02*
X72853571Y-123565335D01*
X72853571Y-123565335D02*
X72889285Y-123493907D01*
X72889285Y-123493907D02*
X72889285Y-123315335D01*
X72889285Y-123315335D02*
X72853571Y-123243907D01*
X72853571Y-123243907D02*
X72817857Y-123208192D01*
X72817857Y-123208192D02*
X72746428Y-123172478D01*
X72746428Y-123172478D02*
X72603571Y-123172478D01*
X72603571Y-123172478D02*
X72532142Y-123208192D01*
X72532142Y-123208192D02*
X72496428Y-123243907D01*
X72496428Y-123243907D02*
X72460714Y-123315335D01*
X80946428Y-122886764D02*
X80946428Y-123493907D01*
X80946428Y-123493907D02*
X80982142Y-123565335D01*
X80982142Y-123565335D02*
X81017857Y-123601050D01*
X81017857Y-123601050D02*
X81089285Y-123636764D01*
X81089285Y-123636764D02*
X81232142Y-123636764D01*
X81232142Y-123636764D02*
X81303571Y-123601050D01*
X81303571Y-123601050D02*
X81339285Y-123565335D01*
X81339285Y-123565335D02*
X81374999Y-123493907D01*
X81374999Y-123493907D02*
X81374999Y-122886764D01*
X82124999Y-123636764D02*
X81696428Y-123636764D01*
X81910713Y-123636764D02*
X81910713Y-122886764D01*
X81910713Y-122886764D02*
X81839285Y-122993907D01*
X81839285Y-122993907D02*
X81767856Y-123065335D01*
X81767856Y-123065335D02*
X81696428Y-123101050D01*
X82553571Y-123208192D02*
X82482142Y-123172478D01*
X82482142Y-123172478D02*
X82446428Y-123136764D01*
X82446428Y-123136764D02*
X82410714Y-123065335D01*
X82410714Y-123065335D02*
X82410714Y-123029621D01*
X82410714Y-123029621D02*
X82446428Y-122958192D01*
X82446428Y-122958192D02*
X82482142Y-122922478D01*
X82482142Y-122922478D02*
X82553571Y-122886764D01*
X82553571Y-122886764D02*
X82696428Y-122886764D01*
X82696428Y-122886764D02*
X82767857Y-122922478D01*
X82767857Y-122922478D02*
X82803571Y-122958192D01*
X82803571Y-122958192D02*
X82839285Y-123029621D01*
X82839285Y-123029621D02*
X82839285Y-123065335D01*
X82839285Y-123065335D02*
X82803571Y-123136764D01*
X82803571Y-123136764D02*
X82767857Y-123172478D01*
X82767857Y-123172478D02*
X82696428Y-123208192D01*
X82696428Y-123208192D02*
X82553571Y-123208192D01*
X82553571Y-123208192D02*
X82482142Y-123243907D01*
X82482142Y-123243907D02*
X82446428Y-123279621D01*
X82446428Y-123279621D02*
X82410714Y-123351050D01*
X82410714Y-123351050D02*
X82410714Y-123493907D01*
X82410714Y-123493907D02*
X82446428Y-123565335D01*
X82446428Y-123565335D02*
X82482142Y-123601050D01*
X82482142Y-123601050D02*
X82553571Y-123636764D01*
X82553571Y-123636764D02*
X82696428Y-123636764D01*
X82696428Y-123636764D02*
X82767857Y-123601050D01*
X82767857Y-123601050D02*
X82803571Y-123565335D01*
X82803571Y-123565335D02*
X82839285Y-123493907D01*
X82839285Y-123493907D02*
X82839285Y-123351050D01*
X82839285Y-123351050D02*
X82803571Y-123279621D01*
X82803571Y-123279621D02*
X82767857Y-123243907D01*
X82767857Y-123243907D02*
X82696428Y-123208192D01*
X140941428Y-131206764D02*
X140941428Y-131813907D01*
X140941428Y-131813907D02*
X140977142Y-131885335D01*
X140977142Y-131885335D02*
X141012857Y-131921050D01*
X141012857Y-131921050D02*
X141084285Y-131956764D01*
X141084285Y-131956764D02*
X141227142Y-131956764D01*
X141227142Y-131956764D02*
X141298571Y-131921050D01*
X141298571Y-131921050D02*
X141334285Y-131885335D01*
X141334285Y-131885335D02*
X141369999Y-131813907D01*
X141369999Y-131813907D02*
X141369999Y-131206764D01*
X142084285Y-131206764D02*
X141727142Y-131206764D01*
X141727142Y-131206764D02*
X141691428Y-131563907D01*
X141691428Y-131563907D02*
X141727142Y-131528192D01*
X141727142Y-131528192D02*
X141798571Y-131492478D01*
X141798571Y-131492478D02*
X141977142Y-131492478D01*
X141977142Y-131492478D02*
X142048571Y-131528192D01*
X142048571Y-131528192D02*
X142084285Y-131563907D01*
X142084285Y-131563907D02*
X142119999Y-131635335D01*
X142119999Y-131635335D02*
X142119999Y-131813907D01*
X142119999Y-131813907D02*
X142084285Y-131885335D01*
X142084285Y-131885335D02*
X142048571Y-131921050D01*
X142048571Y-131921050D02*
X141977142Y-131956764D01*
X141977142Y-131956764D02*
X141798571Y-131956764D01*
X141798571Y-131956764D02*
X141727142Y-131921050D01*
X141727142Y-131921050D02*
X141691428Y-131885335D01*
X142584285Y-131206764D02*
X142655714Y-131206764D01*
X142655714Y-131206764D02*
X142727142Y-131242478D01*
X142727142Y-131242478D02*
X142762857Y-131278192D01*
X142762857Y-131278192D02*
X142798571Y-131349621D01*
X142798571Y-131349621D02*
X142834285Y-131492478D01*
X142834285Y-131492478D02*
X142834285Y-131671050D01*
X142834285Y-131671050D02*
X142798571Y-131813907D01*
X142798571Y-131813907D02*
X142762857Y-131885335D01*
X142762857Y-131885335D02*
X142727142Y-131921050D01*
X142727142Y-131921050D02*
X142655714Y-131956764D01*
X142655714Y-131956764D02*
X142584285Y-131956764D01*
X142584285Y-131956764D02*
X142512857Y-131921050D01*
X142512857Y-131921050D02*
X142477142Y-131885335D01*
X142477142Y-131885335D02*
X142441428Y-131813907D01*
X142441428Y-131813907D02*
X142405714Y-131671050D01*
X142405714Y-131671050D02*
X142405714Y-131492478D01*
X142405714Y-131492478D02*
X142441428Y-131349621D01*
X142441428Y-131349621D02*
X142477142Y-131278192D01*
X142477142Y-131278192D02*
X142512857Y-131242478D01*
X142512857Y-131242478D02*
X142584285Y-131206764D01*
X76537856Y-136285335D02*
X76502142Y-136321050D01*
X76502142Y-136321050D02*
X76394999Y-136356764D01*
X76394999Y-136356764D02*
X76323571Y-136356764D01*
X76323571Y-136356764D02*
X76216428Y-136321050D01*
X76216428Y-136321050D02*
X76144999Y-136249621D01*
X76144999Y-136249621D02*
X76109285Y-136178192D01*
X76109285Y-136178192D02*
X76073571Y-136035335D01*
X76073571Y-136035335D02*
X76073571Y-135928192D01*
X76073571Y-135928192D02*
X76109285Y-135785335D01*
X76109285Y-135785335D02*
X76144999Y-135713907D01*
X76144999Y-135713907D02*
X76216428Y-135642478D01*
X76216428Y-135642478D02*
X76323571Y-135606764D01*
X76323571Y-135606764D02*
X76394999Y-135606764D01*
X76394999Y-135606764D02*
X76502142Y-135642478D01*
X76502142Y-135642478D02*
X76537856Y-135678192D01*
X76787856Y-135606764D02*
X77252142Y-135606764D01*
X77252142Y-135606764D02*
X77002142Y-135892478D01*
X77002142Y-135892478D02*
X77109285Y-135892478D01*
X77109285Y-135892478D02*
X77180714Y-135928192D01*
X77180714Y-135928192D02*
X77216428Y-135963907D01*
X77216428Y-135963907D02*
X77252142Y-136035335D01*
X77252142Y-136035335D02*
X77252142Y-136213907D01*
X77252142Y-136213907D02*
X77216428Y-136285335D01*
X77216428Y-136285335D02*
X77180714Y-136321050D01*
X77180714Y-136321050D02*
X77109285Y-136356764D01*
X77109285Y-136356764D02*
X76894999Y-136356764D01*
X76894999Y-136356764D02*
X76823571Y-136321050D01*
X76823571Y-136321050D02*
X76787856Y-136285335D01*
X77895000Y-135606764D02*
X77752142Y-135606764D01*
X77752142Y-135606764D02*
X77680714Y-135642478D01*
X77680714Y-135642478D02*
X77645000Y-135678192D01*
X77645000Y-135678192D02*
X77573571Y-135785335D01*
X77573571Y-135785335D02*
X77537857Y-135928192D01*
X77537857Y-135928192D02*
X77537857Y-136213907D01*
X77537857Y-136213907D02*
X77573571Y-136285335D01*
X77573571Y-136285335D02*
X77609285Y-136321050D01*
X77609285Y-136321050D02*
X77680714Y-136356764D01*
X77680714Y-136356764D02*
X77823571Y-136356764D01*
X77823571Y-136356764D02*
X77895000Y-136321050D01*
X77895000Y-136321050D02*
X77930714Y-136285335D01*
X77930714Y-136285335D02*
X77966428Y-136213907D01*
X77966428Y-136213907D02*
X77966428Y-136035335D01*
X77966428Y-136035335D02*
X77930714Y-135963907D01*
X77930714Y-135963907D02*
X77895000Y-135928192D01*
X77895000Y-135928192D02*
X77823571Y-135892478D01*
X77823571Y-135892478D02*
X77680714Y-135892478D01*
X77680714Y-135892478D02*
X77609285Y-135928192D01*
X77609285Y-135928192D02*
X77573571Y-135963907D01*
X77573571Y-135963907D02*
X77537857Y-136035335D01*
X96437856Y-136285335D02*
X96402142Y-136321050D01*
X96402142Y-136321050D02*
X96294999Y-136356764D01*
X96294999Y-136356764D02*
X96223571Y-136356764D01*
X96223571Y-136356764D02*
X96116428Y-136321050D01*
X96116428Y-136321050D02*
X96044999Y-136249621D01*
X96044999Y-136249621D02*
X96009285Y-136178192D01*
X96009285Y-136178192D02*
X95973571Y-136035335D01*
X95973571Y-136035335D02*
X95973571Y-135928192D01*
X95973571Y-135928192D02*
X96009285Y-135785335D01*
X96009285Y-135785335D02*
X96044999Y-135713907D01*
X96044999Y-135713907D02*
X96116428Y-135642478D01*
X96116428Y-135642478D02*
X96223571Y-135606764D01*
X96223571Y-135606764D02*
X96294999Y-135606764D01*
X96294999Y-135606764D02*
X96402142Y-135642478D01*
X96402142Y-135642478D02*
X96437856Y-135678192D01*
X97080714Y-135856764D02*
X97080714Y-136356764D01*
X96902142Y-135571050D02*
X96723571Y-136106764D01*
X96723571Y-136106764D02*
X97187856Y-136106764D01*
X97616428Y-135606764D02*
X97687857Y-135606764D01*
X97687857Y-135606764D02*
X97759285Y-135642478D01*
X97759285Y-135642478D02*
X97795000Y-135678192D01*
X97795000Y-135678192D02*
X97830714Y-135749621D01*
X97830714Y-135749621D02*
X97866428Y-135892478D01*
X97866428Y-135892478D02*
X97866428Y-136071050D01*
X97866428Y-136071050D02*
X97830714Y-136213907D01*
X97830714Y-136213907D02*
X97795000Y-136285335D01*
X97795000Y-136285335D02*
X97759285Y-136321050D01*
X97759285Y-136321050D02*
X97687857Y-136356764D01*
X97687857Y-136356764D02*
X97616428Y-136356764D01*
X97616428Y-136356764D02*
X97545000Y-136321050D01*
X97545000Y-136321050D02*
X97509285Y-136285335D01*
X97509285Y-136285335D02*
X97473571Y-136213907D01*
X97473571Y-136213907D02*
X97437857Y-136071050D01*
X97437857Y-136071050D02*
X97437857Y-135892478D01*
X97437857Y-135892478D02*
X97473571Y-135749621D01*
X97473571Y-135749621D02*
X97509285Y-135678192D01*
X97509285Y-135678192D02*
X97545000Y-135642478D01*
X97545000Y-135642478D02*
X97616428Y-135606764D01*
D13*
X56713095Y-109254819D02*
X56713095Y-110064342D01*
X56713095Y-110064342D02*
X56760714Y-110159580D01*
X56760714Y-110159580D02*
X56808333Y-110207200D01*
X56808333Y-110207200D02*
X56903571Y-110254819D01*
X56903571Y-110254819D02*
X57094047Y-110254819D01*
X57094047Y-110254819D02*
X57189285Y-110207200D01*
X57189285Y-110207200D02*
X57236904Y-110159580D01*
X57236904Y-110159580D02*
X57284523Y-110064342D01*
X57284523Y-110064342D02*
X57284523Y-109254819D01*
X57903571Y-109683390D02*
X57808333Y-109635771D01*
X57808333Y-109635771D02*
X57760714Y-109588152D01*
X57760714Y-109588152D02*
X57713095Y-109492914D01*
X57713095Y-109492914D02*
X57713095Y-109445295D01*
X57713095Y-109445295D02*
X57760714Y-109350057D01*
X57760714Y-109350057D02*
X57808333Y-109302438D01*
X57808333Y-109302438D02*
X57903571Y-109254819D01*
X57903571Y-109254819D02*
X58094047Y-109254819D01*
X58094047Y-109254819D02*
X58189285Y-109302438D01*
X58189285Y-109302438D02*
X58236904Y-109350057D01*
X58236904Y-109350057D02*
X58284523Y-109445295D01*
X58284523Y-109445295D02*
X58284523Y-109492914D01*
X58284523Y-109492914D02*
X58236904Y-109588152D01*
X58236904Y-109588152D02*
X58189285Y-109635771D01*
X58189285Y-109635771D02*
X58094047Y-109683390D01*
X58094047Y-109683390D02*
X57903571Y-109683390D01*
X57903571Y-109683390D02*
X57808333Y-109731009D01*
X57808333Y-109731009D02*
X57760714Y-109778628D01*
X57760714Y-109778628D02*
X57713095Y-109873866D01*
X57713095Y-109873866D02*
X57713095Y-110064342D01*
X57713095Y-110064342D02*
X57760714Y-110159580D01*
X57760714Y-110159580D02*
X57808333Y-110207200D01*
X57808333Y-110207200D02*
X57903571Y-110254819D01*
X57903571Y-110254819D02*
X58094047Y-110254819D01*
X58094047Y-110254819D02*
X58189285Y-110207200D01*
X58189285Y-110207200D02*
X58236904Y-110159580D01*
X58236904Y-110159580D02*
X58284523Y-110064342D01*
X58284523Y-110064342D02*
X58284523Y-109873866D01*
X58284523Y-109873866D02*
X58236904Y-109778628D01*
X58236904Y-109778628D02*
X58189285Y-109731009D01*
X58189285Y-109731009D02*
X58094047Y-109683390D01*
D12*
X90946428Y-122886764D02*
X90946428Y-123493907D01*
X90946428Y-123493907D02*
X90982142Y-123565335D01*
X90982142Y-123565335D02*
X91017857Y-123601050D01*
X91017857Y-123601050D02*
X91089285Y-123636764D01*
X91089285Y-123636764D02*
X91232142Y-123636764D01*
X91232142Y-123636764D02*
X91303571Y-123601050D01*
X91303571Y-123601050D02*
X91339285Y-123565335D01*
X91339285Y-123565335D02*
X91374999Y-123493907D01*
X91374999Y-123493907D02*
X91374999Y-122886764D01*
X91696428Y-122958192D02*
X91732142Y-122922478D01*
X91732142Y-122922478D02*
X91803571Y-122886764D01*
X91803571Y-122886764D02*
X91982142Y-122886764D01*
X91982142Y-122886764D02*
X92053571Y-122922478D01*
X92053571Y-122922478D02*
X92089285Y-122958192D01*
X92089285Y-122958192D02*
X92124999Y-123029621D01*
X92124999Y-123029621D02*
X92124999Y-123101050D01*
X92124999Y-123101050D02*
X92089285Y-123208192D01*
X92089285Y-123208192D02*
X91660713Y-123636764D01*
X91660713Y-123636764D02*
X92124999Y-123636764D01*
X92589285Y-122886764D02*
X92660714Y-122886764D01*
X92660714Y-122886764D02*
X92732142Y-122922478D01*
X92732142Y-122922478D02*
X92767857Y-122958192D01*
X92767857Y-122958192D02*
X92803571Y-123029621D01*
X92803571Y-123029621D02*
X92839285Y-123172478D01*
X92839285Y-123172478D02*
X92839285Y-123351050D01*
X92839285Y-123351050D02*
X92803571Y-123493907D01*
X92803571Y-123493907D02*
X92767857Y-123565335D01*
X92767857Y-123565335D02*
X92732142Y-123601050D01*
X92732142Y-123601050D02*
X92660714Y-123636764D01*
X92660714Y-123636764D02*
X92589285Y-123636764D01*
X92589285Y-123636764D02*
X92517857Y-123601050D01*
X92517857Y-123601050D02*
X92482142Y-123565335D01*
X92482142Y-123565335D02*
X92446428Y-123493907D01*
X92446428Y-123493907D02*
X92410714Y-123351050D01*
X92410714Y-123351050D02*
X92410714Y-123172478D01*
X92410714Y-123172478D02*
X92446428Y-123029621D01*
X92446428Y-123029621D02*
X92482142Y-122958192D01*
X92482142Y-122958192D02*
X92517857Y-122922478D01*
X92517857Y-122922478D02*
X92589285Y-122886764D01*
X100891428Y-122881764D02*
X100891428Y-123488907D01*
X100891428Y-123488907D02*
X100927142Y-123560335D01*
X100927142Y-123560335D02*
X100962857Y-123596050D01*
X100962857Y-123596050D02*
X101034285Y-123631764D01*
X101034285Y-123631764D02*
X101177142Y-123631764D01*
X101177142Y-123631764D02*
X101248571Y-123596050D01*
X101248571Y-123596050D02*
X101284285Y-123560335D01*
X101284285Y-123560335D02*
X101319999Y-123488907D01*
X101319999Y-123488907D02*
X101319999Y-122881764D01*
X101641428Y-122953192D02*
X101677142Y-122917478D01*
X101677142Y-122917478D02*
X101748571Y-122881764D01*
X101748571Y-122881764D02*
X101927142Y-122881764D01*
X101927142Y-122881764D02*
X101998571Y-122917478D01*
X101998571Y-122917478D02*
X102034285Y-122953192D01*
X102034285Y-122953192D02*
X102069999Y-123024621D01*
X102069999Y-123024621D02*
X102069999Y-123096050D01*
X102069999Y-123096050D02*
X102034285Y-123203192D01*
X102034285Y-123203192D02*
X101605713Y-123631764D01*
X101605713Y-123631764D02*
X102069999Y-123631764D01*
X102355714Y-122953192D02*
X102391428Y-122917478D01*
X102391428Y-122917478D02*
X102462857Y-122881764D01*
X102462857Y-122881764D02*
X102641428Y-122881764D01*
X102641428Y-122881764D02*
X102712857Y-122917478D01*
X102712857Y-122917478D02*
X102748571Y-122953192D01*
X102748571Y-122953192D02*
X102784285Y-123024621D01*
X102784285Y-123024621D02*
X102784285Y-123096050D01*
X102784285Y-123096050D02*
X102748571Y-123203192D01*
X102748571Y-123203192D02*
X102319999Y-123631764D01*
X102319999Y-123631764D02*
X102784285Y-123631764D01*
D14*
X59616666Y-116517149D02*
X59450000Y-116279054D01*
X59330952Y-116517149D02*
X59330952Y-116017149D01*
X59330952Y-116017149D02*
X59521428Y-116017149D01*
X59521428Y-116017149D02*
X59569047Y-116040959D01*
X59569047Y-116040959D02*
X59592857Y-116064768D01*
X59592857Y-116064768D02*
X59616666Y-116112387D01*
X59616666Y-116112387D02*
X59616666Y-116183816D01*
X59616666Y-116183816D02*
X59592857Y-116231435D01*
X59592857Y-116231435D02*
X59569047Y-116255244D01*
X59569047Y-116255244D02*
X59521428Y-116279054D01*
X59521428Y-116279054D02*
X59330952Y-116279054D01*
X60069047Y-116017149D02*
X59830952Y-116017149D01*
X59830952Y-116017149D02*
X59807143Y-116255244D01*
X59807143Y-116255244D02*
X59830952Y-116231435D01*
X59830952Y-116231435D02*
X59878571Y-116207625D01*
X59878571Y-116207625D02*
X59997619Y-116207625D01*
X59997619Y-116207625D02*
X60045238Y-116231435D01*
X60045238Y-116231435D02*
X60069047Y-116255244D01*
X60069047Y-116255244D02*
X60092857Y-116302863D01*
X60092857Y-116302863D02*
X60092857Y-116421911D01*
X60092857Y-116421911D02*
X60069047Y-116469530D01*
X60069047Y-116469530D02*
X60045238Y-116493340D01*
X60045238Y-116493340D02*
X59997619Y-116517149D01*
X59997619Y-116517149D02*
X59878571Y-116517149D01*
X59878571Y-116517149D02*
X59830952Y-116493340D01*
X59830952Y-116493340D02*
X59807143Y-116469530D01*
D12*
X131637856Y-136285335D02*
X131602142Y-136321050D01*
X131602142Y-136321050D02*
X131494999Y-136356764D01*
X131494999Y-136356764D02*
X131423571Y-136356764D01*
X131423571Y-136356764D02*
X131316428Y-136321050D01*
X131316428Y-136321050D02*
X131244999Y-136249621D01*
X131244999Y-136249621D02*
X131209285Y-136178192D01*
X131209285Y-136178192D02*
X131173571Y-136035335D01*
X131173571Y-136035335D02*
X131173571Y-135928192D01*
X131173571Y-135928192D02*
X131209285Y-135785335D01*
X131209285Y-135785335D02*
X131244999Y-135713907D01*
X131244999Y-135713907D02*
X131316428Y-135642478D01*
X131316428Y-135642478D02*
X131423571Y-135606764D01*
X131423571Y-135606764D02*
X131494999Y-135606764D01*
X131494999Y-135606764D02*
X131602142Y-135642478D01*
X131602142Y-135642478D02*
X131637856Y-135678192D01*
X132280714Y-135856764D02*
X132280714Y-136356764D01*
X132102142Y-135571050D02*
X131923571Y-136106764D01*
X131923571Y-136106764D02*
X132387856Y-136106764D01*
X132602142Y-135606764D02*
X133102142Y-135606764D01*
X133102142Y-135606764D02*
X132780714Y-136356764D01*
X120991428Y-131206764D02*
X120991428Y-131813907D01*
X120991428Y-131813907D02*
X121027142Y-131885335D01*
X121027142Y-131885335D02*
X121062857Y-131921050D01*
X121062857Y-131921050D02*
X121134285Y-131956764D01*
X121134285Y-131956764D02*
X121277142Y-131956764D01*
X121277142Y-131956764D02*
X121348571Y-131921050D01*
X121348571Y-131921050D02*
X121384285Y-131885335D01*
X121384285Y-131885335D02*
X121419999Y-131813907D01*
X121419999Y-131813907D02*
X121419999Y-131206764D01*
X122098571Y-131456764D02*
X122098571Y-131956764D01*
X121919999Y-131171050D02*
X121741428Y-131706764D01*
X121741428Y-131706764D02*
X122205713Y-131706764D01*
X122812857Y-131206764D02*
X122669999Y-131206764D01*
X122669999Y-131206764D02*
X122598571Y-131242478D01*
X122598571Y-131242478D02*
X122562857Y-131278192D01*
X122562857Y-131278192D02*
X122491428Y-131385335D01*
X122491428Y-131385335D02*
X122455714Y-131528192D01*
X122455714Y-131528192D02*
X122455714Y-131813907D01*
X122455714Y-131813907D02*
X122491428Y-131885335D01*
X122491428Y-131885335D02*
X122527142Y-131921050D01*
X122527142Y-131921050D02*
X122598571Y-131956764D01*
X122598571Y-131956764D02*
X122741428Y-131956764D01*
X122741428Y-131956764D02*
X122812857Y-131921050D01*
X122812857Y-131921050D02*
X122848571Y-131885335D01*
X122848571Y-131885335D02*
X122884285Y-131813907D01*
X122884285Y-131813907D02*
X122884285Y-131635335D01*
X122884285Y-131635335D02*
X122848571Y-131563907D01*
X122848571Y-131563907D02*
X122812857Y-131528192D01*
X122812857Y-131528192D02*
X122741428Y-131492478D01*
X122741428Y-131492478D02*
X122598571Y-131492478D01*
X122598571Y-131492478D02*
X122527142Y-131528192D01*
X122527142Y-131528192D02*
X122491428Y-131563907D01*
X122491428Y-131563907D02*
X122455714Y-131635335D01*
X60896428Y-122886764D02*
X60896428Y-123493907D01*
X60896428Y-123493907D02*
X60932142Y-123565335D01*
X60932142Y-123565335D02*
X60967857Y-123601050D01*
X60967857Y-123601050D02*
X61039285Y-123636764D01*
X61039285Y-123636764D02*
X61182142Y-123636764D01*
X61182142Y-123636764D02*
X61253571Y-123601050D01*
X61253571Y-123601050D02*
X61289285Y-123565335D01*
X61289285Y-123565335D02*
X61324999Y-123493907D01*
X61324999Y-123493907D02*
X61324999Y-122886764D01*
X62074999Y-123636764D02*
X61646428Y-123636764D01*
X61860713Y-123636764D02*
X61860713Y-122886764D01*
X61860713Y-122886764D02*
X61789285Y-122993907D01*
X61789285Y-122993907D02*
X61717856Y-123065335D01*
X61717856Y-123065335D02*
X61646428Y-123101050D01*
X62717857Y-123136764D02*
X62717857Y-123636764D01*
X62539285Y-122851050D02*
X62360714Y-123386764D01*
X62360714Y-123386764D02*
X62824999Y-123386764D01*
X126537856Y-127960335D02*
X126502142Y-127996050D01*
X126502142Y-127996050D02*
X126394999Y-128031764D01*
X126394999Y-128031764D02*
X126323571Y-128031764D01*
X126323571Y-128031764D02*
X126216428Y-127996050D01*
X126216428Y-127996050D02*
X126144999Y-127924621D01*
X126144999Y-127924621D02*
X126109285Y-127853192D01*
X126109285Y-127853192D02*
X126073571Y-127710335D01*
X126073571Y-127710335D02*
X126073571Y-127603192D01*
X126073571Y-127603192D02*
X126109285Y-127460335D01*
X126109285Y-127460335D02*
X126144999Y-127388907D01*
X126144999Y-127388907D02*
X126216428Y-127317478D01*
X126216428Y-127317478D02*
X126323571Y-127281764D01*
X126323571Y-127281764D02*
X126394999Y-127281764D01*
X126394999Y-127281764D02*
X126502142Y-127317478D01*
X126502142Y-127317478D02*
X126537856Y-127353192D01*
X126823571Y-127353192D02*
X126859285Y-127317478D01*
X126859285Y-127317478D02*
X126930714Y-127281764D01*
X126930714Y-127281764D02*
X127109285Y-127281764D01*
X127109285Y-127281764D02*
X127180714Y-127317478D01*
X127180714Y-127317478D02*
X127216428Y-127353192D01*
X127216428Y-127353192D02*
X127252142Y-127424621D01*
X127252142Y-127424621D02*
X127252142Y-127496050D01*
X127252142Y-127496050D02*
X127216428Y-127603192D01*
X127216428Y-127603192D02*
X126787856Y-128031764D01*
X126787856Y-128031764D02*
X127252142Y-128031764D01*
X127895000Y-127281764D02*
X127752142Y-127281764D01*
X127752142Y-127281764D02*
X127680714Y-127317478D01*
X127680714Y-127317478D02*
X127645000Y-127353192D01*
X127645000Y-127353192D02*
X127573571Y-127460335D01*
X127573571Y-127460335D02*
X127537857Y-127603192D01*
X127537857Y-127603192D02*
X127537857Y-127888907D01*
X127537857Y-127888907D02*
X127573571Y-127960335D01*
X127573571Y-127960335D02*
X127609285Y-127996050D01*
X127609285Y-127996050D02*
X127680714Y-128031764D01*
X127680714Y-128031764D02*
X127823571Y-128031764D01*
X127823571Y-128031764D02*
X127895000Y-127996050D01*
X127895000Y-127996050D02*
X127930714Y-127960335D01*
X127930714Y-127960335D02*
X127966428Y-127888907D01*
X127966428Y-127888907D02*
X127966428Y-127710335D01*
X127966428Y-127710335D02*
X127930714Y-127638907D01*
X127930714Y-127638907D02*
X127895000Y-127603192D01*
X127895000Y-127603192D02*
X127823571Y-127567478D01*
X127823571Y-127567478D02*
X127680714Y-127567478D01*
X127680714Y-127567478D02*
X127609285Y-127603192D01*
X127609285Y-127603192D02*
X127573571Y-127638907D01*
X127573571Y-127638907D02*
X127537857Y-127710335D01*
X125941428Y-131206764D02*
X125941428Y-131813907D01*
X125941428Y-131813907D02*
X125977142Y-131885335D01*
X125977142Y-131885335D02*
X126012857Y-131921050D01*
X126012857Y-131921050D02*
X126084285Y-131956764D01*
X126084285Y-131956764D02*
X126227142Y-131956764D01*
X126227142Y-131956764D02*
X126298571Y-131921050D01*
X126298571Y-131921050D02*
X126334285Y-131885335D01*
X126334285Y-131885335D02*
X126369999Y-131813907D01*
X126369999Y-131813907D02*
X126369999Y-131206764D01*
X127048571Y-131456764D02*
X127048571Y-131956764D01*
X126869999Y-131171050D02*
X126691428Y-131706764D01*
X126691428Y-131706764D02*
X127155713Y-131706764D01*
X127369999Y-131206764D02*
X127869999Y-131206764D01*
X127869999Y-131206764D02*
X127548571Y-131956764D01*
X71542856Y-127965335D02*
X71507142Y-128001050D01*
X71507142Y-128001050D02*
X71399999Y-128036764D01*
X71399999Y-128036764D02*
X71328571Y-128036764D01*
X71328571Y-128036764D02*
X71221428Y-128001050D01*
X71221428Y-128001050D02*
X71149999Y-127929621D01*
X71149999Y-127929621D02*
X71114285Y-127858192D01*
X71114285Y-127858192D02*
X71078571Y-127715335D01*
X71078571Y-127715335D02*
X71078571Y-127608192D01*
X71078571Y-127608192D02*
X71114285Y-127465335D01*
X71114285Y-127465335D02*
X71149999Y-127393907D01*
X71149999Y-127393907D02*
X71221428Y-127322478D01*
X71221428Y-127322478D02*
X71328571Y-127286764D01*
X71328571Y-127286764D02*
X71399999Y-127286764D01*
X71399999Y-127286764D02*
X71507142Y-127322478D01*
X71507142Y-127322478D02*
X71542856Y-127358192D01*
X72257142Y-128036764D02*
X71828571Y-128036764D01*
X72042856Y-128036764D02*
X72042856Y-127286764D01*
X72042856Y-127286764D02*
X71971428Y-127393907D01*
X71971428Y-127393907D02*
X71899999Y-127465335D01*
X71899999Y-127465335D02*
X71828571Y-127501050D01*
X72935714Y-127286764D02*
X72578571Y-127286764D01*
X72578571Y-127286764D02*
X72542857Y-127643907D01*
X72542857Y-127643907D02*
X72578571Y-127608192D01*
X72578571Y-127608192D02*
X72650000Y-127572478D01*
X72650000Y-127572478D02*
X72828571Y-127572478D01*
X72828571Y-127572478D02*
X72900000Y-127608192D01*
X72900000Y-127608192D02*
X72935714Y-127643907D01*
X72935714Y-127643907D02*
X72971428Y-127715335D01*
X72971428Y-127715335D02*
X72971428Y-127893907D01*
X72971428Y-127893907D02*
X72935714Y-127965335D01*
X72935714Y-127965335D02*
X72900000Y-128001050D01*
X72900000Y-128001050D02*
X72828571Y-128036764D01*
X72828571Y-128036764D02*
X72650000Y-128036764D01*
X72650000Y-128036764D02*
X72578571Y-128001050D01*
X72578571Y-128001050D02*
X72542857Y-127965335D01*
X60891428Y-131206764D02*
X60891428Y-131813907D01*
X60891428Y-131813907D02*
X60927142Y-131885335D01*
X60927142Y-131885335D02*
X60962857Y-131921050D01*
X60962857Y-131921050D02*
X61034285Y-131956764D01*
X61034285Y-131956764D02*
X61177142Y-131956764D01*
X61177142Y-131956764D02*
X61248571Y-131921050D01*
X61248571Y-131921050D02*
X61284285Y-131885335D01*
X61284285Y-131885335D02*
X61319999Y-131813907D01*
X61319999Y-131813907D02*
X61319999Y-131206764D01*
X61605713Y-131206764D02*
X62069999Y-131206764D01*
X62069999Y-131206764D02*
X61819999Y-131492478D01*
X61819999Y-131492478D02*
X61927142Y-131492478D01*
X61927142Y-131492478D02*
X61998571Y-131528192D01*
X61998571Y-131528192D02*
X62034285Y-131563907D01*
X62034285Y-131563907D02*
X62069999Y-131635335D01*
X62069999Y-131635335D02*
X62069999Y-131813907D01*
X62069999Y-131813907D02*
X62034285Y-131885335D01*
X62034285Y-131885335D02*
X61998571Y-131921050D01*
X61998571Y-131921050D02*
X61927142Y-131956764D01*
X61927142Y-131956764D02*
X61712856Y-131956764D01*
X61712856Y-131956764D02*
X61641428Y-131921050D01*
X61641428Y-131921050D02*
X61605713Y-131885335D01*
X62712857Y-131456764D02*
X62712857Y-131956764D01*
X62534285Y-131171050D02*
X62355714Y-131706764D01*
X62355714Y-131706764D02*
X62819999Y-131706764D01*
X50891428Y-131206764D02*
X50891428Y-131813907D01*
X50891428Y-131813907D02*
X50927142Y-131885335D01*
X50927142Y-131885335D02*
X50962857Y-131921050D01*
X50962857Y-131921050D02*
X51034285Y-131956764D01*
X51034285Y-131956764D02*
X51177142Y-131956764D01*
X51177142Y-131956764D02*
X51248571Y-131921050D01*
X51248571Y-131921050D02*
X51284285Y-131885335D01*
X51284285Y-131885335D02*
X51319999Y-131813907D01*
X51319999Y-131813907D02*
X51319999Y-131206764D01*
X51605713Y-131206764D02*
X52069999Y-131206764D01*
X52069999Y-131206764D02*
X51819999Y-131492478D01*
X51819999Y-131492478D02*
X51927142Y-131492478D01*
X51927142Y-131492478D02*
X51998571Y-131528192D01*
X51998571Y-131528192D02*
X52034285Y-131563907D01*
X52034285Y-131563907D02*
X52069999Y-131635335D01*
X52069999Y-131635335D02*
X52069999Y-131813907D01*
X52069999Y-131813907D02*
X52034285Y-131885335D01*
X52034285Y-131885335D02*
X51998571Y-131921050D01*
X51998571Y-131921050D02*
X51927142Y-131956764D01*
X51927142Y-131956764D02*
X51712856Y-131956764D01*
X51712856Y-131956764D02*
X51641428Y-131921050D01*
X51641428Y-131921050D02*
X51605713Y-131885335D01*
X52355714Y-131278192D02*
X52391428Y-131242478D01*
X52391428Y-131242478D02*
X52462857Y-131206764D01*
X52462857Y-131206764D02*
X52641428Y-131206764D01*
X52641428Y-131206764D02*
X52712857Y-131242478D01*
X52712857Y-131242478D02*
X52748571Y-131278192D01*
X52748571Y-131278192D02*
X52784285Y-131349621D01*
X52784285Y-131349621D02*
X52784285Y-131421050D01*
X52784285Y-131421050D02*
X52748571Y-131528192D01*
X52748571Y-131528192D02*
X52319999Y-131956764D01*
X52319999Y-131956764D02*
X52784285Y-131956764D01*
X135891428Y-122881764D02*
X135891428Y-123488907D01*
X135891428Y-123488907D02*
X135927142Y-123560335D01*
X135927142Y-123560335D02*
X135962857Y-123596050D01*
X135962857Y-123596050D02*
X136034285Y-123631764D01*
X136034285Y-123631764D02*
X136177142Y-123631764D01*
X136177142Y-123631764D02*
X136248571Y-123596050D01*
X136248571Y-123596050D02*
X136284285Y-123560335D01*
X136284285Y-123560335D02*
X136319999Y-123488907D01*
X136319999Y-123488907D02*
X136319999Y-122881764D01*
X136641428Y-122953192D02*
X136677142Y-122917478D01*
X136677142Y-122917478D02*
X136748571Y-122881764D01*
X136748571Y-122881764D02*
X136927142Y-122881764D01*
X136927142Y-122881764D02*
X136998571Y-122917478D01*
X136998571Y-122917478D02*
X137034285Y-122953192D01*
X137034285Y-122953192D02*
X137069999Y-123024621D01*
X137069999Y-123024621D02*
X137069999Y-123096050D01*
X137069999Y-123096050D02*
X137034285Y-123203192D01*
X137034285Y-123203192D02*
X136605713Y-123631764D01*
X136605713Y-123631764D02*
X137069999Y-123631764D01*
X137427142Y-123631764D02*
X137569999Y-123631764D01*
X137569999Y-123631764D02*
X137641428Y-123596050D01*
X137641428Y-123596050D02*
X137677142Y-123560335D01*
X137677142Y-123560335D02*
X137748571Y-123453192D01*
X137748571Y-123453192D02*
X137784285Y-123310335D01*
X137784285Y-123310335D02*
X137784285Y-123024621D01*
X137784285Y-123024621D02*
X137748571Y-122953192D01*
X137748571Y-122953192D02*
X137712857Y-122917478D01*
X137712857Y-122917478D02*
X137641428Y-122881764D01*
X137641428Y-122881764D02*
X137498571Y-122881764D01*
X137498571Y-122881764D02*
X137427142Y-122917478D01*
X137427142Y-122917478D02*
X137391428Y-122953192D01*
X137391428Y-122953192D02*
X137355714Y-123024621D01*
X137355714Y-123024621D02*
X137355714Y-123203192D01*
X137355714Y-123203192D02*
X137391428Y-123274621D01*
X137391428Y-123274621D02*
X137427142Y-123310335D01*
X137427142Y-123310335D02*
X137498571Y-123346050D01*
X137498571Y-123346050D02*
X137641428Y-123346050D01*
X137641428Y-123346050D02*
X137712857Y-123310335D01*
X137712857Y-123310335D02*
X137748571Y-123274621D01*
X137748571Y-123274621D02*
X137784285Y-123203192D01*
X145891428Y-122881764D02*
X145891428Y-123488907D01*
X145891428Y-123488907D02*
X145927142Y-123560335D01*
X145927142Y-123560335D02*
X145962857Y-123596050D01*
X145962857Y-123596050D02*
X146034285Y-123631764D01*
X146034285Y-123631764D02*
X146177142Y-123631764D01*
X146177142Y-123631764D02*
X146248571Y-123596050D01*
X146248571Y-123596050D02*
X146284285Y-123560335D01*
X146284285Y-123560335D02*
X146319999Y-123488907D01*
X146319999Y-123488907D02*
X146319999Y-122881764D01*
X146605713Y-122881764D02*
X147069999Y-122881764D01*
X147069999Y-122881764D02*
X146819999Y-123167478D01*
X146819999Y-123167478D02*
X146927142Y-123167478D01*
X146927142Y-123167478D02*
X146998571Y-123203192D01*
X146998571Y-123203192D02*
X147034285Y-123238907D01*
X147034285Y-123238907D02*
X147069999Y-123310335D01*
X147069999Y-123310335D02*
X147069999Y-123488907D01*
X147069999Y-123488907D02*
X147034285Y-123560335D01*
X147034285Y-123560335D02*
X146998571Y-123596050D01*
X146998571Y-123596050D02*
X146927142Y-123631764D01*
X146927142Y-123631764D02*
X146712856Y-123631764D01*
X146712856Y-123631764D02*
X146641428Y-123596050D01*
X146641428Y-123596050D02*
X146605713Y-123560335D01*
X147784285Y-123631764D02*
X147355714Y-123631764D01*
X147569999Y-123631764D02*
X147569999Y-122881764D01*
X147569999Y-122881764D02*
X147498571Y-122988907D01*
X147498571Y-122988907D02*
X147427142Y-123060335D01*
X147427142Y-123060335D02*
X147355714Y-123096050D01*
D14*
X55676666Y-117569530D02*
X55652857Y-117593340D01*
X55652857Y-117593340D02*
X55581428Y-117617149D01*
X55581428Y-117617149D02*
X55533809Y-117617149D01*
X55533809Y-117617149D02*
X55462381Y-117593340D01*
X55462381Y-117593340D02*
X55414762Y-117545720D01*
X55414762Y-117545720D02*
X55390952Y-117498101D01*
X55390952Y-117498101D02*
X55367143Y-117402863D01*
X55367143Y-117402863D02*
X55367143Y-117331435D01*
X55367143Y-117331435D02*
X55390952Y-117236197D01*
X55390952Y-117236197D02*
X55414762Y-117188578D01*
X55414762Y-117188578D02*
X55462381Y-117140959D01*
X55462381Y-117140959D02*
X55533809Y-117117149D01*
X55533809Y-117117149D02*
X55581428Y-117117149D01*
X55581428Y-117117149D02*
X55652857Y-117140959D01*
X55652857Y-117140959D02*
X55676666Y-117164768D01*
X55962381Y-117331435D02*
X55914762Y-117307625D01*
X55914762Y-117307625D02*
X55890952Y-117283816D01*
X55890952Y-117283816D02*
X55867143Y-117236197D01*
X55867143Y-117236197D02*
X55867143Y-117212387D01*
X55867143Y-117212387D02*
X55890952Y-117164768D01*
X55890952Y-117164768D02*
X55914762Y-117140959D01*
X55914762Y-117140959D02*
X55962381Y-117117149D01*
X55962381Y-117117149D02*
X56057619Y-117117149D01*
X56057619Y-117117149D02*
X56105238Y-117140959D01*
X56105238Y-117140959D02*
X56129047Y-117164768D01*
X56129047Y-117164768D02*
X56152857Y-117212387D01*
X56152857Y-117212387D02*
X56152857Y-117236197D01*
X56152857Y-117236197D02*
X56129047Y-117283816D01*
X56129047Y-117283816D02*
X56105238Y-117307625D01*
X56105238Y-117307625D02*
X56057619Y-117331435D01*
X56057619Y-117331435D02*
X55962381Y-117331435D01*
X55962381Y-117331435D02*
X55914762Y-117355244D01*
X55914762Y-117355244D02*
X55890952Y-117379054D01*
X55890952Y-117379054D02*
X55867143Y-117426673D01*
X55867143Y-117426673D02*
X55867143Y-117521911D01*
X55867143Y-117521911D02*
X55890952Y-117569530D01*
X55890952Y-117569530D02*
X55914762Y-117593340D01*
X55914762Y-117593340D02*
X55962381Y-117617149D01*
X55962381Y-117617149D02*
X56057619Y-117617149D01*
X56057619Y-117617149D02*
X56105238Y-117593340D01*
X56105238Y-117593340D02*
X56129047Y-117569530D01*
X56129047Y-117569530D02*
X56152857Y-117521911D01*
X56152857Y-117521911D02*
X56152857Y-117426673D01*
X56152857Y-117426673D02*
X56129047Y-117379054D01*
X56129047Y-117379054D02*
X56105238Y-117355244D01*
X56105238Y-117355244D02*
X56057619Y-117331435D01*
D13*
X50913095Y-97504819D02*
X50913095Y-98314342D01*
X50913095Y-98314342D02*
X50960714Y-98409580D01*
X50960714Y-98409580D02*
X51008333Y-98457200D01*
X51008333Y-98457200D02*
X51103571Y-98504819D01*
X51103571Y-98504819D02*
X51294047Y-98504819D01*
X51294047Y-98504819D02*
X51389285Y-98457200D01*
X51389285Y-98457200D02*
X51436904Y-98409580D01*
X51436904Y-98409580D02*
X51484523Y-98314342D01*
X51484523Y-98314342D02*
X51484523Y-97504819D01*
X52389285Y-97838152D02*
X52389285Y-98504819D01*
X52151190Y-97457200D02*
X51913095Y-98171485D01*
X51913095Y-98171485D02*
X52532142Y-98171485D01*
D12*
X135891428Y-131206764D02*
X135891428Y-131813907D01*
X135891428Y-131813907D02*
X135927142Y-131885335D01*
X135927142Y-131885335D02*
X135962857Y-131921050D01*
X135962857Y-131921050D02*
X136034285Y-131956764D01*
X136034285Y-131956764D02*
X136177142Y-131956764D01*
X136177142Y-131956764D02*
X136248571Y-131921050D01*
X136248571Y-131921050D02*
X136284285Y-131885335D01*
X136284285Y-131885335D02*
X136319999Y-131813907D01*
X136319999Y-131813907D02*
X136319999Y-131206764D01*
X136998571Y-131456764D02*
X136998571Y-131956764D01*
X136819999Y-131171050D02*
X136641428Y-131706764D01*
X136641428Y-131706764D02*
X137105713Y-131706764D01*
X137427142Y-131956764D02*
X137569999Y-131956764D01*
X137569999Y-131956764D02*
X137641428Y-131921050D01*
X137641428Y-131921050D02*
X137677142Y-131885335D01*
X137677142Y-131885335D02*
X137748571Y-131778192D01*
X137748571Y-131778192D02*
X137784285Y-131635335D01*
X137784285Y-131635335D02*
X137784285Y-131349621D01*
X137784285Y-131349621D02*
X137748571Y-131278192D01*
X137748571Y-131278192D02*
X137712857Y-131242478D01*
X137712857Y-131242478D02*
X137641428Y-131206764D01*
X137641428Y-131206764D02*
X137498571Y-131206764D01*
X137498571Y-131206764D02*
X137427142Y-131242478D01*
X137427142Y-131242478D02*
X137391428Y-131278192D01*
X137391428Y-131278192D02*
X137355714Y-131349621D01*
X137355714Y-131349621D02*
X137355714Y-131528192D01*
X137355714Y-131528192D02*
X137391428Y-131599621D01*
X137391428Y-131599621D02*
X137427142Y-131635335D01*
X137427142Y-131635335D02*
X137498571Y-131671050D01*
X137498571Y-131671050D02*
X137641428Y-131671050D01*
X137641428Y-131671050D02*
X137712857Y-131635335D01*
X137712857Y-131635335D02*
X137748571Y-131599621D01*
X137748571Y-131599621D02*
X137784285Y-131528192D01*
X106537856Y-136385335D02*
X106502142Y-136421050D01*
X106502142Y-136421050D02*
X106394999Y-136456764D01*
X106394999Y-136456764D02*
X106323571Y-136456764D01*
X106323571Y-136456764D02*
X106216428Y-136421050D01*
X106216428Y-136421050D02*
X106144999Y-136349621D01*
X106144999Y-136349621D02*
X106109285Y-136278192D01*
X106109285Y-136278192D02*
X106073571Y-136135335D01*
X106073571Y-136135335D02*
X106073571Y-136028192D01*
X106073571Y-136028192D02*
X106109285Y-135885335D01*
X106109285Y-135885335D02*
X106144999Y-135813907D01*
X106144999Y-135813907D02*
X106216428Y-135742478D01*
X106216428Y-135742478D02*
X106323571Y-135706764D01*
X106323571Y-135706764D02*
X106394999Y-135706764D01*
X106394999Y-135706764D02*
X106502142Y-135742478D01*
X106502142Y-135742478D02*
X106537856Y-135778192D01*
X107180714Y-135956764D02*
X107180714Y-136456764D01*
X107002142Y-135671050D02*
X106823571Y-136206764D01*
X106823571Y-136206764D02*
X107287856Y-136206764D01*
X107537857Y-135778192D02*
X107573571Y-135742478D01*
X107573571Y-135742478D02*
X107645000Y-135706764D01*
X107645000Y-135706764D02*
X107823571Y-135706764D01*
X107823571Y-135706764D02*
X107895000Y-135742478D01*
X107895000Y-135742478D02*
X107930714Y-135778192D01*
X107930714Y-135778192D02*
X107966428Y-135849621D01*
X107966428Y-135849621D02*
X107966428Y-135921050D01*
X107966428Y-135921050D02*
X107930714Y-136028192D01*
X107930714Y-136028192D02*
X107502142Y-136456764D01*
X107502142Y-136456764D02*
X107966428Y-136456764D01*
X55891428Y-131206764D02*
X55891428Y-131813907D01*
X55891428Y-131813907D02*
X55927142Y-131885335D01*
X55927142Y-131885335D02*
X55962857Y-131921050D01*
X55962857Y-131921050D02*
X56034285Y-131956764D01*
X56034285Y-131956764D02*
X56177142Y-131956764D01*
X56177142Y-131956764D02*
X56248571Y-131921050D01*
X56248571Y-131921050D02*
X56284285Y-131885335D01*
X56284285Y-131885335D02*
X56319999Y-131813907D01*
X56319999Y-131813907D02*
X56319999Y-131206764D01*
X56605713Y-131206764D02*
X57069999Y-131206764D01*
X57069999Y-131206764D02*
X56819999Y-131492478D01*
X56819999Y-131492478D02*
X56927142Y-131492478D01*
X56927142Y-131492478D02*
X56998571Y-131528192D01*
X56998571Y-131528192D02*
X57034285Y-131563907D01*
X57034285Y-131563907D02*
X57069999Y-131635335D01*
X57069999Y-131635335D02*
X57069999Y-131813907D01*
X57069999Y-131813907D02*
X57034285Y-131885335D01*
X57034285Y-131885335D02*
X56998571Y-131921050D01*
X56998571Y-131921050D02*
X56927142Y-131956764D01*
X56927142Y-131956764D02*
X56712856Y-131956764D01*
X56712856Y-131956764D02*
X56641428Y-131921050D01*
X56641428Y-131921050D02*
X56605713Y-131885335D01*
X57319999Y-131206764D02*
X57784285Y-131206764D01*
X57784285Y-131206764D02*
X57534285Y-131492478D01*
X57534285Y-131492478D02*
X57641428Y-131492478D01*
X57641428Y-131492478D02*
X57712857Y-131528192D01*
X57712857Y-131528192D02*
X57748571Y-131563907D01*
X57748571Y-131563907D02*
X57784285Y-131635335D01*
X57784285Y-131635335D02*
X57784285Y-131813907D01*
X57784285Y-131813907D02*
X57748571Y-131885335D01*
X57748571Y-131885335D02*
X57712857Y-131921050D01*
X57712857Y-131921050D02*
X57641428Y-131956764D01*
X57641428Y-131956764D02*
X57427142Y-131956764D01*
X57427142Y-131956764D02*
X57355714Y-131921050D01*
X57355714Y-131921050D02*
X57319999Y-131885335D01*
X130941428Y-131206764D02*
X130941428Y-131813907D01*
X130941428Y-131813907D02*
X130977142Y-131885335D01*
X130977142Y-131885335D02*
X131012857Y-131921050D01*
X131012857Y-131921050D02*
X131084285Y-131956764D01*
X131084285Y-131956764D02*
X131227142Y-131956764D01*
X131227142Y-131956764D02*
X131298571Y-131921050D01*
X131298571Y-131921050D02*
X131334285Y-131885335D01*
X131334285Y-131885335D02*
X131369999Y-131813907D01*
X131369999Y-131813907D02*
X131369999Y-131206764D01*
X132048571Y-131456764D02*
X132048571Y-131956764D01*
X131869999Y-131171050D02*
X131691428Y-131706764D01*
X131691428Y-131706764D02*
X132155713Y-131706764D01*
X132548571Y-131528192D02*
X132477142Y-131492478D01*
X132477142Y-131492478D02*
X132441428Y-131456764D01*
X132441428Y-131456764D02*
X132405714Y-131385335D01*
X132405714Y-131385335D02*
X132405714Y-131349621D01*
X132405714Y-131349621D02*
X132441428Y-131278192D01*
X132441428Y-131278192D02*
X132477142Y-131242478D01*
X132477142Y-131242478D02*
X132548571Y-131206764D01*
X132548571Y-131206764D02*
X132691428Y-131206764D01*
X132691428Y-131206764D02*
X132762857Y-131242478D01*
X132762857Y-131242478D02*
X132798571Y-131278192D01*
X132798571Y-131278192D02*
X132834285Y-131349621D01*
X132834285Y-131349621D02*
X132834285Y-131385335D01*
X132834285Y-131385335D02*
X132798571Y-131456764D01*
X132798571Y-131456764D02*
X132762857Y-131492478D01*
X132762857Y-131492478D02*
X132691428Y-131528192D01*
X132691428Y-131528192D02*
X132548571Y-131528192D01*
X132548571Y-131528192D02*
X132477142Y-131563907D01*
X132477142Y-131563907D02*
X132441428Y-131599621D01*
X132441428Y-131599621D02*
X132405714Y-131671050D01*
X132405714Y-131671050D02*
X132405714Y-131813907D01*
X132405714Y-131813907D02*
X132441428Y-131885335D01*
X132441428Y-131885335D02*
X132477142Y-131921050D01*
X132477142Y-131921050D02*
X132548571Y-131956764D01*
X132548571Y-131956764D02*
X132691428Y-131956764D01*
X132691428Y-131956764D02*
X132762857Y-131921050D01*
X132762857Y-131921050D02*
X132798571Y-131885335D01*
X132798571Y-131885335D02*
X132834285Y-131813907D01*
X132834285Y-131813907D02*
X132834285Y-131671050D01*
X132834285Y-131671050D02*
X132798571Y-131599621D01*
X132798571Y-131599621D02*
X132762857Y-131563907D01*
X132762857Y-131563907D02*
X132691428Y-131528192D01*
X131637856Y-127960335D02*
X131602142Y-127996050D01*
X131602142Y-127996050D02*
X131494999Y-128031764D01*
X131494999Y-128031764D02*
X131423571Y-128031764D01*
X131423571Y-128031764D02*
X131316428Y-127996050D01*
X131316428Y-127996050D02*
X131244999Y-127924621D01*
X131244999Y-127924621D02*
X131209285Y-127853192D01*
X131209285Y-127853192D02*
X131173571Y-127710335D01*
X131173571Y-127710335D02*
X131173571Y-127603192D01*
X131173571Y-127603192D02*
X131209285Y-127460335D01*
X131209285Y-127460335D02*
X131244999Y-127388907D01*
X131244999Y-127388907D02*
X131316428Y-127317478D01*
X131316428Y-127317478D02*
X131423571Y-127281764D01*
X131423571Y-127281764D02*
X131494999Y-127281764D01*
X131494999Y-127281764D02*
X131602142Y-127317478D01*
X131602142Y-127317478D02*
X131637856Y-127353192D01*
X131923571Y-127353192D02*
X131959285Y-127317478D01*
X131959285Y-127317478D02*
X132030714Y-127281764D01*
X132030714Y-127281764D02*
X132209285Y-127281764D01*
X132209285Y-127281764D02*
X132280714Y-127317478D01*
X132280714Y-127317478D02*
X132316428Y-127353192D01*
X132316428Y-127353192D02*
X132352142Y-127424621D01*
X132352142Y-127424621D02*
X132352142Y-127496050D01*
X132352142Y-127496050D02*
X132316428Y-127603192D01*
X132316428Y-127603192D02*
X131887856Y-128031764D01*
X131887856Y-128031764D02*
X132352142Y-128031764D01*
X132602142Y-127281764D02*
X133102142Y-127281764D01*
X133102142Y-127281764D02*
X132780714Y-128031764D01*
X105891428Y-122881764D02*
X105891428Y-123488907D01*
X105891428Y-123488907D02*
X105927142Y-123560335D01*
X105927142Y-123560335D02*
X105962857Y-123596050D01*
X105962857Y-123596050D02*
X106034285Y-123631764D01*
X106034285Y-123631764D02*
X106177142Y-123631764D01*
X106177142Y-123631764D02*
X106248571Y-123596050D01*
X106248571Y-123596050D02*
X106284285Y-123560335D01*
X106284285Y-123560335D02*
X106319999Y-123488907D01*
X106319999Y-123488907D02*
X106319999Y-122881764D01*
X106641428Y-122953192D02*
X106677142Y-122917478D01*
X106677142Y-122917478D02*
X106748571Y-122881764D01*
X106748571Y-122881764D02*
X106927142Y-122881764D01*
X106927142Y-122881764D02*
X106998571Y-122917478D01*
X106998571Y-122917478D02*
X107034285Y-122953192D01*
X107034285Y-122953192D02*
X107069999Y-123024621D01*
X107069999Y-123024621D02*
X107069999Y-123096050D01*
X107069999Y-123096050D02*
X107034285Y-123203192D01*
X107034285Y-123203192D02*
X106605713Y-123631764D01*
X106605713Y-123631764D02*
X107069999Y-123631764D01*
X107319999Y-122881764D02*
X107784285Y-122881764D01*
X107784285Y-122881764D02*
X107534285Y-123167478D01*
X107534285Y-123167478D02*
X107641428Y-123167478D01*
X107641428Y-123167478D02*
X107712857Y-123203192D01*
X107712857Y-123203192D02*
X107748571Y-123238907D01*
X107748571Y-123238907D02*
X107784285Y-123310335D01*
X107784285Y-123310335D02*
X107784285Y-123488907D01*
X107784285Y-123488907D02*
X107748571Y-123560335D01*
X107748571Y-123560335D02*
X107712857Y-123596050D01*
X107712857Y-123596050D02*
X107641428Y-123631764D01*
X107641428Y-123631764D02*
X107427142Y-123631764D01*
X107427142Y-123631764D02*
X107355714Y-123596050D01*
X107355714Y-123596050D02*
X107319999Y-123560335D01*
X136537856Y-127960335D02*
X136502142Y-127996050D01*
X136502142Y-127996050D02*
X136394999Y-128031764D01*
X136394999Y-128031764D02*
X136323571Y-128031764D01*
X136323571Y-128031764D02*
X136216428Y-127996050D01*
X136216428Y-127996050D02*
X136144999Y-127924621D01*
X136144999Y-127924621D02*
X136109285Y-127853192D01*
X136109285Y-127853192D02*
X136073571Y-127710335D01*
X136073571Y-127710335D02*
X136073571Y-127603192D01*
X136073571Y-127603192D02*
X136109285Y-127460335D01*
X136109285Y-127460335D02*
X136144999Y-127388907D01*
X136144999Y-127388907D02*
X136216428Y-127317478D01*
X136216428Y-127317478D02*
X136323571Y-127281764D01*
X136323571Y-127281764D02*
X136394999Y-127281764D01*
X136394999Y-127281764D02*
X136502142Y-127317478D01*
X136502142Y-127317478D02*
X136537856Y-127353192D01*
X136823571Y-127353192D02*
X136859285Y-127317478D01*
X136859285Y-127317478D02*
X136930714Y-127281764D01*
X136930714Y-127281764D02*
X137109285Y-127281764D01*
X137109285Y-127281764D02*
X137180714Y-127317478D01*
X137180714Y-127317478D02*
X137216428Y-127353192D01*
X137216428Y-127353192D02*
X137252142Y-127424621D01*
X137252142Y-127424621D02*
X137252142Y-127496050D01*
X137252142Y-127496050D02*
X137216428Y-127603192D01*
X137216428Y-127603192D02*
X136787856Y-128031764D01*
X136787856Y-128031764D02*
X137252142Y-128031764D01*
X137680714Y-127603192D02*
X137609285Y-127567478D01*
X137609285Y-127567478D02*
X137573571Y-127531764D01*
X137573571Y-127531764D02*
X137537857Y-127460335D01*
X137537857Y-127460335D02*
X137537857Y-127424621D01*
X137537857Y-127424621D02*
X137573571Y-127353192D01*
X137573571Y-127353192D02*
X137609285Y-127317478D01*
X137609285Y-127317478D02*
X137680714Y-127281764D01*
X137680714Y-127281764D02*
X137823571Y-127281764D01*
X137823571Y-127281764D02*
X137895000Y-127317478D01*
X137895000Y-127317478D02*
X137930714Y-127353192D01*
X137930714Y-127353192D02*
X137966428Y-127424621D01*
X137966428Y-127424621D02*
X137966428Y-127460335D01*
X137966428Y-127460335D02*
X137930714Y-127531764D01*
X137930714Y-127531764D02*
X137895000Y-127567478D01*
X137895000Y-127567478D02*
X137823571Y-127603192D01*
X137823571Y-127603192D02*
X137680714Y-127603192D01*
X137680714Y-127603192D02*
X137609285Y-127638907D01*
X137609285Y-127638907D02*
X137573571Y-127674621D01*
X137573571Y-127674621D02*
X137537857Y-127746050D01*
X137537857Y-127746050D02*
X137537857Y-127888907D01*
X137537857Y-127888907D02*
X137573571Y-127960335D01*
X137573571Y-127960335D02*
X137609285Y-127996050D01*
X137609285Y-127996050D02*
X137680714Y-128031764D01*
X137680714Y-128031764D02*
X137823571Y-128031764D01*
X137823571Y-128031764D02*
X137895000Y-127996050D01*
X137895000Y-127996050D02*
X137930714Y-127960335D01*
X137930714Y-127960335D02*
X137966428Y-127888907D01*
X137966428Y-127888907D02*
X137966428Y-127746050D01*
X137966428Y-127746050D02*
X137930714Y-127674621D01*
X137930714Y-127674621D02*
X137895000Y-127638907D01*
X137895000Y-127638907D02*
X137823571Y-127603192D01*
D14*
X40966666Y-90304530D02*
X40942857Y-90328340D01*
X40942857Y-90328340D02*
X40871428Y-90352149D01*
X40871428Y-90352149D02*
X40823809Y-90352149D01*
X40823809Y-90352149D02*
X40752381Y-90328340D01*
X40752381Y-90328340D02*
X40704762Y-90280720D01*
X40704762Y-90280720D02*
X40680952Y-90233101D01*
X40680952Y-90233101D02*
X40657143Y-90137863D01*
X40657143Y-90137863D02*
X40657143Y-90066435D01*
X40657143Y-90066435D02*
X40680952Y-89971197D01*
X40680952Y-89971197D02*
X40704762Y-89923578D01*
X40704762Y-89923578D02*
X40752381Y-89875959D01*
X40752381Y-89875959D02*
X40823809Y-89852149D01*
X40823809Y-89852149D02*
X40871428Y-89852149D01*
X40871428Y-89852149D02*
X40942857Y-89875959D01*
X40942857Y-89875959D02*
X40966666Y-89899768D01*
X41395238Y-90018816D02*
X41395238Y-90352149D01*
X41276190Y-89828340D02*
X41157143Y-90185482D01*
X41157143Y-90185482D02*
X41466666Y-90185482D01*
D12*
X100891428Y-131206764D02*
X100891428Y-131813907D01*
X100891428Y-131813907D02*
X100927142Y-131885335D01*
X100927142Y-131885335D02*
X100962857Y-131921050D01*
X100962857Y-131921050D02*
X101034285Y-131956764D01*
X101034285Y-131956764D02*
X101177142Y-131956764D01*
X101177142Y-131956764D02*
X101248571Y-131921050D01*
X101248571Y-131921050D02*
X101284285Y-131885335D01*
X101284285Y-131885335D02*
X101319999Y-131813907D01*
X101319999Y-131813907D02*
X101319999Y-131206764D01*
X101998571Y-131456764D02*
X101998571Y-131956764D01*
X101819999Y-131171050D02*
X101641428Y-131706764D01*
X101641428Y-131706764D02*
X102105713Y-131706764D01*
X102355714Y-131278192D02*
X102391428Y-131242478D01*
X102391428Y-131242478D02*
X102462857Y-131206764D01*
X102462857Y-131206764D02*
X102641428Y-131206764D01*
X102641428Y-131206764D02*
X102712857Y-131242478D01*
X102712857Y-131242478D02*
X102748571Y-131278192D01*
X102748571Y-131278192D02*
X102784285Y-131349621D01*
X102784285Y-131349621D02*
X102784285Y-131421050D01*
X102784285Y-131421050D02*
X102748571Y-131528192D01*
X102748571Y-131528192D02*
X102319999Y-131956764D01*
X102319999Y-131956764D02*
X102784285Y-131956764D01*
D14*
X50366666Y-115377149D02*
X50200000Y-115139054D01*
X50080952Y-115377149D02*
X50080952Y-114877149D01*
X50080952Y-114877149D02*
X50271428Y-114877149D01*
X50271428Y-114877149D02*
X50319047Y-114900959D01*
X50319047Y-114900959D02*
X50342857Y-114924768D01*
X50342857Y-114924768D02*
X50366666Y-114972387D01*
X50366666Y-114972387D02*
X50366666Y-115043816D01*
X50366666Y-115043816D02*
X50342857Y-115091435D01*
X50342857Y-115091435D02*
X50319047Y-115115244D01*
X50319047Y-115115244D02*
X50271428Y-115139054D01*
X50271428Y-115139054D02*
X50080952Y-115139054D01*
X50557143Y-114924768D02*
X50580952Y-114900959D01*
X50580952Y-114900959D02*
X50628571Y-114877149D01*
X50628571Y-114877149D02*
X50747619Y-114877149D01*
X50747619Y-114877149D02*
X50795238Y-114900959D01*
X50795238Y-114900959D02*
X50819047Y-114924768D01*
X50819047Y-114924768D02*
X50842857Y-114972387D01*
X50842857Y-114972387D02*
X50842857Y-115020006D01*
X50842857Y-115020006D02*
X50819047Y-115091435D01*
X50819047Y-115091435D02*
X50533333Y-115377149D01*
X50533333Y-115377149D02*
X50842857Y-115377149D01*
D12*
X81637856Y-136285335D02*
X81602142Y-136321050D01*
X81602142Y-136321050D02*
X81494999Y-136356764D01*
X81494999Y-136356764D02*
X81423571Y-136356764D01*
X81423571Y-136356764D02*
X81316428Y-136321050D01*
X81316428Y-136321050D02*
X81244999Y-136249621D01*
X81244999Y-136249621D02*
X81209285Y-136178192D01*
X81209285Y-136178192D02*
X81173571Y-136035335D01*
X81173571Y-136035335D02*
X81173571Y-135928192D01*
X81173571Y-135928192D02*
X81209285Y-135785335D01*
X81209285Y-135785335D02*
X81244999Y-135713907D01*
X81244999Y-135713907D02*
X81316428Y-135642478D01*
X81316428Y-135642478D02*
X81423571Y-135606764D01*
X81423571Y-135606764D02*
X81494999Y-135606764D01*
X81494999Y-135606764D02*
X81602142Y-135642478D01*
X81602142Y-135642478D02*
X81637856Y-135678192D01*
X81887856Y-135606764D02*
X82352142Y-135606764D01*
X82352142Y-135606764D02*
X82102142Y-135892478D01*
X82102142Y-135892478D02*
X82209285Y-135892478D01*
X82209285Y-135892478D02*
X82280714Y-135928192D01*
X82280714Y-135928192D02*
X82316428Y-135963907D01*
X82316428Y-135963907D02*
X82352142Y-136035335D01*
X82352142Y-136035335D02*
X82352142Y-136213907D01*
X82352142Y-136213907D02*
X82316428Y-136285335D01*
X82316428Y-136285335D02*
X82280714Y-136321050D01*
X82280714Y-136321050D02*
X82209285Y-136356764D01*
X82209285Y-136356764D02*
X81994999Y-136356764D01*
X81994999Y-136356764D02*
X81923571Y-136321050D01*
X81923571Y-136321050D02*
X81887856Y-136285335D01*
X82602142Y-135606764D02*
X83102142Y-135606764D01*
X83102142Y-135606764D02*
X82780714Y-136356764D01*
X101637856Y-128060335D02*
X101602142Y-128096050D01*
X101602142Y-128096050D02*
X101494999Y-128131764D01*
X101494999Y-128131764D02*
X101423571Y-128131764D01*
X101423571Y-128131764D02*
X101316428Y-128096050D01*
X101316428Y-128096050D02*
X101244999Y-128024621D01*
X101244999Y-128024621D02*
X101209285Y-127953192D01*
X101209285Y-127953192D02*
X101173571Y-127810335D01*
X101173571Y-127810335D02*
X101173571Y-127703192D01*
X101173571Y-127703192D02*
X101209285Y-127560335D01*
X101209285Y-127560335D02*
X101244999Y-127488907D01*
X101244999Y-127488907D02*
X101316428Y-127417478D01*
X101316428Y-127417478D02*
X101423571Y-127381764D01*
X101423571Y-127381764D02*
X101494999Y-127381764D01*
X101494999Y-127381764D02*
X101602142Y-127417478D01*
X101602142Y-127417478D02*
X101637856Y-127453192D01*
X101923571Y-127453192D02*
X101959285Y-127417478D01*
X101959285Y-127417478D02*
X102030714Y-127381764D01*
X102030714Y-127381764D02*
X102209285Y-127381764D01*
X102209285Y-127381764D02*
X102280714Y-127417478D01*
X102280714Y-127417478D02*
X102316428Y-127453192D01*
X102316428Y-127453192D02*
X102352142Y-127524621D01*
X102352142Y-127524621D02*
X102352142Y-127596050D01*
X102352142Y-127596050D02*
X102316428Y-127703192D01*
X102316428Y-127703192D02*
X101887856Y-128131764D01*
X101887856Y-128131764D02*
X102352142Y-128131764D01*
X103066428Y-128131764D02*
X102637857Y-128131764D01*
X102852142Y-128131764D02*
X102852142Y-127381764D01*
X102852142Y-127381764D02*
X102780714Y-127488907D01*
X102780714Y-127488907D02*
X102709285Y-127560335D01*
X102709285Y-127560335D02*
X102637857Y-127596050D01*
D14*
X55386666Y-106947149D02*
X55220000Y-106709054D01*
X55100952Y-106947149D02*
X55100952Y-106447149D01*
X55100952Y-106447149D02*
X55291428Y-106447149D01*
X55291428Y-106447149D02*
X55339047Y-106470959D01*
X55339047Y-106470959D02*
X55362857Y-106494768D01*
X55362857Y-106494768D02*
X55386666Y-106542387D01*
X55386666Y-106542387D02*
X55386666Y-106613816D01*
X55386666Y-106613816D02*
X55362857Y-106661435D01*
X55362857Y-106661435D02*
X55339047Y-106685244D01*
X55339047Y-106685244D02*
X55291428Y-106709054D01*
X55291428Y-106709054D02*
X55100952Y-106709054D01*
X55815238Y-106447149D02*
X55720000Y-106447149D01*
X55720000Y-106447149D02*
X55672381Y-106470959D01*
X55672381Y-106470959D02*
X55648571Y-106494768D01*
X55648571Y-106494768D02*
X55600952Y-106566197D01*
X55600952Y-106566197D02*
X55577143Y-106661435D01*
X55577143Y-106661435D02*
X55577143Y-106851911D01*
X55577143Y-106851911D02*
X55600952Y-106899530D01*
X55600952Y-106899530D02*
X55624762Y-106923340D01*
X55624762Y-106923340D02*
X55672381Y-106947149D01*
X55672381Y-106947149D02*
X55767619Y-106947149D01*
X55767619Y-106947149D02*
X55815238Y-106923340D01*
X55815238Y-106923340D02*
X55839047Y-106899530D01*
X55839047Y-106899530D02*
X55862857Y-106851911D01*
X55862857Y-106851911D02*
X55862857Y-106732863D01*
X55862857Y-106732863D02*
X55839047Y-106685244D01*
X55839047Y-106685244D02*
X55815238Y-106661435D01*
X55815238Y-106661435D02*
X55767619Y-106637625D01*
X55767619Y-106637625D02*
X55672381Y-106637625D01*
X55672381Y-106637625D02*
X55624762Y-106661435D01*
X55624762Y-106661435D02*
X55600952Y-106685244D01*
X55600952Y-106685244D02*
X55577143Y-106732863D01*
D12*
X66542856Y-127965335D02*
X66507142Y-128001050D01*
X66507142Y-128001050D02*
X66399999Y-128036764D01*
X66399999Y-128036764D02*
X66328571Y-128036764D01*
X66328571Y-128036764D02*
X66221428Y-128001050D01*
X66221428Y-128001050D02*
X66149999Y-127929621D01*
X66149999Y-127929621D02*
X66114285Y-127858192D01*
X66114285Y-127858192D02*
X66078571Y-127715335D01*
X66078571Y-127715335D02*
X66078571Y-127608192D01*
X66078571Y-127608192D02*
X66114285Y-127465335D01*
X66114285Y-127465335D02*
X66149999Y-127393907D01*
X66149999Y-127393907D02*
X66221428Y-127322478D01*
X66221428Y-127322478D02*
X66328571Y-127286764D01*
X66328571Y-127286764D02*
X66399999Y-127286764D01*
X66399999Y-127286764D02*
X66507142Y-127322478D01*
X66507142Y-127322478D02*
X66542856Y-127358192D01*
X67257142Y-128036764D02*
X66828571Y-128036764D01*
X67042856Y-128036764D02*
X67042856Y-127286764D01*
X67042856Y-127286764D02*
X66971428Y-127393907D01*
X66971428Y-127393907D02*
X66899999Y-127465335D01*
X66899999Y-127465335D02*
X66828571Y-127501050D01*
X67900000Y-127536764D02*
X67900000Y-128036764D01*
X67721428Y-127251050D02*
X67542857Y-127786764D01*
X67542857Y-127786764D02*
X68007142Y-127786764D01*
X136537856Y-136285335D02*
X136502142Y-136321050D01*
X136502142Y-136321050D02*
X136394999Y-136356764D01*
X136394999Y-136356764D02*
X136323571Y-136356764D01*
X136323571Y-136356764D02*
X136216428Y-136321050D01*
X136216428Y-136321050D02*
X136144999Y-136249621D01*
X136144999Y-136249621D02*
X136109285Y-136178192D01*
X136109285Y-136178192D02*
X136073571Y-136035335D01*
X136073571Y-136035335D02*
X136073571Y-135928192D01*
X136073571Y-135928192D02*
X136109285Y-135785335D01*
X136109285Y-135785335D02*
X136144999Y-135713907D01*
X136144999Y-135713907D02*
X136216428Y-135642478D01*
X136216428Y-135642478D02*
X136323571Y-135606764D01*
X136323571Y-135606764D02*
X136394999Y-135606764D01*
X136394999Y-135606764D02*
X136502142Y-135642478D01*
X136502142Y-135642478D02*
X136537856Y-135678192D01*
X137180714Y-135856764D02*
X137180714Y-136356764D01*
X137002142Y-135571050D02*
X136823571Y-136106764D01*
X136823571Y-136106764D02*
X137287856Y-136106764D01*
X137680714Y-135928192D02*
X137609285Y-135892478D01*
X137609285Y-135892478D02*
X137573571Y-135856764D01*
X137573571Y-135856764D02*
X137537857Y-135785335D01*
X137537857Y-135785335D02*
X137537857Y-135749621D01*
X137537857Y-135749621D02*
X137573571Y-135678192D01*
X137573571Y-135678192D02*
X137609285Y-135642478D01*
X137609285Y-135642478D02*
X137680714Y-135606764D01*
X137680714Y-135606764D02*
X137823571Y-135606764D01*
X137823571Y-135606764D02*
X137895000Y-135642478D01*
X137895000Y-135642478D02*
X137930714Y-135678192D01*
X137930714Y-135678192D02*
X137966428Y-135749621D01*
X137966428Y-135749621D02*
X137966428Y-135785335D01*
X137966428Y-135785335D02*
X137930714Y-135856764D01*
X137930714Y-135856764D02*
X137895000Y-135892478D01*
X137895000Y-135892478D02*
X137823571Y-135928192D01*
X137823571Y-135928192D02*
X137680714Y-135928192D01*
X137680714Y-135928192D02*
X137609285Y-135963907D01*
X137609285Y-135963907D02*
X137573571Y-135999621D01*
X137573571Y-135999621D02*
X137537857Y-136071050D01*
X137537857Y-136071050D02*
X137537857Y-136213907D01*
X137537857Y-136213907D02*
X137573571Y-136285335D01*
X137573571Y-136285335D02*
X137609285Y-136321050D01*
X137609285Y-136321050D02*
X137680714Y-136356764D01*
X137680714Y-136356764D02*
X137823571Y-136356764D01*
X137823571Y-136356764D02*
X137895000Y-136321050D01*
X137895000Y-136321050D02*
X137930714Y-136285335D01*
X137930714Y-136285335D02*
X137966428Y-136213907D01*
X137966428Y-136213907D02*
X137966428Y-136071050D01*
X137966428Y-136071050D02*
X137930714Y-135999621D01*
X137930714Y-135999621D02*
X137895000Y-135963907D01*
X137895000Y-135963907D02*
X137823571Y-135928192D01*
X120991428Y-122881764D02*
X120991428Y-123488907D01*
X120991428Y-123488907D02*
X121027142Y-123560335D01*
X121027142Y-123560335D02*
X121062857Y-123596050D01*
X121062857Y-123596050D02*
X121134285Y-123631764D01*
X121134285Y-123631764D02*
X121277142Y-123631764D01*
X121277142Y-123631764D02*
X121348571Y-123596050D01*
X121348571Y-123596050D02*
X121384285Y-123560335D01*
X121384285Y-123560335D02*
X121419999Y-123488907D01*
X121419999Y-123488907D02*
X121419999Y-122881764D01*
X121741428Y-122953192D02*
X121777142Y-122917478D01*
X121777142Y-122917478D02*
X121848571Y-122881764D01*
X121848571Y-122881764D02*
X122027142Y-122881764D01*
X122027142Y-122881764D02*
X122098571Y-122917478D01*
X122098571Y-122917478D02*
X122134285Y-122953192D01*
X122134285Y-122953192D02*
X122169999Y-123024621D01*
X122169999Y-123024621D02*
X122169999Y-123096050D01*
X122169999Y-123096050D02*
X122134285Y-123203192D01*
X122134285Y-123203192D02*
X121705713Y-123631764D01*
X121705713Y-123631764D02*
X122169999Y-123631764D01*
X122812857Y-122881764D02*
X122669999Y-122881764D01*
X122669999Y-122881764D02*
X122598571Y-122917478D01*
X122598571Y-122917478D02*
X122562857Y-122953192D01*
X122562857Y-122953192D02*
X122491428Y-123060335D01*
X122491428Y-123060335D02*
X122455714Y-123203192D01*
X122455714Y-123203192D02*
X122455714Y-123488907D01*
X122455714Y-123488907D02*
X122491428Y-123560335D01*
X122491428Y-123560335D02*
X122527142Y-123596050D01*
X122527142Y-123596050D02*
X122598571Y-123631764D01*
X122598571Y-123631764D02*
X122741428Y-123631764D01*
X122741428Y-123631764D02*
X122812857Y-123596050D01*
X122812857Y-123596050D02*
X122848571Y-123560335D01*
X122848571Y-123560335D02*
X122884285Y-123488907D01*
X122884285Y-123488907D02*
X122884285Y-123310335D01*
X122884285Y-123310335D02*
X122848571Y-123238907D01*
X122848571Y-123238907D02*
X122812857Y-123203192D01*
X122812857Y-123203192D02*
X122741428Y-123167478D01*
X122741428Y-123167478D02*
X122598571Y-123167478D01*
X122598571Y-123167478D02*
X122527142Y-123203192D01*
X122527142Y-123203192D02*
X122491428Y-123238907D01*
X122491428Y-123238907D02*
X122455714Y-123310335D01*
D14*
X44789047Y-100077149D02*
X44789047Y-100481911D01*
X44789047Y-100481911D02*
X44812857Y-100529530D01*
X44812857Y-100529530D02*
X44836666Y-100553340D01*
X44836666Y-100553340D02*
X44884285Y-100577149D01*
X44884285Y-100577149D02*
X44979523Y-100577149D01*
X44979523Y-100577149D02*
X45027142Y-100553340D01*
X45027142Y-100553340D02*
X45050952Y-100529530D01*
X45050952Y-100529530D02*
X45074761Y-100481911D01*
X45074761Y-100481911D02*
X45074761Y-100077149D01*
X45527143Y-100077149D02*
X45431905Y-100077149D01*
X45431905Y-100077149D02*
X45384286Y-100100959D01*
X45384286Y-100100959D02*
X45360476Y-100124768D01*
X45360476Y-100124768D02*
X45312857Y-100196197D01*
X45312857Y-100196197D02*
X45289048Y-100291435D01*
X45289048Y-100291435D02*
X45289048Y-100481911D01*
X45289048Y-100481911D02*
X45312857Y-100529530D01*
X45312857Y-100529530D02*
X45336667Y-100553340D01*
X45336667Y-100553340D02*
X45384286Y-100577149D01*
X45384286Y-100577149D02*
X45479524Y-100577149D01*
X45479524Y-100577149D02*
X45527143Y-100553340D01*
X45527143Y-100553340D02*
X45550952Y-100529530D01*
X45550952Y-100529530D02*
X45574762Y-100481911D01*
X45574762Y-100481911D02*
X45574762Y-100362863D01*
X45574762Y-100362863D02*
X45550952Y-100315244D01*
X45550952Y-100315244D02*
X45527143Y-100291435D01*
X45527143Y-100291435D02*
X45479524Y-100267625D01*
X45479524Y-100267625D02*
X45384286Y-100267625D01*
X45384286Y-100267625D02*
X45336667Y-100291435D01*
X45336667Y-100291435D02*
X45312857Y-100315244D01*
X45312857Y-100315244D02*
X45289048Y-100362863D01*
D12*
X110891428Y-122881764D02*
X110891428Y-123488907D01*
X110891428Y-123488907D02*
X110927142Y-123560335D01*
X110927142Y-123560335D02*
X110962857Y-123596050D01*
X110962857Y-123596050D02*
X111034285Y-123631764D01*
X111034285Y-123631764D02*
X111177142Y-123631764D01*
X111177142Y-123631764D02*
X111248571Y-123596050D01*
X111248571Y-123596050D02*
X111284285Y-123560335D01*
X111284285Y-123560335D02*
X111319999Y-123488907D01*
X111319999Y-123488907D02*
X111319999Y-122881764D01*
X111641428Y-122953192D02*
X111677142Y-122917478D01*
X111677142Y-122917478D02*
X111748571Y-122881764D01*
X111748571Y-122881764D02*
X111927142Y-122881764D01*
X111927142Y-122881764D02*
X111998571Y-122917478D01*
X111998571Y-122917478D02*
X112034285Y-122953192D01*
X112034285Y-122953192D02*
X112069999Y-123024621D01*
X112069999Y-123024621D02*
X112069999Y-123096050D01*
X112069999Y-123096050D02*
X112034285Y-123203192D01*
X112034285Y-123203192D02*
X111605713Y-123631764D01*
X111605713Y-123631764D02*
X112069999Y-123631764D01*
X112712857Y-123131764D02*
X112712857Y-123631764D01*
X112534285Y-122846050D02*
X112355714Y-123381764D01*
X112355714Y-123381764D02*
X112819999Y-123381764D01*
X70991428Y-131206764D02*
X70991428Y-131813907D01*
X70991428Y-131813907D02*
X71027142Y-131885335D01*
X71027142Y-131885335D02*
X71062857Y-131921050D01*
X71062857Y-131921050D02*
X71134285Y-131956764D01*
X71134285Y-131956764D02*
X71277142Y-131956764D01*
X71277142Y-131956764D02*
X71348571Y-131921050D01*
X71348571Y-131921050D02*
X71384285Y-131885335D01*
X71384285Y-131885335D02*
X71419999Y-131813907D01*
X71419999Y-131813907D02*
X71419999Y-131206764D01*
X71705713Y-131206764D02*
X72169999Y-131206764D01*
X72169999Y-131206764D02*
X71919999Y-131492478D01*
X71919999Y-131492478D02*
X72027142Y-131492478D01*
X72027142Y-131492478D02*
X72098571Y-131528192D01*
X72098571Y-131528192D02*
X72134285Y-131563907D01*
X72134285Y-131563907D02*
X72169999Y-131635335D01*
X72169999Y-131635335D02*
X72169999Y-131813907D01*
X72169999Y-131813907D02*
X72134285Y-131885335D01*
X72134285Y-131885335D02*
X72098571Y-131921050D01*
X72098571Y-131921050D02*
X72027142Y-131956764D01*
X72027142Y-131956764D02*
X71812856Y-131956764D01*
X71812856Y-131956764D02*
X71741428Y-131921050D01*
X71741428Y-131921050D02*
X71705713Y-131885335D01*
X72812857Y-131206764D02*
X72669999Y-131206764D01*
X72669999Y-131206764D02*
X72598571Y-131242478D01*
X72598571Y-131242478D02*
X72562857Y-131278192D01*
X72562857Y-131278192D02*
X72491428Y-131385335D01*
X72491428Y-131385335D02*
X72455714Y-131528192D01*
X72455714Y-131528192D02*
X72455714Y-131813907D01*
X72455714Y-131813907D02*
X72491428Y-131885335D01*
X72491428Y-131885335D02*
X72527142Y-131921050D01*
X72527142Y-131921050D02*
X72598571Y-131956764D01*
X72598571Y-131956764D02*
X72741428Y-131956764D01*
X72741428Y-131956764D02*
X72812857Y-131921050D01*
X72812857Y-131921050D02*
X72848571Y-131885335D01*
X72848571Y-131885335D02*
X72884285Y-131813907D01*
X72884285Y-131813907D02*
X72884285Y-131635335D01*
X72884285Y-131635335D02*
X72848571Y-131563907D01*
X72848571Y-131563907D02*
X72812857Y-131528192D01*
X72812857Y-131528192D02*
X72741428Y-131492478D01*
X72741428Y-131492478D02*
X72598571Y-131492478D01*
X72598571Y-131492478D02*
X72527142Y-131528192D01*
X72527142Y-131528192D02*
X72491428Y-131563907D01*
X72491428Y-131563907D02*
X72455714Y-131635335D01*
X126537856Y-136285335D02*
X126502142Y-136321050D01*
X126502142Y-136321050D02*
X126394999Y-136356764D01*
X126394999Y-136356764D02*
X126323571Y-136356764D01*
X126323571Y-136356764D02*
X126216428Y-136321050D01*
X126216428Y-136321050D02*
X126144999Y-136249621D01*
X126144999Y-136249621D02*
X126109285Y-136178192D01*
X126109285Y-136178192D02*
X126073571Y-136035335D01*
X126073571Y-136035335D02*
X126073571Y-135928192D01*
X126073571Y-135928192D02*
X126109285Y-135785335D01*
X126109285Y-135785335D02*
X126144999Y-135713907D01*
X126144999Y-135713907D02*
X126216428Y-135642478D01*
X126216428Y-135642478D02*
X126323571Y-135606764D01*
X126323571Y-135606764D02*
X126394999Y-135606764D01*
X126394999Y-135606764D02*
X126502142Y-135642478D01*
X126502142Y-135642478D02*
X126537856Y-135678192D01*
X127180714Y-135856764D02*
X127180714Y-136356764D01*
X127002142Y-135571050D02*
X126823571Y-136106764D01*
X126823571Y-136106764D02*
X127287856Y-136106764D01*
X127895000Y-135606764D02*
X127752142Y-135606764D01*
X127752142Y-135606764D02*
X127680714Y-135642478D01*
X127680714Y-135642478D02*
X127645000Y-135678192D01*
X127645000Y-135678192D02*
X127573571Y-135785335D01*
X127573571Y-135785335D02*
X127537857Y-135928192D01*
X127537857Y-135928192D02*
X127537857Y-136213907D01*
X127537857Y-136213907D02*
X127573571Y-136285335D01*
X127573571Y-136285335D02*
X127609285Y-136321050D01*
X127609285Y-136321050D02*
X127680714Y-136356764D01*
X127680714Y-136356764D02*
X127823571Y-136356764D01*
X127823571Y-136356764D02*
X127895000Y-136321050D01*
X127895000Y-136321050D02*
X127930714Y-136285335D01*
X127930714Y-136285335D02*
X127966428Y-136213907D01*
X127966428Y-136213907D02*
X127966428Y-136035335D01*
X127966428Y-136035335D02*
X127930714Y-135963907D01*
X127930714Y-135963907D02*
X127895000Y-135928192D01*
X127895000Y-135928192D02*
X127823571Y-135892478D01*
X127823571Y-135892478D02*
X127680714Y-135892478D01*
X127680714Y-135892478D02*
X127609285Y-135928192D01*
X127609285Y-135928192D02*
X127573571Y-135963907D01*
X127573571Y-135963907D02*
X127537857Y-136035335D01*
X116537856Y-136285335D02*
X116502142Y-136321050D01*
X116502142Y-136321050D02*
X116394999Y-136356764D01*
X116394999Y-136356764D02*
X116323571Y-136356764D01*
X116323571Y-136356764D02*
X116216428Y-136321050D01*
X116216428Y-136321050D02*
X116144999Y-136249621D01*
X116144999Y-136249621D02*
X116109285Y-136178192D01*
X116109285Y-136178192D02*
X116073571Y-136035335D01*
X116073571Y-136035335D02*
X116073571Y-135928192D01*
X116073571Y-135928192D02*
X116109285Y-135785335D01*
X116109285Y-135785335D02*
X116144999Y-135713907D01*
X116144999Y-135713907D02*
X116216428Y-135642478D01*
X116216428Y-135642478D02*
X116323571Y-135606764D01*
X116323571Y-135606764D02*
X116394999Y-135606764D01*
X116394999Y-135606764D02*
X116502142Y-135642478D01*
X116502142Y-135642478D02*
X116537856Y-135678192D01*
X117180714Y-135856764D02*
X117180714Y-136356764D01*
X117002142Y-135571050D02*
X116823571Y-136106764D01*
X116823571Y-136106764D02*
X117287856Y-136106764D01*
X117895000Y-135856764D02*
X117895000Y-136356764D01*
X117716428Y-135571050D02*
X117537857Y-136106764D01*
X117537857Y-136106764D02*
X118002142Y-136106764D01*
X90941428Y-131206764D02*
X90941428Y-131813907D01*
X90941428Y-131813907D02*
X90977142Y-131885335D01*
X90977142Y-131885335D02*
X91012857Y-131921050D01*
X91012857Y-131921050D02*
X91084285Y-131956764D01*
X91084285Y-131956764D02*
X91227142Y-131956764D01*
X91227142Y-131956764D02*
X91298571Y-131921050D01*
X91298571Y-131921050D02*
X91334285Y-131885335D01*
X91334285Y-131885335D02*
X91369999Y-131813907D01*
X91369999Y-131813907D02*
X91369999Y-131206764D01*
X92048571Y-131456764D02*
X92048571Y-131956764D01*
X91869999Y-131171050D02*
X91691428Y-131706764D01*
X91691428Y-131706764D02*
X92155713Y-131706764D01*
X92584285Y-131206764D02*
X92655714Y-131206764D01*
X92655714Y-131206764D02*
X92727142Y-131242478D01*
X92727142Y-131242478D02*
X92762857Y-131278192D01*
X92762857Y-131278192D02*
X92798571Y-131349621D01*
X92798571Y-131349621D02*
X92834285Y-131492478D01*
X92834285Y-131492478D02*
X92834285Y-131671050D01*
X92834285Y-131671050D02*
X92798571Y-131813907D01*
X92798571Y-131813907D02*
X92762857Y-131885335D01*
X92762857Y-131885335D02*
X92727142Y-131921050D01*
X92727142Y-131921050D02*
X92655714Y-131956764D01*
X92655714Y-131956764D02*
X92584285Y-131956764D01*
X92584285Y-131956764D02*
X92512857Y-131921050D01*
X92512857Y-131921050D02*
X92477142Y-131885335D01*
X92477142Y-131885335D02*
X92441428Y-131813907D01*
X92441428Y-131813907D02*
X92405714Y-131671050D01*
X92405714Y-131671050D02*
X92405714Y-131492478D01*
X92405714Y-131492478D02*
X92441428Y-131349621D01*
X92441428Y-131349621D02*
X92477142Y-131278192D01*
X92477142Y-131278192D02*
X92512857Y-131242478D01*
X92512857Y-131242478D02*
X92584285Y-131206764D01*
X106537856Y-128060335D02*
X106502142Y-128096050D01*
X106502142Y-128096050D02*
X106394999Y-128131764D01*
X106394999Y-128131764D02*
X106323571Y-128131764D01*
X106323571Y-128131764D02*
X106216428Y-128096050D01*
X106216428Y-128096050D02*
X106144999Y-128024621D01*
X106144999Y-128024621D02*
X106109285Y-127953192D01*
X106109285Y-127953192D02*
X106073571Y-127810335D01*
X106073571Y-127810335D02*
X106073571Y-127703192D01*
X106073571Y-127703192D02*
X106109285Y-127560335D01*
X106109285Y-127560335D02*
X106144999Y-127488907D01*
X106144999Y-127488907D02*
X106216428Y-127417478D01*
X106216428Y-127417478D02*
X106323571Y-127381764D01*
X106323571Y-127381764D02*
X106394999Y-127381764D01*
X106394999Y-127381764D02*
X106502142Y-127417478D01*
X106502142Y-127417478D02*
X106537856Y-127453192D01*
X106823571Y-127453192D02*
X106859285Y-127417478D01*
X106859285Y-127417478D02*
X106930714Y-127381764D01*
X106930714Y-127381764D02*
X107109285Y-127381764D01*
X107109285Y-127381764D02*
X107180714Y-127417478D01*
X107180714Y-127417478D02*
X107216428Y-127453192D01*
X107216428Y-127453192D02*
X107252142Y-127524621D01*
X107252142Y-127524621D02*
X107252142Y-127596050D01*
X107252142Y-127596050D02*
X107216428Y-127703192D01*
X107216428Y-127703192D02*
X106787856Y-128131764D01*
X106787856Y-128131764D02*
X107252142Y-128131764D01*
X107537857Y-127453192D02*
X107573571Y-127417478D01*
X107573571Y-127417478D02*
X107645000Y-127381764D01*
X107645000Y-127381764D02*
X107823571Y-127381764D01*
X107823571Y-127381764D02*
X107895000Y-127417478D01*
X107895000Y-127417478D02*
X107930714Y-127453192D01*
X107930714Y-127453192D02*
X107966428Y-127524621D01*
X107966428Y-127524621D02*
X107966428Y-127596050D01*
X107966428Y-127596050D02*
X107930714Y-127703192D01*
X107930714Y-127703192D02*
X107502142Y-128131764D01*
X107502142Y-128131764D02*
X107966428Y-128131764D01*
X116537856Y-127960335D02*
X116502142Y-127996050D01*
X116502142Y-127996050D02*
X116394999Y-128031764D01*
X116394999Y-128031764D02*
X116323571Y-128031764D01*
X116323571Y-128031764D02*
X116216428Y-127996050D01*
X116216428Y-127996050D02*
X116144999Y-127924621D01*
X116144999Y-127924621D02*
X116109285Y-127853192D01*
X116109285Y-127853192D02*
X116073571Y-127710335D01*
X116073571Y-127710335D02*
X116073571Y-127603192D01*
X116073571Y-127603192D02*
X116109285Y-127460335D01*
X116109285Y-127460335D02*
X116144999Y-127388907D01*
X116144999Y-127388907D02*
X116216428Y-127317478D01*
X116216428Y-127317478D02*
X116323571Y-127281764D01*
X116323571Y-127281764D02*
X116394999Y-127281764D01*
X116394999Y-127281764D02*
X116502142Y-127317478D01*
X116502142Y-127317478D02*
X116537856Y-127353192D01*
X116823571Y-127353192D02*
X116859285Y-127317478D01*
X116859285Y-127317478D02*
X116930714Y-127281764D01*
X116930714Y-127281764D02*
X117109285Y-127281764D01*
X117109285Y-127281764D02*
X117180714Y-127317478D01*
X117180714Y-127317478D02*
X117216428Y-127353192D01*
X117216428Y-127353192D02*
X117252142Y-127424621D01*
X117252142Y-127424621D02*
X117252142Y-127496050D01*
X117252142Y-127496050D02*
X117216428Y-127603192D01*
X117216428Y-127603192D02*
X116787856Y-128031764D01*
X116787856Y-128031764D02*
X117252142Y-128031764D01*
X117895000Y-127531764D02*
X117895000Y-128031764D01*
X117716428Y-127246050D02*
X117537857Y-127781764D01*
X117537857Y-127781764D02*
X118002142Y-127781764D01*
X91642856Y-127965335D02*
X91607142Y-128001050D01*
X91607142Y-128001050D02*
X91499999Y-128036764D01*
X91499999Y-128036764D02*
X91428571Y-128036764D01*
X91428571Y-128036764D02*
X91321428Y-128001050D01*
X91321428Y-128001050D02*
X91249999Y-127929621D01*
X91249999Y-127929621D02*
X91214285Y-127858192D01*
X91214285Y-127858192D02*
X91178571Y-127715335D01*
X91178571Y-127715335D02*
X91178571Y-127608192D01*
X91178571Y-127608192D02*
X91214285Y-127465335D01*
X91214285Y-127465335D02*
X91249999Y-127393907D01*
X91249999Y-127393907D02*
X91321428Y-127322478D01*
X91321428Y-127322478D02*
X91428571Y-127286764D01*
X91428571Y-127286764D02*
X91499999Y-127286764D01*
X91499999Y-127286764D02*
X91607142Y-127322478D01*
X91607142Y-127322478D02*
X91642856Y-127358192D01*
X92357142Y-128036764D02*
X91928571Y-128036764D01*
X92142856Y-128036764D02*
X92142856Y-127286764D01*
X92142856Y-127286764D02*
X92071428Y-127393907D01*
X92071428Y-127393907D02*
X91999999Y-127465335D01*
X91999999Y-127465335D02*
X91928571Y-127501050D01*
X92714285Y-128036764D02*
X92857142Y-128036764D01*
X92857142Y-128036764D02*
X92928571Y-128001050D01*
X92928571Y-128001050D02*
X92964285Y-127965335D01*
X92964285Y-127965335D02*
X93035714Y-127858192D01*
X93035714Y-127858192D02*
X93071428Y-127715335D01*
X93071428Y-127715335D02*
X93071428Y-127429621D01*
X93071428Y-127429621D02*
X93035714Y-127358192D01*
X93035714Y-127358192D02*
X93000000Y-127322478D01*
X93000000Y-127322478D02*
X92928571Y-127286764D01*
X92928571Y-127286764D02*
X92785714Y-127286764D01*
X92785714Y-127286764D02*
X92714285Y-127322478D01*
X92714285Y-127322478D02*
X92678571Y-127358192D01*
X92678571Y-127358192D02*
X92642857Y-127429621D01*
X92642857Y-127429621D02*
X92642857Y-127608192D01*
X92642857Y-127608192D02*
X92678571Y-127679621D01*
X92678571Y-127679621D02*
X92714285Y-127715335D01*
X92714285Y-127715335D02*
X92785714Y-127751050D01*
X92785714Y-127751050D02*
X92928571Y-127751050D01*
X92928571Y-127751050D02*
X93000000Y-127715335D01*
X93000000Y-127715335D02*
X93035714Y-127679621D01*
X93035714Y-127679621D02*
X93071428Y-127608192D01*
X141637856Y-127960335D02*
X141602142Y-127996050D01*
X141602142Y-127996050D02*
X141494999Y-128031764D01*
X141494999Y-128031764D02*
X141423571Y-128031764D01*
X141423571Y-128031764D02*
X141316428Y-127996050D01*
X141316428Y-127996050D02*
X141244999Y-127924621D01*
X141244999Y-127924621D02*
X141209285Y-127853192D01*
X141209285Y-127853192D02*
X141173571Y-127710335D01*
X141173571Y-127710335D02*
X141173571Y-127603192D01*
X141173571Y-127603192D02*
X141209285Y-127460335D01*
X141209285Y-127460335D02*
X141244999Y-127388907D01*
X141244999Y-127388907D02*
X141316428Y-127317478D01*
X141316428Y-127317478D02*
X141423571Y-127281764D01*
X141423571Y-127281764D02*
X141494999Y-127281764D01*
X141494999Y-127281764D02*
X141602142Y-127317478D01*
X141602142Y-127317478D02*
X141637856Y-127353192D01*
X141923571Y-127353192D02*
X141959285Y-127317478D01*
X141959285Y-127317478D02*
X142030714Y-127281764D01*
X142030714Y-127281764D02*
X142209285Y-127281764D01*
X142209285Y-127281764D02*
X142280714Y-127317478D01*
X142280714Y-127317478D02*
X142316428Y-127353192D01*
X142316428Y-127353192D02*
X142352142Y-127424621D01*
X142352142Y-127424621D02*
X142352142Y-127496050D01*
X142352142Y-127496050D02*
X142316428Y-127603192D01*
X142316428Y-127603192D02*
X141887856Y-128031764D01*
X141887856Y-128031764D02*
X142352142Y-128031764D01*
X142709285Y-128031764D02*
X142852142Y-128031764D01*
X142852142Y-128031764D02*
X142923571Y-127996050D01*
X142923571Y-127996050D02*
X142959285Y-127960335D01*
X142959285Y-127960335D02*
X143030714Y-127853192D01*
X143030714Y-127853192D02*
X143066428Y-127710335D01*
X143066428Y-127710335D02*
X143066428Y-127424621D01*
X143066428Y-127424621D02*
X143030714Y-127353192D01*
X143030714Y-127353192D02*
X142995000Y-127317478D01*
X142995000Y-127317478D02*
X142923571Y-127281764D01*
X142923571Y-127281764D02*
X142780714Y-127281764D01*
X142780714Y-127281764D02*
X142709285Y-127317478D01*
X142709285Y-127317478D02*
X142673571Y-127353192D01*
X142673571Y-127353192D02*
X142637857Y-127424621D01*
X142637857Y-127424621D02*
X142637857Y-127603192D01*
X142637857Y-127603192D02*
X142673571Y-127674621D01*
X142673571Y-127674621D02*
X142709285Y-127710335D01*
X142709285Y-127710335D02*
X142780714Y-127746050D01*
X142780714Y-127746050D02*
X142923571Y-127746050D01*
X142923571Y-127746050D02*
X142995000Y-127710335D01*
X142995000Y-127710335D02*
X143030714Y-127674621D01*
X143030714Y-127674621D02*
X143066428Y-127603192D01*
X81642856Y-127965335D02*
X81607142Y-128001050D01*
X81607142Y-128001050D02*
X81499999Y-128036764D01*
X81499999Y-128036764D02*
X81428571Y-128036764D01*
X81428571Y-128036764D02*
X81321428Y-128001050D01*
X81321428Y-128001050D02*
X81249999Y-127929621D01*
X81249999Y-127929621D02*
X81214285Y-127858192D01*
X81214285Y-127858192D02*
X81178571Y-127715335D01*
X81178571Y-127715335D02*
X81178571Y-127608192D01*
X81178571Y-127608192D02*
X81214285Y-127465335D01*
X81214285Y-127465335D02*
X81249999Y-127393907D01*
X81249999Y-127393907D02*
X81321428Y-127322478D01*
X81321428Y-127322478D02*
X81428571Y-127286764D01*
X81428571Y-127286764D02*
X81499999Y-127286764D01*
X81499999Y-127286764D02*
X81607142Y-127322478D01*
X81607142Y-127322478D02*
X81642856Y-127358192D01*
X82357142Y-128036764D02*
X81928571Y-128036764D01*
X82142856Y-128036764D02*
X82142856Y-127286764D01*
X82142856Y-127286764D02*
X82071428Y-127393907D01*
X82071428Y-127393907D02*
X81999999Y-127465335D01*
X81999999Y-127465335D02*
X81928571Y-127501050D01*
X82607142Y-127286764D02*
X83107142Y-127286764D01*
X83107142Y-127286764D02*
X82785714Y-128036764D01*
X76542856Y-127965335D02*
X76507142Y-128001050D01*
X76507142Y-128001050D02*
X76399999Y-128036764D01*
X76399999Y-128036764D02*
X76328571Y-128036764D01*
X76328571Y-128036764D02*
X76221428Y-128001050D01*
X76221428Y-128001050D02*
X76149999Y-127929621D01*
X76149999Y-127929621D02*
X76114285Y-127858192D01*
X76114285Y-127858192D02*
X76078571Y-127715335D01*
X76078571Y-127715335D02*
X76078571Y-127608192D01*
X76078571Y-127608192D02*
X76114285Y-127465335D01*
X76114285Y-127465335D02*
X76149999Y-127393907D01*
X76149999Y-127393907D02*
X76221428Y-127322478D01*
X76221428Y-127322478D02*
X76328571Y-127286764D01*
X76328571Y-127286764D02*
X76399999Y-127286764D01*
X76399999Y-127286764D02*
X76507142Y-127322478D01*
X76507142Y-127322478D02*
X76542856Y-127358192D01*
X77257142Y-128036764D02*
X76828571Y-128036764D01*
X77042856Y-128036764D02*
X77042856Y-127286764D01*
X77042856Y-127286764D02*
X76971428Y-127393907D01*
X76971428Y-127393907D02*
X76899999Y-127465335D01*
X76899999Y-127465335D02*
X76828571Y-127501050D01*
X77900000Y-127286764D02*
X77757142Y-127286764D01*
X77757142Y-127286764D02*
X77685714Y-127322478D01*
X77685714Y-127322478D02*
X77650000Y-127358192D01*
X77650000Y-127358192D02*
X77578571Y-127465335D01*
X77578571Y-127465335D02*
X77542857Y-127608192D01*
X77542857Y-127608192D02*
X77542857Y-127893907D01*
X77542857Y-127893907D02*
X77578571Y-127965335D01*
X77578571Y-127965335D02*
X77614285Y-128001050D01*
X77614285Y-128001050D02*
X77685714Y-128036764D01*
X77685714Y-128036764D02*
X77828571Y-128036764D01*
X77828571Y-128036764D02*
X77900000Y-128001050D01*
X77900000Y-128001050D02*
X77935714Y-127965335D01*
X77935714Y-127965335D02*
X77971428Y-127893907D01*
X77971428Y-127893907D02*
X77971428Y-127715335D01*
X77971428Y-127715335D02*
X77935714Y-127643907D01*
X77935714Y-127643907D02*
X77900000Y-127608192D01*
X77900000Y-127608192D02*
X77828571Y-127572478D01*
X77828571Y-127572478D02*
X77685714Y-127572478D01*
X77685714Y-127572478D02*
X77614285Y-127608192D01*
X77614285Y-127608192D02*
X77578571Y-127643907D01*
X77578571Y-127643907D02*
X77542857Y-127715335D01*
X115991428Y-122881764D02*
X115991428Y-123488907D01*
X115991428Y-123488907D02*
X116027142Y-123560335D01*
X116027142Y-123560335D02*
X116062857Y-123596050D01*
X116062857Y-123596050D02*
X116134285Y-123631764D01*
X116134285Y-123631764D02*
X116277142Y-123631764D01*
X116277142Y-123631764D02*
X116348571Y-123596050D01*
X116348571Y-123596050D02*
X116384285Y-123560335D01*
X116384285Y-123560335D02*
X116419999Y-123488907D01*
X116419999Y-123488907D02*
X116419999Y-122881764D01*
X116741428Y-122953192D02*
X116777142Y-122917478D01*
X116777142Y-122917478D02*
X116848571Y-122881764D01*
X116848571Y-122881764D02*
X117027142Y-122881764D01*
X117027142Y-122881764D02*
X117098571Y-122917478D01*
X117098571Y-122917478D02*
X117134285Y-122953192D01*
X117134285Y-122953192D02*
X117169999Y-123024621D01*
X117169999Y-123024621D02*
X117169999Y-123096050D01*
X117169999Y-123096050D02*
X117134285Y-123203192D01*
X117134285Y-123203192D02*
X116705713Y-123631764D01*
X116705713Y-123631764D02*
X117169999Y-123631764D01*
X117848571Y-122881764D02*
X117491428Y-122881764D01*
X117491428Y-122881764D02*
X117455714Y-123238907D01*
X117455714Y-123238907D02*
X117491428Y-123203192D01*
X117491428Y-123203192D02*
X117562857Y-123167478D01*
X117562857Y-123167478D02*
X117741428Y-123167478D01*
X117741428Y-123167478D02*
X117812857Y-123203192D01*
X117812857Y-123203192D02*
X117848571Y-123238907D01*
X117848571Y-123238907D02*
X117884285Y-123310335D01*
X117884285Y-123310335D02*
X117884285Y-123488907D01*
X117884285Y-123488907D02*
X117848571Y-123560335D01*
X117848571Y-123560335D02*
X117812857Y-123596050D01*
X117812857Y-123596050D02*
X117741428Y-123631764D01*
X117741428Y-123631764D02*
X117562857Y-123631764D01*
X117562857Y-123631764D02*
X117491428Y-123596050D01*
X117491428Y-123596050D02*
X117455714Y-123560335D01*
D13*
X52363095Y-109379819D02*
X52363095Y-110189342D01*
X52363095Y-110189342D02*
X52410714Y-110284580D01*
X52410714Y-110284580D02*
X52458333Y-110332200D01*
X52458333Y-110332200D02*
X52553571Y-110379819D01*
X52553571Y-110379819D02*
X52744047Y-110379819D01*
X52744047Y-110379819D02*
X52839285Y-110332200D01*
X52839285Y-110332200D02*
X52886904Y-110284580D01*
X52886904Y-110284580D02*
X52934523Y-110189342D01*
X52934523Y-110189342D02*
X52934523Y-109379819D01*
X53458333Y-110379819D02*
X53648809Y-110379819D01*
X53648809Y-110379819D02*
X53744047Y-110332200D01*
X53744047Y-110332200D02*
X53791666Y-110284580D01*
X53791666Y-110284580D02*
X53886904Y-110141723D01*
X53886904Y-110141723D02*
X53934523Y-109951247D01*
X53934523Y-109951247D02*
X53934523Y-109570295D01*
X53934523Y-109570295D02*
X53886904Y-109475057D01*
X53886904Y-109475057D02*
X53839285Y-109427438D01*
X53839285Y-109427438D02*
X53744047Y-109379819D01*
X53744047Y-109379819D02*
X53553571Y-109379819D01*
X53553571Y-109379819D02*
X53458333Y-109427438D01*
X53458333Y-109427438D02*
X53410714Y-109475057D01*
X53410714Y-109475057D02*
X53363095Y-109570295D01*
X53363095Y-109570295D02*
X53363095Y-109808390D01*
X53363095Y-109808390D02*
X53410714Y-109903628D01*
X53410714Y-109903628D02*
X53458333Y-109951247D01*
X53458333Y-109951247D02*
X53553571Y-109998866D01*
X53553571Y-109998866D02*
X53744047Y-109998866D01*
X53744047Y-109998866D02*
X53839285Y-109951247D01*
X53839285Y-109951247D02*
X53886904Y-109903628D01*
X53886904Y-109903628D02*
X53934523Y-109808390D01*
X54338095Y-102404819D02*
X54338095Y-103214342D01*
X54338095Y-103214342D02*
X54385714Y-103309580D01*
X54385714Y-103309580D02*
X54433333Y-103357200D01*
X54433333Y-103357200D02*
X54528571Y-103404819D01*
X54528571Y-103404819D02*
X54719047Y-103404819D01*
X54719047Y-103404819D02*
X54814285Y-103357200D01*
X54814285Y-103357200D02*
X54861904Y-103309580D01*
X54861904Y-103309580D02*
X54909523Y-103214342D01*
X54909523Y-103214342D02*
X54909523Y-102404819D01*
X55909523Y-103404819D02*
X55338095Y-103404819D01*
X55623809Y-103404819D02*
X55623809Y-102404819D01*
X55623809Y-102404819D02*
X55528571Y-102547676D01*
X55528571Y-102547676D02*
X55433333Y-102642914D01*
X55433333Y-102642914D02*
X55338095Y-102690533D01*
D14*
X58416666Y-115437149D02*
X58250000Y-115199054D01*
X58130952Y-115437149D02*
X58130952Y-114937149D01*
X58130952Y-114937149D02*
X58321428Y-114937149D01*
X58321428Y-114937149D02*
X58369047Y-114960959D01*
X58369047Y-114960959D02*
X58392857Y-114984768D01*
X58392857Y-114984768D02*
X58416666Y-115032387D01*
X58416666Y-115032387D02*
X58416666Y-115103816D01*
X58416666Y-115103816D02*
X58392857Y-115151435D01*
X58392857Y-115151435D02*
X58369047Y-115175244D01*
X58369047Y-115175244D02*
X58321428Y-115199054D01*
X58321428Y-115199054D02*
X58130952Y-115199054D01*
X58845238Y-115103816D02*
X58845238Y-115437149D01*
X58726190Y-114913340D02*
X58607143Y-115270482D01*
X58607143Y-115270482D02*
X58916666Y-115270482D01*
D12*
X85891428Y-131206764D02*
X85891428Y-131813907D01*
X85891428Y-131813907D02*
X85927142Y-131885335D01*
X85927142Y-131885335D02*
X85962857Y-131921050D01*
X85962857Y-131921050D02*
X86034285Y-131956764D01*
X86034285Y-131956764D02*
X86177142Y-131956764D01*
X86177142Y-131956764D02*
X86248571Y-131921050D01*
X86248571Y-131921050D02*
X86284285Y-131885335D01*
X86284285Y-131885335D02*
X86319999Y-131813907D01*
X86319999Y-131813907D02*
X86319999Y-131206764D01*
X86605713Y-131206764D02*
X87069999Y-131206764D01*
X87069999Y-131206764D02*
X86819999Y-131492478D01*
X86819999Y-131492478D02*
X86927142Y-131492478D01*
X86927142Y-131492478D02*
X86998571Y-131528192D01*
X86998571Y-131528192D02*
X87034285Y-131563907D01*
X87034285Y-131563907D02*
X87069999Y-131635335D01*
X87069999Y-131635335D02*
X87069999Y-131813907D01*
X87069999Y-131813907D02*
X87034285Y-131885335D01*
X87034285Y-131885335D02*
X86998571Y-131921050D01*
X86998571Y-131921050D02*
X86927142Y-131956764D01*
X86927142Y-131956764D02*
X86712856Y-131956764D01*
X86712856Y-131956764D02*
X86641428Y-131921050D01*
X86641428Y-131921050D02*
X86605713Y-131885335D01*
X87427142Y-131956764D02*
X87569999Y-131956764D01*
X87569999Y-131956764D02*
X87641428Y-131921050D01*
X87641428Y-131921050D02*
X87677142Y-131885335D01*
X87677142Y-131885335D02*
X87748571Y-131778192D01*
X87748571Y-131778192D02*
X87784285Y-131635335D01*
X87784285Y-131635335D02*
X87784285Y-131349621D01*
X87784285Y-131349621D02*
X87748571Y-131278192D01*
X87748571Y-131278192D02*
X87712857Y-131242478D01*
X87712857Y-131242478D02*
X87641428Y-131206764D01*
X87641428Y-131206764D02*
X87498571Y-131206764D01*
X87498571Y-131206764D02*
X87427142Y-131242478D01*
X87427142Y-131242478D02*
X87391428Y-131278192D01*
X87391428Y-131278192D02*
X87355714Y-131349621D01*
X87355714Y-131349621D02*
X87355714Y-131528192D01*
X87355714Y-131528192D02*
X87391428Y-131599621D01*
X87391428Y-131599621D02*
X87427142Y-131635335D01*
X87427142Y-131635335D02*
X87498571Y-131671050D01*
X87498571Y-131671050D02*
X87641428Y-131671050D01*
X87641428Y-131671050D02*
X87712857Y-131635335D01*
X87712857Y-131635335D02*
X87748571Y-131599621D01*
X87748571Y-131599621D02*
X87784285Y-131528192D01*
X50896428Y-122886764D02*
X50896428Y-123493907D01*
X50896428Y-123493907D02*
X50932142Y-123565335D01*
X50932142Y-123565335D02*
X50967857Y-123601050D01*
X50967857Y-123601050D02*
X51039285Y-123636764D01*
X51039285Y-123636764D02*
X51182142Y-123636764D01*
X51182142Y-123636764D02*
X51253571Y-123601050D01*
X51253571Y-123601050D02*
X51289285Y-123565335D01*
X51289285Y-123565335D02*
X51324999Y-123493907D01*
X51324999Y-123493907D02*
X51324999Y-122886764D01*
X52074999Y-123636764D02*
X51646428Y-123636764D01*
X51860713Y-123636764D02*
X51860713Y-122886764D01*
X51860713Y-122886764D02*
X51789285Y-122993907D01*
X51789285Y-122993907D02*
X51717856Y-123065335D01*
X51717856Y-123065335D02*
X51646428Y-123101050D01*
X52360714Y-122958192D02*
X52396428Y-122922478D01*
X52396428Y-122922478D02*
X52467857Y-122886764D01*
X52467857Y-122886764D02*
X52646428Y-122886764D01*
X52646428Y-122886764D02*
X52717857Y-122922478D01*
X52717857Y-122922478D02*
X52753571Y-122958192D01*
X52753571Y-122958192D02*
X52789285Y-123029621D01*
X52789285Y-123029621D02*
X52789285Y-123101050D01*
X52789285Y-123101050D02*
X52753571Y-123208192D01*
X52753571Y-123208192D02*
X52324999Y-123636764D01*
X52324999Y-123636764D02*
X52789285Y-123636764D01*
D13*
%TO.C,U38*%
X82570000Y-134765000D02*
X83370000Y-134765000D01*
X83370000Y-134765000D02*
X83370000Y-134015000D01*
D15*
%TO.C,C49*%
X142207836Y-134655000D02*
X141992164Y-134655000D01*
X142207836Y-135375000D02*
X141992164Y-135375000D01*
%TO.C,C20*%
X97052836Y-126335000D02*
X96837164Y-126335000D01*
X97052836Y-127055000D02*
X96837164Y-127055000D01*
%TO.C,C43*%
X112127836Y-134655000D02*
X111912164Y-134655000D01*
X112127836Y-135375000D02*
X111912164Y-135375000D01*
D16*
%TO.C,U11*%
X41680000Y-121530000D02*
X41680000Y-136530000D01*
X41680000Y-121530000D02*
X47480000Y-121530000D01*
X41680000Y-136530000D02*
X47480000Y-136530000D01*
X45080000Y-122080000D02*
X45080000Y-121530000D01*
X45080000Y-136130000D02*
X45080000Y-136530000D01*
X45680000Y-122080000D02*
X45680000Y-121530000D01*
X45730000Y-136080000D02*
X45730000Y-136530000D01*
X47030000Y-133630000D02*
X47480000Y-133630000D01*
X47030000Y-134080000D02*
X47480000Y-134080000D01*
X47080000Y-124030000D02*
X47480000Y-124030000D01*
X47080000Y-124780000D02*
X47480000Y-124780000D01*
X47480000Y-136530000D02*
X47480000Y-121530000D01*
D15*
%TO.C,C6*%
X42511252Y-93090000D02*
X41988748Y-93090000D01*
X42511252Y-94560000D02*
X41988748Y-94560000D01*
D16*
%TO.C,U7*%
X60425000Y-68850000D02*
X146425000Y-68850000D01*
X60425000Y-118850000D02*
X60425000Y-68850000D01*
X146425000Y-68850000D02*
X146425000Y-118850000D01*
X146425000Y-118850000D02*
X60425000Y-118850000D01*
D15*
%TO.C,R7*%
X56620000Y-107736359D02*
X56620000Y-108043641D01*
X57380000Y-107736359D02*
X57380000Y-108043641D01*
%TO.C,C41*%
X102227836Y-134755000D02*
X102012164Y-134755000D01*
X102227836Y-135475000D02*
X102012164Y-135475000D01*
D13*
%TO.C,U43*%
X107570000Y-134765000D02*
X108370000Y-134765000D01*
X108370000Y-134765000D02*
X108370000Y-134015000D01*
%TO.C,U35*%
X67570000Y-134765000D02*
X68370000Y-134765000D01*
X68370000Y-134765000D02*
X68370000Y-134015000D01*
D15*
%TO.C,C33*%
X62127836Y-134655000D02*
X61912164Y-134655000D01*
X62127836Y-135375000D02*
X61912164Y-135375000D01*
D13*
%TO.C,U13*%
X57575000Y-126445000D02*
X58375000Y-126445000D01*
X58375000Y-126445000D02*
X58375000Y-125695000D01*
D15*
%TO.C,C31*%
X52227836Y-134755000D02*
X52012164Y-134755000D01*
X52227836Y-135475000D02*
X52012164Y-135475000D01*
D13*
%TO.C,U51*%
X147570000Y-134765000D02*
X148370000Y-134765000D01*
X148370000Y-134765000D02*
X148370000Y-134015000D01*
%TO.C,U19*%
X87575000Y-126445000D02*
X88375000Y-126445000D01*
X88375000Y-126445000D02*
X88375000Y-125695000D01*
D15*
%TO.C,R3*%
X43790000Y-89778641D02*
X43790000Y-89471359D01*
X44550000Y-89778641D02*
X44550000Y-89471359D01*
D13*
%TO.C,U37*%
X77570000Y-134765000D02*
X78370000Y-134765000D01*
X78370000Y-134765000D02*
X78370000Y-134015000D01*
D15*
%TO.C,C18*%
X87132836Y-126335000D02*
X86917164Y-126335000D01*
X87132836Y-127055000D02*
X86917164Y-127055000D01*
%TO.C,C2*%
X47631252Y-97280000D02*
X47108748Y-97280000D01*
X47631252Y-98750000D02*
X47108748Y-98750000D01*
%TO.C,C34*%
X67127836Y-134655000D02*
X66912164Y-134655000D01*
X67127836Y-135375000D02*
X66912164Y-135375000D01*
%TO.C,C39*%
X92207836Y-134655000D02*
X91992164Y-134655000D01*
X92207836Y-135375000D02*
X91992164Y-135375000D01*
%TO.C,C45*%
X122147836Y-134655000D02*
X121932164Y-134655000D01*
X122147836Y-135375000D02*
X121932164Y-135375000D01*
%TO.C,C11*%
X52232836Y-126435000D02*
X52017164Y-126435000D01*
X52232836Y-127155000D02*
X52017164Y-127155000D01*
D13*
%TO.C,U45*%
X117570000Y-134765000D02*
X118370000Y-134765000D01*
X118370000Y-134765000D02*
X118370000Y-134015000D01*
D15*
%TO.C,C35*%
X72147836Y-134655000D02*
X71932164Y-134655000D01*
X72147836Y-135375000D02*
X71932164Y-135375000D01*
%TO.C,C10*%
X53365000Y-115582164D02*
X53365000Y-115797836D01*
X54085000Y-115582164D02*
X54085000Y-115797836D01*
D13*
%TO.C,U3*%
X56470000Y-91665000D02*
X56470000Y-92025000D01*
X56470000Y-92025000D02*
X56470000Y-94805000D01*
X56470000Y-95165000D02*
X56470000Y-94805000D01*
X56540000Y-91665000D02*
X56470000Y-91665000D01*
X57430000Y-95165000D02*
X56470000Y-95165000D01*
X58210000Y-91665000D02*
X57530000Y-91665000D01*
X59270000Y-91665000D02*
X59200000Y-91665000D01*
X59270000Y-93415000D02*
X59270000Y-91665000D01*
X59270000Y-93415000D02*
X59270000Y-95165000D01*
X59270000Y-95165000D02*
X58300000Y-95165000D01*
D11*
X57140000Y-91345000D02*
G75*
G02*
X56840000Y-91345000I-150000J0D01*
G01*
X56840000Y-91345000D02*
G75*
G02*
X57140000Y-91345000I150000J0D01*
G01*
D15*
%TO.C,C25*%
X122147836Y-126330000D02*
X121932164Y-126330000D01*
X122147836Y-127050000D02*
X121932164Y-127050000D01*
D16*
%TO.C,U5*%
X34130000Y-69825000D02*
X34130000Y-87825000D01*
X34130000Y-87825000D02*
X40950000Y-87825000D01*
X35290000Y-71525000D02*
X35290000Y-73765000D01*
X35290000Y-73555000D02*
X35290000Y-76415000D01*
X35290000Y-76415000D02*
X37440000Y-76415000D01*
X35290000Y-78955000D02*
X35290000Y-81495000D01*
X35290000Y-81495000D02*
X37440000Y-81495000D01*
X35290000Y-83775000D02*
X35290000Y-86065000D01*
X35290000Y-86065000D02*
X38970000Y-86065000D01*
X37440000Y-76415000D02*
X37440000Y-78955000D01*
X37440000Y-78955000D02*
X35290000Y-78955000D01*
X37440000Y-81495000D02*
X37440000Y-83775000D01*
X37440000Y-83775000D02*
X35290000Y-83775000D01*
X40170000Y-71525000D02*
X35290000Y-71525000D01*
X40170000Y-73555000D02*
X35290000Y-73555000D01*
X40170000Y-87825000D02*
X40170000Y-69805000D01*
X40950000Y-69805000D02*
X34140000Y-69805000D01*
X58820000Y-87825000D02*
X59670000Y-87825000D01*
X59670000Y-69805000D02*
X58820000Y-69805000D01*
X59670000Y-71155000D02*
X59670000Y-69805000D01*
X59670000Y-87825000D02*
X59670000Y-86495000D01*
X41400000Y-89235000D02*
G75*
G02*
X40600000Y-89235000I-400000J0D01*
G01*
X40600000Y-89235000D02*
G75*
G02*
X41400000Y-89235000I400000J0D01*
G01*
%TO.C,U2*%
X40875000Y-109745000D02*
X40875000Y-118895000D01*
X40875000Y-118895000D02*
X42445000Y-118895000D01*
X42445000Y-109745000D02*
X40875000Y-109745000D01*
X44635000Y-118895000D02*
X46525000Y-118895000D01*
X46525000Y-109745000D02*
X44635000Y-109745000D01*
D15*
%TO.C,C30*%
X147047836Y-126330000D02*
X146832164Y-126330000D01*
X147047836Y-127050000D02*
X146832164Y-127050000D01*
D13*
%TO.C,U44*%
X112570000Y-134765000D02*
X113370000Y-134765000D01*
X113370000Y-134765000D02*
X113370000Y-134015000D01*
D15*
%TO.C,C1*%
X59430000Y-91697836D02*
X59430000Y-91482164D01*
X60150000Y-91697836D02*
X60150000Y-91482164D01*
D13*
%TO.C,U21*%
X97575000Y-126445000D02*
X98375000Y-126445000D01*
X98375000Y-126445000D02*
X98375000Y-125695000D01*
D15*
%TO.C,C3*%
X44435000Y-94953748D02*
X44435000Y-95476252D01*
X45905000Y-94953748D02*
X45905000Y-95476252D01*
D13*
%TO.C,U27*%
X127570000Y-126440000D02*
X128370000Y-126440000D01*
X128370000Y-126440000D02*
X128370000Y-125690000D01*
D15*
%TO.C,C50*%
X147047836Y-134655000D02*
X146832164Y-134655000D01*
X147047836Y-135375000D02*
X146832164Y-135375000D01*
%TO.C,C32*%
X57127836Y-134755000D02*
X56912164Y-134755000D01*
X57127836Y-135475000D02*
X56912164Y-135475000D01*
D13*
%TO.C,U15*%
X67575000Y-126445000D02*
X68375000Y-126445000D01*
X68375000Y-126445000D02*
X68375000Y-125695000D01*
D16*
%TO.C,U10*%
X54370000Y-110525000D02*
X54370000Y-111175000D01*
X54370000Y-110525000D02*
X55020000Y-110525000D01*
X54370000Y-114165000D02*
X54370000Y-113515000D01*
X54370000Y-114165000D02*
X55020000Y-114165000D01*
X58180000Y-110685000D02*
X57530000Y-110685000D01*
X58180000Y-110685000D02*
X58180000Y-111335000D01*
X58180000Y-114325000D02*
X57530000Y-114325000D01*
X58180000Y-114325000D02*
X58180000Y-113675000D01*
X54120000Y-111225000D02*
G75*
G02*
X53920000Y-111225000I-100000J0D01*
G01*
X53920000Y-111225000D02*
G75*
G02*
X54120000Y-111225000I100000J0D01*
G01*
D15*
%TO.C,C12*%
X57132836Y-126435000D02*
X56917164Y-126435000D01*
X57132836Y-127155000D02*
X56917164Y-127155000D01*
%TO.C,C7*%
X54365000Y-115602164D02*
X54365000Y-115817836D01*
X55085000Y-115602164D02*
X55085000Y-115817836D01*
D13*
%TO.C,U28*%
X132570000Y-126440000D02*
X133370000Y-126440000D01*
X133370000Y-126440000D02*
X133370000Y-125690000D01*
%TO.C,U41*%
X97570000Y-134765000D02*
X98370000Y-134765000D01*
X98370000Y-134765000D02*
X98370000Y-134015000D01*
D15*
%TO.C,C9*%
X53352836Y-113715000D02*
X53137164Y-113715000D01*
X53352836Y-114435000D02*
X53137164Y-114435000D01*
%TO.C,C5*%
X42511252Y-90990000D02*
X41988748Y-90990000D01*
X42511252Y-92460000D02*
X41988748Y-92460000D01*
D13*
%TO.C,U30*%
X142570000Y-126440000D02*
X143370000Y-126440000D01*
X143370000Y-126440000D02*
X143370000Y-125690000D01*
D15*
%TO.C,C38*%
X87127836Y-134655000D02*
X86912164Y-134655000D01*
X87127836Y-135375000D02*
X86912164Y-135375000D01*
%TO.C,C23*%
X112127836Y-126330000D02*
X111912164Y-126330000D01*
X112127836Y-127050000D02*
X111912164Y-127050000D01*
%TO.C,R1*%
X50043859Y-112445000D02*
X50351141Y-112445000D01*
X50043859Y-113205000D02*
X50351141Y-113205000D01*
D13*
%TO.C,U17*%
X77575000Y-126445000D02*
X78375000Y-126445000D01*
X78375000Y-126445000D02*
X78375000Y-125695000D01*
D16*
%TO.C,J1*%
X41600000Y-103150000D02*
X41600000Y-107050000D01*
X45860000Y-102150000D02*
X43260000Y-102150000D01*
X45860000Y-103230000D02*
X45860000Y-102150000D01*
X45860000Y-107210000D02*
X45860000Y-108130000D01*
X45860000Y-108130000D02*
X43250000Y-108130000D01*
X45490000Y-102670000D02*
G75*
G02*
X45250000Y-102670000I-120000J0D01*
G01*
X45250000Y-102670000D02*
G75*
G02*
X45490000Y-102670000I120000J0D01*
G01*
D15*
%TO.C,C13*%
X62132836Y-126335000D02*
X61917164Y-126335000D01*
X62132836Y-127055000D02*
X61917164Y-127055000D01*
D13*
%TO.C,U16*%
X72575000Y-126445000D02*
X73375000Y-126445000D01*
X73375000Y-126445000D02*
X73375000Y-125695000D01*
%TO.C,U18*%
X82575000Y-126445000D02*
X83375000Y-126445000D01*
X83375000Y-126445000D02*
X83375000Y-125695000D01*
%TO.C,U50*%
X142570000Y-134765000D02*
X143370000Y-134765000D01*
X143370000Y-134765000D02*
X143370000Y-134015000D01*
D15*
%TO.C,C36*%
X77147836Y-134655000D02*
X76932164Y-134655000D01*
X77147836Y-135375000D02*
X76932164Y-135375000D01*
%TO.C,C40*%
X97047836Y-134655000D02*
X96832164Y-134655000D01*
X97047836Y-135375000D02*
X96832164Y-135375000D01*
D13*
%TO.C,U8*%
X55350000Y-108275000D02*
X55500000Y-108115000D01*
X55350000Y-108905000D02*
X55350000Y-108275000D01*
X55350000Y-109505000D02*
X55350000Y-110295000D01*
X55350000Y-110295000D02*
X56350000Y-110295000D01*
X55500000Y-108115000D02*
X56200000Y-108115000D01*
X56200000Y-108115000D02*
X56350000Y-108275000D01*
X56350000Y-108275000D02*
X56350000Y-108905000D01*
X56350000Y-110295000D02*
X56350000Y-109505000D01*
D14*
X55390000Y-109205000D02*
G75*
G02*
X55310000Y-109205000I-40000J0D01*
G01*
X55310000Y-109205000D02*
G75*
G02*
X55390000Y-109205000I40000J0D01*
G01*
X56390000Y-109205000D02*
G75*
G02*
X56310000Y-109205000I-40000J0D01*
G01*
X56310000Y-109205000D02*
G75*
G02*
X56390000Y-109205000I40000J0D01*
G01*
D13*
%TO.C,U20*%
X92575000Y-126445000D02*
X93375000Y-126445000D01*
X93375000Y-126445000D02*
X93375000Y-125695000D01*
%TO.C,U22*%
X102570000Y-126440000D02*
X103370000Y-126440000D01*
X103370000Y-126440000D02*
X103370000Y-125690000D01*
D15*
%TO.C,R5*%
X58116359Y-116610000D02*
X58423641Y-116610000D01*
X58116359Y-115850000D02*
X58423641Y-115850000D01*
%TO.C,C47*%
X132227836Y-134655000D02*
X132012164Y-134655000D01*
X132227836Y-135375000D02*
X132012164Y-135375000D01*
D13*
%TO.C,U46*%
X122570000Y-134765000D02*
X123370000Y-134765000D01*
X123370000Y-134765000D02*
X123370000Y-134015000D01*
%TO.C,U14*%
X62575000Y-126445000D02*
X63375000Y-126445000D01*
X63375000Y-126445000D02*
X63375000Y-125695000D01*
D15*
%TO.C,C26*%
X127147836Y-126330000D02*
X126932164Y-126330000D01*
X127147836Y-127050000D02*
X126932164Y-127050000D01*
D13*
%TO.C,U47*%
X127570000Y-134765000D02*
X128370000Y-134765000D01*
X128370000Y-134765000D02*
X128370000Y-134015000D01*
D15*
%TO.C,C15*%
X72152836Y-126335000D02*
X71937164Y-126335000D01*
X72152836Y-127055000D02*
X71937164Y-127055000D01*
D13*
%TO.C,U34*%
X62570000Y-134765000D02*
X63370000Y-134765000D01*
X63370000Y-134765000D02*
X63370000Y-134015000D01*
%TO.C,U32*%
X52570000Y-134765000D02*
X53370000Y-134765000D01*
X53370000Y-134765000D02*
X53370000Y-134015000D01*
%TO.C,U29*%
X137570000Y-126440000D02*
X138370000Y-126440000D01*
X138370000Y-126440000D02*
X138370000Y-125690000D01*
%TO.C,U31*%
X147570000Y-126440000D02*
X148370000Y-126440000D01*
X148370000Y-126440000D02*
X148370000Y-125690000D01*
D15*
%TO.C,C8*%
X55390000Y-115597164D02*
X55390000Y-115812836D01*
X56110000Y-115597164D02*
X56110000Y-115812836D01*
D13*
%TO.C,U4*%
X49300000Y-90585000D02*
X52240000Y-90585000D01*
X49300000Y-97245000D02*
X49300000Y-90585000D01*
X52240000Y-90585000D02*
X52240000Y-97245000D01*
X52240000Y-97245000D02*
X49300000Y-97245000D01*
%TO.C,U49*%
X137570000Y-134765000D02*
X138370000Y-134765000D01*
X138370000Y-134765000D02*
X138370000Y-134015000D01*
D15*
%TO.C,C42*%
X107127836Y-134755000D02*
X106912164Y-134755000D01*
X107127836Y-135475000D02*
X106912164Y-135475000D01*
D13*
%TO.C,U33*%
X57570000Y-134765000D02*
X58370000Y-134765000D01*
X58370000Y-134765000D02*
X58370000Y-134015000D01*
%TO.C,U48*%
X132570000Y-134765000D02*
X133370000Y-134765000D01*
X133370000Y-134765000D02*
X133370000Y-134015000D01*
D15*
%TO.C,C27*%
X132227836Y-126330000D02*
X132012164Y-126330000D01*
X132227836Y-127050000D02*
X132012164Y-127050000D01*
D13*
%TO.C,U23*%
X107570000Y-126440000D02*
X108370000Y-126440000D01*
X108370000Y-126440000D02*
X108370000Y-125690000D01*
D15*
%TO.C,C28*%
X137127836Y-126330000D02*
X136912164Y-126330000D01*
X137127836Y-127050000D02*
X136912164Y-127050000D01*
%TO.C,C4*%
X42557836Y-89255000D02*
X42342164Y-89255000D01*
X42557836Y-89975000D02*
X42342164Y-89975000D01*
D13*
%TO.C,U42*%
X102570000Y-134765000D02*
X103370000Y-134765000D01*
X103370000Y-134765000D02*
X103370000Y-134015000D01*
D15*
%TO.C,R2*%
X50043859Y-115545000D02*
X50351141Y-115545000D01*
X50043859Y-116305000D02*
X50351141Y-116305000D01*
%TO.C,C37*%
X82227836Y-134655000D02*
X82012164Y-134655000D01*
X82227836Y-135375000D02*
X82012164Y-135375000D01*
%TO.C,C21*%
X102227836Y-126430000D02*
X102012164Y-126430000D01*
X102227836Y-127150000D02*
X102012164Y-127150000D01*
%TO.C,R6*%
X55628641Y-107060000D02*
X55321359Y-107060000D01*
X55628641Y-107820000D02*
X55321359Y-107820000D01*
%TO.C,C14*%
X67132836Y-126335000D02*
X66917164Y-126335000D01*
X67132836Y-127055000D02*
X66917164Y-127055000D01*
%TO.C,C48*%
X137127836Y-134655000D02*
X136912164Y-134655000D01*
X137127836Y-135375000D02*
X136912164Y-135375000D01*
D13*
%TO.C,U26*%
X122570000Y-126440000D02*
X123370000Y-126440000D01*
X123370000Y-126440000D02*
X123370000Y-125690000D01*
D16*
%TO.C,U6*%
X40950000Y-96620000D02*
X40950000Y-99380000D01*
X41480000Y-97490000D02*
X41480000Y-98510000D01*
X43040000Y-95800000D02*
X41960000Y-95800000D01*
X43040000Y-100200000D02*
X41960000Y-100200000D01*
X43520000Y-97490000D02*
X43520000Y-98510000D01*
X44020000Y-99370000D02*
X44020000Y-96630000D01*
X41480000Y-97490000D02*
G75*
G02*
X43520000Y-97490000I1020000J0D01*
G01*
X43520000Y-98510000D02*
G75*
G02*
X41480000Y-98510000I-1020000J0D01*
G01*
D13*
%TO.C,U24*%
X112570000Y-126440000D02*
X113370000Y-126440000D01*
X113370000Y-126440000D02*
X113370000Y-125690000D01*
%TO.C,U36*%
X72570000Y-134765000D02*
X73370000Y-134765000D01*
X73370000Y-134765000D02*
X73370000Y-134015000D01*
D15*
%TO.C,C46*%
X127147836Y-134655000D02*
X126932164Y-134655000D01*
X127147836Y-135375000D02*
X126932164Y-135375000D01*
%TO.C,C44*%
X117127836Y-134655000D02*
X116912164Y-134655000D01*
X117127836Y-135375000D02*
X116912164Y-135375000D01*
D13*
%TO.C,U40*%
X92570000Y-134765000D02*
X93370000Y-134765000D01*
X93370000Y-134765000D02*
X93370000Y-134015000D01*
D15*
%TO.C,C22*%
X107127836Y-126430000D02*
X106912164Y-126430000D01*
X107127836Y-127150000D02*
X106912164Y-127150000D01*
%TO.C,C24*%
X117127836Y-126330000D02*
X116912164Y-126330000D01*
X117127836Y-127050000D02*
X116912164Y-127050000D01*
%TO.C,C19*%
X92212836Y-126335000D02*
X91997164Y-126335000D01*
X92212836Y-127055000D02*
X91997164Y-127055000D01*
%TO.C,C29*%
X142207836Y-126330000D02*
X141992164Y-126330000D01*
X142207836Y-127050000D02*
X141992164Y-127050000D01*
%TO.C,C17*%
X82232836Y-126335000D02*
X82017164Y-126335000D01*
X82232836Y-127055000D02*
X82017164Y-127055000D01*
%TO.C,C16*%
X77152836Y-126335000D02*
X76937164Y-126335000D01*
X77152836Y-127055000D02*
X76937164Y-127055000D01*
D13*
%TO.C,U25*%
X117570000Y-126440000D02*
X118370000Y-126440000D01*
X118370000Y-126440000D02*
X118370000Y-125690000D01*
%TO.C,U9*%
X54225000Y-108270000D02*
X54375000Y-108110000D01*
X54225000Y-108900000D02*
X54225000Y-108270000D01*
X54225000Y-109500000D02*
X54225000Y-110290000D01*
X54225000Y-110290000D02*
X55225000Y-110290000D01*
X54375000Y-108110000D02*
X55075000Y-108110000D01*
X55075000Y-108110000D02*
X55225000Y-108270000D01*
X55225000Y-108270000D02*
X55225000Y-108900000D01*
X55225000Y-110290000D02*
X55225000Y-109500000D01*
D14*
X54265000Y-109200000D02*
G75*
G02*
X54185000Y-109200000I-40000J0D01*
G01*
X54185000Y-109200000D02*
G75*
G02*
X54265000Y-109200000I40000J0D01*
G01*
X55265000Y-109200000D02*
G75*
G02*
X55185000Y-109200000I-40000J0D01*
G01*
X55185000Y-109200000D02*
G75*
G02*
X55265000Y-109200000I40000J0D01*
G01*
D15*
%TO.C,R4*%
X57096359Y-114885000D02*
X57403641Y-114885000D01*
X57096359Y-115645000D02*
X57403641Y-115645000D01*
D13*
%TO.C,U39*%
X87570000Y-134765000D02*
X88370000Y-134765000D01*
X88370000Y-134765000D02*
X88370000Y-134015000D01*
%TO.C,U12*%
X52575000Y-126445000D02*
X53375000Y-126445000D01*
X53375000Y-126445000D02*
X53375000Y-125695000D01*
%TD*%
M02*
