%TF.GenerationSoftware,KiCad,Pcbnew,8.0.6*%
%TF.CreationDate,2024-10-31T12:42:14-07:00*%
%TF.ProjectId,veramonitor,76657261-6d6f-46e6-9974-6f722e6b6963,rev?*%
%TF.SameCoordinates,Original*%
%TF.FileFunction,Drillmap*%
%TF.FilePolarity,Positive*%
%FSLAX45Y45*%
G04 Gerber Fmt 4.5, Leading zero omitted, Abs format (unit mm)*
G04 Created by KiCad (PCBNEW 8.0.6) date 2024-10-31 12:42:14*
%MOMM*%
%LPD*%
G01*
G04 APERTURE LIST*
%ADD10C,0.200000*%
%ADD11C,0.100000*%
%ADD12C,0.110002*%
%ADD13C,0.299999*%
G04 APERTURE END LIST*
D10*
X15033000Y-10796000D02*
G75*
G02*
X14733000Y-10796000I-150000J0D01*
G01*
X14733000Y-10796000D02*
G75*
G02*
X15033000Y-10796000I150000J0D01*
G01*
X15026000Y-6933000D02*
G75*
G02*
X14726000Y-6933000I-150000J0D01*
G01*
X14726000Y-6933000D02*
G75*
G02*
X15026000Y-6933000I150000J0D01*
G01*
X4008000Y-6690000D02*
X15130000Y-6690000D01*
X15130000Y-13730000D01*
X4008000Y-13730000D01*
X4008000Y-6690000D01*
D11*
X4780000Y-7947500D02*
X4810000Y-7977500D01*
X4810000Y-7947500D02*
X4780000Y-7977500D01*
X4780000Y-8087500D02*
X4810000Y-8117500D01*
X4810000Y-8087500D02*
X4780000Y-8117500D01*
X4850000Y-7877500D02*
X4880000Y-7907500D01*
X4880000Y-7877500D02*
X4850000Y-7907500D01*
X4850000Y-8017500D02*
X4880000Y-8047500D01*
X4880000Y-8017500D02*
X4850000Y-8047500D01*
X4850000Y-8157500D02*
X4880000Y-8187500D01*
X4880000Y-8157500D02*
X4850000Y-8187500D01*
X4920000Y-7947500D02*
X4950000Y-7977500D01*
X4950000Y-7947500D02*
X4920000Y-7977500D01*
X4920000Y-8087500D02*
X4950000Y-8117500D01*
X4950000Y-8087500D02*
X4920000Y-8117500D01*
X4990000Y-7877500D02*
X5020000Y-7907500D01*
X5020000Y-7877500D02*
X4990000Y-7907500D01*
X4990000Y-8017500D02*
X5020000Y-8047500D01*
X5020000Y-8017500D02*
X4990000Y-8047500D01*
X4990000Y-8157500D02*
X5020000Y-8187500D01*
X5020000Y-8157500D02*
X4990000Y-8187500D01*
X5060000Y-7947500D02*
X5090000Y-7977500D01*
X5090000Y-7947500D02*
X5060000Y-7977500D01*
X5060000Y-8087500D02*
X5090000Y-8117500D01*
X5090000Y-8087500D02*
X5060000Y-8117500D01*
X4096000Y-9782000D02*
G75*
G02*
X4056000Y-9782000I-20000J0D01*
G01*
X4056000Y-9782000D02*
G75*
G02*
X4096000Y-9782000I20000J0D01*
G01*
X4220000Y-7270000D02*
G75*
G02*
X4180000Y-7270000I-20000J0D01*
G01*
X4180000Y-7270000D02*
G75*
G02*
X4220000Y-7270000I20000J0D01*
G01*
X4225000Y-6857000D02*
G75*
G02*
X4185000Y-6857000I-20000J0D01*
G01*
X4185000Y-6857000D02*
G75*
G02*
X4225000Y-6857000I20000J0D01*
G01*
X4279000Y-12265000D02*
G75*
G02*
X4239000Y-12265000I-20000J0D01*
G01*
X4239000Y-12265000D02*
G75*
G02*
X4279000Y-12265000I20000J0D01*
G01*
X4300000Y-9849000D02*
G75*
G02*
X4260000Y-9849000I-20000J0D01*
G01*
X4260000Y-9849000D02*
G75*
G02*
X4300000Y-9849000I20000J0D01*
G01*
X4323000Y-11501000D02*
G75*
G02*
X4283000Y-11501000I-20000J0D01*
G01*
X4283000Y-11501000D02*
G75*
G02*
X4323000Y-11501000I20000J0D01*
G01*
X4324000Y-11593000D02*
G75*
G02*
X4284000Y-11593000I-20000J0D01*
G01*
X4284000Y-11593000D02*
G75*
G02*
X4324000Y-11593000I20000J0D01*
G01*
X4377000Y-9710000D02*
G75*
G02*
X4337000Y-9710000I-20000J0D01*
G01*
X4337000Y-9710000D02*
G75*
G02*
X4377000Y-9710000I20000J0D01*
G01*
X4449000Y-10362000D02*
G75*
G02*
X4409000Y-10362000I-20000J0D01*
G01*
X4409000Y-10362000D02*
G75*
G02*
X4449000Y-10362000I20000J0D01*
G01*
X4456000Y-10527000D02*
G75*
G02*
X4416000Y-10527000I-20000J0D01*
G01*
X4416000Y-10527000D02*
G75*
G02*
X4456000Y-10527000I20000J0D01*
G01*
X4457575Y-10628480D02*
G75*
G02*
X4417575Y-10628480I-20000J0D01*
G01*
X4417575Y-10628480D02*
G75*
G02*
X4457575Y-10628480I20000J0D01*
G01*
X4462500Y-9269500D02*
G75*
G02*
X4422500Y-9269500I-20000J0D01*
G01*
X4422500Y-9269500D02*
G75*
G02*
X4462500Y-9269500I20000J0D01*
G01*
X4493000Y-9860000D02*
G75*
G02*
X4453000Y-9860000I-20000J0D01*
G01*
X4453000Y-9860000D02*
G75*
G02*
X4493000Y-9860000I20000J0D01*
G01*
X4571000Y-7267000D02*
G75*
G02*
X4531000Y-7267000I-20000J0D01*
G01*
X4531000Y-7267000D02*
G75*
G02*
X4571000Y-7267000I20000J0D01*
G01*
X4670000Y-7148000D02*
G75*
G02*
X4630000Y-7148000I-20000J0D01*
G01*
X4630000Y-7148000D02*
G75*
G02*
X4670000Y-7148000I20000J0D01*
G01*
X4682000Y-10118000D02*
G75*
G02*
X4642000Y-10118000I-20000J0D01*
G01*
X4642000Y-10118000D02*
G75*
G02*
X4682000Y-10118000I20000J0D01*
G01*
X4686735Y-8600735D02*
G75*
G02*
X4646735Y-8600735I-20000J0D01*
G01*
X4646735Y-8600735D02*
G75*
G02*
X4686735Y-8600735I20000J0D01*
G01*
X4787500Y-7172500D02*
G75*
G02*
X4747500Y-7172500I-20000J0D01*
G01*
X4747500Y-7172500D02*
G75*
G02*
X4787500Y-7172500I20000J0D01*
G01*
X4823000Y-10591000D02*
G75*
G02*
X4783000Y-10591000I-20000J0D01*
G01*
X4783000Y-10591000D02*
G75*
G02*
X4823000Y-10591000I20000J0D01*
G01*
X4832500Y-8531500D02*
G75*
G02*
X4792500Y-8531500I-20000J0D01*
G01*
X4792500Y-8531500D02*
G75*
G02*
X4832500Y-8531500I20000J0D01*
G01*
X4839000Y-8906000D02*
G75*
G02*
X4799000Y-8906000I-20000J0D01*
G01*
X4799000Y-8906000D02*
G75*
G02*
X4839000Y-8906000I20000J0D01*
G01*
X4917500Y-7170000D02*
G75*
G02*
X4877500Y-7170000I-20000J0D01*
G01*
X4877500Y-7170000D02*
G75*
G02*
X4917500Y-7170000I20000J0D01*
G01*
X4937500Y-9801500D02*
G75*
G02*
X4897500Y-9801500I-20000J0D01*
G01*
X4897500Y-9801500D02*
G75*
G02*
X4937500Y-9801500I20000J0D01*
G01*
X4955000Y-8908000D02*
G75*
G02*
X4915000Y-8908000I-20000J0D01*
G01*
X4915000Y-8908000D02*
G75*
G02*
X4955000Y-8908000I20000J0D01*
G01*
X4972500Y-9800000D02*
G75*
G02*
X4932500Y-9800000I-20000J0D01*
G01*
X4932500Y-9800000D02*
G75*
G02*
X4972500Y-9800000I20000J0D01*
G01*
X4973000Y-8443000D02*
G75*
G02*
X4933000Y-8443000I-20000J0D01*
G01*
X4933000Y-8443000D02*
G75*
G02*
X4973000Y-8443000I20000J0D01*
G01*
X5000000Y-10135000D02*
G75*
G02*
X4960000Y-10135000I-20000J0D01*
G01*
X4960000Y-10135000D02*
G75*
G02*
X5000000Y-10135000I20000J0D01*
G01*
X5000000Y-11043000D02*
G75*
G02*
X4960000Y-11043000I-20000J0D01*
G01*
X4960000Y-11043000D02*
G75*
G02*
X5000000Y-11043000I20000J0D01*
G01*
X5000000Y-11135000D02*
G75*
G02*
X4960000Y-11135000I-20000J0D01*
G01*
X4960000Y-11135000D02*
G75*
G02*
X5000000Y-11135000I20000J0D01*
G01*
X5032000Y-13389000D02*
G75*
G02*
X4992000Y-13389000I-20000J0D01*
G01*
X4992000Y-13389000D02*
G75*
G02*
X5032000Y-13389000I20000J0D01*
G01*
X5036000Y-11772000D02*
G75*
G02*
X4996000Y-11772000I-20000J0D01*
G01*
X4996000Y-11772000D02*
G75*
G02*
X5036000Y-11772000I20000J0D01*
G01*
X5042000Y-13261500D02*
G75*
G02*
X5002000Y-13261500I-20000J0D01*
G01*
X5002000Y-13261500D02*
G75*
G02*
X5042000Y-13261500I20000J0D01*
G01*
X5042500Y-12429500D02*
G75*
G02*
X5002500Y-12429500I-20000J0D01*
G01*
X5002500Y-12429500D02*
G75*
G02*
X5042500Y-12429500I20000J0D01*
G01*
X5045000Y-7170000D02*
G75*
G02*
X5005000Y-7170000I-20000J0D01*
G01*
X5005000Y-7170000D02*
G75*
G02*
X5045000Y-7170000I20000J0D01*
G01*
X5079000Y-8445000D02*
G75*
G02*
X5039000Y-8445000I-20000J0D01*
G01*
X5039000Y-8445000D02*
G75*
G02*
X5079000Y-8445000I20000J0D01*
G01*
X5102000Y-13511500D02*
G75*
G02*
X5062000Y-13511500I-20000J0D01*
G01*
X5062000Y-13511500D02*
G75*
G02*
X5102000Y-13511500I20000J0D01*
G01*
X5102500Y-12679500D02*
G75*
G02*
X5062500Y-12679500I-20000J0D01*
G01*
X5062500Y-12679500D02*
G75*
G02*
X5102500Y-12679500I20000J0D01*
G01*
X5125000Y-11770000D02*
G75*
G02*
X5085000Y-11770000I-20000J0D01*
G01*
X5085000Y-11770000D02*
G75*
G02*
X5125000Y-11770000I20000J0D01*
G01*
X5177500Y-7167500D02*
G75*
G02*
X5137500Y-7167500I-20000J0D01*
G01*
X5137500Y-7167500D02*
G75*
G02*
X5177500Y-7167500I20000J0D01*
G01*
X5216000Y-10554000D02*
G75*
G02*
X5176000Y-10554000I-20000J0D01*
G01*
X5176000Y-10554000D02*
G75*
G02*
X5216000Y-10554000I20000J0D01*
G01*
X5226000Y-10737000D02*
G75*
G02*
X5186000Y-10737000I-20000J0D01*
G01*
X5186000Y-10737000D02*
G75*
G02*
X5226000Y-10737000I20000J0D01*
G01*
X5302500Y-11522500D02*
G75*
G02*
X5262500Y-11522500I-20000J0D01*
G01*
X5262500Y-11522500D02*
G75*
G02*
X5302500Y-11522500I20000J0D01*
G01*
X5316000Y-9648000D02*
G75*
G02*
X5276000Y-9648000I-20000J0D01*
G01*
X5276000Y-9648000D02*
G75*
G02*
X5316000Y-9648000I20000J0D01*
G01*
X5350000Y-9027000D02*
G75*
G02*
X5310000Y-9027000I-20000J0D01*
G01*
X5310000Y-9027000D02*
G75*
G02*
X5350000Y-9027000I20000J0D01*
G01*
X5372000Y-13391500D02*
G75*
G02*
X5332000Y-13391500I-20000J0D01*
G01*
X5332000Y-13391500D02*
G75*
G02*
X5372000Y-13391500I20000J0D01*
G01*
X5372500Y-12559500D02*
G75*
G02*
X5332500Y-12559500I-20000J0D01*
G01*
X5332500Y-12559500D02*
G75*
G02*
X5372500Y-12559500I20000J0D01*
G01*
X5415000Y-7598000D02*
G75*
G02*
X5375000Y-7598000I-20000J0D01*
G01*
X5375000Y-7598000D02*
G75*
G02*
X5415000Y-7598000I20000J0D01*
G01*
X5440000Y-10185000D02*
G75*
G02*
X5400000Y-10185000I-20000J0D01*
G01*
X5400000Y-10185000D02*
G75*
G02*
X5440000Y-10185000I20000J0D01*
G01*
X5499000Y-11444500D02*
G75*
G02*
X5459000Y-11444500I-20000J0D01*
G01*
X5459000Y-11444500D02*
G75*
G02*
X5499000Y-11444500I20000J0D01*
G01*
X5542000Y-13261500D02*
G75*
G02*
X5502000Y-13261500I-20000J0D01*
G01*
X5502000Y-13261500D02*
G75*
G02*
X5542000Y-13261500I20000J0D01*
G01*
X5542500Y-9875000D02*
G75*
G02*
X5502500Y-9875000I-20000J0D01*
G01*
X5502500Y-9875000D02*
G75*
G02*
X5542500Y-9875000I20000J0D01*
G01*
X5542500Y-12429500D02*
G75*
G02*
X5502500Y-12429500I-20000J0D01*
G01*
X5502500Y-12429500D02*
G75*
G02*
X5542500Y-12429500I20000J0D01*
G01*
X5572000Y-13511500D02*
G75*
G02*
X5532000Y-13511500I-20000J0D01*
G01*
X5532000Y-13511500D02*
G75*
G02*
X5572000Y-13511500I20000J0D01*
G01*
X5572500Y-12679500D02*
G75*
G02*
X5532500Y-12679500I-20000J0D01*
G01*
X5532500Y-12679500D02*
G75*
G02*
X5572500Y-12679500I20000J0D01*
G01*
X5608000Y-9217000D02*
G75*
G02*
X5568000Y-9217000I-20000J0D01*
G01*
X5568000Y-9217000D02*
G75*
G02*
X5608000Y-9217000I20000J0D01*
G01*
X5608000Y-9438000D02*
G75*
G02*
X5568000Y-9438000I-20000J0D01*
G01*
X5568000Y-9438000D02*
G75*
G02*
X5608000Y-9438000I20000J0D01*
G01*
X5630000Y-12124000D02*
G75*
G02*
X5590000Y-12124000I-20000J0D01*
G01*
X5590000Y-12124000D02*
G75*
G02*
X5630000Y-12124000I20000J0D01*
G01*
X5661000Y-9872000D02*
G75*
G02*
X5621000Y-9872000I-20000J0D01*
G01*
X5621000Y-9872000D02*
G75*
G02*
X5661000Y-9872000I20000J0D01*
G01*
X5686485Y-9114515D02*
G75*
G02*
X5646485Y-9114515I-20000J0D01*
G01*
X5646485Y-9114515D02*
G75*
G02*
X5686485Y-9114515I20000J0D01*
G01*
X5689000Y-10205000D02*
G75*
G02*
X5649000Y-10205000I-20000J0D01*
G01*
X5649000Y-10205000D02*
G75*
G02*
X5689000Y-10205000I20000J0D01*
G01*
X5731000Y-8589000D02*
G75*
G02*
X5691000Y-8589000I-20000J0D01*
G01*
X5691000Y-8589000D02*
G75*
G02*
X5731000Y-8589000I20000J0D01*
G01*
X5792000Y-9762000D02*
G75*
G02*
X5752000Y-9762000I-20000J0D01*
G01*
X5752000Y-9762000D02*
G75*
G02*
X5792000Y-9762000I20000J0D01*
G01*
X5797000Y-9104000D02*
G75*
G02*
X5757000Y-9104000I-20000J0D01*
G01*
X5757000Y-9104000D02*
G75*
G02*
X5797000Y-9104000I20000J0D01*
G01*
X5812500Y-10745000D02*
G75*
G02*
X5772500Y-10745000I-20000J0D01*
G01*
X5772500Y-10745000D02*
G75*
G02*
X5812500Y-10745000I20000J0D01*
G01*
X5859000Y-10344000D02*
G75*
G02*
X5819000Y-10344000I-20000J0D01*
G01*
X5819000Y-10344000D02*
G75*
G02*
X5859000Y-10344000I20000J0D01*
G01*
X5872000Y-13391500D02*
G75*
G02*
X5832000Y-13391500I-20000J0D01*
G01*
X5832000Y-13391500D02*
G75*
G02*
X5872000Y-13391500I20000J0D01*
G01*
X5872500Y-12559500D02*
G75*
G02*
X5832500Y-12559500I-20000J0D01*
G01*
X5832500Y-12559500D02*
G75*
G02*
X5872500Y-12559500I20000J0D01*
G01*
X5913000Y-12115000D02*
G75*
G02*
X5873000Y-12115000I-20000J0D01*
G01*
X5873000Y-12115000D02*
G75*
G02*
X5913000Y-12115000I20000J0D01*
G01*
X5941000Y-10966000D02*
G75*
G02*
X5901000Y-10966000I-20000J0D01*
G01*
X5901000Y-10966000D02*
G75*
G02*
X5941000Y-10966000I20000J0D01*
G01*
X5960750Y-8687750D02*
G75*
G02*
X5920750Y-8687750I-20000J0D01*
G01*
X5920750Y-8687750D02*
G75*
G02*
X5960750Y-8687750I20000J0D01*
G01*
X5986000Y-10709000D02*
G75*
G02*
X5946000Y-10709000I-20000J0D01*
G01*
X5946000Y-10709000D02*
G75*
G02*
X5986000Y-10709000I20000J0D01*
G01*
X6042000Y-13261500D02*
G75*
G02*
X6002000Y-13261500I-20000J0D01*
G01*
X6002000Y-13261500D02*
G75*
G02*
X6042000Y-13261500I20000J0D01*
G01*
X6042500Y-12429500D02*
G75*
G02*
X6002500Y-12429500I-20000J0D01*
G01*
X6002500Y-12429500D02*
G75*
G02*
X6042500Y-12429500I20000J0D01*
G01*
X6044000Y-10885000D02*
G75*
G02*
X6004000Y-10885000I-20000J0D01*
G01*
X6004000Y-10885000D02*
G75*
G02*
X6044000Y-10885000I20000J0D01*
G01*
X6072000Y-8943000D02*
G75*
G02*
X6032000Y-8943000I-20000J0D01*
G01*
X6032000Y-8943000D02*
G75*
G02*
X6072000Y-8943000I20000J0D01*
G01*
X6072000Y-13501500D02*
G75*
G02*
X6032000Y-13501500I-20000J0D01*
G01*
X6032000Y-13501500D02*
G75*
G02*
X6072000Y-13501500I20000J0D01*
G01*
X6072500Y-12669500D02*
G75*
G02*
X6032500Y-12669500I-20000J0D01*
G01*
X6032500Y-12669500D02*
G75*
G02*
X6072500Y-12669500I20000J0D01*
G01*
X6122000Y-9661000D02*
G75*
G02*
X6082000Y-9661000I-20000J0D01*
G01*
X6082000Y-9661000D02*
G75*
G02*
X6122000Y-9661000I20000J0D01*
G01*
X6222000Y-7952000D02*
G75*
G02*
X6182000Y-7952000I-20000J0D01*
G01*
X6182000Y-7952000D02*
G75*
G02*
X6222000Y-7952000I20000J0D01*
G01*
X6245000Y-13009000D02*
G75*
G02*
X6205000Y-13009000I-20000J0D01*
G01*
X6205000Y-13009000D02*
G75*
G02*
X6245000Y-13009000I20000J0D01*
G01*
X6372000Y-13391500D02*
G75*
G02*
X6332000Y-13391500I-20000J0D01*
G01*
X6332000Y-13391500D02*
G75*
G02*
X6372000Y-13391500I20000J0D01*
G01*
X6372500Y-12559500D02*
G75*
G02*
X6332500Y-12559500I-20000J0D01*
G01*
X6332500Y-12559500D02*
G75*
G02*
X6372500Y-12559500I20000J0D01*
G01*
X6542000Y-13261500D02*
G75*
G02*
X6502000Y-13261500I-20000J0D01*
G01*
X6502000Y-13261500D02*
G75*
G02*
X6542000Y-13261500I20000J0D01*
G01*
X6542500Y-12429500D02*
G75*
G02*
X6502500Y-12429500I-20000J0D01*
G01*
X6502500Y-12429500D02*
G75*
G02*
X6542500Y-12429500I20000J0D01*
G01*
X6592000Y-13501500D02*
G75*
G02*
X6552000Y-13501500I-20000J0D01*
G01*
X6552000Y-13501500D02*
G75*
G02*
X6592000Y-13501500I20000J0D01*
G01*
X6592500Y-12669500D02*
G75*
G02*
X6552500Y-12669500I-20000J0D01*
G01*
X6552500Y-12669500D02*
G75*
G02*
X6592500Y-12669500I20000J0D01*
G01*
X6606000Y-8620000D02*
G75*
G02*
X6566000Y-8620000I-20000J0D01*
G01*
X6566000Y-8620000D02*
G75*
G02*
X6606000Y-8620000I20000J0D01*
G01*
X6802000Y-9559000D02*
G75*
G02*
X6762000Y-9559000I-20000J0D01*
G01*
X6762000Y-9559000D02*
G75*
G02*
X6802000Y-9559000I20000J0D01*
G01*
X6872000Y-13391500D02*
G75*
G02*
X6832000Y-13391500I-20000J0D01*
G01*
X6832000Y-13391500D02*
G75*
G02*
X6872000Y-13391500I20000J0D01*
G01*
X6872500Y-12559500D02*
G75*
G02*
X6832500Y-12559500I-20000J0D01*
G01*
X6832500Y-12559500D02*
G75*
G02*
X6872500Y-12559500I20000J0D01*
G01*
X6961000Y-9558000D02*
G75*
G02*
X6921000Y-9558000I-20000J0D01*
G01*
X6921000Y-9558000D02*
G75*
G02*
X6961000Y-9558000I20000J0D01*
G01*
X7042000Y-13261500D02*
G75*
G02*
X7002000Y-13261500I-20000J0D01*
G01*
X7002000Y-13261500D02*
G75*
G02*
X7042000Y-13261500I20000J0D01*
G01*
X7042500Y-12429500D02*
G75*
G02*
X7002500Y-12429500I-20000J0D01*
G01*
X7002500Y-12429500D02*
G75*
G02*
X7042500Y-12429500I20000J0D01*
G01*
X7092000Y-13501500D02*
G75*
G02*
X7052000Y-13501500I-20000J0D01*
G01*
X7052000Y-13501500D02*
G75*
G02*
X7092000Y-13501500I20000J0D01*
G01*
X7092500Y-12669500D02*
G75*
G02*
X7052500Y-12669500I-20000J0D01*
G01*
X7052500Y-12669500D02*
G75*
G02*
X7092500Y-12669500I20000J0D01*
G01*
X7112000Y-9554000D02*
G75*
G02*
X7072000Y-9554000I-20000J0D01*
G01*
X7072000Y-9554000D02*
G75*
G02*
X7112000Y-9554000I20000J0D01*
G01*
X7372000Y-13391500D02*
G75*
G02*
X7332000Y-13391500I-20000J0D01*
G01*
X7332000Y-13391500D02*
G75*
G02*
X7372000Y-13391500I20000J0D01*
G01*
X7372500Y-12559500D02*
G75*
G02*
X7332500Y-12559500I-20000J0D01*
G01*
X7332500Y-12559500D02*
G75*
G02*
X7372500Y-12559500I20000J0D01*
G01*
X7393000Y-10411000D02*
G75*
G02*
X7353000Y-10411000I-20000J0D01*
G01*
X7353000Y-10411000D02*
G75*
G02*
X7393000Y-10411000I20000J0D01*
G01*
X7396000Y-10177000D02*
G75*
G02*
X7356000Y-10177000I-20000J0D01*
G01*
X7356000Y-10177000D02*
G75*
G02*
X7396000Y-10177000I20000J0D01*
G01*
X7542000Y-13261500D02*
G75*
G02*
X7502000Y-13261500I-20000J0D01*
G01*
X7502000Y-13261500D02*
G75*
G02*
X7542000Y-13261500I20000J0D01*
G01*
X7542500Y-12429500D02*
G75*
G02*
X7502500Y-12429500I-20000J0D01*
G01*
X7502500Y-12429500D02*
G75*
G02*
X7542500Y-12429500I20000J0D01*
G01*
X7582000Y-13501500D02*
G75*
G02*
X7542000Y-13501500I-20000J0D01*
G01*
X7542000Y-13501500D02*
G75*
G02*
X7582000Y-13501500I20000J0D01*
G01*
X7582500Y-12669500D02*
G75*
G02*
X7542500Y-12669500I-20000J0D01*
G01*
X7542500Y-12669500D02*
G75*
G02*
X7582500Y-12669500I20000J0D01*
G01*
X7872000Y-13391500D02*
G75*
G02*
X7832000Y-13391500I-20000J0D01*
G01*
X7832000Y-13391500D02*
G75*
G02*
X7872000Y-13391500I20000J0D01*
G01*
X7872500Y-12559500D02*
G75*
G02*
X7832500Y-12559500I-20000J0D01*
G01*
X7832500Y-12559500D02*
G75*
G02*
X7872500Y-12559500I20000J0D01*
G01*
X8042000Y-13261500D02*
G75*
G02*
X8002000Y-13261500I-20000J0D01*
G01*
X8002000Y-13261500D02*
G75*
G02*
X8042000Y-13261500I20000J0D01*
G01*
X8042500Y-12429500D02*
G75*
G02*
X8002500Y-12429500I-20000J0D01*
G01*
X8002500Y-12429500D02*
G75*
G02*
X8042500Y-12429500I20000J0D01*
G01*
X8092000Y-13501500D02*
G75*
G02*
X8052000Y-13501500I-20000J0D01*
G01*
X8052000Y-13501500D02*
G75*
G02*
X8092000Y-13501500I20000J0D01*
G01*
X8092500Y-12669500D02*
G75*
G02*
X8052500Y-12669500I-20000J0D01*
G01*
X8052500Y-12669500D02*
G75*
G02*
X8092500Y-12669500I20000J0D01*
G01*
X8372000Y-13391500D02*
G75*
G02*
X8332000Y-13391500I-20000J0D01*
G01*
X8332000Y-13391500D02*
G75*
G02*
X8372000Y-13391500I20000J0D01*
G01*
X8372500Y-12559500D02*
G75*
G02*
X8332500Y-12559500I-20000J0D01*
G01*
X8332500Y-12559500D02*
G75*
G02*
X8372500Y-12559500I20000J0D01*
G01*
X8542000Y-13261500D02*
G75*
G02*
X8502000Y-13261500I-20000J0D01*
G01*
X8502000Y-13261500D02*
G75*
G02*
X8542000Y-13261500I20000J0D01*
G01*
X8542500Y-12429500D02*
G75*
G02*
X8502500Y-12429500I-20000J0D01*
G01*
X8502500Y-12429500D02*
G75*
G02*
X8542500Y-12429500I20000J0D01*
G01*
X8582000Y-13501500D02*
G75*
G02*
X8542000Y-13501500I-20000J0D01*
G01*
X8542000Y-13501500D02*
G75*
G02*
X8582000Y-13501500I20000J0D01*
G01*
X8582500Y-12669500D02*
G75*
G02*
X8542500Y-12669500I-20000J0D01*
G01*
X8542500Y-12669500D02*
G75*
G02*
X8582500Y-12669500I20000J0D01*
G01*
X8713000Y-12124000D02*
G75*
G02*
X8673000Y-12124000I-20000J0D01*
G01*
X8673000Y-12124000D02*
G75*
G02*
X8713000Y-12124000I20000J0D01*
G01*
X8721000Y-13016000D02*
G75*
G02*
X8681000Y-13016000I-20000J0D01*
G01*
X8681000Y-13016000D02*
G75*
G02*
X8721000Y-13016000I20000J0D01*
G01*
X8872000Y-13391500D02*
G75*
G02*
X8832000Y-13391500I-20000J0D01*
G01*
X8832000Y-13391500D02*
G75*
G02*
X8872000Y-13391500I20000J0D01*
G01*
X8872500Y-12559500D02*
G75*
G02*
X8832500Y-12559500I-20000J0D01*
G01*
X8832500Y-12559500D02*
G75*
G02*
X8872500Y-12559500I20000J0D01*
G01*
X9042000Y-13261500D02*
G75*
G02*
X9002000Y-13261500I-20000J0D01*
G01*
X9002000Y-13261500D02*
G75*
G02*
X9042000Y-13261500I20000J0D01*
G01*
X9042500Y-12429500D02*
G75*
G02*
X9002500Y-12429500I-20000J0D01*
G01*
X9002500Y-12429500D02*
G75*
G02*
X9042500Y-12429500I20000J0D01*
G01*
X9092000Y-13501500D02*
G75*
G02*
X9052000Y-13501500I-20000J0D01*
G01*
X9052000Y-13501500D02*
G75*
G02*
X9092000Y-13501500I20000J0D01*
G01*
X9092500Y-12669500D02*
G75*
G02*
X9052500Y-12669500I-20000J0D01*
G01*
X9052500Y-12669500D02*
G75*
G02*
X9092500Y-12669500I20000J0D01*
G01*
X9372000Y-13391500D02*
G75*
G02*
X9332000Y-13391500I-20000J0D01*
G01*
X9332000Y-13391500D02*
G75*
G02*
X9372000Y-13391500I20000J0D01*
G01*
X9372500Y-12559500D02*
G75*
G02*
X9332500Y-12559500I-20000J0D01*
G01*
X9332500Y-12559500D02*
G75*
G02*
X9372500Y-12559500I20000J0D01*
G01*
X9542000Y-13261500D02*
G75*
G02*
X9502000Y-13261500I-20000J0D01*
G01*
X9502000Y-13261500D02*
G75*
G02*
X9542000Y-13261500I20000J0D01*
G01*
X9542500Y-12429500D02*
G75*
G02*
X9502500Y-12429500I-20000J0D01*
G01*
X9502500Y-12429500D02*
G75*
G02*
X9542500Y-12429500I20000J0D01*
G01*
X9572000Y-13501500D02*
G75*
G02*
X9532000Y-13501500I-20000J0D01*
G01*
X9532000Y-13501500D02*
G75*
G02*
X9572000Y-13501500I20000J0D01*
G01*
X9572500Y-12669500D02*
G75*
G02*
X9532500Y-12669500I-20000J0D01*
G01*
X9532500Y-12669500D02*
G75*
G02*
X9572500Y-12669500I20000J0D01*
G01*
X9872000Y-13391500D02*
G75*
G02*
X9832000Y-13391500I-20000J0D01*
G01*
X9832000Y-13391500D02*
G75*
G02*
X9872000Y-13391500I20000J0D01*
G01*
X9872500Y-12559500D02*
G75*
G02*
X9832500Y-12559500I-20000J0D01*
G01*
X9832500Y-12559500D02*
G75*
G02*
X9872500Y-12559500I20000J0D01*
G01*
X10042000Y-12429000D02*
G75*
G02*
X10002000Y-12429000I-20000J0D01*
G01*
X10002000Y-12429000D02*
G75*
G02*
X10042000Y-12429000I20000J0D01*
G01*
X10042000Y-13261500D02*
G75*
G02*
X10002000Y-13261500I-20000J0D01*
G01*
X10002000Y-13261500D02*
G75*
G02*
X10042000Y-13261500I20000J0D01*
G01*
X10102000Y-12679000D02*
G75*
G02*
X10062000Y-12679000I-20000J0D01*
G01*
X10062000Y-12679000D02*
G75*
G02*
X10102000Y-12679000I20000J0D01*
G01*
X10102000Y-13511500D02*
G75*
G02*
X10062000Y-13511500I-20000J0D01*
G01*
X10062000Y-13511500D02*
G75*
G02*
X10102000Y-13511500I20000J0D01*
G01*
X10372000Y-12559000D02*
G75*
G02*
X10332000Y-12559000I-20000J0D01*
G01*
X10332000Y-12559000D02*
G75*
G02*
X10372000Y-12559000I20000J0D01*
G01*
X10372000Y-13391500D02*
G75*
G02*
X10332000Y-13391500I-20000J0D01*
G01*
X10332000Y-13391500D02*
G75*
G02*
X10372000Y-13391500I20000J0D01*
G01*
X10542000Y-12429000D02*
G75*
G02*
X10502000Y-12429000I-20000J0D01*
G01*
X10502000Y-12429000D02*
G75*
G02*
X10542000Y-12429000I20000J0D01*
G01*
X10542000Y-13261500D02*
G75*
G02*
X10502000Y-13261500I-20000J0D01*
G01*
X10502000Y-13261500D02*
G75*
G02*
X10542000Y-13261500I20000J0D01*
G01*
X10572000Y-12679000D02*
G75*
G02*
X10532000Y-12679000I-20000J0D01*
G01*
X10532000Y-12679000D02*
G75*
G02*
X10572000Y-12679000I20000J0D01*
G01*
X10572000Y-13511500D02*
G75*
G02*
X10532000Y-13511500I-20000J0D01*
G01*
X10532000Y-13511500D02*
G75*
G02*
X10572000Y-13511500I20000J0D01*
G01*
X10872000Y-12559000D02*
G75*
G02*
X10832000Y-12559000I-20000J0D01*
G01*
X10832000Y-12559000D02*
G75*
G02*
X10872000Y-12559000I20000J0D01*
G01*
X10872000Y-13391500D02*
G75*
G02*
X10832000Y-13391500I-20000J0D01*
G01*
X10832000Y-13391500D02*
G75*
G02*
X10872000Y-13391500I20000J0D01*
G01*
X11042000Y-12429000D02*
G75*
G02*
X11002000Y-12429000I-20000J0D01*
G01*
X11002000Y-12429000D02*
G75*
G02*
X11042000Y-12429000I20000J0D01*
G01*
X11042000Y-13261500D02*
G75*
G02*
X11002000Y-13261500I-20000J0D01*
G01*
X11002000Y-13261500D02*
G75*
G02*
X11042000Y-13261500I20000J0D01*
G01*
X11072000Y-12669000D02*
G75*
G02*
X11032000Y-12669000I-20000J0D01*
G01*
X11032000Y-12669000D02*
G75*
G02*
X11072000Y-12669000I20000J0D01*
G01*
X11072000Y-13501500D02*
G75*
G02*
X11032000Y-13501500I-20000J0D01*
G01*
X11032000Y-13501500D02*
G75*
G02*
X11072000Y-13501500I20000J0D01*
G01*
X11372000Y-12559000D02*
G75*
G02*
X11332000Y-12559000I-20000J0D01*
G01*
X11332000Y-12559000D02*
G75*
G02*
X11372000Y-12559000I20000J0D01*
G01*
X11372000Y-13391500D02*
G75*
G02*
X11332000Y-13391500I-20000J0D01*
G01*
X11332000Y-13391500D02*
G75*
G02*
X11372000Y-13391500I20000J0D01*
G01*
X11542000Y-12429000D02*
G75*
G02*
X11502000Y-12429000I-20000J0D01*
G01*
X11502000Y-12429000D02*
G75*
G02*
X11542000Y-12429000I20000J0D01*
G01*
X11542000Y-13261500D02*
G75*
G02*
X11502000Y-13261500I-20000J0D01*
G01*
X11502000Y-13261500D02*
G75*
G02*
X11542000Y-13261500I20000J0D01*
G01*
X11592000Y-12669000D02*
G75*
G02*
X11552000Y-12669000I-20000J0D01*
G01*
X11552000Y-12669000D02*
G75*
G02*
X11592000Y-12669000I20000J0D01*
G01*
X11592000Y-13501500D02*
G75*
G02*
X11552000Y-13501500I-20000J0D01*
G01*
X11552000Y-13501500D02*
G75*
G02*
X11592000Y-13501500I20000J0D01*
G01*
X11872000Y-12559000D02*
G75*
G02*
X11832000Y-12559000I-20000J0D01*
G01*
X11832000Y-12559000D02*
G75*
G02*
X11872000Y-12559000I20000J0D01*
G01*
X11872000Y-13391500D02*
G75*
G02*
X11832000Y-13391500I-20000J0D01*
G01*
X11832000Y-13391500D02*
G75*
G02*
X11872000Y-13391500I20000J0D01*
G01*
X11896000Y-7028000D02*
G75*
G02*
X11856000Y-7028000I-20000J0D01*
G01*
X11856000Y-7028000D02*
G75*
G02*
X11896000Y-7028000I20000J0D01*
G01*
X12042000Y-12429000D02*
G75*
G02*
X12002000Y-12429000I-20000J0D01*
G01*
X12002000Y-12429000D02*
G75*
G02*
X12042000Y-12429000I20000J0D01*
G01*
X12042000Y-13261500D02*
G75*
G02*
X12002000Y-13261500I-20000J0D01*
G01*
X12002000Y-13261500D02*
G75*
G02*
X12042000Y-13261500I20000J0D01*
G01*
X12092000Y-12669000D02*
G75*
G02*
X12052000Y-12669000I-20000J0D01*
G01*
X12052000Y-12669000D02*
G75*
G02*
X12092000Y-12669000I20000J0D01*
G01*
X12092000Y-13501500D02*
G75*
G02*
X12052000Y-13501500I-20000J0D01*
G01*
X12052000Y-13501500D02*
G75*
G02*
X12092000Y-13501500I20000J0D01*
G01*
X12372000Y-12559000D02*
G75*
G02*
X12332000Y-12559000I-20000J0D01*
G01*
X12332000Y-12559000D02*
G75*
G02*
X12372000Y-12559000I20000J0D01*
G01*
X12372000Y-13391500D02*
G75*
G02*
X12332000Y-13391500I-20000J0D01*
G01*
X12332000Y-13391500D02*
G75*
G02*
X12372000Y-13391500I20000J0D01*
G01*
X12419000Y-7073000D02*
G75*
G02*
X12379000Y-7073000I-20000J0D01*
G01*
X12379000Y-7073000D02*
G75*
G02*
X12419000Y-7073000I20000J0D01*
G01*
X12542000Y-12429000D02*
G75*
G02*
X12502000Y-12429000I-20000J0D01*
G01*
X12502000Y-12429000D02*
G75*
G02*
X12542000Y-12429000I20000J0D01*
G01*
X12542000Y-13261500D02*
G75*
G02*
X12502000Y-13261500I-20000J0D01*
G01*
X12502000Y-13261500D02*
G75*
G02*
X12542000Y-13261500I20000J0D01*
G01*
X12582000Y-12669000D02*
G75*
G02*
X12542000Y-12669000I-20000J0D01*
G01*
X12542000Y-12669000D02*
G75*
G02*
X12582000Y-12669000I20000J0D01*
G01*
X12582000Y-13501500D02*
G75*
G02*
X12542000Y-13501500I-20000J0D01*
G01*
X12542000Y-13501500D02*
G75*
G02*
X12582000Y-13501500I20000J0D01*
G01*
X12872000Y-12559000D02*
G75*
G02*
X12832000Y-12559000I-20000J0D01*
G01*
X12832000Y-12559000D02*
G75*
G02*
X12872000Y-12559000I20000J0D01*
G01*
X12872000Y-13391500D02*
G75*
G02*
X12832000Y-13391500I-20000J0D01*
G01*
X12832000Y-13391500D02*
G75*
G02*
X12872000Y-13391500I20000J0D01*
G01*
X13042000Y-12429000D02*
G75*
G02*
X13002000Y-12429000I-20000J0D01*
G01*
X13002000Y-12429000D02*
G75*
G02*
X13042000Y-12429000I20000J0D01*
G01*
X13042000Y-13261500D02*
G75*
G02*
X13002000Y-13261500I-20000J0D01*
G01*
X13002000Y-13261500D02*
G75*
G02*
X13042000Y-13261500I20000J0D01*
G01*
X13092000Y-12669000D02*
G75*
G02*
X13052000Y-12669000I-20000J0D01*
G01*
X13052000Y-12669000D02*
G75*
G02*
X13092000Y-12669000I20000J0D01*
G01*
X13092000Y-13501500D02*
G75*
G02*
X13052000Y-13501500I-20000J0D01*
G01*
X13052000Y-13501500D02*
G75*
G02*
X13092000Y-13501500I20000J0D01*
G01*
X13372000Y-12559000D02*
G75*
G02*
X13332000Y-12559000I-20000J0D01*
G01*
X13332000Y-12559000D02*
G75*
G02*
X13372000Y-12559000I20000J0D01*
G01*
X13372000Y-13391500D02*
G75*
G02*
X13332000Y-13391500I-20000J0D01*
G01*
X13332000Y-13391500D02*
G75*
G02*
X13372000Y-13391500I20000J0D01*
G01*
X13542000Y-12429000D02*
G75*
G02*
X13502000Y-12429000I-20000J0D01*
G01*
X13502000Y-12429000D02*
G75*
G02*
X13542000Y-12429000I20000J0D01*
G01*
X13542000Y-13261500D02*
G75*
G02*
X13502000Y-13261500I-20000J0D01*
G01*
X13502000Y-13261500D02*
G75*
G02*
X13542000Y-13261500I20000J0D01*
G01*
X13582000Y-12669000D02*
G75*
G02*
X13542000Y-12669000I-20000J0D01*
G01*
X13542000Y-12669000D02*
G75*
G02*
X13582000Y-12669000I20000J0D01*
G01*
X13582000Y-13501500D02*
G75*
G02*
X13542000Y-13501500I-20000J0D01*
G01*
X13542000Y-13501500D02*
G75*
G02*
X13582000Y-13501500I20000J0D01*
G01*
X13818000Y-9000000D02*
G75*
G02*
X13778000Y-9000000I-20000J0D01*
G01*
X13778000Y-9000000D02*
G75*
G02*
X13818000Y-9000000I20000J0D01*
G01*
X13862000Y-9817000D02*
G75*
G02*
X13822000Y-9817000I-20000J0D01*
G01*
X13822000Y-9817000D02*
G75*
G02*
X13862000Y-9817000I20000J0D01*
G01*
X13872000Y-12559000D02*
G75*
G02*
X13832000Y-12559000I-20000J0D01*
G01*
X13832000Y-12559000D02*
G75*
G02*
X13872000Y-12559000I20000J0D01*
G01*
X13872000Y-13391500D02*
G75*
G02*
X13832000Y-13391500I-20000J0D01*
G01*
X13832000Y-13391500D02*
G75*
G02*
X13872000Y-13391500I20000J0D01*
G01*
X14042000Y-12429000D02*
G75*
G02*
X14002000Y-12429000I-20000J0D01*
G01*
X14002000Y-12429000D02*
G75*
G02*
X14042000Y-12429000I20000J0D01*
G01*
X14042000Y-13261500D02*
G75*
G02*
X14002000Y-13261500I-20000J0D01*
G01*
X14002000Y-13261500D02*
G75*
G02*
X14042000Y-13261500I20000J0D01*
G01*
X14092000Y-12669000D02*
G75*
G02*
X14052000Y-12669000I-20000J0D01*
G01*
X14052000Y-12669000D02*
G75*
G02*
X14092000Y-12669000I20000J0D01*
G01*
X14092000Y-13501500D02*
G75*
G02*
X14052000Y-13501500I-20000J0D01*
G01*
X14052000Y-13501500D02*
G75*
G02*
X14092000Y-13501500I20000J0D01*
G01*
X14213000Y-12143000D02*
G75*
G02*
X14173000Y-12143000I-20000J0D01*
G01*
X14173000Y-12143000D02*
G75*
G02*
X14213000Y-12143000I20000J0D01*
G01*
X14236000Y-13032000D02*
G75*
G02*
X14196000Y-13032000I-20000J0D01*
G01*
X14196000Y-13032000D02*
G75*
G02*
X14236000Y-13032000I20000J0D01*
G01*
X14372000Y-12559000D02*
G75*
G02*
X14332000Y-12559000I-20000J0D01*
G01*
X14332000Y-12559000D02*
G75*
G02*
X14372000Y-12559000I20000J0D01*
G01*
X14372000Y-13391500D02*
G75*
G02*
X14332000Y-13391500I-20000J0D01*
G01*
X14332000Y-13391500D02*
G75*
G02*
X14372000Y-13391500I20000J0D01*
G01*
X14542000Y-12429000D02*
G75*
G02*
X14502000Y-12429000I-20000J0D01*
G01*
X14502000Y-12429000D02*
G75*
G02*
X14542000Y-12429000I20000J0D01*
G01*
X14542000Y-13261500D02*
G75*
G02*
X14502000Y-13261500I-20000J0D01*
G01*
X14502000Y-13261500D02*
G75*
G02*
X14542000Y-13261500I20000J0D01*
G01*
X14572000Y-12669000D02*
G75*
G02*
X14532000Y-12669000I-20000J0D01*
G01*
X14532000Y-12669000D02*
G75*
G02*
X14572000Y-12669000I20000J0D01*
G01*
X14572000Y-13501500D02*
G75*
G02*
X14532000Y-13501500I-20000J0D01*
G01*
X14532000Y-13501500D02*
G75*
G02*
X14572000Y-13501500I20000J0D01*
G01*
X14872000Y-12559000D02*
G75*
G02*
X14832000Y-12559000I-20000J0D01*
G01*
X14832000Y-12559000D02*
G75*
G02*
X14872000Y-12559000I20000J0D01*
G01*
X14872000Y-13391500D02*
G75*
G02*
X14832000Y-13391500I-20000J0D01*
G01*
X14832000Y-13391500D02*
G75*
G02*
X14872000Y-13391500I20000J0D01*
G01*
X5787000Y-9387500D02*
X5787000Y-9437500D01*
X5762000Y-9412500D02*
X5812000Y-9412500D01*
X4743249Y-11168249D02*
X4743249Y-11118751D01*
X4693751Y-11118751D01*
X4693751Y-11168249D01*
X4743249Y-11168249D01*
X4743249Y-11746249D02*
X4743249Y-11696751D01*
X4693751Y-11696751D01*
X4693751Y-11746249D01*
X4743249Y-11746249D01*
X4353500Y-11035501D02*
X4388501Y-11000500D01*
X4353500Y-10965499D01*
X4318499Y-11000500D01*
X4353500Y-11035501D01*
X4388499Y-10965499D02*
X4318501Y-10965499D01*
X4318501Y-11035501D02*
G75*
G02*
X4318501Y-10965499I0J35001D01*
G01*
X4318501Y-11035501D02*
X4388499Y-11035501D01*
X4388499Y-11035501D02*
G75*
G03*
X4388499Y-10965499I0J35001D01*
G01*
X4353500Y-11899501D02*
X4388501Y-11864500D01*
X4353500Y-11829499D01*
X4318499Y-11864500D01*
X4353500Y-11899501D01*
X4388499Y-11829499D02*
X4318501Y-11829499D01*
X4318501Y-11899501D02*
G75*
G02*
X4318501Y-11829499I0J35001D01*
G01*
X4318501Y-11899501D02*
X4388499Y-11899501D01*
X4388499Y-11899501D02*
G75*
G03*
X4388499Y-11829499I0J35001D01*
G01*
X4772500Y-11035501D02*
X4807501Y-11000500D01*
X4772500Y-10965499D01*
X4737499Y-11000500D01*
X4772500Y-11035501D01*
X4822499Y-10965499D02*
X4722501Y-10965499D01*
X4722501Y-11035501D02*
G75*
G02*
X4722501Y-10965499I0J35001D01*
G01*
X4722501Y-11035501D02*
X4822499Y-11035501D01*
X4822499Y-11035501D02*
G75*
G03*
X4822499Y-10965499I0J35001D01*
G01*
X4772500Y-11899501D02*
X4807501Y-11864500D01*
X4772500Y-11829499D01*
X4737499Y-11864500D01*
X4772500Y-11899501D01*
X4822499Y-11829499D02*
X4722501Y-11829499D01*
X4722501Y-11899501D02*
G75*
G02*
X4722501Y-11829499I0J35001D01*
G01*
X4722501Y-11899501D02*
X4822499Y-11899501D01*
X4822499Y-11899501D02*
G75*
G03*
X4822499Y-11829499I0J35001D01*
G01*
X4463000Y-12353000D02*
X4563000Y-12453000D01*
X4563000Y-12353000D02*
X4463000Y-12453000D01*
X4563000Y-12403000D02*
G75*
G02*
X4463000Y-12403000I-50000J0D01*
G01*
X4463000Y-12403000D02*
G75*
G02*
X4563000Y-12403000I50000J0D01*
G01*
X4463000Y-12603000D02*
X4563000Y-12703000D01*
X4563000Y-12603000D02*
X4463000Y-12703000D01*
X4563000Y-12653000D02*
G75*
G02*
X4463000Y-12653000I-50000J0D01*
G01*
X4463000Y-12653000D02*
G75*
G02*
X4563000Y-12653000I50000J0D01*
G01*
X4463000Y-12853000D02*
X4563000Y-12953000D01*
X4563000Y-12853000D02*
X4463000Y-12953000D01*
X4563000Y-12903000D02*
G75*
G02*
X4463000Y-12903000I-50000J0D01*
G01*
X4463000Y-12903000D02*
G75*
G02*
X4563000Y-12903000I50000J0D01*
G01*
X4463000Y-13103000D02*
X4563000Y-13203000D01*
X4563000Y-13103000D02*
X4463000Y-13203000D01*
X4563000Y-13153000D02*
G75*
G02*
X4463000Y-13153000I-50000J0D01*
G01*
X4463000Y-13153000D02*
G75*
G02*
X4563000Y-13153000I50000J0D01*
G01*
X4463000Y-13353000D02*
X4563000Y-13453000D01*
X4563000Y-13353000D02*
X4463000Y-13453000D01*
X4563000Y-13403000D02*
G75*
G02*
X4463000Y-13403000I-50000J0D01*
G01*
X4463000Y-13403000D02*
G75*
G02*
X4563000Y-13403000I50000J0D01*
G01*
D12*
X6288499Y-8948999D02*
X6398501Y-9059001D01*
X6398501Y-8948999D02*
X6288499Y-9059001D01*
X6343500Y-8948999D02*
X6343500Y-9059001D01*
X6288499Y-9004000D02*
X6398501Y-9004000D01*
X6288499Y-9202999D02*
X6398501Y-9313001D01*
X6398501Y-9202999D02*
X6288499Y-9313001D01*
X6343500Y-9202999D02*
X6343500Y-9313001D01*
X6288499Y-9258000D02*
X6398501Y-9258000D01*
X6288499Y-9456999D02*
X6398501Y-9567001D01*
X6398501Y-9456999D02*
X6288499Y-9567001D01*
X6343500Y-9456999D02*
X6343500Y-9567001D01*
X6288499Y-9512000D02*
X6398501Y-9512000D01*
X6288499Y-9710999D02*
X6398501Y-9821001D01*
X6398501Y-9710999D02*
X6288499Y-9821001D01*
X6343500Y-9710999D02*
X6343500Y-9821001D01*
X6288499Y-9766000D02*
X6398501Y-9766000D01*
X14386499Y-7678999D02*
X14496501Y-7789001D01*
X14496501Y-7678999D02*
X14386499Y-7789001D01*
X14441500Y-7678999D02*
X14441500Y-7789001D01*
X14386499Y-7734000D02*
X14496501Y-7734000D01*
X14386499Y-7932999D02*
X14496501Y-8043001D01*
X14496501Y-7932999D02*
X14386499Y-8043001D01*
X14441500Y-7932999D02*
X14441500Y-8043001D01*
X14386499Y-7988000D02*
X14496501Y-7988000D01*
X14386499Y-8186999D02*
X14496501Y-8297001D01*
X14496501Y-8186999D02*
X14386499Y-8297001D01*
X14441500Y-8186999D02*
X14441500Y-8297001D01*
X14386499Y-8242000D02*
X14496501Y-8242000D01*
X14386499Y-8440999D02*
X14496501Y-8551001D01*
X14496501Y-8440999D02*
X14386499Y-8551001D01*
X14441500Y-8440999D02*
X14441500Y-8551001D01*
X14386499Y-8496000D02*
X14496501Y-8496000D01*
X14386499Y-8694999D02*
X14496501Y-8805001D01*
X14496501Y-8694999D02*
X14386499Y-8805001D01*
X14441500Y-8694999D02*
X14441500Y-8805001D01*
X14386499Y-8750000D02*
X14496501Y-8750000D01*
X14386499Y-8948999D02*
X14496501Y-9059001D01*
X14496501Y-8948999D02*
X14386499Y-9059001D01*
X14441500Y-8948999D02*
X14441500Y-9059001D01*
X14386499Y-9004000D02*
X14496501Y-9004000D01*
X14386499Y-9202999D02*
X14496501Y-9313001D01*
X14496501Y-9202999D02*
X14386499Y-9313001D01*
X14441500Y-9202999D02*
X14441500Y-9313001D01*
X14386499Y-9258000D02*
X14496501Y-9258000D01*
X14386499Y-9456999D02*
X14496501Y-9567001D01*
X14496501Y-9456999D02*
X14386499Y-9567001D01*
X14441500Y-9456999D02*
X14441500Y-9567001D01*
X14386499Y-9512000D02*
X14496501Y-9512000D01*
X14386499Y-9710999D02*
X14496501Y-9821001D01*
X14496501Y-9710999D02*
X14386499Y-9821001D01*
X14441500Y-9710999D02*
X14441500Y-9821001D01*
X14386499Y-9766000D02*
X14496501Y-9766000D01*
X14386499Y-9964999D02*
X14496501Y-10075001D01*
X14496501Y-9964999D02*
X14386499Y-10075001D01*
X14441500Y-9964999D02*
X14441500Y-10075001D01*
X14386499Y-10020000D02*
X14496501Y-10020000D01*
X14386499Y-10218999D02*
X14496501Y-10329001D01*
X14496501Y-10218999D02*
X14386499Y-10329001D01*
X14441500Y-10218999D02*
X14441500Y-10329001D01*
X14386499Y-10274000D02*
X14496501Y-10274000D01*
X14386499Y-10472999D02*
X14496501Y-10583001D01*
X14496501Y-10472999D02*
X14386499Y-10583001D01*
X14441500Y-10472999D02*
X14441500Y-10583001D01*
X14386499Y-10528000D02*
X14496501Y-10528000D01*
X14386499Y-10726999D02*
X14496501Y-10837001D01*
X14496501Y-10726999D02*
X14386499Y-10837001D01*
X14441500Y-10726999D02*
X14441500Y-10837001D01*
X14386499Y-10782000D02*
X14496501Y-10782000D01*
X14386499Y-10980999D02*
X14496501Y-11091001D01*
X14496501Y-10980999D02*
X14386499Y-11091001D01*
X14441500Y-10980999D02*
X14441500Y-11091001D01*
X14386499Y-11036000D02*
X14496501Y-11036000D01*
D13*
X6193500Y-7035000D02*
X6493500Y-7335000D01*
X6493500Y-7035000D02*
X6193500Y-7335000D01*
X6449567Y-7291067D02*
X6449567Y-7078933D01*
X6237433Y-7078933D01*
X6237433Y-7291067D01*
X6449567Y-7291067D01*
X6193500Y-11435000D02*
X6493500Y-11735000D01*
X6493500Y-11435000D02*
X6193500Y-11735000D01*
X6449567Y-11691067D02*
X6449567Y-11478933D01*
X6237433Y-11478933D01*
X6237433Y-11691067D01*
X6449567Y-11691067D01*
X13800500Y-7035000D02*
X14100500Y-7335000D01*
X14100500Y-7035000D02*
X13800500Y-7335000D01*
X14056567Y-7291067D02*
X14056567Y-7078933D01*
X13844433Y-7078933D01*
X13844433Y-7291067D01*
X14056567Y-7291067D01*
X13800500Y-11435000D02*
X14100500Y-11735000D01*
X14100500Y-11435000D02*
X13800500Y-11735000D01*
X14056567Y-11691067D02*
X14056567Y-11478933D01*
X13844433Y-11478933D01*
X13844433Y-11691067D01*
X14056567Y-11691067D01*
D10*
X4258777Y-14051484D02*
X4258777Y-13851484D01*
X4258777Y-13851484D02*
X4306396Y-13851484D01*
X4306396Y-13851484D02*
X4334967Y-13861008D01*
X4334967Y-13861008D02*
X4354015Y-13880055D01*
X4354015Y-13880055D02*
X4363539Y-13899103D01*
X4363539Y-13899103D02*
X4373063Y-13937198D01*
X4373063Y-13937198D02*
X4373063Y-13965769D01*
X4373063Y-13965769D02*
X4363539Y-14003865D01*
X4363539Y-14003865D02*
X4354015Y-14022912D01*
X4354015Y-14022912D02*
X4334967Y-14041960D01*
X4334967Y-14041960D02*
X4306396Y-14051484D01*
X4306396Y-14051484D02*
X4258777Y-14051484D01*
X4458777Y-14051484D02*
X4458777Y-13918150D01*
X4458777Y-13956246D02*
X4468301Y-13937198D01*
X4468301Y-13937198D02*
X4477824Y-13927674D01*
X4477824Y-13927674D02*
X4496872Y-13918150D01*
X4496872Y-13918150D02*
X4515920Y-13918150D01*
X4582586Y-14051484D02*
X4582586Y-13918150D01*
X4582586Y-13851484D02*
X4573063Y-13861008D01*
X4573063Y-13861008D02*
X4582586Y-13870531D01*
X4582586Y-13870531D02*
X4592110Y-13861008D01*
X4592110Y-13861008D02*
X4582586Y-13851484D01*
X4582586Y-13851484D02*
X4582586Y-13870531D01*
X4706396Y-14051484D02*
X4687348Y-14041960D01*
X4687348Y-14041960D02*
X4677824Y-14022912D01*
X4677824Y-14022912D02*
X4677824Y-13851484D01*
X4811158Y-14051484D02*
X4792110Y-14041960D01*
X4792110Y-14041960D02*
X4782586Y-14022912D01*
X4782586Y-14022912D02*
X4782586Y-13851484D01*
X5039729Y-14051484D02*
X5039729Y-13851484D01*
X5039729Y-13851484D02*
X5106396Y-13994341D01*
X5106396Y-13994341D02*
X5173063Y-13851484D01*
X5173063Y-13851484D02*
X5173063Y-14051484D01*
X5354015Y-14051484D02*
X5354015Y-13946722D01*
X5354015Y-13946722D02*
X5344491Y-13927674D01*
X5344491Y-13927674D02*
X5325444Y-13918150D01*
X5325444Y-13918150D02*
X5287348Y-13918150D01*
X5287348Y-13918150D02*
X5268301Y-13927674D01*
X5354015Y-14041960D02*
X5334967Y-14051484D01*
X5334967Y-14051484D02*
X5287348Y-14051484D01*
X5287348Y-14051484D02*
X5268301Y-14041960D01*
X5268301Y-14041960D02*
X5258777Y-14022912D01*
X5258777Y-14022912D02*
X5258777Y-14003865D01*
X5258777Y-14003865D02*
X5268301Y-13984817D01*
X5268301Y-13984817D02*
X5287348Y-13975293D01*
X5287348Y-13975293D02*
X5334967Y-13975293D01*
X5334967Y-13975293D02*
X5354015Y-13965769D01*
X5449253Y-13918150D02*
X5449253Y-14118150D01*
X5449253Y-13927674D02*
X5468301Y-13918150D01*
X5468301Y-13918150D02*
X5506396Y-13918150D01*
X5506396Y-13918150D02*
X5525444Y-13927674D01*
X5525444Y-13927674D02*
X5534967Y-13937198D01*
X5534967Y-13937198D02*
X5544491Y-13956246D01*
X5544491Y-13956246D02*
X5544491Y-14013388D01*
X5544491Y-14013388D02*
X5534967Y-14032436D01*
X5534967Y-14032436D02*
X5525444Y-14041960D01*
X5525444Y-14041960D02*
X5506396Y-14051484D01*
X5506396Y-14051484D02*
X5468301Y-14051484D01*
X5468301Y-14051484D02*
X5449253Y-14041960D01*
X5630205Y-14032436D02*
X5639729Y-14041960D01*
X5639729Y-14041960D02*
X5630205Y-14051484D01*
X5630205Y-14051484D02*
X5620682Y-14041960D01*
X5620682Y-14041960D02*
X5630205Y-14032436D01*
X5630205Y-14032436D02*
X5630205Y-14051484D01*
X5630205Y-13927674D02*
X5639729Y-13937198D01*
X5639729Y-13937198D02*
X5630205Y-13946722D01*
X5630205Y-13946722D02*
X5620682Y-13937198D01*
X5620682Y-13937198D02*
X5630205Y-13927674D01*
X5630205Y-13927674D02*
X5630205Y-13946722D01*
D11*
X3968000Y-14365000D02*
X3998000Y-14395000D01*
X3998000Y-14365000D02*
X3968000Y-14395000D01*
D10*
X4296872Y-14271484D02*
X4315920Y-14271484D01*
X4315920Y-14271484D02*
X4334967Y-14281008D01*
X4334967Y-14281008D02*
X4344491Y-14290531D01*
X4344491Y-14290531D02*
X4354015Y-14309579D01*
X4354015Y-14309579D02*
X4363539Y-14347674D01*
X4363539Y-14347674D02*
X4363539Y-14395293D01*
X4363539Y-14395293D02*
X4354015Y-14433388D01*
X4354015Y-14433388D02*
X4344491Y-14452436D01*
X4344491Y-14452436D02*
X4334967Y-14461960D01*
X4334967Y-14461960D02*
X4315920Y-14471484D01*
X4315920Y-14471484D02*
X4296872Y-14471484D01*
X4296872Y-14471484D02*
X4277824Y-14461960D01*
X4277824Y-14461960D02*
X4268301Y-14452436D01*
X4268301Y-14452436D02*
X4258777Y-14433388D01*
X4258777Y-14433388D02*
X4249253Y-14395293D01*
X4249253Y-14395293D02*
X4249253Y-14347674D01*
X4249253Y-14347674D02*
X4258777Y-14309579D01*
X4258777Y-14309579D02*
X4268301Y-14290531D01*
X4268301Y-14290531D02*
X4277824Y-14281008D01*
X4277824Y-14281008D02*
X4296872Y-14271484D01*
X4449253Y-14452436D02*
X4458777Y-14461960D01*
X4458777Y-14461960D02*
X4449253Y-14471484D01*
X4449253Y-14471484D02*
X4439729Y-14461960D01*
X4439729Y-14461960D02*
X4449253Y-14452436D01*
X4449253Y-14452436D02*
X4449253Y-14471484D01*
X4525444Y-14271484D02*
X4649253Y-14271484D01*
X4649253Y-14271484D02*
X4582586Y-14347674D01*
X4582586Y-14347674D02*
X4611158Y-14347674D01*
X4611158Y-14347674D02*
X4630205Y-14357198D01*
X4630205Y-14357198D02*
X4639729Y-14366722D01*
X4639729Y-14366722D02*
X4649253Y-14385769D01*
X4649253Y-14385769D02*
X4649253Y-14433388D01*
X4649253Y-14433388D02*
X4639729Y-14452436D01*
X4639729Y-14452436D02*
X4630205Y-14461960D01*
X4630205Y-14461960D02*
X4611158Y-14471484D01*
X4611158Y-14471484D02*
X4554015Y-14471484D01*
X4554015Y-14471484D02*
X4534967Y-14461960D01*
X4534967Y-14461960D02*
X4525444Y-14452436D01*
X4773063Y-14271484D02*
X4792110Y-14271484D01*
X4792110Y-14271484D02*
X4811158Y-14281008D01*
X4811158Y-14281008D02*
X4820682Y-14290531D01*
X4820682Y-14290531D02*
X4830205Y-14309579D01*
X4830205Y-14309579D02*
X4839729Y-14347674D01*
X4839729Y-14347674D02*
X4839729Y-14395293D01*
X4839729Y-14395293D02*
X4830205Y-14433388D01*
X4830205Y-14433388D02*
X4820682Y-14452436D01*
X4820682Y-14452436D02*
X4811158Y-14461960D01*
X4811158Y-14461960D02*
X4792110Y-14471484D01*
X4792110Y-14471484D02*
X4773063Y-14471484D01*
X4773063Y-14471484D02*
X4754015Y-14461960D01*
X4754015Y-14461960D02*
X4744491Y-14452436D01*
X4744491Y-14452436D02*
X4734967Y-14433388D01*
X4734967Y-14433388D02*
X4725444Y-14395293D01*
X4725444Y-14395293D02*
X4725444Y-14347674D01*
X4725444Y-14347674D02*
X4734967Y-14309579D01*
X4734967Y-14309579D02*
X4744491Y-14290531D01*
X4744491Y-14290531D02*
X4754015Y-14281008D01*
X4754015Y-14281008D02*
X4773063Y-14271484D01*
X4963539Y-14271484D02*
X4982586Y-14271484D01*
X4982586Y-14271484D02*
X5001634Y-14281008D01*
X5001634Y-14281008D02*
X5011158Y-14290531D01*
X5011158Y-14290531D02*
X5020682Y-14309579D01*
X5020682Y-14309579D02*
X5030205Y-14347674D01*
X5030205Y-14347674D02*
X5030205Y-14395293D01*
X5030205Y-14395293D02*
X5020682Y-14433388D01*
X5020682Y-14433388D02*
X5011158Y-14452436D01*
X5011158Y-14452436D02*
X5001634Y-14461960D01*
X5001634Y-14461960D02*
X4982586Y-14471484D01*
X4982586Y-14471484D02*
X4963539Y-14471484D01*
X4963539Y-14471484D02*
X4944491Y-14461960D01*
X4944491Y-14461960D02*
X4934967Y-14452436D01*
X4934967Y-14452436D02*
X4925444Y-14433388D01*
X4925444Y-14433388D02*
X4915920Y-14395293D01*
X4915920Y-14395293D02*
X4915920Y-14347674D01*
X4915920Y-14347674D02*
X4925444Y-14309579D01*
X4925444Y-14309579D02*
X4934967Y-14290531D01*
X4934967Y-14290531D02*
X4944491Y-14281008D01*
X4944491Y-14281008D02*
X4963539Y-14271484D01*
X5115920Y-14471484D02*
X5115920Y-14338150D01*
X5115920Y-14357198D02*
X5125444Y-14347674D01*
X5125444Y-14347674D02*
X5144491Y-14338150D01*
X5144491Y-14338150D02*
X5173063Y-14338150D01*
X5173063Y-14338150D02*
X5192110Y-14347674D01*
X5192110Y-14347674D02*
X5201634Y-14366722D01*
X5201634Y-14366722D02*
X5201634Y-14471484D01*
X5201634Y-14366722D02*
X5211158Y-14347674D01*
X5211158Y-14347674D02*
X5230205Y-14338150D01*
X5230205Y-14338150D02*
X5258777Y-14338150D01*
X5258777Y-14338150D02*
X5277825Y-14347674D01*
X5277825Y-14347674D02*
X5287348Y-14366722D01*
X5287348Y-14366722D02*
X5287348Y-14471484D01*
X5382586Y-14471484D02*
X5382586Y-14338150D01*
X5382586Y-14357198D02*
X5392110Y-14347674D01*
X5392110Y-14347674D02*
X5411158Y-14338150D01*
X5411158Y-14338150D02*
X5439729Y-14338150D01*
X5439729Y-14338150D02*
X5458777Y-14347674D01*
X5458777Y-14347674D02*
X5468301Y-14366722D01*
X5468301Y-14366722D02*
X5468301Y-14471484D01*
X5468301Y-14366722D02*
X5477825Y-14347674D01*
X5477825Y-14347674D02*
X5496872Y-14338150D01*
X5496872Y-14338150D02*
X5525444Y-14338150D01*
X5525444Y-14338150D02*
X5544491Y-14347674D01*
X5544491Y-14347674D02*
X5554015Y-14366722D01*
X5554015Y-14366722D02*
X5554015Y-14471484D01*
X5944491Y-14261960D02*
X5773063Y-14519103D01*
X6201634Y-14271484D02*
X6220682Y-14271484D01*
X6220682Y-14271484D02*
X6239729Y-14281008D01*
X6239729Y-14281008D02*
X6249253Y-14290531D01*
X6249253Y-14290531D02*
X6258777Y-14309579D01*
X6258777Y-14309579D02*
X6268301Y-14347674D01*
X6268301Y-14347674D02*
X6268301Y-14395293D01*
X6268301Y-14395293D02*
X6258777Y-14433388D01*
X6258777Y-14433388D02*
X6249253Y-14452436D01*
X6249253Y-14452436D02*
X6239729Y-14461960D01*
X6239729Y-14461960D02*
X6220682Y-14471484D01*
X6220682Y-14471484D02*
X6201634Y-14471484D01*
X6201634Y-14471484D02*
X6182586Y-14461960D01*
X6182586Y-14461960D02*
X6173063Y-14452436D01*
X6173063Y-14452436D02*
X6163539Y-14433388D01*
X6163539Y-14433388D02*
X6154015Y-14395293D01*
X6154015Y-14395293D02*
X6154015Y-14347674D01*
X6154015Y-14347674D02*
X6163539Y-14309579D01*
X6163539Y-14309579D02*
X6173063Y-14290531D01*
X6173063Y-14290531D02*
X6182586Y-14281008D01*
X6182586Y-14281008D02*
X6201634Y-14271484D01*
X6354015Y-14452436D02*
X6363539Y-14461960D01*
X6363539Y-14461960D02*
X6354015Y-14471484D01*
X6354015Y-14471484D02*
X6344491Y-14461960D01*
X6344491Y-14461960D02*
X6354015Y-14452436D01*
X6354015Y-14452436D02*
X6354015Y-14471484D01*
X6487348Y-14271484D02*
X6506396Y-14271484D01*
X6506396Y-14271484D02*
X6525444Y-14281008D01*
X6525444Y-14281008D02*
X6534967Y-14290531D01*
X6534967Y-14290531D02*
X6544491Y-14309579D01*
X6544491Y-14309579D02*
X6554015Y-14347674D01*
X6554015Y-14347674D02*
X6554015Y-14395293D01*
X6554015Y-14395293D02*
X6544491Y-14433388D01*
X6544491Y-14433388D02*
X6534967Y-14452436D01*
X6534967Y-14452436D02*
X6525444Y-14461960D01*
X6525444Y-14461960D02*
X6506396Y-14471484D01*
X6506396Y-14471484D02*
X6487348Y-14471484D01*
X6487348Y-14471484D02*
X6468301Y-14461960D01*
X6468301Y-14461960D02*
X6458777Y-14452436D01*
X6458777Y-14452436D02*
X6449253Y-14433388D01*
X6449253Y-14433388D02*
X6439729Y-14395293D01*
X6439729Y-14395293D02*
X6439729Y-14347674D01*
X6439729Y-14347674D02*
X6449253Y-14309579D01*
X6449253Y-14309579D02*
X6458777Y-14290531D01*
X6458777Y-14290531D02*
X6468301Y-14281008D01*
X6468301Y-14281008D02*
X6487348Y-14271484D01*
X6744491Y-14471484D02*
X6630206Y-14471484D01*
X6687348Y-14471484D02*
X6687348Y-14271484D01*
X6687348Y-14271484D02*
X6668301Y-14300055D01*
X6668301Y-14300055D02*
X6649253Y-14319103D01*
X6649253Y-14319103D02*
X6630206Y-14328627D01*
X6934967Y-14471484D02*
X6820682Y-14471484D01*
X6877825Y-14471484D02*
X6877825Y-14271484D01*
X6877825Y-14271484D02*
X6858777Y-14300055D01*
X6858777Y-14300055D02*
X6839729Y-14319103D01*
X6839729Y-14319103D02*
X6820682Y-14328627D01*
X7049253Y-14357198D02*
X7030206Y-14347674D01*
X7030206Y-14347674D02*
X7020682Y-14338150D01*
X7020682Y-14338150D02*
X7011158Y-14319103D01*
X7011158Y-14319103D02*
X7011158Y-14309579D01*
X7011158Y-14309579D02*
X7020682Y-14290531D01*
X7020682Y-14290531D02*
X7030206Y-14281008D01*
X7030206Y-14281008D02*
X7049253Y-14271484D01*
X7049253Y-14271484D02*
X7087348Y-14271484D01*
X7087348Y-14271484D02*
X7106396Y-14281008D01*
X7106396Y-14281008D02*
X7115920Y-14290531D01*
X7115920Y-14290531D02*
X7125444Y-14309579D01*
X7125444Y-14309579D02*
X7125444Y-14319103D01*
X7125444Y-14319103D02*
X7115920Y-14338150D01*
X7115920Y-14338150D02*
X7106396Y-14347674D01*
X7106396Y-14347674D02*
X7087348Y-14357198D01*
X7087348Y-14357198D02*
X7049253Y-14357198D01*
X7049253Y-14357198D02*
X7030206Y-14366722D01*
X7030206Y-14366722D02*
X7020682Y-14376246D01*
X7020682Y-14376246D02*
X7011158Y-14395293D01*
X7011158Y-14395293D02*
X7011158Y-14433388D01*
X7011158Y-14433388D02*
X7020682Y-14452436D01*
X7020682Y-14452436D02*
X7030206Y-14461960D01*
X7030206Y-14461960D02*
X7049253Y-14471484D01*
X7049253Y-14471484D02*
X7087348Y-14471484D01*
X7087348Y-14471484D02*
X7106396Y-14461960D01*
X7106396Y-14461960D02*
X7115920Y-14452436D01*
X7115920Y-14452436D02*
X7125444Y-14433388D01*
X7125444Y-14433388D02*
X7125444Y-14395293D01*
X7125444Y-14395293D02*
X7115920Y-14376246D01*
X7115920Y-14376246D02*
X7106396Y-14366722D01*
X7106396Y-14366722D02*
X7087348Y-14357198D01*
X7201634Y-14271484D02*
X7201634Y-14309579D01*
X7277825Y-14271484D02*
X7277825Y-14309579D01*
X7573063Y-14547674D02*
X7563539Y-14538150D01*
X7563539Y-14538150D02*
X7544491Y-14509579D01*
X7544491Y-14509579D02*
X7534968Y-14490531D01*
X7534968Y-14490531D02*
X7525444Y-14461960D01*
X7525444Y-14461960D02*
X7515920Y-14414341D01*
X7515920Y-14414341D02*
X7515920Y-14376246D01*
X7515920Y-14376246D02*
X7525444Y-14328627D01*
X7525444Y-14328627D02*
X7534968Y-14300055D01*
X7534968Y-14300055D02*
X7544491Y-14281008D01*
X7544491Y-14281008D02*
X7563539Y-14252436D01*
X7563539Y-14252436D02*
X7573063Y-14242912D01*
X7754015Y-14471484D02*
X7639729Y-14471484D01*
X7696872Y-14471484D02*
X7696872Y-14271484D01*
X7696872Y-14271484D02*
X7677825Y-14300055D01*
X7677825Y-14300055D02*
X7658777Y-14319103D01*
X7658777Y-14319103D02*
X7639729Y-14328627D01*
X7830206Y-14290531D02*
X7839729Y-14281008D01*
X7839729Y-14281008D02*
X7858777Y-14271484D01*
X7858777Y-14271484D02*
X7906396Y-14271484D01*
X7906396Y-14271484D02*
X7925444Y-14281008D01*
X7925444Y-14281008D02*
X7934968Y-14290531D01*
X7934968Y-14290531D02*
X7944491Y-14309579D01*
X7944491Y-14309579D02*
X7944491Y-14328627D01*
X7944491Y-14328627D02*
X7934968Y-14357198D01*
X7934968Y-14357198D02*
X7820682Y-14471484D01*
X7820682Y-14471484D02*
X7944491Y-14471484D01*
X8182587Y-14471484D02*
X8182587Y-14271484D01*
X8268301Y-14471484D02*
X8268301Y-14366722D01*
X8268301Y-14366722D02*
X8258777Y-14347674D01*
X8258777Y-14347674D02*
X8239730Y-14338150D01*
X8239730Y-14338150D02*
X8211158Y-14338150D01*
X8211158Y-14338150D02*
X8192110Y-14347674D01*
X8192110Y-14347674D02*
X8182587Y-14357198D01*
X8392111Y-14471484D02*
X8373063Y-14461960D01*
X8373063Y-14461960D02*
X8363539Y-14452436D01*
X8363539Y-14452436D02*
X8354015Y-14433388D01*
X8354015Y-14433388D02*
X8354015Y-14376246D01*
X8354015Y-14376246D02*
X8363539Y-14357198D01*
X8363539Y-14357198D02*
X8373063Y-14347674D01*
X8373063Y-14347674D02*
X8392111Y-14338150D01*
X8392111Y-14338150D02*
X8420682Y-14338150D01*
X8420682Y-14338150D02*
X8439730Y-14347674D01*
X8439730Y-14347674D02*
X8449253Y-14357198D01*
X8449253Y-14357198D02*
X8458777Y-14376246D01*
X8458777Y-14376246D02*
X8458777Y-14433388D01*
X8458777Y-14433388D02*
X8449253Y-14452436D01*
X8449253Y-14452436D02*
X8439730Y-14461960D01*
X8439730Y-14461960D02*
X8420682Y-14471484D01*
X8420682Y-14471484D02*
X8392111Y-14471484D01*
X8573063Y-14471484D02*
X8554015Y-14461960D01*
X8554015Y-14461960D02*
X8544492Y-14442912D01*
X8544492Y-14442912D02*
X8544492Y-14271484D01*
X8725444Y-14461960D02*
X8706396Y-14471484D01*
X8706396Y-14471484D02*
X8668301Y-14471484D01*
X8668301Y-14471484D02*
X8649253Y-14461960D01*
X8649253Y-14461960D02*
X8639730Y-14442912D01*
X8639730Y-14442912D02*
X8639730Y-14366722D01*
X8639730Y-14366722D02*
X8649253Y-14347674D01*
X8649253Y-14347674D02*
X8668301Y-14338150D01*
X8668301Y-14338150D02*
X8706396Y-14338150D01*
X8706396Y-14338150D02*
X8725444Y-14347674D01*
X8725444Y-14347674D02*
X8734968Y-14366722D01*
X8734968Y-14366722D02*
X8734968Y-14385769D01*
X8734968Y-14385769D02*
X8639730Y-14404817D01*
X8811158Y-14461960D02*
X8830206Y-14471484D01*
X8830206Y-14471484D02*
X8868301Y-14471484D01*
X8868301Y-14471484D02*
X8887349Y-14461960D01*
X8887349Y-14461960D02*
X8896873Y-14442912D01*
X8896873Y-14442912D02*
X8896873Y-14433388D01*
X8896873Y-14433388D02*
X8887349Y-14414341D01*
X8887349Y-14414341D02*
X8868301Y-14404817D01*
X8868301Y-14404817D02*
X8839730Y-14404817D01*
X8839730Y-14404817D02*
X8820682Y-14395293D01*
X8820682Y-14395293D02*
X8811158Y-14376246D01*
X8811158Y-14376246D02*
X8811158Y-14366722D01*
X8811158Y-14366722D02*
X8820682Y-14347674D01*
X8820682Y-14347674D02*
X8839730Y-14338150D01*
X8839730Y-14338150D02*
X8868301Y-14338150D01*
X8868301Y-14338150D02*
X8887349Y-14347674D01*
X8963539Y-14547674D02*
X8973063Y-14538150D01*
X8973063Y-14538150D02*
X8992111Y-14509579D01*
X8992111Y-14509579D02*
X9001634Y-14490531D01*
X9001634Y-14490531D02*
X9011158Y-14461960D01*
X9011158Y-14461960D02*
X9020682Y-14414341D01*
X9020682Y-14414341D02*
X9020682Y-14376246D01*
X9020682Y-14376246D02*
X9011158Y-14328627D01*
X9011158Y-14328627D02*
X9001634Y-14300055D01*
X9001634Y-14300055D02*
X8992111Y-14281008D01*
X8992111Y-14281008D02*
X8973063Y-14252436D01*
X8973063Y-14252436D02*
X8963539Y-14242912D01*
D11*
X3998000Y-14644000D02*
G75*
G02*
X3958000Y-14644000I-20000J0D01*
G01*
X3958000Y-14644000D02*
G75*
G02*
X3998000Y-14644000I20000J0D01*
G01*
D10*
X4296872Y-14535484D02*
X4315920Y-14535484D01*
X4315920Y-14535484D02*
X4334967Y-14545008D01*
X4334967Y-14545008D02*
X4344491Y-14554531D01*
X4344491Y-14554531D02*
X4354015Y-14573579D01*
X4354015Y-14573579D02*
X4363539Y-14611674D01*
X4363539Y-14611674D02*
X4363539Y-14659293D01*
X4363539Y-14659293D02*
X4354015Y-14697388D01*
X4354015Y-14697388D02*
X4344491Y-14716436D01*
X4344491Y-14716436D02*
X4334967Y-14725960D01*
X4334967Y-14725960D02*
X4315920Y-14735484D01*
X4315920Y-14735484D02*
X4296872Y-14735484D01*
X4296872Y-14735484D02*
X4277824Y-14725960D01*
X4277824Y-14725960D02*
X4268301Y-14716436D01*
X4268301Y-14716436D02*
X4258777Y-14697388D01*
X4258777Y-14697388D02*
X4249253Y-14659293D01*
X4249253Y-14659293D02*
X4249253Y-14611674D01*
X4249253Y-14611674D02*
X4258777Y-14573579D01*
X4258777Y-14573579D02*
X4268301Y-14554531D01*
X4268301Y-14554531D02*
X4277824Y-14545008D01*
X4277824Y-14545008D02*
X4296872Y-14535484D01*
X4449253Y-14716436D02*
X4458777Y-14725960D01*
X4458777Y-14725960D02*
X4449253Y-14735484D01*
X4449253Y-14735484D02*
X4439729Y-14725960D01*
X4439729Y-14725960D02*
X4449253Y-14716436D01*
X4449253Y-14716436D02*
X4449253Y-14735484D01*
X4630205Y-14602150D02*
X4630205Y-14735484D01*
X4582586Y-14525960D02*
X4534967Y-14668817D01*
X4534967Y-14668817D02*
X4658777Y-14668817D01*
X4773063Y-14535484D02*
X4792110Y-14535484D01*
X4792110Y-14535484D02*
X4811158Y-14545008D01*
X4811158Y-14545008D02*
X4820682Y-14554531D01*
X4820682Y-14554531D02*
X4830205Y-14573579D01*
X4830205Y-14573579D02*
X4839729Y-14611674D01*
X4839729Y-14611674D02*
X4839729Y-14659293D01*
X4839729Y-14659293D02*
X4830205Y-14697388D01*
X4830205Y-14697388D02*
X4820682Y-14716436D01*
X4820682Y-14716436D02*
X4811158Y-14725960D01*
X4811158Y-14725960D02*
X4792110Y-14735484D01*
X4792110Y-14735484D02*
X4773063Y-14735484D01*
X4773063Y-14735484D02*
X4754015Y-14725960D01*
X4754015Y-14725960D02*
X4744491Y-14716436D01*
X4744491Y-14716436D02*
X4734967Y-14697388D01*
X4734967Y-14697388D02*
X4725444Y-14659293D01*
X4725444Y-14659293D02*
X4725444Y-14611674D01*
X4725444Y-14611674D02*
X4734967Y-14573579D01*
X4734967Y-14573579D02*
X4744491Y-14554531D01*
X4744491Y-14554531D02*
X4754015Y-14545008D01*
X4754015Y-14545008D02*
X4773063Y-14535484D01*
X4963539Y-14535484D02*
X4982586Y-14535484D01*
X4982586Y-14535484D02*
X5001634Y-14545008D01*
X5001634Y-14545008D02*
X5011158Y-14554531D01*
X5011158Y-14554531D02*
X5020682Y-14573579D01*
X5020682Y-14573579D02*
X5030205Y-14611674D01*
X5030205Y-14611674D02*
X5030205Y-14659293D01*
X5030205Y-14659293D02*
X5020682Y-14697388D01*
X5020682Y-14697388D02*
X5011158Y-14716436D01*
X5011158Y-14716436D02*
X5001634Y-14725960D01*
X5001634Y-14725960D02*
X4982586Y-14735484D01*
X4982586Y-14735484D02*
X4963539Y-14735484D01*
X4963539Y-14735484D02*
X4944491Y-14725960D01*
X4944491Y-14725960D02*
X4934967Y-14716436D01*
X4934967Y-14716436D02*
X4925444Y-14697388D01*
X4925444Y-14697388D02*
X4915920Y-14659293D01*
X4915920Y-14659293D02*
X4915920Y-14611674D01*
X4915920Y-14611674D02*
X4925444Y-14573579D01*
X4925444Y-14573579D02*
X4934967Y-14554531D01*
X4934967Y-14554531D02*
X4944491Y-14545008D01*
X4944491Y-14545008D02*
X4963539Y-14535484D01*
X5115920Y-14735484D02*
X5115920Y-14602150D01*
X5115920Y-14621198D02*
X5125444Y-14611674D01*
X5125444Y-14611674D02*
X5144491Y-14602150D01*
X5144491Y-14602150D02*
X5173063Y-14602150D01*
X5173063Y-14602150D02*
X5192110Y-14611674D01*
X5192110Y-14611674D02*
X5201634Y-14630722D01*
X5201634Y-14630722D02*
X5201634Y-14735484D01*
X5201634Y-14630722D02*
X5211158Y-14611674D01*
X5211158Y-14611674D02*
X5230205Y-14602150D01*
X5230205Y-14602150D02*
X5258777Y-14602150D01*
X5258777Y-14602150D02*
X5277825Y-14611674D01*
X5277825Y-14611674D02*
X5287348Y-14630722D01*
X5287348Y-14630722D02*
X5287348Y-14735484D01*
X5382586Y-14735484D02*
X5382586Y-14602150D01*
X5382586Y-14621198D02*
X5392110Y-14611674D01*
X5392110Y-14611674D02*
X5411158Y-14602150D01*
X5411158Y-14602150D02*
X5439729Y-14602150D01*
X5439729Y-14602150D02*
X5458777Y-14611674D01*
X5458777Y-14611674D02*
X5468301Y-14630722D01*
X5468301Y-14630722D02*
X5468301Y-14735484D01*
X5468301Y-14630722D02*
X5477825Y-14611674D01*
X5477825Y-14611674D02*
X5496872Y-14602150D01*
X5496872Y-14602150D02*
X5525444Y-14602150D01*
X5525444Y-14602150D02*
X5544491Y-14611674D01*
X5544491Y-14611674D02*
X5554015Y-14630722D01*
X5554015Y-14630722D02*
X5554015Y-14735484D01*
X5944491Y-14525960D02*
X5773063Y-14783103D01*
X6201634Y-14535484D02*
X6220682Y-14535484D01*
X6220682Y-14535484D02*
X6239729Y-14545008D01*
X6239729Y-14545008D02*
X6249253Y-14554531D01*
X6249253Y-14554531D02*
X6258777Y-14573579D01*
X6258777Y-14573579D02*
X6268301Y-14611674D01*
X6268301Y-14611674D02*
X6268301Y-14659293D01*
X6268301Y-14659293D02*
X6258777Y-14697388D01*
X6258777Y-14697388D02*
X6249253Y-14716436D01*
X6249253Y-14716436D02*
X6239729Y-14725960D01*
X6239729Y-14725960D02*
X6220682Y-14735484D01*
X6220682Y-14735484D02*
X6201634Y-14735484D01*
X6201634Y-14735484D02*
X6182586Y-14725960D01*
X6182586Y-14725960D02*
X6173063Y-14716436D01*
X6173063Y-14716436D02*
X6163539Y-14697388D01*
X6163539Y-14697388D02*
X6154015Y-14659293D01*
X6154015Y-14659293D02*
X6154015Y-14611674D01*
X6154015Y-14611674D02*
X6163539Y-14573579D01*
X6163539Y-14573579D02*
X6173063Y-14554531D01*
X6173063Y-14554531D02*
X6182586Y-14545008D01*
X6182586Y-14545008D02*
X6201634Y-14535484D01*
X6354015Y-14716436D02*
X6363539Y-14725960D01*
X6363539Y-14725960D02*
X6354015Y-14735484D01*
X6354015Y-14735484D02*
X6344491Y-14725960D01*
X6344491Y-14725960D02*
X6354015Y-14716436D01*
X6354015Y-14716436D02*
X6354015Y-14735484D01*
X6487348Y-14535484D02*
X6506396Y-14535484D01*
X6506396Y-14535484D02*
X6525444Y-14545008D01*
X6525444Y-14545008D02*
X6534967Y-14554531D01*
X6534967Y-14554531D02*
X6544491Y-14573579D01*
X6544491Y-14573579D02*
X6554015Y-14611674D01*
X6554015Y-14611674D02*
X6554015Y-14659293D01*
X6554015Y-14659293D02*
X6544491Y-14697388D01*
X6544491Y-14697388D02*
X6534967Y-14716436D01*
X6534967Y-14716436D02*
X6525444Y-14725960D01*
X6525444Y-14725960D02*
X6506396Y-14735484D01*
X6506396Y-14735484D02*
X6487348Y-14735484D01*
X6487348Y-14735484D02*
X6468301Y-14725960D01*
X6468301Y-14725960D02*
X6458777Y-14716436D01*
X6458777Y-14716436D02*
X6449253Y-14697388D01*
X6449253Y-14697388D02*
X6439729Y-14659293D01*
X6439729Y-14659293D02*
X6439729Y-14611674D01*
X6439729Y-14611674D02*
X6449253Y-14573579D01*
X6449253Y-14573579D02*
X6458777Y-14554531D01*
X6458777Y-14554531D02*
X6468301Y-14545008D01*
X6468301Y-14545008D02*
X6487348Y-14535484D01*
X6744491Y-14735484D02*
X6630206Y-14735484D01*
X6687348Y-14735484D02*
X6687348Y-14535484D01*
X6687348Y-14535484D02*
X6668301Y-14564055D01*
X6668301Y-14564055D02*
X6649253Y-14583103D01*
X6649253Y-14583103D02*
X6630206Y-14592627D01*
X6925444Y-14535484D02*
X6830206Y-14535484D01*
X6830206Y-14535484D02*
X6820682Y-14630722D01*
X6820682Y-14630722D02*
X6830206Y-14621198D01*
X6830206Y-14621198D02*
X6849253Y-14611674D01*
X6849253Y-14611674D02*
X6896872Y-14611674D01*
X6896872Y-14611674D02*
X6915920Y-14621198D01*
X6915920Y-14621198D02*
X6925444Y-14630722D01*
X6925444Y-14630722D02*
X6934967Y-14649769D01*
X6934967Y-14649769D02*
X6934967Y-14697388D01*
X6934967Y-14697388D02*
X6925444Y-14716436D01*
X6925444Y-14716436D02*
X6915920Y-14725960D01*
X6915920Y-14725960D02*
X6896872Y-14735484D01*
X6896872Y-14735484D02*
X6849253Y-14735484D01*
X6849253Y-14735484D02*
X6830206Y-14725960D01*
X6830206Y-14725960D02*
X6820682Y-14716436D01*
X7001634Y-14535484D02*
X7134967Y-14535484D01*
X7134967Y-14535484D02*
X7049253Y-14735484D01*
X7201634Y-14535484D02*
X7201634Y-14573579D01*
X7277825Y-14535484D02*
X7277825Y-14573579D01*
X7573063Y-14811674D02*
X7563539Y-14802150D01*
X7563539Y-14802150D02*
X7544491Y-14773579D01*
X7544491Y-14773579D02*
X7534968Y-14754531D01*
X7534968Y-14754531D02*
X7525444Y-14725960D01*
X7525444Y-14725960D02*
X7515920Y-14678341D01*
X7515920Y-14678341D02*
X7515920Y-14640246D01*
X7515920Y-14640246D02*
X7525444Y-14592627D01*
X7525444Y-14592627D02*
X7534968Y-14564055D01*
X7534968Y-14564055D02*
X7544491Y-14545008D01*
X7544491Y-14545008D02*
X7563539Y-14516436D01*
X7563539Y-14516436D02*
X7573063Y-14506912D01*
X7754015Y-14735484D02*
X7639729Y-14735484D01*
X7696872Y-14735484D02*
X7696872Y-14535484D01*
X7696872Y-14535484D02*
X7677825Y-14564055D01*
X7677825Y-14564055D02*
X7658777Y-14583103D01*
X7658777Y-14583103D02*
X7639729Y-14592627D01*
X7849253Y-14735484D02*
X7887348Y-14735484D01*
X7887348Y-14735484D02*
X7906396Y-14725960D01*
X7906396Y-14725960D02*
X7915920Y-14716436D01*
X7915920Y-14716436D02*
X7934968Y-14687865D01*
X7934968Y-14687865D02*
X7944491Y-14649769D01*
X7944491Y-14649769D02*
X7944491Y-14573579D01*
X7944491Y-14573579D02*
X7934968Y-14554531D01*
X7934968Y-14554531D02*
X7925444Y-14545008D01*
X7925444Y-14545008D02*
X7906396Y-14535484D01*
X7906396Y-14535484D02*
X7868301Y-14535484D01*
X7868301Y-14535484D02*
X7849253Y-14545008D01*
X7849253Y-14545008D02*
X7839729Y-14554531D01*
X7839729Y-14554531D02*
X7830206Y-14573579D01*
X7830206Y-14573579D02*
X7830206Y-14621198D01*
X7830206Y-14621198D02*
X7839729Y-14640246D01*
X7839729Y-14640246D02*
X7849253Y-14649769D01*
X7849253Y-14649769D02*
X7868301Y-14659293D01*
X7868301Y-14659293D02*
X7906396Y-14659293D01*
X7906396Y-14659293D02*
X7925444Y-14649769D01*
X7925444Y-14649769D02*
X7934968Y-14640246D01*
X7934968Y-14640246D02*
X7944491Y-14621198D01*
X8058777Y-14621198D02*
X8039729Y-14611674D01*
X8039729Y-14611674D02*
X8030206Y-14602150D01*
X8030206Y-14602150D02*
X8020682Y-14583103D01*
X8020682Y-14583103D02*
X8020682Y-14573579D01*
X8020682Y-14573579D02*
X8030206Y-14554531D01*
X8030206Y-14554531D02*
X8039729Y-14545008D01*
X8039729Y-14545008D02*
X8058777Y-14535484D01*
X8058777Y-14535484D02*
X8096872Y-14535484D01*
X8096872Y-14535484D02*
X8115920Y-14545008D01*
X8115920Y-14545008D02*
X8125444Y-14554531D01*
X8125444Y-14554531D02*
X8134968Y-14573579D01*
X8134968Y-14573579D02*
X8134968Y-14583103D01*
X8134968Y-14583103D02*
X8125444Y-14602150D01*
X8125444Y-14602150D02*
X8115920Y-14611674D01*
X8115920Y-14611674D02*
X8096872Y-14621198D01*
X8096872Y-14621198D02*
X8058777Y-14621198D01*
X8058777Y-14621198D02*
X8039729Y-14630722D01*
X8039729Y-14630722D02*
X8030206Y-14640246D01*
X8030206Y-14640246D02*
X8020682Y-14659293D01*
X8020682Y-14659293D02*
X8020682Y-14697388D01*
X8020682Y-14697388D02*
X8030206Y-14716436D01*
X8030206Y-14716436D02*
X8039729Y-14725960D01*
X8039729Y-14725960D02*
X8058777Y-14735484D01*
X8058777Y-14735484D02*
X8096872Y-14735484D01*
X8096872Y-14735484D02*
X8115920Y-14725960D01*
X8115920Y-14725960D02*
X8125444Y-14716436D01*
X8125444Y-14716436D02*
X8134968Y-14697388D01*
X8134968Y-14697388D02*
X8134968Y-14659293D01*
X8134968Y-14659293D02*
X8125444Y-14640246D01*
X8125444Y-14640246D02*
X8115920Y-14630722D01*
X8115920Y-14630722D02*
X8096872Y-14621198D01*
X8373063Y-14735484D02*
X8373063Y-14535484D01*
X8458777Y-14735484D02*
X8458777Y-14630722D01*
X8458777Y-14630722D02*
X8449253Y-14611674D01*
X8449253Y-14611674D02*
X8430206Y-14602150D01*
X8430206Y-14602150D02*
X8401634Y-14602150D01*
X8401634Y-14602150D02*
X8382587Y-14611674D01*
X8382587Y-14611674D02*
X8373063Y-14621198D01*
X8582587Y-14735484D02*
X8563539Y-14725960D01*
X8563539Y-14725960D02*
X8554015Y-14716436D01*
X8554015Y-14716436D02*
X8544492Y-14697388D01*
X8544492Y-14697388D02*
X8544492Y-14640246D01*
X8544492Y-14640246D02*
X8554015Y-14621198D01*
X8554015Y-14621198D02*
X8563539Y-14611674D01*
X8563539Y-14611674D02*
X8582587Y-14602150D01*
X8582587Y-14602150D02*
X8611158Y-14602150D01*
X8611158Y-14602150D02*
X8630206Y-14611674D01*
X8630206Y-14611674D02*
X8639730Y-14621198D01*
X8639730Y-14621198D02*
X8649253Y-14640246D01*
X8649253Y-14640246D02*
X8649253Y-14697388D01*
X8649253Y-14697388D02*
X8639730Y-14716436D01*
X8639730Y-14716436D02*
X8630206Y-14725960D01*
X8630206Y-14725960D02*
X8611158Y-14735484D01*
X8611158Y-14735484D02*
X8582587Y-14735484D01*
X8763539Y-14735484D02*
X8744492Y-14725960D01*
X8744492Y-14725960D02*
X8734968Y-14706912D01*
X8734968Y-14706912D02*
X8734968Y-14535484D01*
X8915920Y-14725960D02*
X8896873Y-14735484D01*
X8896873Y-14735484D02*
X8858777Y-14735484D01*
X8858777Y-14735484D02*
X8839730Y-14725960D01*
X8839730Y-14725960D02*
X8830206Y-14706912D01*
X8830206Y-14706912D02*
X8830206Y-14630722D01*
X8830206Y-14630722D02*
X8839730Y-14611674D01*
X8839730Y-14611674D02*
X8858777Y-14602150D01*
X8858777Y-14602150D02*
X8896873Y-14602150D01*
X8896873Y-14602150D02*
X8915920Y-14611674D01*
X8915920Y-14611674D02*
X8925444Y-14630722D01*
X8925444Y-14630722D02*
X8925444Y-14649769D01*
X8925444Y-14649769D02*
X8830206Y-14668817D01*
X9001634Y-14725960D02*
X9020682Y-14735484D01*
X9020682Y-14735484D02*
X9058777Y-14735484D01*
X9058777Y-14735484D02*
X9077825Y-14725960D01*
X9077825Y-14725960D02*
X9087349Y-14706912D01*
X9087349Y-14706912D02*
X9087349Y-14697388D01*
X9087349Y-14697388D02*
X9077825Y-14678341D01*
X9077825Y-14678341D02*
X9058777Y-14668817D01*
X9058777Y-14668817D02*
X9030206Y-14668817D01*
X9030206Y-14668817D02*
X9011158Y-14659293D01*
X9011158Y-14659293D02*
X9001634Y-14640246D01*
X9001634Y-14640246D02*
X9001634Y-14630722D01*
X9001634Y-14630722D02*
X9011158Y-14611674D01*
X9011158Y-14611674D02*
X9030206Y-14602150D01*
X9030206Y-14602150D02*
X9058777Y-14602150D01*
X9058777Y-14602150D02*
X9077825Y-14611674D01*
X9154015Y-14811674D02*
X9163539Y-14802150D01*
X9163539Y-14802150D02*
X9182587Y-14773579D01*
X9182587Y-14773579D02*
X9192111Y-14754531D01*
X9192111Y-14754531D02*
X9201634Y-14725960D01*
X9201634Y-14725960D02*
X9211158Y-14678341D01*
X9211158Y-14678341D02*
X9211158Y-14640246D01*
X9211158Y-14640246D02*
X9201634Y-14592627D01*
X9201634Y-14592627D02*
X9192111Y-14564055D01*
X9192111Y-14564055D02*
X9182587Y-14545008D01*
X9182587Y-14545008D02*
X9163539Y-14516436D01*
X9163539Y-14516436D02*
X9154015Y-14506912D01*
D11*
X3973000Y-14883000D02*
X3973000Y-14933000D01*
X3948000Y-14908000D02*
X3998000Y-14908000D01*
D10*
X4296872Y-14799484D02*
X4315920Y-14799484D01*
X4315920Y-14799484D02*
X4334967Y-14809008D01*
X4334967Y-14809008D02*
X4344491Y-14818531D01*
X4344491Y-14818531D02*
X4354015Y-14837579D01*
X4354015Y-14837579D02*
X4363539Y-14875674D01*
X4363539Y-14875674D02*
X4363539Y-14923293D01*
X4363539Y-14923293D02*
X4354015Y-14961388D01*
X4354015Y-14961388D02*
X4344491Y-14980436D01*
X4344491Y-14980436D02*
X4334967Y-14989960D01*
X4334967Y-14989960D02*
X4315920Y-14999484D01*
X4315920Y-14999484D02*
X4296872Y-14999484D01*
X4296872Y-14999484D02*
X4277824Y-14989960D01*
X4277824Y-14989960D02*
X4268301Y-14980436D01*
X4268301Y-14980436D02*
X4258777Y-14961388D01*
X4258777Y-14961388D02*
X4249253Y-14923293D01*
X4249253Y-14923293D02*
X4249253Y-14875674D01*
X4249253Y-14875674D02*
X4258777Y-14837579D01*
X4258777Y-14837579D02*
X4268301Y-14818531D01*
X4268301Y-14818531D02*
X4277824Y-14809008D01*
X4277824Y-14809008D02*
X4296872Y-14799484D01*
X4449253Y-14980436D02*
X4458777Y-14989960D01*
X4458777Y-14989960D02*
X4449253Y-14999484D01*
X4449253Y-14999484D02*
X4439729Y-14989960D01*
X4439729Y-14989960D02*
X4449253Y-14980436D01*
X4449253Y-14980436D02*
X4449253Y-14999484D01*
X4639729Y-14799484D02*
X4544491Y-14799484D01*
X4544491Y-14799484D02*
X4534967Y-14894722D01*
X4534967Y-14894722D02*
X4544491Y-14885198D01*
X4544491Y-14885198D02*
X4563539Y-14875674D01*
X4563539Y-14875674D02*
X4611158Y-14875674D01*
X4611158Y-14875674D02*
X4630205Y-14885198D01*
X4630205Y-14885198D02*
X4639729Y-14894722D01*
X4639729Y-14894722D02*
X4649253Y-14913769D01*
X4649253Y-14913769D02*
X4649253Y-14961388D01*
X4649253Y-14961388D02*
X4639729Y-14980436D01*
X4639729Y-14980436D02*
X4630205Y-14989960D01*
X4630205Y-14989960D02*
X4611158Y-14999484D01*
X4611158Y-14999484D02*
X4563539Y-14999484D01*
X4563539Y-14999484D02*
X4544491Y-14989960D01*
X4544491Y-14989960D02*
X4534967Y-14980436D01*
X4773063Y-14799484D02*
X4792110Y-14799484D01*
X4792110Y-14799484D02*
X4811158Y-14809008D01*
X4811158Y-14809008D02*
X4820682Y-14818531D01*
X4820682Y-14818531D02*
X4830205Y-14837579D01*
X4830205Y-14837579D02*
X4839729Y-14875674D01*
X4839729Y-14875674D02*
X4839729Y-14923293D01*
X4839729Y-14923293D02*
X4830205Y-14961388D01*
X4830205Y-14961388D02*
X4820682Y-14980436D01*
X4820682Y-14980436D02*
X4811158Y-14989960D01*
X4811158Y-14989960D02*
X4792110Y-14999484D01*
X4792110Y-14999484D02*
X4773063Y-14999484D01*
X4773063Y-14999484D02*
X4754015Y-14989960D01*
X4754015Y-14989960D02*
X4744491Y-14980436D01*
X4744491Y-14980436D02*
X4734967Y-14961388D01*
X4734967Y-14961388D02*
X4725444Y-14923293D01*
X4725444Y-14923293D02*
X4725444Y-14875674D01*
X4725444Y-14875674D02*
X4734967Y-14837579D01*
X4734967Y-14837579D02*
X4744491Y-14818531D01*
X4744491Y-14818531D02*
X4754015Y-14809008D01*
X4754015Y-14809008D02*
X4773063Y-14799484D01*
X4963539Y-14799484D02*
X4982586Y-14799484D01*
X4982586Y-14799484D02*
X5001634Y-14809008D01*
X5001634Y-14809008D02*
X5011158Y-14818531D01*
X5011158Y-14818531D02*
X5020682Y-14837579D01*
X5020682Y-14837579D02*
X5030205Y-14875674D01*
X5030205Y-14875674D02*
X5030205Y-14923293D01*
X5030205Y-14923293D02*
X5020682Y-14961388D01*
X5020682Y-14961388D02*
X5011158Y-14980436D01*
X5011158Y-14980436D02*
X5001634Y-14989960D01*
X5001634Y-14989960D02*
X4982586Y-14999484D01*
X4982586Y-14999484D02*
X4963539Y-14999484D01*
X4963539Y-14999484D02*
X4944491Y-14989960D01*
X4944491Y-14989960D02*
X4934967Y-14980436D01*
X4934967Y-14980436D02*
X4925444Y-14961388D01*
X4925444Y-14961388D02*
X4915920Y-14923293D01*
X4915920Y-14923293D02*
X4915920Y-14875674D01*
X4915920Y-14875674D02*
X4925444Y-14837579D01*
X4925444Y-14837579D02*
X4934967Y-14818531D01*
X4934967Y-14818531D02*
X4944491Y-14809008D01*
X4944491Y-14809008D02*
X4963539Y-14799484D01*
X5115920Y-14999484D02*
X5115920Y-14866150D01*
X5115920Y-14885198D02*
X5125444Y-14875674D01*
X5125444Y-14875674D02*
X5144491Y-14866150D01*
X5144491Y-14866150D02*
X5173063Y-14866150D01*
X5173063Y-14866150D02*
X5192110Y-14875674D01*
X5192110Y-14875674D02*
X5201634Y-14894722D01*
X5201634Y-14894722D02*
X5201634Y-14999484D01*
X5201634Y-14894722D02*
X5211158Y-14875674D01*
X5211158Y-14875674D02*
X5230205Y-14866150D01*
X5230205Y-14866150D02*
X5258777Y-14866150D01*
X5258777Y-14866150D02*
X5277825Y-14875674D01*
X5277825Y-14875674D02*
X5287348Y-14894722D01*
X5287348Y-14894722D02*
X5287348Y-14999484D01*
X5382586Y-14999484D02*
X5382586Y-14866150D01*
X5382586Y-14885198D02*
X5392110Y-14875674D01*
X5392110Y-14875674D02*
X5411158Y-14866150D01*
X5411158Y-14866150D02*
X5439729Y-14866150D01*
X5439729Y-14866150D02*
X5458777Y-14875674D01*
X5458777Y-14875674D02*
X5468301Y-14894722D01*
X5468301Y-14894722D02*
X5468301Y-14999484D01*
X5468301Y-14894722D02*
X5477825Y-14875674D01*
X5477825Y-14875674D02*
X5496872Y-14866150D01*
X5496872Y-14866150D02*
X5525444Y-14866150D01*
X5525444Y-14866150D02*
X5544491Y-14875674D01*
X5544491Y-14875674D02*
X5554015Y-14894722D01*
X5554015Y-14894722D02*
X5554015Y-14999484D01*
X5944491Y-14789960D02*
X5773063Y-15047103D01*
X6201634Y-14799484D02*
X6220682Y-14799484D01*
X6220682Y-14799484D02*
X6239729Y-14809008D01*
X6239729Y-14809008D02*
X6249253Y-14818531D01*
X6249253Y-14818531D02*
X6258777Y-14837579D01*
X6258777Y-14837579D02*
X6268301Y-14875674D01*
X6268301Y-14875674D02*
X6268301Y-14923293D01*
X6268301Y-14923293D02*
X6258777Y-14961388D01*
X6258777Y-14961388D02*
X6249253Y-14980436D01*
X6249253Y-14980436D02*
X6239729Y-14989960D01*
X6239729Y-14989960D02*
X6220682Y-14999484D01*
X6220682Y-14999484D02*
X6201634Y-14999484D01*
X6201634Y-14999484D02*
X6182586Y-14989960D01*
X6182586Y-14989960D02*
X6173063Y-14980436D01*
X6173063Y-14980436D02*
X6163539Y-14961388D01*
X6163539Y-14961388D02*
X6154015Y-14923293D01*
X6154015Y-14923293D02*
X6154015Y-14875674D01*
X6154015Y-14875674D02*
X6163539Y-14837579D01*
X6163539Y-14837579D02*
X6173063Y-14818531D01*
X6173063Y-14818531D02*
X6182586Y-14809008D01*
X6182586Y-14809008D02*
X6201634Y-14799484D01*
X6354015Y-14980436D02*
X6363539Y-14989960D01*
X6363539Y-14989960D02*
X6354015Y-14999484D01*
X6354015Y-14999484D02*
X6344491Y-14989960D01*
X6344491Y-14989960D02*
X6354015Y-14980436D01*
X6354015Y-14980436D02*
X6354015Y-14999484D01*
X6487348Y-14799484D02*
X6506396Y-14799484D01*
X6506396Y-14799484D02*
X6525444Y-14809008D01*
X6525444Y-14809008D02*
X6534967Y-14818531D01*
X6534967Y-14818531D02*
X6544491Y-14837579D01*
X6544491Y-14837579D02*
X6554015Y-14875674D01*
X6554015Y-14875674D02*
X6554015Y-14923293D01*
X6554015Y-14923293D02*
X6544491Y-14961388D01*
X6544491Y-14961388D02*
X6534967Y-14980436D01*
X6534967Y-14980436D02*
X6525444Y-14989960D01*
X6525444Y-14989960D02*
X6506396Y-14999484D01*
X6506396Y-14999484D02*
X6487348Y-14999484D01*
X6487348Y-14999484D02*
X6468301Y-14989960D01*
X6468301Y-14989960D02*
X6458777Y-14980436D01*
X6458777Y-14980436D02*
X6449253Y-14961388D01*
X6449253Y-14961388D02*
X6439729Y-14923293D01*
X6439729Y-14923293D02*
X6439729Y-14875674D01*
X6439729Y-14875674D02*
X6449253Y-14837579D01*
X6449253Y-14837579D02*
X6458777Y-14818531D01*
X6458777Y-14818531D02*
X6468301Y-14809008D01*
X6468301Y-14809008D02*
X6487348Y-14799484D01*
X6744491Y-14999484D02*
X6630206Y-14999484D01*
X6687348Y-14999484D02*
X6687348Y-14799484D01*
X6687348Y-14799484D02*
X6668301Y-14828055D01*
X6668301Y-14828055D02*
X6649253Y-14847103D01*
X6649253Y-14847103D02*
X6630206Y-14856627D01*
X6839729Y-14999484D02*
X6877825Y-14999484D01*
X6877825Y-14999484D02*
X6896872Y-14989960D01*
X6896872Y-14989960D02*
X6906396Y-14980436D01*
X6906396Y-14980436D02*
X6925444Y-14951865D01*
X6925444Y-14951865D02*
X6934967Y-14913769D01*
X6934967Y-14913769D02*
X6934967Y-14837579D01*
X6934967Y-14837579D02*
X6925444Y-14818531D01*
X6925444Y-14818531D02*
X6915920Y-14809008D01*
X6915920Y-14809008D02*
X6896872Y-14799484D01*
X6896872Y-14799484D02*
X6858777Y-14799484D01*
X6858777Y-14799484D02*
X6839729Y-14809008D01*
X6839729Y-14809008D02*
X6830206Y-14818531D01*
X6830206Y-14818531D02*
X6820682Y-14837579D01*
X6820682Y-14837579D02*
X6820682Y-14885198D01*
X6820682Y-14885198D02*
X6830206Y-14904246D01*
X6830206Y-14904246D02*
X6839729Y-14913769D01*
X6839729Y-14913769D02*
X6858777Y-14923293D01*
X6858777Y-14923293D02*
X6896872Y-14923293D01*
X6896872Y-14923293D02*
X6915920Y-14913769D01*
X6915920Y-14913769D02*
X6925444Y-14904246D01*
X6925444Y-14904246D02*
X6934967Y-14885198D01*
X7001634Y-14799484D02*
X7134967Y-14799484D01*
X7134967Y-14799484D02*
X7049253Y-14999484D01*
X7201634Y-14799484D02*
X7201634Y-14837579D01*
X7277825Y-14799484D02*
X7277825Y-14837579D01*
X7573063Y-15075674D02*
X7563539Y-15066150D01*
X7563539Y-15066150D02*
X7544491Y-15037579D01*
X7544491Y-15037579D02*
X7534968Y-15018531D01*
X7534968Y-15018531D02*
X7525444Y-14989960D01*
X7525444Y-14989960D02*
X7515920Y-14942341D01*
X7515920Y-14942341D02*
X7515920Y-14904246D01*
X7515920Y-14904246D02*
X7525444Y-14856627D01*
X7525444Y-14856627D02*
X7534968Y-14828055D01*
X7534968Y-14828055D02*
X7544491Y-14809008D01*
X7544491Y-14809008D02*
X7563539Y-14780436D01*
X7563539Y-14780436D02*
X7573063Y-14770912D01*
X7754015Y-14999484D02*
X7639729Y-14999484D01*
X7696872Y-14999484D02*
X7696872Y-14799484D01*
X7696872Y-14799484D02*
X7677825Y-14828055D01*
X7677825Y-14828055D02*
X7658777Y-14847103D01*
X7658777Y-14847103D02*
X7639729Y-14856627D01*
X7992110Y-14999484D02*
X7992110Y-14799484D01*
X8077825Y-14999484D02*
X8077825Y-14894722D01*
X8077825Y-14894722D02*
X8068301Y-14875674D01*
X8068301Y-14875674D02*
X8049253Y-14866150D01*
X8049253Y-14866150D02*
X8020682Y-14866150D01*
X8020682Y-14866150D02*
X8001634Y-14875674D01*
X8001634Y-14875674D02*
X7992110Y-14885198D01*
X8201634Y-14999484D02*
X8182587Y-14989960D01*
X8182587Y-14989960D02*
X8173063Y-14980436D01*
X8173063Y-14980436D02*
X8163539Y-14961388D01*
X8163539Y-14961388D02*
X8163539Y-14904246D01*
X8163539Y-14904246D02*
X8173063Y-14885198D01*
X8173063Y-14885198D02*
X8182587Y-14875674D01*
X8182587Y-14875674D02*
X8201634Y-14866150D01*
X8201634Y-14866150D02*
X8230206Y-14866150D01*
X8230206Y-14866150D02*
X8249253Y-14875674D01*
X8249253Y-14875674D02*
X8258777Y-14885198D01*
X8258777Y-14885198D02*
X8268301Y-14904246D01*
X8268301Y-14904246D02*
X8268301Y-14961388D01*
X8268301Y-14961388D02*
X8258777Y-14980436D01*
X8258777Y-14980436D02*
X8249253Y-14989960D01*
X8249253Y-14989960D02*
X8230206Y-14999484D01*
X8230206Y-14999484D02*
X8201634Y-14999484D01*
X8382587Y-14999484D02*
X8363539Y-14989960D01*
X8363539Y-14989960D02*
X8354015Y-14970912D01*
X8354015Y-14970912D02*
X8354015Y-14799484D01*
X8534968Y-14989960D02*
X8515920Y-14999484D01*
X8515920Y-14999484D02*
X8477825Y-14999484D01*
X8477825Y-14999484D02*
X8458777Y-14989960D01*
X8458777Y-14989960D02*
X8449253Y-14970912D01*
X8449253Y-14970912D02*
X8449253Y-14894722D01*
X8449253Y-14894722D02*
X8458777Y-14875674D01*
X8458777Y-14875674D02*
X8477825Y-14866150D01*
X8477825Y-14866150D02*
X8515920Y-14866150D01*
X8515920Y-14866150D02*
X8534968Y-14875674D01*
X8534968Y-14875674D02*
X8544492Y-14894722D01*
X8544492Y-14894722D02*
X8544492Y-14913769D01*
X8544492Y-14913769D02*
X8449253Y-14932817D01*
X8611158Y-15075674D02*
X8620682Y-15066150D01*
X8620682Y-15066150D02*
X8639730Y-15037579D01*
X8639730Y-15037579D02*
X8649253Y-15018531D01*
X8649253Y-15018531D02*
X8658777Y-14989960D01*
X8658777Y-14989960D02*
X8668301Y-14942341D01*
X8668301Y-14942341D02*
X8668301Y-14904246D01*
X8668301Y-14904246D02*
X8658777Y-14856627D01*
X8658777Y-14856627D02*
X8649253Y-14828055D01*
X8649253Y-14828055D02*
X8639730Y-14809008D01*
X8639730Y-14809008D02*
X8620682Y-14780436D01*
X8620682Y-14780436D02*
X8611158Y-14770912D01*
D11*
X3987749Y-15196749D02*
X3987749Y-15147251D01*
X3938251Y-15147251D01*
X3938251Y-15196749D01*
X3987749Y-15196749D01*
D10*
X4296872Y-15063484D02*
X4315920Y-15063484D01*
X4315920Y-15063484D02*
X4334967Y-15073008D01*
X4334967Y-15073008D02*
X4344491Y-15082531D01*
X4344491Y-15082531D02*
X4354015Y-15101579D01*
X4354015Y-15101579D02*
X4363539Y-15139674D01*
X4363539Y-15139674D02*
X4363539Y-15187293D01*
X4363539Y-15187293D02*
X4354015Y-15225388D01*
X4354015Y-15225388D02*
X4344491Y-15244436D01*
X4344491Y-15244436D02*
X4334967Y-15253960D01*
X4334967Y-15253960D02*
X4315920Y-15263484D01*
X4315920Y-15263484D02*
X4296872Y-15263484D01*
X4296872Y-15263484D02*
X4277824Y-15253960D01*
X4277824Y-15253960D02*
X4268301Y-15244436D01*
X4268301Y-15244436D02*
X4258777Y-15225388D01*
X4258777Y-15225388D02*
X4249253Y-15187293D01*
X4249253Y-15187293D02*
X4249253Y-15139674D01*
X4249253Y-15139674D02*
X4258777Y-15101579D01*
X4258777Y-15101579D02*
X4268301Y-15082531D01*
X4268301Y-15082531D02*
X4277824Y-15073008D01*
X4277824Y-15073008D02*
X4296872Y-15063484D01*
X4449253Y-15244436D02*
X4458777Y-15253960D01*
X4458777Y-15253960D02*
X4449253Y-15263484D01*
X4449253Y-15263484D02*
X4439729Y-15253960D01*
X4439729Y-15253960D02*
X4449253Y-15244436D01*
X4449253Y-15244436D02*
X4449253Y-15263484D01*
X4525444Y-15063484D02*
X4658777Y-15063484D01*
X4658777Y-15063484D02*
X4573063Y-15263484D01*
X4773063Y-15063484D02*
X4792110Y-15063484D01*
X4792110Y-15063484D02*
X4811158Y-15073008D01*
X4811158Y-15073008D02*
X4820682Y-15082531D01*
X4820682Y-15082531D02*
X4830205Y-15101579D01*
X4830205Y-15101579D02*
X4839729Y-15139674D01*
X4839729Y-15139674D02*
X4839729Y-15187293D01*
X4839729Y-15187293D02*
X4830205Y-15225388D01*
X4830205Y-15225388D02*
X4820682Y-15244436D01*
X4820682Y-15244436D02*
X4811158Y-15253960D01*
X4811158Y-15253960D02*
X4792110Y-15263484D01*
X4792110Y-15263484D02*
X4773063Y-15263484D01*
X4773063Y-15263484D02*
X4754015Y-15253960D01*
X4754015Y-15253960D02*
X4744491Y-15244436D01*
X4744491Y-15244436D02*
X4734967Y-15225388D01*
X4734967Y-15225388D02*
X4725444Y-15187293D01*
X4725444Y-15187293D02*
X4725444Y-15139674D01*
X4725444Y-15139674D02*
X4734967Y-15101579D01*
X4734967Y-15101579D02*
X4744491Y-15082531D01*
X4744491Y-15082531D02*
X4754015Y-15073008D01*
X4754015Y-15073008D02*
X4773063Y-15063484D01*
X4963539Y-15063484D02*
X4982586Y-15063484D01*
X4982586Y-15063484D02*
X5001634Y-15073008D01*
X5001634Y-15073008D02*
X5011158Y-15082531D01*
X5011158Y-15082531D02*
X5020682Y-15101579D01*
X5020682Y-15101579D02*
X5030205Y-15139674D01*
X5030205Y-15139674D02*
X5030205Y-15187293D01*
X5030205Y-15187293D02*
X5020682Y-15225388D01*
X5020682Y-15225388D02*
X5011158Y-15244436D01*
X5011158Y-15244436D02*
X5001634Y-15253960D01*
X5001634Y-15253960D02*
X4982586Y-15263484D01*
X4982586Y-15263484D02*
X4963539Y-15263484D01*
X4963539Y-15263484D02*
X4944491Y-15253960D01*
X4944491Y-15253960D02*
X4934967Y-15244436D01*
X4934967Y-15244436D02*
X4925444Y-15225388D01*
X4925444Y-15225388D02*
X4915920Y-15187293D01*
X4915920Y-15187293D02*
X4915920Y-15139674D01*
X4915920Y-15139674D02*
X4925444Y-15101579D01*
X4925444Y-15101579D02*
X4934967Y-15082531D01*
X4934967Y-15082531D02*
X4944491Y-15073008D01*
X4944491Y-15073008D02*
X4963539Y-15063484D01*
X5115920Y-15263484D02*
X5115920Y-15130150D01*
X5115920Y-15149198D02*
X5125444Y-15139674D01*
X5125444Y-15139674D02*
X5144491Y-15130150D01*
X5144491Y-15130150D02*
X5173063Y-15130150D01*
X5173063Y-15130150D02*
X5192110Y-15139674D01*
X5192110Y-15139674D02*
X5201634Y-15158722D01*
X5201634Y-15158722D02*
X5201634Y-15263484D01*
X5201634Y-15158722D02*
X5211158Y-15139674D01*
X5211158Y-15139674D02*
X5230205Y-15130150D01*
X5230205Y-15130150D02*
X5258777Y-15130150D01*
X5258777Y-15130150D02*
X5277825Y-15139674D01*
X5277825Y-15139674D02*
X5287348Y-15158722D01*
X5287348Y-15158722D02*
X5287348Y-15263484D01*
X5382586Y-15263484D02*
X5382586Y-15130150D01*
X5382586Y-15149198D02*
X5392110Y-15139674D01*
X5392110Y-15139674D02*
X5411158Y-15130150D01*
X5411158Y-15130150D02*
X5439729Y-15130150D01*
X5439729Y-15130150D02*
X5458777Y-15139674D01*
X5458777Y-15139674D02*
X5468301Y-15158722D01*
X5468301Y-15158722D02*
X5468301Y-15263484D01*
X5468301Y-15158722D02*
X5477825Y-15139674D01*
X5477825Y-15139674D02*
X5496872Y-15130150D01*
X5496872Y-15130150D02*
X5525444Y-15130150D01*
X5525444Y-15130150D02*
X5544491Y-15139674D01*
X5544491Y-15139674D02*
X5554015Y-15158722D01*
X5554015Y-15158722D02*
X5554015Y-15263484D01*
X5944491Y-15053960D02*
X5773063Y-15311103D01*
X6201634Y-15063484D02*
X6220682Y-15063484D01*
X6220682Y-15063484D02*
X6239729Y-15073008D01*
X6239729Y-15073008D02*
X6249253Y-15082531D01*
X6249253Y-15082531D02*
X6258777Y-15101579D01*
X6258777Y-15101579D02*
X6268301Y-15139674D01*
X6268301Y-15139674D02*
X6268301Y-15187293D01*
X6268301Y-15187293D02*
X6258777Y-15225388D01*
X6258777Y-15225388D02*
X6249253Y-15244436D01*
X6249253Y-15244436D02*
X6239729Y-15253960D01*
X6239729Y-15253960D02*
X6220682Y-15263484D01*
X6220682Y-15263484D02*
X6201634Y-15263484D01*
X6201634Y-15263484D02*
X6182586Y-15253960D01*
X6182586Y-15253960D02*
X6173063Y-15244436D01*
X6173063Y-15244436D02*
X6163539Y-15225388D01*
X6163539Y-15225388D02*
X6154015Y-15187293D01*
X6154015Y-15187293D02*
X6154015Y-15139674D01*
X6154015Y-15139674D02*
X6163539Y-15101579D01*
X6163539Y-15101579D02*
X6173063Y-15082531D01*
X6173063Y-15082531D02*
X6182586Y-15073008D01*
X6182586Y-15073008D02*
X6201634Y-15063484D01*
X6354015Y-15244436D02*
X6363539Y-15253960D01*
X6363539Y-15253960D02*
X6354015Y-15263484D01*
X6354015Y-15263484D02*
X6344491Y-15253960D01*
X6344491Y-15253960D02*
X6354015Y-15244436D01*
X6354015Y-15244436D02*
X6354015Y-15263484D01*
X6487348Y-15063484D02*
X6506396Y-15063484D01*
X6506396Y-15063484D02*
X6525444Y-15073008D01*
X6525444Y-15073008D02*
X6534967Y-15082531D01*
X6534967Y-15082531D02*
X6544491Y-15101579D01*
X6544491Y-15101579D02*
X6554015Y-15139674D01*
X6554015Y-15139674D02*
X6554015Y-15187293D01*
X6554015Y-15187293D02*
X6544491Y-15225388D01*
X6544491Y-15225388D02*
X6534967Y-15244436D01*
X6534967Y-15244436D02*
X6525444Y-15253960D01*
X6525444Y-15253960D02*
X6506396Y-15263484D01*
X6506396Y-15263484D02*
X6487348Y-15263484D01*
X6487348Y-15263484D02*
X6468301Y-15253960D01*
X6468301Y-15253960D02*
X6458777Y-15244436D01*
X6458777Y-15244436D02*
X6449253Y-15225388D01*
X6449253Y-15225388D02*
X6439729Y-15187293D01*
X6439729Y-15187293D02*
X6439729Y-15139674D01*
X6439729Y-15139674D02*
X6449253Y-15101579D01*
X6449253Y-15101579D02*
X6458777Y-15082531D01*
X6458777Y-15082531D02*
X6468301Y-15073008D01*
X6468301Y-15073008D02*
X6487348Y-15063484D01*
X6630206Y-15082531D02*
X6639729Y-15073008D01*
X6639729Y-15073008D02*
X6658777Y-15063484D01*
X6658777Y-15063484D02*
X6706396Y-15063484D01*
X6706396Y-15063484D02*
X6725444Y-15073008D01*
X6725444Y-15073008D02*
X6734967Y-15082531D01*
X6734967Y-15082531D02*
X6744491Y-15101579D01*
X6744491Y-15101579D02*
X6744491Y-15120627D01*
X6744491Y-15120627D02*
X6734967Y-15149198D01*
X6734967Y-15149198D02*
X6620682Y-15263484D01*
X6620682Y-15263484D02*
X6744491Y-15263484D01*
X6811158Y-15063484D02*
X6944491Y-15063484D01*
X6944491Y-15063484D02*
X6858777Y-15263484D01*
X7106396Y-15063484D02*
X7068301Y-15063484D01*
X7068301Y-15063484D02*
X7049253Y-15073008D01*
X7049253Y-15073008D02*
X7039729Y-15082531D01*
X7039729Y-15082531D02*
X7020682Y-15111103D01*
X7020682Y-15111103D02*
X7011158Y-15149198D01*
X7011158Y-15149198D02*
X7011158Y-15225388D01*
X7011158Y-15225388D02*
X7020682Y-15244436D01*
X7020682Y-15244436D02*
X7030206Y-15253960D01*
X7030206Y-15253960D02*
X7049253Y-15263484D01*
X7049253Y-15263484D02*
X7087348Y-15263484D01*
X7087348Y-15263484D02*
X7106396Y-15253960D01*
X7106396Y-15253960D02*
X7115920Y-15244436D01*
X7115920Y-15244436D02*
X7125444Y-15225388D01*
X7125444Y-15225388D02*
X7125444Y-15177769D01*
X7125444Y-15177769D02*
X7115920Y-15158722D01*
X7115920Y-15158722D02*
X7106396Y-15149198D01*
X7106396Y-15149198D02*
X7087348Y-15139674D01*
X7087348Y-15139674D02*
X7049253Y-15139674D01*
X7049253Y-15139674D02*
X7030206Y-15149198D01*
X7030206Y-15149198D02*
X7020682Y-15158722D01*
X7020682Y-15158722D02*
X7011158Y-15177769D01*
X7201634Y-15063484D02*
X7201634Y-15101579D01*
X7277825Y-15063484D02*
X7277825Y-15101579D01*
X7573063Y-15339674D02*
X7563539Y-15330150D01*
X7563539Y-15330150D02*
X7544491Y-15301579D01*
X7544491Y-15301579D02*
X7534968Y-15282531D01*
X7534968Y-15282531D02*
X7525444Y-15253960D01*
X7525444Y-15253960D02*
X7515920Y-15206341D01*
X7515920Y-15206341D02*
X7515920Y-15168246D01*
X7515920Y-15168246D02*
X7525444Y-15120627D01*
X7525444Y-15120627D02*
X7534968Y-15092055D01*
X7534968Y-15092055D02*
X7544491Y-15073008D01*
X7544491Y-15073008D02*
X7563539Y-15044436D01*
X7563539Y-15044436D02*
X7573063Y-15034912D01*
X7639729Y-15082531D02*
X7649253Y-15073008D01*
X7649253Y-15073008D02*
X7668301Y-15063484D01*
X7668301Y-15063484D02*
X7715920Y-15063484D01*
X7715920Y-15063484D02*
X7734968Y-15073008D01*
X7734968Y-15073008D02*
X7744491Y-15082531D01*
X7744491Y-15082531D02*
X7754015Y-15101579D01*
X7754015Y-15101579D02*
X7754015Y-15120627D01*
X7754015Y-15120627D02*
X7744491Y-15149198D01*
X7744491Y-15149198D02*
X7630206Y-15263484D01*
X7630206Y-15263484D02*
X7754015Y-15263484D01*
X7992110Y-15263484D02*
X7992110Y-15063484D01*
X8077825Y-15263484D02*
X8077825Y-15158722D01*
X8077825Y-15158722D02*
X8068301Y-15139674D01*
X8068301Y-15139674D02*
X8049253Y-15130150D01*
X8049253Y-15130150D02*
X8020682Y-15130150D01*
X8020682Y-15130150D02*
X8001634Y-15139674D01*
X8001634Y-15139674D02*
X7992110Y-15149198D01*
X8201634Y-15263484D02*
X8182587Y-15253960D01*
X8182587Y-15253960D02*
X8173063Y-15244436D01*
X8173063Y-15244436D02*
X8163539Y-15225388D01*
X8163539Y-15225388D02*
X8163539Y-15168246D01*
X8163539Y-15168246D02*
X8173063Y-15149198D01*
X8173063Y-15149198D02*
X8182587Y-15139674D01*
X8182587Y-15139674D02*
X8201634Y-15130150D01*
X8201634Y-15130150D02*
X8230206Y-15130150D01*
X8230206Y-15130150D02*
X8249253Y-15139674D01*
X8249253Y-15139674D02*
X8258777Y-15149198D01*
X8258777Y-15149198D02*
X8268301Y-15168246D01*
X8268301Y-15168246D02*
X8268301Y-15225388D01*
X8268301Y-15225388D02*
X8258777Y-15244436D01*
X8258777Y-15244436D02*
X8249253Y-15253960D01*
X8249253Y-15253960D02*
X8230206Y-15263484D01*
X8230206Y-15263484D02*
X8201634Y-15263484D01*
X8382587Y-15263484D02*
X8363539Y-15253960D01*
X8363539Y-15253960D02*
X8354015Y-15234912D01*
X8354015Y-15234912D02*
X8354015Y-15063484D01*
X8534968Y-15253960D02*
X8515920Y-15263484D01*
X8515920Y-15263484D02*
X8477825Y-15263484D01*
X8477825Y-15263484D02*
X8458777Y-15253960D01*
X8458777Y-15253960D02*
X8449253Y-15234912D01*
X8449253Y-15234912D02*
X8449253Y-15158722D01*
X8449253Y-15158722D02*
X8458777Y-15139674D01*
X8458777Y-15139674D02*
X8477825Y-15130150D01*
X8477825Y-15130150D02*
X8515920Y-15130150D01*
X8515920Y-15130150D02*
X8534968Y-15139674D01*
X8534968Y-15139674D02*
X8544492Y-15158722D01*
X8544492Y-15158722D02*
X8544492Y-15177769D01*
X8544492Y-15177769D02*
X8449253Y-15196817D01*
X8620682Y-15253960D02*
X8639730Y-15263484D01*
X8639730Y-15263484D02*
X8677825Y-15263484D01*
X8677825Y-15263484D02*
X8696873Y-15253960D01*
X8696873Y-15253960D02*
X8706396Y-15234912D01*
X8706396Y-15234912D02*
X8706396Y-15225388D01*
X8706396Y-15225388D02*
X8696873Y-15206341D01*
X8696873Y-15206341D02*
X8677825Y-15196817D01*
X8677825Y-15196817D02*
X8649253Y-15196817D01*
X8649253Y-15196817D02*
X8630206Y-15187293D01*
X8630206Y-15187293D02*
X8620682Y-15168246D01*
X8620682Y-15168246D02*
X8620682Y-15158722D01*
X8620682Y-15158722D02*
X8630206Y-15139674D01*
X8630206Y-15139674D02*
X8649253Y-15130150D01*
X8649253Y-15130150D02*
X8677825Y-15130150D01*
X8677825Y-15130150D02*
X8696873Y-15139674D01*
X8773063Y-15339674D02*
X8782587Y-15330150D01*
X8782587Y-15330150D02*
X8801634Y-15301579D01*
X8801634Y-15301579D02*
X8811158Y-15282531D01*
X8811158Y-15282531D02*
X8820682Y-15253960D01*
X8820682Y-15253960D02*
X8830206Y-15206341D01*
X8830206Y-15206341D02*
X8830206Y-15168246D01*
X8830206Y-15168246D02*
X8820682Y-15120627D01*
X8820682Y-15120627D02*
X8811158Y-15092055D01*
X8811158Y-15092055D02*
X8801634Y-15073008D01*
X8801634Y-15073008D02*
X8782587Y-15044436D01*
X8782587Y-15044436D02*
X8773063Y-15034912D01*
D11*
X3962999Y-15471001D02*
X3998000Y-15436000D01*
X3962999Y-15400999D01*
X3927998Y-15436000D01*
X3962999Y-15471001D01*
D10*
X4296872Y-15327484D02*
X4315920Y-15327484D01*
X4315920Y-15327484D02*
X4334967Y-15337008D01*
X4334967Y-15337008D02*
X4344491Y-15346531D01*
X4344491Y-15346531D02*
X4354015Y-15365579D01*
X4354015Y-15365579D02*
X4363539Y-15403674D01*
X4363539Y-15403674D02*
X4363539Y-15451293D01*
X4363539Y-15451293D02*
X4354015Y-15489388D01*
X4354015Y-15489388D02*
X4344491Y-15508436D01*
X4344491Y-15508436D02*
X4334967Y-15517960D01*
X4334967Y-15517960D02*
X4315920Y-15527484D01*
X4315920Y-15527484D02*
X4296872Y-15527484D01*
X4296872Y-15527484D02*
X4277824Y-15517960D01*
X4277824Y-15517960D02*
X4268301Y-15508436D01*
X4268301Y-15508436D02*
X4258777Y-15489388D01*
X4258777Y-15489388D02*
X4249253Y-15451293D01*
X4249253Y-15451293D02*
X4249253Y-15403674D01*
X4249253Y-15403674D02*
X4258777Y-15365579D01*
X4258777Y-15365579D02*
X4268301Y-15346531D01*
X4268301Y-15346531D02*
X4277824Y-15337008D01*
X4277824Y-15337008D02*
X4296872Y-15327484D01*
X4449253Y-15508436D02*
X4458777Y-15517960D01*
X4458777Y-15517960D02*
X4449253Y-15527484D01*
X4449253Y-15527484D02*
X4439729Y-15517960D01*
X4439729Y-15517960D02*
X4449253Y-15508436D01*
X4449253Y-15508436D02*
X4449253Y-15527484D01*
X4525444Y-15327484D02*
X4658777Y-15327484D01*
X4658777Y-15327484D02*
X4573063Y-15527484D01*
X4773063Y-15327484D02*
X4792110Y-15327484D01*
X4792110Y-15327484D02*
X4811158Y-15337008D01*
X4811158Y-15337008D02*
X4820682Y-15346531D01*
X4820682Y-15346531D02*
X4830205Y-15365579D01*
X4830205Y-15365579D02*
X4839729Y-15403674D01*
X4839729Y-15403674D02*
X4839729Y-15451293D01*
X4839729Y-15451293D02*
X4830205Y-15489388D01*
X4830205Y-15489388D02*
X4820682Y-15508436D01*
X4820682Y-15508436D02*
X4811158Y-15517960D01*
X4811158Y-15517960D02*
X4792110Y-15527484D01*
X4792110Y-15527484D02*
X4773063Y-15527484D01*
X4773063Y-15527484D02*
X4754015Y-15517960D01*
X4754015Y-15517960D02*
X4744491Y-15508436D01*
X4744491Y-15508436D02*
X4734967Y-15489388D01*
X4734967Y-15489388D02*
X4725444Y-15451293D01*
X4725444Y-15451293D02*
X4725444Y-15403674D01*
X4725444Y-15403674D02*
X4734967Y-15365579D01*
X4734967Y-15365579D02*
X4744491Y-15346531D01*
X4744491Y-15346531D02*
X4754015Y-15337008D01*
X4754015Y-15337008D02*
X4773063Y-15327484D01*
X4963539Y-15327484D02*
X4982586Y-15327484D01*
X4982586Y-15327484D02*
X5001634Y-15337008D01*
X5001634Y-15337008D02*
X5011158Y-15346531D01*
X5011158Y-15346531D02*
X5020682Y-15365579D01*
X5020682Y-15365579D02*
X5030205Y-15403674D01*
X5030205Y-15403674D02*
X5030205Y-15451293D01*
X5030205Y-15451293D02*
X5020682Y-15489388D01*
X5020682Y-15489388D02*
X5011158Y-15508436D01*
X5011158Y-15508436D02*
X5001634Y-15517960D01*
X5001634Y-15517960D02*
X4982586Y-15527484D01*
X4982586Y-15527484D02*
X4963539Y-15527484D01*
X4963539Y-15527484D02*
X4944491Y-15517960D01*
X4944491Y-15517960D02*
X4934967Y-15508436D01*
X4934967Y-15508436D02*
X4925444Y-15489388D01*
X4925444Y-15489388D02*
X4915920Y-15451293D01*
X4915920Y-15451293D02*
X4915920Y-15403674D01*
X4915920Y-15403674D02*
X4925444Y-15365579D01*
X4925444Y-15365579D02*
X4934967Y-15346531D01*
X4934967Y-15346531D02*
X4944491Y-15337008D01*
X4944491Y-15337008D02*
X4963539Y-15327484D01*
X5115920Y-15527484D02*
X5115920Y-15394150D01*
X5115920Y-15413198D02*
X5125444Y-15403674D01*
X5125444Y-15403674D02*
X5144491Y-15394150D01*
X5144491Y-15394150D02*
X5173063Y-15394150D01*
X5173063Y-15394150D02*
X5192110Y-15403674D01*
X5192110Y-15403674D02*
X5201634Y-15422722D01*
X5201634Y-15422722D02*
X5201634Y-15527484D01*
X5201634Y-15422722D02*
X5211158Y-15403674D01*
X5211158Y-15403674D02*
X5230205Y-15394150D01*
X5230205Y-15394150D02*
X5258777Y-15394150D01*
X5258777Y-15394150D02*
X5277825Y-15403674D01*
X5277825Y-15403674D02*
X5287348Y-15422722D01*
X5287348Y-15422722D02*
X5287348Y-15527484D01*
X5382586Y-15527484D02*
X5382586Y-15394150D01*
X5382586Y-15413198D02*
X5392110Y-15403674D01*
X5392110Y-15403674D02*
X5411158Y-15394150D01*
X5411158Y-15394150D02*
X5439729Y-15394150D01*
X5439729Y-15394150D02*
X5458777Y-15403674D01*
X5458777Y-15403674D02*
X5468301Y-15422722D01*
X5468301Y-15422722D02*
X5468301Y-15527484D01*
X5468301Y-15422722D02*
X5477825Y-15403674D01*
X5477825Y-15403674D02*
X5496872Y-15394150D01*
X5496872Y-15394150D02*
X5525444Y-15394150D01*
X5525444Y-15394150D02*
X5544491Y-15403674D01*
X5544491Y-15403674D02*
X5554015Y-15422722D01*
X5554015Y-15422722D02*
X5554015Y-15527484D01*
X5944491Y-15317960D02*
X5773063Y-15575103D01*
X6201634Y-15327484D02*
X6220682Y-15327484D01*
X6220682Y-15327484D02*
X6239729Y-15337008D01*
X6239729Y-15337008D02*
X6249253Y-15346531D01*
X6249253Y-15346531D02*
X6258777Y-15365579D01*
X6258777Y-15365579D02*
X6268301Y-15403674D01*
X6268301Y-15403674D02*
X6268301Y-15451293D01*
X6268301Y-15451293D02*
X6258777Y-15489388D01*
X6258777Y-15489388D02*
X6249253Y-15508436D01*
X6249253Y-15508436D02*
X6239729Y-15517960D01*
X6239729Y-15517960D02*
X6220682Y-15527484D01*
X6220682Y-15527484D02*
X6201634Y-15527484D01*
X6201634Y-15527484D02*
X6182586Y-15517960D01*
X6182586Y-15517960D02*
X6173063Y-15508436D01*
X6173063Y-15508436D02*
X6163539Y-15489388D01*
X6163539Y-15489388D02*
X6154015Y-15451293D01*
X6154015Y-15451293D02*
X6154015Y-15403674D01*
X6154015Y-15403674D02*
X6163539Y-15365579D01*
X6163539Y-15365579D02*
X6173063Y-15346531D01*
X6173063Y-15346531D02*
X6182586Y-15337008D01*
X6182586Y-15337008D02*
X6201634Y-15327484D01*
X6354015Y-15508436D02*
X6363539Y-15517960D01*
X6363539Y-15517960D02*
X6354015Y-15527484D01*
X6354015Y-15527484D02*
X6344491Y-15517960D01*
X6344491Y-15517960D02*
X6354015Y-15508436D01*
X6354015Y-15508436D02*
X6354015Y-15527484D01*
X6487348Y-15327484D02*
X6506396Y-15327484D01*
X6506396Y-15327484D02*
X6525444Y-15337008D01*
X6525444Y-15337008D02*
X6534967Y-15346531D01*
X6534967Y-15346531D02*
X6544491Y-15365579D01*
X6544491Y-15365579D02*
X6554015Y-15403674D01*
X6554015Y-15403674D02*
X6554015Y-15451293D01*
X6554015Y-15451293D02*
X6544491Y-15489388D01*
X6544491Y-15489388D02*
X6534967Y-15508436D01*
X6534967Y-15508436D02*
X6525444Y-15517960D01*
X6525444Y-15517960D02*
X6506396Y-15527484D01*
X6506396Y-15527484D02*
X6487348Y-15527484D01*
X6487348Y-15527484D02*
X6468301Y-15517960D01*
X6468301Y-15517960D02*
X6458777Y-15508436D01*
X6458777Y-15508436D02*
X6449253Y-15489388D01*
X6449253Y-15489388D02*
X6439729Y-15451293D01*
X6439729Y-15451293D02*
X6439729Y-15403674D01*
X6439729Y-15403674D02*
X6449253Y-15365579D01*
X6449253Y-15365579D02*
X6458777Y-15346531D01*
X6458777Y-15346531D02*
X6468301Y-15337008D01*
X6468301Y-15337008D02*
X6487348Y-15327484D01*
X6630206Y-15346531D02*
X6639729Y-15337008D01*
X6639729Y-15337008D02*
X6658777Y-15327484D01*
X6658777Y-15327484D02*
X6706396Y-15327484D01*
X6706396Y-15327484D02*
X6725444Y-15337008D01*
X6725444Y-15337008D02*
X6734967Y-15346531D01*
X6734967Y-15346531D02*
X6744491Y-15365579D01*
X6744491Y-15365579D02*
X6744491Y-15384627D01*
X6744491Y-15384627D02*
X6734967Y-15413198D01*
X6734967Y-15413198D02*
X6620682Y-15527484D01*
X6620682Y-15527484D02*
X6744491Y-15527484D01*
X6811158Y-15327484D02*
X6944491Y-15327484D01*
X6944491Y-15327484D02*
X6858777Y-15527484D01*
X7106396Y-15327484D02*
X7068301Y-15327484D01*
X7068301Y-15327484D02*
X7049253Y-15337008D01*
X7049253Y-15337008D02*
X7039729Y-15346531D01*
X7039729Y-15346531D02*
X7020682Y-15375103D01*
X7020682Y-15375103D02*
X7011158Y-15413198D01*
X7011158Y-15413198D02*
X7011158Y-15489388D01*
X7011158Y-15489388D02*
X7020682Y-15508436D01*
X7020682Y-15508436D02*
X7030206Y-15517960D01*
X7030206Y-15517960D02*
X7049253Y-15527484D01*
X7049253Y-15527484D02*
X7087348Y-15527484D01*
X7087348Y-15527484D02*
X7106396Y-15517960D01*
X7106396Y-15517960D02*
X7115920Y-15508436D01*
X7115920Y-15508436D02*
X7125444Y-15489388D01*
X7125444Y-15489388D02*
X7125444Y-15441769D01*
X7125444Y-15441769D02*
X7115920Y-15422722D01*
X7115920Y-15422722D02*
X7106396Y-15413198D01*
X7106396Y-15413198D02*
X7087348Y-15403674D01*
X7087348Y-15403674D02*
X7049253Y-15403674D01*
X7049253Y-15403674D02*
X7030206Y-15413198D01*
X7030206Y-15413198D02*
X7020682Y-15422722D01*
X7020682Y-15422722D02*
X7011158Y-15441769D01*
X7201634Y-15327484D02*
X7201634Y-15365579D01*
X7277825Y-15327484D02*
X7277825Y-15365579D01*
X7573063Y-15603674D02*
X7563539Y-15594150D01*
X7563539Y-15594150D02*
X7544491Y-15565579D01*
X7544491Y-15565579D02*
X7534968Y-15546531D01*
X7534968Y-15546531D02*
X7525444Y-15517960D01*
X7525444Y-15517960D02*
X7515920Y-15470341D01*
X7515920Y-15470341D02*
X7515920Y-15432246D01*
X7515920Y-15432246D02*
X7525444Y-15384627D01*
X7525444Y-15384627D02*
X7534968Y-15356055D01*
X7534968Y-15356055D02*
X7544491Y-15337008D01*
X7544491Y-15337008D02*
X7563539Y-15308436D01*
X7563539Y-15308436D02*
X7573063Y-15298912D01*
X7687348Y-15327484D02*
X7706396Y-15327484D01*
X7706396Y-15327484D02*
X7725444Y-15337008D01*
X7725444Y-15337008D02*
X7734968Y-15346531D01*
X7734968Y-15346531D02*
X7744491Y-15365579D01*
X7744491Y-15365579D02*
X7754015Y-15403674D01*
X7754015Y-15403674D02*
X7754015Y-15451293D01*
X7754015Y-15451293D02*
X7744491Y-15489388D01*
X7744491Y-15489388D02*
X7734968Y-15508436D01*
X7734968Y-15508436D02*
X7725444Y-15517960D01*
X7725444Y-15517960D02*
X7706396Y-15527484D01*
X7706396Y-15527484D02*
X7687348Y-15527484D01*
X7687348Y-15527484D02*
X7668301Y-15517960D01*
X7668301Y-15517960D02*
X7658777Y-15508436D01*
X7658777Y-15508436D02*
X7649253Y-15489388D01*
X7649253Y-15489388D02*
X7639729Y-15451293D01*
X7639729Y-15451293D02*
X7639729Y-15403674D01*
X7639729Y-15403674D02*
X7649253Y-15365579D01*
X7649253Y-15365579D02*
X7658777Y-15346531D01*
X7658777Y-15346531D02*
X7668301Y-15337008D01*
X7668301Y-15337008D02*
X7687348Y-15327484D01*
X7992110Y-15527484D02*
X7992110Y-15327484D01*
X8077825Y-15527484D02*
X8077825Y-15422722D01*
X8077825Y-15422722D02*
X8068301Y-15403674D01*
X8068301Y-15403674D02*
X8049253Y-15394150D01*
X8049253Y-15394150D02*
X8020682Y-15394150D01*
X8020682Y-15394150D02*
X8001634Y-15403674D01*
X8001634Y-15403674D02*
X7992110Y-15413198D01*
X8201634Y-15527484D02*
X8182587Y-15517960D01*
X8182587Y-15517960D02*
X8173063Y-15508436D01*
X8173063Y-15508436D02*
X8163539Y-15489388D01*
X8163539Y-15489388D02*
X8163539Y-15432246D01*
X8163539Y-15432246D02*
X8173063Y-15413198D01*
X8173063Y-15413198D02*
X8182587Y-15403674D01*
X8182587Y-15403674D02*
X8201634Y-15394150D01*
X8201634Y-15394150D02*
X8230206Y-15394150D01*
X8230206Y-15394150D02*
X8249253Y-15403674D01*
X8249253Y-15403674D02*
X8258777Y-15413198D01*
X8258777Y-15413198D02*
X8268301Y-15432246D01*
X8268301Y-15432246D02*
X8268301Y-15489388D01*
X8268301Y-15489388D02*
X8258777Y-15508436D01*
X8258777Y-15508436D02*
X8249253Y-15517960D01*
X8249253Y-15517960D02*
X8230206Y-15527484D01*
X8230206Y-15527484D02*
X8201634Y-15527484D01*
X8382587Y-15527484D02*
X8363539Y-15517960D01*
X8363539Y-15517960D02*
X8354015Y-15498912D01*
X8354015Y-15498912D02*
X8354015Y-15327484D01*
X8534968Y-15517960D02*
X8515920Y-15527484D01*
X8515920Y-15527484D02*
X8477825Y-15527484D01*
X8477825Y-15527484D02*
X8458777Y-15517960D01*
X8458777Y-15517960D02*
X8449253Y-15498912D01*
X8449253Y-15498912D02*
X8449253Y-15422722D01*
X8449253Y-15422722D02*
X8458777Y-15403674D01*
X8458777Y-15403674D02*
X8477825Y-15394150D01*
X8477825Y-15394150D02*
X8515920Y-15394150D01*
X8515920Y-15394150D02*
X8534968Y-15403674D01*
X8534968Y-15403674D02*
X8544492Y-15422722D01*
X8544492Y-15422722D02*
X8544492Y-15441769D01*
X8544492Y-15441769D02*
X8449253Y-15460817D01*
X8620682Y-15517960D02*
X8639730Y-15527484D01*
X8639730Y-15527484D02*
X8677825Y-15527484D01*
X8677825Y-15527484D02*
X8696873Y-15517960D01*
X8696873Y-15517960D02*
X8706396Y-15498912D01*
X8706396Y-15498912D02*
X8706396Y-15489388D01*
X8706396Y-15489388D02*
X8696873Y-15470341D01*
X8696873Y-15470341D02*
X8677825Y-15460817D01*
X8677825Y-15460817D02*
X8649253Y-15460817D01*
X8649253Y-15460817D02*
X8630206Y-15451293D01*
X8630206Y-15451293D02*
X8620682Y-15432246D01*
X8620682Y-15432246D02*
X8620682Y-15422722D01*
X8620682Y-15422722D02*
X8630206Y-15403674D01*
X8630206Y-15403674D02*
X8649253Y-15394150D01*
X8649253Y-15394150D02*
X8677825Y-15394150D01*
X8677825Y-15394150D02*
X8696873Y-15403674D01*
X8944492Y-15451293D02*
X9096873Y-15451293D01*
X9020682Y-15527484D02*
X9020682Y-15375103D01*
X9430206Y-15394150D02*
X9430206Y-15527484D01*
X9382587Y-15317960D02*
X9334968Y-15460817D01*
X9334968Y-15460817D02*
X9458777Y-15460817D01*
X9677825Y-15517960D02*
X9696873Y-15527484D01*
X9696873Y-15527484D02*
X9734968Y-15527484D01*
X9734968Y-15527484D02*
X9754016Y-15517960D01*
X9754016Y-15517960D02*
X9763539Y-15498912D01*
X9763539Y-15498912D02*
X9763539Y-15489388D01*
X9763539Y-15489388D02*
X9754016Y-15470341D01*
X9754016Y-15470341D02*
X9734968Y-15460817D01*
X9734968Y-15460817D02*
X9706396Y-15460817D01*
X9706396Y-15460817D02*
X9687349Y-15451293D01*
X9687349Y-15451293D02*
X9677825Y-15432246D01*
X9677825Y-15432246D02*
X9677825Y-15422722D01*
X9677825Y-15422722D02*
X9687349Y-15403674D01*
X9687349Y-15403674D02*
X9706396Y-15394150D01*
X9706396Y-15394150D02*
X9734968Y-15394150D01*
X9734968Y-15394150D02*
X9754016Y-15403674D01*
X9877825Y-15527484D02*
X9858777Y-15517960D01*
X9858777Y-15517960D02*
X9849254Y-15498912D01*
X9849254Y-15498912D02*
X9849254Y-15327484D01*
X9982587Y-15527484D02*
X9963539Y-15517960D01*
X9963539Y-15517960D02*
X9954016Y-15508436D01*
X9954016Y-15508436D02*
X9944492Y-15489388D01*
X9944492Y-15489388D02*
X9944492Y-15432246D01*
X9944492Y-15432246D02*
X9954016Y-15413198D01*
X9954016Y-15413198D02*
X9963539Y-15403674D01*
X9963539Y-15403674D02*
X9982587Y-15394150D01*
X9982587Y-15394150D02*
X10011158Y-15394150D01*
X10011158Y-15394150D02*
X10030206Y-15403674D01*
X10030206Y-15403674D02*
X10039730Y-15413198D01*
X10039730Y-15413198D02*
X10049254Y-15432246D01*
X10049254Y-15432246D02*
X10049254Y-15489388D01*
X10049254Y-15489388D02*
X10039730Y-15508436D01*
X10039730Y-15508436D02*
X10030206Y-15517960D01*
X10030206Y-15517960D02*
X10011158Y-15527484D01*
X10011158Y-15527484D02*
X9982587Y-15527484D01*
X10106397Y-15394150D02*
X10182587Y-15394150D01*
X10134968Y-15327484D02*
X10134968Y-15498912D01*
X10134968Y-15498912D02*
X10144492Y-15517960D01*
X10144492Y-15517960D02*
X10163539Y-15527484D01*
X10163539Y-15527484D02*
X10182587Y-15527484D01*
X10239730Y-15517960D02*
X10258777Y-15527484D01*
X10258777Y-15527484D02*
X10296873Y-15527484D01*
X10296873Y-15527484D02*
X10315920Y-15517960D01*
X10315920Y-15517960D02*
X10325444Y-15498912D01*
X10325444Y-15498912D02*
X10325444Y-15489388D01*
X10325444Y-15489388D02*
X10315920Y-15470341D01*
X10315920Y-15470341D02*
X10296873Y-15460817D01*
X10296873Y-15460817D02*
X10268301Y-15460817D01*
X10268301Y-15460817D02*
X10249254Y-15451293D01*
X10249254Y-15451293D02*
X10239730Y-15432246D01*
X10239730Y-15432246D02*
X10239730Y-15422722D01*
X10239730Y-15422722D02*
X10249254Y-15403674D01*
X10249254Y-15403674D02*
X10268301Y-15394150D01*
X10268301Y-15394150D02*
X10296873Y-15394150D01*
X10296873Y-15394150D02*
X10315920Y-15403674D01*
X10392111Y-15603674D02*
X10401635Y-15594150D01*
X10401635Y-15594150D02*
X10420682Y-15565579D01*
X10420682Y-15565579D02*
X10430206Y-15546531D01*
X10430206Y-15546531D02*
X10439730Y-15517960D01*
X10439730Y-15517960D02*
X10449254Y-15470341D01*
X10449254Y-15470341D02*
X10449254Y-15432246D01*
X10449254Y-15432246D02*
X10439730Y-15384627D01*
X10439730Y-15384627D02*
X10430206Y-15356055D01*
X10430206Y-15356055D02*
X10420682Y-15337008D01*
X10420682Y-15337008D02*
X10401635Y-15308436D01*
X10401635Y-15308436D02*
X10392111Y-15298912D01*
D11*
X3898000Y-15650000D02*
X3998000Y-15750000D01*
X3998000Y-15650000D02*
X3898000Y-15750000D01*
X3998000Y-15700000D02*
G75*
G02*
X3898000Y-15700000I-50000J0D01*
G01*
X3898000Y-15700000D02*
G75*
G02*
X3998000Y-15700000I50000J0D01*
G01*
D10*
X4363539Y-15791484D02*
X4249253Y-15791484D01*
X4306396Y-15791484D02*
X4306396Y-15591484D01*
X4306396Y-15591484D02*
X4287348Y-15620055D01*
X4287348Y-15620055D02*
X4268301Y-15639103D01*
X4268301Y-15639103D02*
X4249253Y-15648627D01*
X4449253Y-15772436D02*
X4458777Y-15781960D01*
X4458777Y-15781960D02*
X4449253Y-15791484D01*
X4449253Y-15791484D02*
X4439729Y-15781960D01*
X4439729Y-15781960D02*
X4449253Y-15772436D01*
X4449253Y-15772436D02*
X4449253Y-15791484D01*
X4582586Y-15591484D02*
X4601634Y-15591484D01*
X4601634Y-15591484D02*
X4620682Y-15601008D01*
X4620682Y-15601008D02*
X4630205Y-15610531D01*
X4630205Y-15610531D02*
X4639729Y-15629579D01*
X4639729Y-15629579D02*
X4649253Y-15667674D01*
X4649253Y-15667674D02*
X4649253Y-15715293D01*
X4649253Y-15715293D02*
X4639729Y-15753388D01*
X4639729Y-15753388D02*
X4630205Y-15772436D01*
X4630205Y-15772436D02*
X4620682Y-15781960D01*
X4620682Y-15781960D02*
X4601634Y-15791484D01*
X4601634Y-15791484D02*
X4582586Y-15791484D01*
X4582586Y-15791484D02*
X4563539Y-15781960D01*
X4563539Y-15781960D02*
X4554015Y-15772436D01*
X4554015Y-15772436D02*
X4544491Y-15753388D01*
X4544491Y-15753388D02*
X4534967Y-15715293D01*
X4534967Y-15715293D02*
X4534967Y-15667674D01*
X4534967Y-15667674D02*
X4544491Y-15629579D01*
X4544491Y-15629579D02*
X4554015Y-15610531D01*
X4554015Y-15610531D02*
X4563539Y-15601008D01*
X4563539Y-15601008D02*
X4582586Y-15591484D01*
X4773063Y-15591484D02*
X4792110Y-15591484D01*
X4792110Y-15591484D02*
X4811158Y-15601008D01*
X4811158Y-15601008D02*
X4820682Y-15610531D01*
X4820682Y-15610531D02*
X4830205Y-15629579D01*
X4830205Y-15629579D02*
X4839729Y-15667674D01*
X4839729Y-15667674D02*
X4839729Y-15715293D01*
X4839729Y-15715293D02*
X4830205Y-15753388D01*
X4830205Y-15753388D02*
X4820682Y-15772436D01*
X4820682Y-15772436D02*
X4811158Y-15781960D01*
X4811158Y-15781960D02*
X4792110Y-15791484D01*
X4792110Y-15791484D02*
X4773063Y-15791484D01*
X4773063Y-15791484D02*
X4754015Y-15781960D01*
X4754015Y-15781960D02*
X4744491Y-15772436D01*
X4744491Y-15772436D02*
X4734967Y-15753388D01*
X4734967Y-15753388D02*
X4725444Y-15715293D01*
X4725444Y-15715293D02*
X4725444Y-15667674D01*
X4725444Y-15667674D02*
X4734967Y-15629579D01*
X4734967Y-15629579D02*
X4744491Y-15610531D01*
X4744491Y-15610531D02*
X4754015Y-15601008D01*
X4754015Y-15601008D02*
X4773063Y-15591484D01*
X4963539Y-15591484D02*
X4982586Y-15591484D01*
X4982586Y-15591484D02*
X5001634Y-15601008D01*
X5001634Y-15601008D02*
X5011158Y-15610531D01*
X5011158Y-15610531D02*
X5020682Y-15629579D01*
X5020682Y-15629579D02*
X5030205Y-15667674D01*
X5030205Y-15667674D02*
X5030205Y-15715293D01*
X5030205Y-15715293D02*
X5020682Y-15753388D01*
X5020682Y-15753388D02*
X5011158Y-15772436D01*
X5011158Y-15772436D02*
X5001634Y-15781960D01*
X5001634Y-15781960D02*
X4982586Y-15791484D01*
X4982586Y-15791484D02*
X4963539Y-15791484D01*
X4963539Y-15791484D02*
X4944491Y-15781960D01*
X4944491Y-15781960D02*
X4934967Y-15772436D01*
X4934967Y-15772436D02*
X4925444Y-15753388D01*
X4925444Y-15753388D02*
X4915920Y-15715293D01*
X4915920Y-15715293D02*
X4915920Y-15667674D01*
X4915920Y-15667674D02*
X4925444Y-15629579D01*
X4925444Y-15629579D02*
X4934967Y-15610531D01*
X4934967Y-15610531D02*
X4944491Y-15601008D01*
X4944491Y-15601008D02*
X4963539Y-15591484D01*
X5115920Y-15791484D02*
X5115920Y-15658150D01*
X5115920Y-15677198D02*
X5125444Y-15667674D01*
X5125444Y-15667674D02*
X5144491Y-15658150D01*
X5144491Y-15658150D02*
X5173063Y-15658150D01*
X5173063Y-15658150D02*
X5192110Y-15667674D01*
X5192110Y-15667674D02*
X5201634Y-15686722D01*
X5201634Y-15686722D02*
X5201634Y-15791484D01*
X5201634Y-15686722D02*
X5211158Y-15667674D01*
X5211158Y-15667674D02*
X5230205Y-15658150D01*
X5230205Y-15658150D02*
X5258777Y-15658150D01*
X5258777Y-15658150D02*
X5277825Y-15667674D01*
X5277825Y-15667674D02*
X5287348Y-15686722D01*
X5287348Y-15686722D02*
X5287348Y-15791484D01*
X5382586Y-15791484D02*
X5382586Y-15658150D01*
X5382586Y-15677198D02*
X5392110Y-15667674D01*
X5392110Y-15667674D02*
X5411158Y-15658150D01*
X5411158Y-15658150D02*
X5439729Y-15658150D01*
X5439729Y-15658150D02*
X5458777Y-15667674D01*
X5458777Y-15667674D02*
X5468301Y-15686722D01*
X5468301Y-15686722D02*
X5468301Y-15791484D01*
X5468301Y-15686722D02*
X5477825Y-15667674D01*
X5477825Y-15667674D02*
X5496872Y-15658150D01*
X5496872Y-15658150D02*
X5525444Y-15658150D01*
X5525444Y-15658150D02*
X5544491Y-15667674D01*
X5544491Y-15667674D02*
X5554015Y-15686722D01*
X5554015Y-15686722D02*
X5554015Y-15791484D01*
X5944491Y-15581960D02*
X5773063Y-15839103D01*
X6201634Y-15591484D02*
X6220682Y-15591484D01*
X6220682Y-15591484D02*
X6239729Y-15601008D01*
X6239729Y-15601008D02*
X6249253Y-15610531D01*
X6249253Y-15610531D02*
X6258777Y-15629579D01*
X6258777Y-15629579D02*
X6268301Y-15667674D01*
X6268301Y-15667674D02*
X6268301Y-15715293D01*
X6268301Y-15715293D02*
X6258777Y-15753388D01*
X6258777Y-15753388D02*
X6249253Y-15772436D01*
X6249253Y-15772436D02*
X6239729Y-15781960D01*
X6239729Y-15781960D02*
X6220682Y-15791484D01*
X6220682Y-15791484D02*
X6201634Y-15791484D01*
X6201634Y-15791484D02*
X6182586Y-15781960D01*
X6182586Y-15781960D02*
X6173063Y-15772436D01*
X6173063Y-15772436D02*
X6163539Y-15753388D01*
X6163539Y-15753388D02*
X6154015Y-15715293D01*
X6154015Y-15715293D02*
X6154015Y-15667674D01*
X6154015Y-15667674D02*
X6163539Y-15629579D01*
X6163539Y-15629579D02*
X6173063Y-15610531D01*
X6173063Y-15610531D02*
X6182586Y-15601008D01*
X6182586Y-15601008D02*
X6201634Y-15591484D01*
X6354015Y-15772436D02*
X6363539Y-15781960D01*
X6363539Y-15781960D02*
X6354015Y-15791484D01*
X6354015Y-15791484D02*
X6344491Y-15781960D01*
X6344491Y-15781960D02*
X6354015Y-15772436D01*
X6354015Y-15772436D02*
X6354015Y-15791484D01*
X6487348Y-15591484D02*
X6506396Y-15591484D01*
X6506396Y-15591484D02*
X6525444Y-15601008D01*
X6525444Y-15601008D02*
X6534967Y-15610531D01*
X6534967Y-15610531D02*
X6544491Y-15629579D01*
X6544491Y-15629579D02*
X6554015Y-15667674D01*
X6554015Y-15667674D02*
X6554015Y-15715293D01*
X6554015Y-15715293D02*
X6544491Y-15753388D01*
X6544491Y-15753388D02*
X6534967Y-15772436D01*
X6534967Y-15772436D02*
X6525444Y-15781960D01*
X6525444Y-15781960D02*
X6506396Y-15791484D01*
X6506396Y-15791484D02*
X6487348Y-15791484D01*
X6487348Y-15791484D02*
X6468301Y-15781960D01*
X6468301Y-15781960D02*
X6458777Y-15772436D01*
X6458777Y-15772436D02*
X6449253Y-15753388D01*
X6449253Y-15753388D02*
X6439729Y-15715293D01*
X6439729Y-15715293D02*
X6439729Y-15667674D01*
X6439729Y-15667674D02*
X6449253Y-15629579D01*
X6449253Y-15629579D02*
X6458777Y-15610531D01*
X6458777Y-15610531D02*
X6468301Y-15601008D01*
X6468301Y-15601008D02*
X6487348Y-15591484D01*
X6620682Y-15591484D02*
X6744491Y-15591484D01*
X6744491Y-15591484D02*
X6677825Y-15667674D01*
X6677825Y-15667674D02*
X6706396Y-15667674D01*
X6706396Y-15667674D02*
X6725444Y-15677198D01*
X6725444Y-15677198D02*
X6734967Y-15686722D01*
X6734967Y-15686722D02*
X6744491Y-15705769D01*
X6744491Y-15705769D02*
X6744491Y-15753388D01*
X6744491Y-15753388D02*
X6734967Y-15772436D01*
X6734967Y-15772436D02*
X6725444Y-15781960D01*
X6725444Y-15781960D02*
X6706396Y-15791484D01*
X6706396Y-15791484D02*
X6649253Y-15791484D01*
X6649253Y-15791484D02*
X6630206Y-15781960D01*
X6630206Y-15781960D02*
X6620682Y-15772436D01*
X6839729Y-15791484D02*
X6877825Y-15791484D01*
X6877825Y-15791484D02*
X6896872Y-15781960D01*
X6896872Y-15781960D02*
X6906396Y-15772436D01*
X6906396Y-15772436D02*
X6925444Y-15743865D01*
X6925444Y-15743865D02*
X6934967Y-15705769D01*
X6934967Y-15705769D02*
X6934967Y-15629579D01*
X6934967Y-15629579D02*
X6925444Y-15610531D01*
X6925444Y-15610531D02*
X6915920Y-15601008D01*
X6915920Y-15601008D02*
X6896872Y-15591484D01*
X6896872Y-15591484D02*
X6858777Y-15591484D01*
X6858777Y-15591484D02*
X6839729Y-15601008D01*
X6839729Y-15601008D02*
X6830206Y-15610531D01*
X6830206Y-15610531D02*
X6820682Y-15629579D01*
X6820682Y-15629579D02*
X6820682Y-15677198D01*
X6820682Y-15677198D02*
X6830206Y-15696246D01*
X6830206Y-15696246D02*
X6839729Y-15705769D01*
X6839729Y-15705769D02*
X6858777Y-15715293D01*
X6858777Y-15715293D02*
X6896872Y-15715293D01*
X6896872Y-15715293D02*
X6915920Y-15705769D01*
X6915920Y-15705769D02*
X6925444Y-15696246D01*
X6925444Y-15696246D02*
X6934967Y-15677198D01*
X7106396Y-15658150D02*
X7106396Y-15791484D01*
X7058777Y-15581960D02*
X7011158Y-15724817D01*
X7011158Y-15724817D02*
X7134967Y-15724817D01*
X7201634Y-15591484D02*
X7201634Y-15629579D01*
X7277825Y-15591484D02*
X7277825Y-15629579D01*
X7573063Y-15867674D02*
X7563539Y-15858150D01*
X7563539Y-15858150D02*
X7544491Y-15829579D01*
X7544491Y-15829579D02*
X7534968Y-15810531D01*
X7534968Y-15810531D02*
X7525444Y-15781960D01*
X7525444Y-15781960D02*
X7515920Y-15734341D01*
X7515920Y-15734341D02*
X7515920Y-15696246D01*
X7515920Y-15696246D02*
X7525444Y-15648627D01*
X7525444Y-15648627D02*
X7534968Y-15620055D01*
X7534968Y-15620055D02*
X7544491Y-15601008D01*
X7544491Y-15601008D02*
X7563539Y-15572436D01*
X7563539Y-15572436D02*
X7573063Y-15562912D01*
X7744491Y-15591484D02*
X7649253Y-15591484D01*
X7649253Y-15591484D02*
X7639729Y-15686722D01*
X7639729Y-15686722D02*
X7649253Y-15677198D01*
X7649253Y-15677198D02*
X7668301Y-15667674D01*
X7668301Y-15667674D02*
X7715920Y-15667674D01*
X7715920Y-15667674D02*
X7734968Y-15677198D01*
X7734968Y-15677198D02*
X7744491Y-15686722D01*
X7744491Y-15686722D02*
X7754015Y-15705769D01*
X7754015Y-15705769D02*
X7754015Y-15753388D01*
X7754015Y-15753388D02*
X7744491Y-15772436D01*
X7744491Y-15772436D02*
X7734968Y-15781960D01*
X7734968Y-15781960D02*
X7715920Y-15791484D01*
X7715920Y-15791484D02*
X7668301Y-15791484D01*
X7668301Y-15791484D02*
X7649253Y-15781960D01*
X7649253Y-15781960D02*
X7639729Y-15772436D01*
X7992110Y-15791484D02*
X7992110Y-15591484D01*
X8077825Y-15791484D02*
X8077825Y-15686722D01*
X8077825Y-15686722D02*
X8068301Y-15667674D01*
X8068301Y-15667674D02*
X8049253Y-15658150D01*
X8049253Y-15658150D02*
X8020682Y-15658150D01*
X8020682Y-15658150D02*
X8001634Y-15667674D01*
X8001634Y-15667674D02*
X7992110Y-15677198D01*
X8201634Y-15791484D02*
X8182587Y-15781960D01*
X8182587Y-15781960D02*
X8173063Y-15772436D01*
X8173063Y-15772436D02*
X8163539Y-15753388D01*
X8163539Y-15753388D02*
X8163539Y-15696246D01*
X8163539Y-15696246D02*
X8173063Y-15677198D01*
X8173063Y-15677198D02*
X8182587Y-15667674D01*
X8182587Y-15667674D02*
X8201634Y-15658150D01*
X8201634Y-15658150D02*
X8230206Y-15658150D01*
X8230206Y-15658150D02*
X8249253Y-15667674D01*
X8249253Y-15667674D02*
X8258777Y-15677198D01*
X8258777Y-15677198D02*
X8268301Y-15696246D01*
X8268301Y-15696246D02*
X8268301Y-15753388D01*
X8268301Y-15753388D02*
X8258777Y-15772436D01*
X8258777Y-15772436D02*
X8249253Y-15781960D01*
X8249253Y-15781960D02*
X8230206Y-15791484D01*
X8230206Y-15791484D02*
X8201634Y-15791484D01*
X8382587Y-15791484D02*
X8363539Y-15781960D01*
X8363539Y-15781960D02*
X8354015Y-15762912D01*
X8354015Y-15762912D02*
X8354015Y-15591484D01*
X8534968Y-15781960D02*
X8515920Y-15791484D01*
X8515920Y-15791484D02*
X8477825Y-15791484D01*
X8477825Y-15791484D02*
X8458777Y-15781960D01*
X8458777Y-15781960D02*
X8449253Y-15762912D01*
X8449253Y-15762912D02*
X8449253Y-15686722D01*
X8449253Y-15686722D02*
X8458777Y-15667674D01*
X8458777Y-15667674D02*
X8477825Y-15658150D01*
X8477825Y-15658150D02*
X8515920Y-15658150D01*
X8515920Y-15658150D02*
X8534968Y-15667674D01*
X8534968Y-15667674D02*
X8544492Y-15686722D01*
X8544492Y-15686722D02*
X8544492Y-15705769D01*
X8544492Y-15705769D02*
X8449253Y-15724817D01*
X8620682Y-15781960D02*
X8639730Y-15791484D01*
X8639730Y-15791484D02*
X8677825Y-15791484D01*
X8677825Y-15791484D02*
X8696873Y-15781960D01*
X8696873Y-15781960D02*
X8706396Y-15762912D01*
X8706396Y-15762912D02*
X8706396Y-15753388D01*
X8706396Y-15753388D02*
X8696873Y-15734341D01*
X8696873Y-15734341D02*
X8677825Y-15724817D01*
X8677825Y-15724817D02*
X8649253Y-15724817D01*
X8649253Y-15724817D02*
X8630206Y-15715293D01*
X8630206Y-15715293D02*
X8620682Y-15696246D01*
X8620682Y-15696246D02*
X8620682Y-15686722D01*
X8620682Y-15686722D02*
X8630206Y-15667674D01*
X8630206Y-15667674D02*
X8649253Y-15658150D01*
X8649253Y-15658150D02*
X8677825Y-15658150D01*
X8677825Y-15658150D02*
X8696873Y-15667674D01*
X8773063Y-15867674D02*
X8782587Y-15858150D01*
X8782587Y-15858150D02*
X8801634Y-15829579D01*
X8801634Y-15829579D02*
X8811158Y-15810531D01*
X8811158Y-15810531D02*
X8820682Y-15781960D01*
X8820682Y-15781960D02*
X8830206Y-15734341D01*
X8830206Y-15734341D02*
X8830206Y-15696246D01*
X8830206Y-15696246D02*
X8820682Y-15648627D01*
X8820682Y-15648627D02*
X8811158Y-15620055D01*
X8811158Y-15620055D02*
X8801634Y-15601008D01*
X8801634Y-15601008D02*
X8782587Y-15572436D01*
X8782587Y-15572436D02*
X8773063Y-15562912D01*
D12*
X3887998Y-15908999D02*
X3998000Y-16019001D01*
X3998000Y-15908999D02*
X3887998Y-16019001D01*
X3942999Y-15908999D02*
X3942999Y-16019001D01*
X3887998Y-15964000D02*
X3998000Y-15964000D01*
D10*
X4363539Y-16055484D02*
X4249253Y-16055484D01*
X4306396Y-16055484D02*
X4306396Y-15855484D01*
X4306396Y-15855484D02*
X4287348Y-15884055D01*
X4287348Y-15884055D02*
X4268301Y-15903103D01*
X4268301Y-15903103D02*
X4249253Y-15912627D01*
X4449253Y-16036436D02*
X4458777Y-16045960D01*
X4458777Y-16045960D02*
X4449253Y-16055484D01*
X4449253Y-16055484D02*
X4439729Y-16045960D01*
X4439729Y-16045960D02*
X4449253Y-16036436D01*
X4449253Y-16036436D02*
X4449253Y-16055484D01*
X4649253Y-16055484D02*
X4534967Y-16055484D01*
X4592110Y-16055484D02*
X4592110Y-15855484D01*
X4592110Y-15855484D02*
X4573063Y-15884055D01*
X4573063Y-15884055D02*
X4554015Y-15903103D01*
X4554015Y-15903103D02*
X4534967Y-15912627D01*
X4773063Y-15855484D02*
X4792110Y-15855484D01*
X4792110Y-15855484D02*
X4811158Y-15865008D01*
X4811158Y-15865008D02*
X4820682Y-15874531D01*
X4820682Y-15874531D02*
X4830205Y-15893579D01*
X4830205Y-15893579D02*
X4839729Y-15931674D01*
X4839729Y-15931674D02*
X4839729Y-15979293D01*
X4839729Y-15979293D02*
X4830205Y-16017388D01*
X4830205Y-16017388D02*
X4820682Y-16036436D01*
X4820682Y-16036436D02*
X4811158Y-16045960D01*
X4811158Y-16045960D02*
X4792110Y-16055484D01*
X4792110Y-16055484D02*
X4773063Y-16055484D01*
X4773063Y-16055484D02*
X4754015Y-16045960D01*
X4754015Y-16045960D02*
X4744491Y-16036436D01*
X4744491Y-16036436D02*
X4734967Y-16017388D01*
X4734967Y-16017388D02*
X4725444Y-15979293D01*
X4725444Y-15979293D02*
X4725444Y-15931674D01*
X4725444Y-15931674D02*
X4734967Y-15893579D01*
X4734967Y-15893579D02*
X4744491Y-15874531D01*
X4744491Y-15874531D02*
X4754015Y-15865008D01*
X4754015Y-15865008D02*
X4773063Y-15855484D01*
X4963539Y-15855484D02*
X4982586Y-15855484D01*
X4982586Y-15855484D02*
X5001634Y-15865008D01*
X5001634Y-15865008D02*
X5011158Y-15874531D01*
X5011158Y-15874531D02*
X5020682Y-15893579D01*
X5020682Y-15893579D02*
X5030205Y-15931674D01*
X5030205Y-15931674D02*
X5030205Y-15979293D01*
X5030205Y-15979293D02*
X5020682Y-16017388D01*
X5020682Y-16017388D02*
X5011158Y-16036436D01*
X5011158Y-16036436D02*
X5001634Y-16045960D01*
X5001634Y-16045960D02*
X4982586Y-16055484D01*
X4982586Y-16055484D02*
X4963539Y-16055484D01*
X4963539Y-16055484D02*
X4944491Y-16045960D01*
X4944491Y-16045960D02*
X4934967Y-16036436D01*
X4934967Y-16036436D02*
X4925444Y-16017388D01*
X4925444Y-16017388D02*
X4915920Y-15979293D01*
X4915920Y-15979293D02*
X4915920Y-15931674D01*
X4915920Y-15931674D02*
X4925444Y-15893579D01*
X4925444Y-15893579D02*
X4934967Y-15874531D01*
X4934967Y-15874531D02*
X4944491Y-15865008D01*
X4944491Y-15865008D02*
X4963539Y-15855484D01*
X5115920Y-16055484D02*
X5115920Y-15922150D01*
X5115920Y-15941198D02*
X5125444Y-15931674D01*
X5125444Y-15931674D02*
X5144491Y-15922150D01*
X5144491Y-15922150D02*
X5173063Y-15922150D01*
X5173063Y-15922150D02*
X5192110Y-15931674D01*
X5192110Y-15931674D02*
X5201634Y-15950722D01*
X5201634Y-15950722D02*
X5201634Y-16055484D01*
X5201634Y-15950722D02*
X5211158Y-15931674D01*
X5211158Y-15931674D02*
X5230205Y-15922150D01*
X5230205Y-15922150D02*
X5258777Y-15922150D01*
X5258777Y-15922150D02*
X5277825Y-15931674D01*
X5277825Y-15931674D02*
X5287348Y-15950722D01*
X5287348Y-15950722D02*
X5287348Y-16055484D01*
X5382586Y-16055484D02*
X5382586Y-15922150D01*
X5382586Y-15941198D02*
X5392110Y-15931674D01*
X5392110Y-15931674D02*
X5411158Y-15922150D01*
X5411158Y-15922150D02*
X5439729Y-15922150D01*
X5439729Y-15922150D02*
X5458777Y-15931674D01*
X5458777Y-15931674D02*
X5468301Y-15950722D01*
X5468301Y-15950722D02*
X5468301Y-16055484D01*
X5468301Y-15950722D02*
X5477825Y-15931674D01*
X5477825Y-15931674D02*
X5496872Y-15922150D01*
X5496872Y-15922150D02*
X5525444Y-15922150D01*
X5525444Y-15922150D02*
X5544491Y-15931674D01*
X5544491Y-15931674D02*
X5554015Y-15950722D01*
X5554015Y-15950722D02*
X5554015Y-16055484D01*
X5944491Y-15845960D02*
X5773063Y-16103103D01*
X6201634Y-15855484D02*
X6220682Y-15855484D01*
X6220682Y-15855484D02*
X6239729Y-15865008D01*
X6239729Y-15865008D02*
X6249253Y-15874531D01*
X6249253Y-15874531D02*
X6258777Y-15893579D01*
X6258777Y-15893579D02*
X6268301Y-15931674D01*
X6268301Y-15931674D02*
X6268301Y-15979293D01*
X6268301Y-15979293D02*
X6258777Y-16017388D01*
X6258777Y-16017388D02*
X6249253Y-16036436D01*
X6249253Y-16036436D02*
X6239729Y-16045960D01*
X6239729Y-16045960D02*
X6220682Y-16055484D01*
X6220682Y-16055484D02*
X6201634Y-16055484D01*
X6201634Y-16055484D02*
X6182586Y-16045960D01*
X6182586Y-16045960D02*
X6173063Y-16036436D01*
X6173063Y-16036436D02*
X6163539Y-16017388D01*
X6163539Y-16017388D02*
X6154015Y-15979293D01*
X6154015Y-15979293D02*
X6154015Y-15931674D01*
X6154015Y-15931674D02*
X6163539Y-15893579D01*
X6163539Y-15893579D02*
X6173063Y-15874531D01*
X6173063Y-15874531D02*
X6182586Y-15865008D01*
X6182586Y-15865008D02*
X6201634Y-15855484D01*
X6354015Y-16036436D02*
X6363539Y-16045960D01*
X6363539Y-16045960D02*
X6354015Y-16055484D01*
X6354015Y-16055484D02*
X6344491Y-16045960D01*
X6344491Y-16045960D02*
X6354015Y-16036436D01*
X6354015Y-16036436D02*
X6354015Y-16055484D01*
X6487348Y-15855484D02*
X6506396Y-15855484D01*
X6506396Y-15855484D02*
X6525444Y-15865008D01*
X6525444Y-15865008D02*
X6534967Y-15874531D01*
X6534967Y-15874531D02*
X6544491Y-15893579D01*
X6544491Y-15893579D02*
X6554015Y-15931674D01*
X6554015Y-15931674D02*
X6554015Y-15979293D01*
X6554015Y-15979293D02*
X6544491Y-16017388D01*
X6544491Y-16017388D02*
X6534967Y-16036436D01*
X6534967Y-16036436D02*
X6525444Y-16045960D01*
X6525444Y-16045960D02*
X6506396Y-16055484D01*
X6506396Y-16055484D02*
X6487348Y-16055484D01*
X6487348Y-16055484D02*
X6468301Y-16045960D01*
X6468301Y-16045960D02*
X6458777Y-16036436D01*
X6458777Y-16036436D02*
X6449253Y-16017388D01*
X6449253Y-16017388D02*
X6439729Y-15979293D01*
X6439729Y-15979293D02*
X6439729Y-15931674D01*
X6439729Y-15931674D02*
X6449253Y-15893579D01*
X6449253Y-15893579D02*
X6458777Y-15874531D01*
X6458777Y-15874531D02*
X6468301Y-15865008D01*
X6468301Y-15865008D02*
X6487348Y-15855484D01*
X6725444Y-15922150D02*
X6725444Y-16055484D01*
X6677825Y-15845960D02*
X6630206Y-15988817D01*
X6630206Y-15988817D02*
X6754015Y-15988817D01*
X6811158Y-15855484D02*
X6934967Y-15855484D01*
X6934967Y-15855484D02*
X6868301Y-15931674D01*
X6868301Y-15931674D02*
X6896872Y-15931674D01*
X6896872Y-15931674D02*
X6915920Y-15941198D01*
X6915920Y-15941198D02*
X6925444Y-15950722D01*
X6925444Y-15950722D02*
X6934967Y-15969769D01*
X6934967Y-15969769D02*
X6934967Y-16017388D01*
X6934967Y-16017388D02*
X6925444Y-16036436D01*
X6925444Y-16036436D02*
X6915920Y-16045960D01*
X6915920Y-16045960D02*
X6896872Y-16055484D01*
X6896872Y-16055484D02*
X6839729Y-16055484D01*
X6839729Y-16055484D02*
X6820682Y-16045960D01*
X6820682Y-16045960D02*
X6811158Y-16036436D01*
X7001634Y-15855484D02*
X7125444Y-15855484D01*
X7125444Y-15855484D02*
X7058777Y-15931674D01*
X7058777Y-15931674D02*
X7087348Y-15931674D01*
X7087348Y-15931674D02*
X7106396Y-15941198D01*
X7106396Y-15941198D02*
X7115920Y-15950722D01*
X7115920Y-15950722D02*
X7125444Y-15969769D01*
X7125444Y-15969769D02*
X7125444Y-16017388D01*
X7125444Y-16017388D02*
X7115920Y-16036436D01*
X7115920Y-16036436D02*
X7106396Y-16045960D01*
X7106396Y-16045960D02*
X7087348Y-16055484D01*
X7087348Y-16055484D02*
X7030206Y-16055484D01*
X7030206Y-16055484D02*
X7011158Y-16045960D01*
X7011158Y-16045960D02*
X7001634Y-16036436D01*
X7201634Y-15855484D02*
X7201634Y-15893579D01*
X7277825Y-15855484D02*
X7277825Y-15893579D01*
X7573063Y-16131674D02*
X7563539Y-16122150D01*
X7563539Y-16122150D02*
X7544491Y-16093579D01*
X7544491Y-16093579D02*
X7534968Y-16074531D01*
X7534968Y-16074531D02*
X7525444Y-16045960D01*
X7525444Y-16045960D02*
X7515920Y-15998341D01*
X7515920Y-15998341D02*
X7515920Y-15960246D01*
X7515920Y-15960246D02*
X7525444Y-15912627D01*
X7525444Y-15912627D02*
X7534968Y-15884055D01*
X7534968Y-15884055D02*
X7544491Y-15865008D01*
X7544491Y-15865008D02*
X7563539Y-15836436D01*
X7563539Y-15836436D02*
X7573063Y-15826912D01*
X7754015Y-16055484D02*
X7639729Y-16055484D01*
X7696872Y-16055484D02*
X7696872Y-15855484D01*
X7696872Y-15855484D02*
X7677825Y-15884055D01*
X7677825Y-15884055D02*
X7658777Y-15903103D01*
X7658777Y-15903103D02*
X7639729Y-15912627D01*
X7868301Y-15941198D02*
X7849253Y-15931674D01*
X7849253Y-15931674D02*
X7839729Y-15922150D01*
X7839729Y-15922150D02*
X7830206Y-15903103D01*
X7830206Y-15903103D02*
X7830206Y-15893579D01*
X7830206Y-15893579D02*
X7839729Y-15874531D01*
X7839729Y-15874531D02*
X7849253Y-15865008D01*
X7849253Y-15865008D02*
X7868301Y-15855484D01*
X7868301Y-15855484D02*
X7906396Y-15855484D01*
X7906396Y-15855484D02*
X7925444Y-15865008D01*
X7925444Y-15865008D02*
X7934968Y-15874531D01*
X7934968Y-15874531D02*
X7944491Y-15893579D01*
X7944491Y-15893579D02*
X7944491Y-15903103D01*
X7944491Y-15903103D02*
X7934968Y-15922150D01*
X7934968Y-15922150D02*
X7925444Y-15931674D01*
X7925444Y-15931674D02*
X7906396Y-15941198D01*
X7906396Y-15941198D02*
X7868301Y-15941198D01*
X7868301Y-15941198D02*
X7849253Y-15950722D01*
X7849253Y-15950722D02*
X7839729Y-15960246D01*
X7839729Y-15960246D02*
X7830206Y-15979293D01*
X7830206Y-15979293D02*
X7830206Y-16017388D01*
X7830206Y-16017388D02*
X7839729Y-16036436D01*
X7839729Y-16036436D02*
X7849253Y-16045960D01*
X7849253Y-16045960D02*
X7868301Y-16055484D01*
X7868301Y-16055484D02*
X7906396Y-16055484D01*
X7906396Y-16055484D02*
X7925444Y-16045960D01*
X7925444Y-16045960D02*
X7934968Y-16036436D01*
X7934968Y-16036436D02*
X7944491Y-16017388D01*
X7944491Y-16017388D02*
X7944491Y-15979293D01*
X7944491Y-15979293D02*
X7934968Y-15960246D01*
X7934968Y-15960246D02*
X7925444Y-15950722D01*
X7925444Y-15950722D02*
X7906396Y-15941198D01*
X8182587Y-16055484D02*
X8182587Y-15855484D01*
X8268301Y-16055484D02*
X8268301Y-15950722D01*
X8268301Y-15950722D02*
X8258777Y-15931674D01*
X8258777Y-15931674D02*
X8239730Y-15922150D01*
X8239730Y-15922150D02*
X8211158Y-15922150D01*
X8211158Y-15922150D02*
X8192110Y-15931674D01*
X8192110Y-15931674D02*
X8182587Y-15941198D01*
X8392111Y-16055484D02*
X8373063Y-16045960D01*
X8373063Y-16045960D02*
X8363539Y-16036436D01*
X8363539Y-16036436D02*
X8354015Y-16017388D01*
X8354015Y-16017388D02*
X8354015Y-15960246D01*
X8354015Y-15960246D02*
X8363539Y-15941198D01*
X8363539Y-15941198D02*
X8373063Y-15931674D01*
X8373063Y-15931674D02*
X8392111Y-15922150D01*
X8392111Y-15922150D02*
X8420682Y-15922150D01*
X8420682Y-15922150D02*
X8439730Y-15931674D01*
X8439730Y-15931674D02*
X8449253Y-15941198D01*
X8449253Y-15941198D02*
X8458777Y-15960246D01*
X8458777Y-15960246D02*
X8458777Y-16017388D01*
X8458777Y-16017388D02*
X8449253Y-16036436D01*
X8449253Y-16036436D02*
X8439730Y-16045960D01*
X8439730Y-16045960D02*
X8420682Y-16055484D01*
X8420682Y-16055484D02*
X8392111Y-16055484D01*
X8573063Y-16055484D02*
X8554015Y-16045960D01*
X8554015Y-16045960D02*
X8544492Y-16026912D01*
X8544492Y-16026912D02*
X8544492Y-15855484D01*
X8725444Y-16045960D02*
X8706396Y-16055484D01*
X8706396Y-16055484D02*
X8668301Y-16055484D01*
X8668301Y-16055484D02*
X8649253Y-16045960D01*
X8649253Y-16045960D02*
X8639730Y-16026912D01*
X8639730Y-16026912D02*
X8639730Y-15950722D01*
X8639730Y-15950722D02*
X8649253Y-15931674D01*
X8649253Y-15931674D02*
X8668301Y-15922150D01*
X8668301Y-15922150D02*
X8706396Y-15922150D01*
X8706396Y-15922150D02*
X8725444Y-15931674D01*
X8725444Y-15931674D02*
X8734968Y-15950722D01*
X8734968Y-15950722D02*
X8734968Y-15969769D01*
X8734968Y-15969769D02*
X8639730Y-15988817D01*
X8811158Y-16045960D02*
X8830206Y-16055484D01*
X8830206Y-16055484D02*
X8868301Y-16055484D01*
X8868301Y-16055484D02*
X8887349Y-16045960D01*
X8887349Y-16045960D02*
X8896873Y-16026912D01*
X8896873Y-16026912D02*
X8896873Y-16017388D01*
X8896873Y-16017388D02*
X8887349Y-15998341D01*
X8887349Y-15998341D02*
X8868301Y-15988817D01*
X8868301Y-15988817D02*
X8839730Y-15988817D01*
X8839730Y-15988817D02*
X8820682Y-15979293D01*
X8820682Y-15979293D02*
X8811158Y-15960246D01*
X8811158Y-15960246D02*
X8811158Y-15950722D01*
X8811158Y-15950722D02*
X8820682Y-15931674D01*
X8820682Y-15931674D02*
X8839730Y-15922150D01*
X8839730Y-15922150D02*
X8868301Y-15922150D01*
X8868301Y-15922150D02*
X8887349Y-15931674D01*
X8963539Y-16131674D02*
X8973063Y-16122150D01*
X8973063Y-16122150D02*
X8992111Y-16093579D01*
X8992111Y-16093579D02*
X9001634Y-16074531D01*
X9001634Y-16074531D02*
X9011158Y-16045960D01*
X9011158Y-16045960D02*
X9020682Y-15998341D01*
X9020682Y-15998341D02*
X9020682Y-15960246D01*
X9020682Y-15960246D02*
X9011158Y-15912627D01*
X9011158Y-15912627D02*
X9001634Y-15884055D01*
X9001634Y-15884055D02*
X8992111Y-15865008D01*
X8992111Y-15865008D02*
X8973063Y-15836436D01*
X8973063Y-15836436D02*
X8963539Y-15826912D01*
X3798000Y-16128000D02*
X3998000Y-16328000D01*
X3998000Y-16128000D02*
X3798000Y-16328000D01*
X3968711Y-16298711D02*
X3968711Y-16157289D01*
X3827289Y-16157289D01*
X3827289Y-16298711D01*
X3968711Y-16298711D01*
X4239729Y-16119484D02*
X4363539Y-16119484D01*
X4363539Y-16119484D02*
X4296872Y-16195674D01*
X4296872Y-16195674D02*
X4325444Y-16195674D01*
X4325444Y-16195674D02*
X4344491Y-16205198D01*
X4344491Y-16205198D02*
X4354015Y-16214722D01*
X4354015Y-16214722D02*
X4363539Y-16233769D01*
X4363539Y-16233769D02*
X4363539Y-16281388D01*
X4363539Y-16281388D02*
X4354015Y-16300436D01*
X4354015Y-16300436D02*
X4344491Y-16309960D01*
X4344491Y-16309960D02*
X4325444Y-16319484D01*
X4325444Y-16319484D02*
X4268301Y-16319484D01*
X4268301Y-16319484D02*
X4249253Y-16309960D01*
X4249253Y-16309960D02*
X4239729Y-16300436D01*
X4449253Y-16300436D02*
X4458777Y-16309960D01*
X4458777Y-16309960D02*
X4449253Y-16319484D01*
X4449253Y-16319484D02*
X4439729Y-16309960D01*
X4439729Y-16309960D02*
X4449253Y-16300436D01*
X4449253Y-16300436D02*
X4449253Y-16319484D01*
X4582586Y-16119484D02*
X4601634Y-16119484D01*
X4601634Y-16119484D02*
X4620682Y-16129008D01*
X4620682Y-16129008D02*
X4630205Y-16138531D01*
X4630205Y-16138531D02*
X4639729Y-16157579D01*
X4639729Y-16157579D02*
X4649253Y-16195674D01*
X4649253Y-16195674D02*
X4649253Y-16243293D01*
X4649253Y-16243293D02*
X4639729Y-16281388D01*
X4639729Y-16281388D02*
X4630205Y-16300436D01*
X4630205Y-16300436D02*
X4620682Y-16309960D01*
X4620682Y-16309960D02*
X4601634Y-16319484D01*
X4601634Y-16319484D02*
X4582586Y-16319484D01*
X4582586Y-16319484D02*
X4563539Y-16309960D01*
X4563539Y-16309960D02*
X4554015Y-16300436D01*
X4554015Y-16300436D02*
X4544491Y-16281388D01*
X4544491Y-16281388D02*
X4534967Y-16243293D01*
X4534967Y-16243293D02*
X4534967Y-16195674D01*
X4534967Y-16195674D02*
X4544491Y-16157579D01*
X4544491Y-16157579D02*
X4554015Y-16138531D01*
X4554015Y-16138531D02*
X4563539Y-16129008D01*
X4563539Y-16129008D02*
X4582586Y-16119484D01*
X4773063Y-16119484D02*
X4792110Y-16119484D01*
X4792110Y-16119484D02*
X4811158Y-16129008D01*
X4811158Y-16129008D02*
X4820682Y-16138531D01*
X4820682Y-16138531D02*
X4830205Y-16157579D01*
X4830205Y-16157579D02*
X4839729Y-16195674D01*
X4839729Y-16195674D02*
X4839729Y-16243293D01*
X4839729Y-16243293D02*
X4830205Y-16281388D01*
X4830205Y-16281388D02*
X4820682Y-16300436D01*
X4820682Y-16300436D02*
X4811158Y-16309960D01*
X4811158Y-16309960D02*
X4792110Y-16319484D01*
X4792110Y-16319484D02*
X4773063Y-16319484D01*
X4773063Y-16319484D02*
X4754015Y-16309960D01*
X4754015Y-16309960D02*
X4744491Y-16300436D01*
X4744491Y-16300436D02*
X4734967Y-16281388D01*
X4734967Y-16281388D02*
X4725444Y-16243293D01*
X4725444Y-16243293D02*
X4725444Y-16195674D01*
X4725444Y-16195674D02*
X4734967Y-16157579D01*
X4734967Y-16157579D02*
X4744491Y-16138531D01*
X4744491Y-16138531D02*
X4754015Y-16129008D01*
X4754015Y-16129008D02*
X4773063Y-16119484D01*
X4963539Y-16119484D02*
X4982586Y-16119484D01*
X4982586Y-16119484D02*
X5001634Y-16129008D01*
X5001634Y-16129008D02*
X5011158Y-16138531D01*
X5011158Y-16138531D02*
X5020682Y-16157579D01*
X5020682Y-16157579D02*
X5030205Y-16195674D01*
X5030205Y-16195674D02*
X5030205Y-16243293D01*
X5030205Y-16243293D02*
X5020682Y-16281388D01*
X5020682Y-16281388D02*
X5011158Y-16300436D01*
X5011158Y-16300436D02*
X5001634Y-16309960D01*
X5001634Y-16309960D02*
X4982586Y-16319484D01*
X4982586Y-16319484D02*
X4963539Y-16319484D01*
X4963539Y-16319484D02*
X4944491Y-16309960D01*
X4944491Y-16309960D02*
X4934967Y-16300436D01*
X4934967Y-16300436D02*
X4925444Y-16281388D01*
X4925444Y-16281388D02*
X4915920Y-16243293D01*
X4915920Y-16243293D02*
X4915920Y-16195674D01*
X4915920Y-16195674D02*
X4925444Y-16157579D01*
X4925444Y-16157579D02*
X4934967Y-16138531D01*
X4934967Y-16138531D02*
X4944491Y-16129008D01*
X4944491Y-16129008D02*
X4963539Y-16119484D01*
X5115920Y-16319484D02*
X5115920Y-16186150D01*
X5115920Y-16205198D02*
X5125444Y-16195674D01*
X5125444Y-16195674D02*
X5144491Y-16186150D01*
X5144491Y-16186150D02*
X5173063Y-16186150D01*
X5173063Y-16186150D02*
X5192110Y-16195674D01*
X5192110Y-16195674D02*
X5201634Y-16214722D01*
X5201634Y-16214722D02*
X5201634Y-16319484D01*
X5201634Y-16214722D02*
X5211158Y-16195674D01*
X5211158Y-16195674D02*
X5230205Y-16186150D01*
X5230205Y-16186150D02*
X5258777Y-16186150D01*
X5258777Y-16186150D02*
X5277825Y-16195674D01*
X5277825Y-16195674D02*
X5287348Y-16214722D01*
X5287348Y-16214722D02*
X5287348Y-16319484D01*
X5382586Y-16319484D02*
X5382586Y-16186150D01*
X5382586Y-16205198D02*
X5392110Y-16195674D01*
X5392110Y-16195674D02*
X5411158Y-16186150D01*
X5411158Y-16186150D02*
X5439729Y-16186150D01*
X5439729Y-16186150D02*
X5458777Y-16195674D01*
X5458777Y-16195674D02*
X5468301Y-16214722D01*
X5468301Y-16214722D02*
X5468301Y-16319484D01*
X5468301Y-16214722D02*
X5477825Y-16195674D01*
X5477825Y-16195674D02*
X5496872Y-16186150D01*
X5496872Y-16186150D02*
X5525444Y-16186150D01*
X5525444Y-16186150D02*
X5544491Y-16195674D01*
X5544491Y-16195674D02*
X5554015Y-16214722D01*
X5554015Y-16214722D02*
X5554015Y-16319484D01*
X5944491Y-16109960D02*
X5773063Y-16367103D01*
X6201634Y-16119484D02*
X6220682Y-16119484D01*
X6220682Y-16119484D02*
X6239729Y-16129008D01*
X6239729Y-16129008D02*
X6249253Y-16138531D01*
X6249253Y-16138531D02*
X6258777Y-16157579D01*
X6258777Y-16157579D02*
X6268301Y-16195674D01*
X6268301Y-16195674D02*
X6268301Y-16243293D01*
X6268301Y-16243293D02*
X6258777Y-16281388D01*
X6258777Y-16281388D02*
X6249253Y-16300436D01*
X6249253Y-16300436D02*
X6239729Y-16309960D01*
X6239729Y-16309960D02*
X6220682Y-16319484D01*
X6220682Y-16319484D02*
X6201634Y-16319484D01*
X6201634Y-16319484D02*
X6182586Y-16309960D01*
X6182586Y-16309960D02*
X6173063Y-16300436D01*
X6173063Y-16300436D02*
X6163539Y-16281388D01*
X6163539Y-16281388D02*
X6154015Y-16243293D01*
X6154015Y-16243293D02*
X6154015Y-16195674D01*
X6154015Y-16195674D02*
X6163539Y-16157579D01*
X6163539Y-16157579D02*
X6173063Y-16138531D01*
X6173063Y-16138531D02*
X6182586Y-16129008D01*
X6182586Y-16129008D02*
X6201634Y-16119484D01*
X6354015Y-16300436D02*
X6363539Y-16309960D01*
X6363539Y-16309960D02*
X6354015Y-16319484D01*
X6354015Y-16319484D02*
X6344491Y-16309960D01*
X6344491Y-16309960D02*
X6354015Y-16300436D01*
X6354015Y-16300436D02*
X6354015Y-16319484D01*
X6554015Y-16319484D02*
X6439729Y-16319484D01*
X6496872Y-16319484D02*
X6496872Y-16119484D01*
X6496872Y-16119484D02*
X6477825Y-16148055D01*
X6477825Y-16148055D02*
X6458777Y-16167103D01*
X6458777Y-16167103D02*
X6439729Y-16176627D01*
X6744491Y-16319484D02*
X6630206Y-16319484D01*
X6687348Y-16319484D02*
X6687348Y-16119484D01*
X6687348Y-16119484D02*
X6668301Y-16148055D01*
X6668301Y-16148055D02*
X6649253Y-16167103D01*
X6649253Y-16167103D02*
X6630206Y-16176627D01*
X6858777Y-16205198D02*
X6839729Y-16195674D01*
X6839729Y-16195674D02*
X6830206Y-16186150D01*
X6830206Y-16186150D02*
X6820682Y-16167103D01*
X6820682Y-16167103D02*
X6820682Y-16157579D01*
X6820682Y-16157579D02*
X6830206Y-16138531D01*
X6830206Y-16138531D02*
X6839729Y-16129008D01*
X6839729Y-16129008D02*
X6858777Y-16119484D01*
X6858777Y-16119484D02*
X6896872Y-16119484D01*
X6896872Y-16119484D02*
X6915920Y-16129008D01*
X6915920Y-16129008D02*
X6925444Y-16138531D01*
X6925444Y-16138531D02*
X6934967Y-16157579D01*
X6934967Y-16157579D02*
X6934967Y-16167103D01*
X6934967Y-16167103D02*
X6925444Y-16186150D01*
X6925444Y-16186150D02*
X6915920Y-16195674D01*
X6915920Y-16195674D02*
X6896872Y-16205198D01*
X6896872Y-16205198D02*
X6858777Y-16205198D01*
X6858777Y-16205198D02*
X6839729Y-16214722D01*
X6839729Y-16214722D02*
X6830206Y-16224246D01*
X6830206Y-16224246D02*
X6820682Y-16243293D01*
X6820682Y-16243293D02*
X6820682Y-16281388D01*
X6820682Y-16281388D02*
X6830206Y-16300436D01*
X6830206Y-16300436D02*
X6839729Y-16309960D01*
X6839729Y-16309960D02*
X6858777Y-16319484D01*
X6858777Y-16319484D02*
X6896872Y-16319484D01*
X6896872Y-16319484D02*
X6915920Y-16309960D01*
X6915920Y-16309960D02*
X6925444Y-16300436D01*
X6925444Y-16300436D02*
X6934967Y-16281388D01*
X6934967Y-16281388D02*
X6934967Y-16243293D01*
X6934967Y-16243293D02*
X6925444Y-16224246D01*
X6925444Y-16224246D02*
X6915920Y-16214722D01*
X6915920Y-16214722D02*
X6896872Y-16205198D01*
X7125444Y-16319484D02*
X7011158Y-16319484D01*
X7068301Y-16319484D02*
X7068301Y-16119484D01*
X7068301Y-16119484D02*
X7049253Y-16148055D01*
X7049253Y-16148055D02*
X7030206Y-16167103D01*
X7030206Y-16167103D02*
X7011158Y-16176627D01*
X7201634Y-16119484D02*
X7201634Y-16157579D01*
X7277825Y-16119484D02*
X7277825Y-16157579D01*
X7573063Y-16395674D02*
X7563539Y-16386150D01*
X7563539Y-16386150D02*
X7544491Y-16357579D01*
X7544491Y-16357579D02*
X7534968Y-16338531D01*
X7534968Y-16338531D02*
X7525444Y-16309960D01*
X7525444Y-16309960D02*
X7515920Y-16262341D01*
X7515920Y-16262341D02*
X7515920Y-16224246D01*
X7515920Y-16224246D02*
X7525444Y-16176627D01*
X7525444Y-16176627D02*
X7534968Y-16148055D01*
X7534968Y-16148055D02*
X7544491Y-16129008D01*
X7544491Y-16129008D02*
X7563539Y-16100436D01*
X7563539Y-16100436D02*
X7573063Y-16090912D01*
X7734968Y-16186150D02*
X7734968Y-16319484D01*
X7687348Y-16109960D02*
X7639729Y-16252817D01*
X7639729Y-16252817D02*
X7763539Y-16252817D01*
X7992110Y-16319484D02*
X7992110Y-16119484D01*
X8077825Y-16319484D02*
X8077825Y-16214722D01*
X8077825Y-16214722D02*
X8068301Y-16195674D01*
X8068301Y-16195674D02*
X8049253Y-16186150D01*
X8049253Y-16186150D02*
X8020682Y-16186150D01*
X8020682Y-16186150D02*
X8001634Y-16195674D01*
X8001634Y-16195674D02*
X7992110Y-16205198D01*
X8201634Y-16319484D02*
X8182587Y-16309960D01*
X8182587Y-16309960D02*
X8173063Y-16300436D01*
X8173063Y-16300436D02*
X8163539Y-16281388D01*
X8163539Y-16281388D02*
X8163539Y-16224246D01*
X8163539Y-16224246D02*
X8173063Y-16205198D01*
X8173063Y-16205198D02*
X8182587Y-16195674D01*
X8182587Y-16195674D02*
X8201634Y-16186150D01*
X8201634Y-16186150D02*
X8230206Y-16186150D01*
X8230206Y-16186150D02*
X8249253Y-16195674D01*
X8249253Y-16195674D02*
X8258777Y-16205198D01*
X8258777Y-16205198D02*
X8268301Y-16224246D01*
X8268301Y-16224246D02*
X8268301Y-16281388D01*
X8268301Y-16281388D02*
X8258777Y-16300436D01*
X8258777Y-16300436D02*
X8249253Y-16309960D01*
X8249253Y-16309960D02*
X8230206Y-16319484D01*
X8230206Y-16319484D02*
X8201634Y-16319484D01*
X8382587Y-16319484D02*
X8363539Y-16309960D01*
X8363539Y-16309960D02*
X8354015Y-16290912D01*
X8354015Y-16290912D02*
X8354015Y-16119484D01*
X8534968Y-16309960D02*
X8515920Y-16319484D01*
X8515920Y-16319484D02*
X8477825Y-16319484D01*
X8477825Y-16319484D02*
X8458777Y-16309960D01*
X8458777Y-16309960D02*
X8449253Y-16290912D01*
X8449253Y-16290912D02*
X8449253Y-16214722D01*
X8449253Y-16214722D02*
X8458777Y-16195674D01*
X8458777Y-16195674D02*
X8477825Y-16186150D01*
X8477825Y-16186150D02*
X8515920Y-16186150D01*
X8515920Y-16186150D02*
X8534968Y-16195674D01*
X8534968Y-16195674D02*
X8544492Y-16214722D01*
X8544492Y-16214722D02*
X8544492Y-16233769D01*
X8544492Y-16233769D02*
X8449253Y-16252817D01*
X8620682Y-16309960D02*
X8639730Y-16319484D01*
X8639730Y-16319484D02*
X8677825Y-16319484D01*
X8677825Y-16319484D02*
X8696873Y-16309960D01*
X8696873Y-16309960D02*
X8706396Y-16290912D01*
X8706396Y-16290912D02*
X8706396Y-16281388D01*
X8706396Y-16281388D02*
X8696873Y-16262341D01*
X8696873Y-16262341D02*
X8677825Y-16252817D01*
X8677825Y-16252817D02*
X8649253Y-16252817D01*
X8649253Y-16252817D02*
X8630206Y-16243293D01*
X8630206Y-16243293D02*
X8620682Y-16224246D01*
X8620682Y-16224246D02*
X8620682Y-16214722D01*
X8620682Y-16214722D02*
X8630206Y-16195674D01*
X8630206Y-16195674D02*
X8649253Y-16186150D01*
X8649253Y-16186150D02*
X8677825Y-16186150D01*
X8677825Y-16186150D02*
X8696873Y-16195674D01*
X8773063Y-16395674D02*
X8782587Y-16386150D01*
X8782587Y-16386150D02*
X8801634Y-16357579D01*
X8801634Y-16357579D02*
X8811158Y-16338531D01*
X8811158Y-16338531D02*
X8820682Y-16309960D01*
X8820682Y-16309960D02*
X8830206Y-16262341D01*
X8830206Y-16262341D02*
X8830206Y-16224246D01*
X8830206Y-16224246D02*
X8820682Y-16176627D01*
X8820682Y-16176627D02*
X8811158Y-16148055D01*
X8811158Y-16148055D02*
X8801634Y-16129008D01*
X8801634Y-16129008D02*
X8782587Y-16100436D01*
X8782587Y-16100436D02*
X8773063Y-16090912D01*
M02*
