M48
; DRILL file {KiCad 8.0.6} date 2024-10-31T12:42:12-0700
; FORMAT={-:-/ absolute / inch / decimal}
; #@! TF.CreationDate,2024-10-31T12:42:12-07:00
; #@! TF.GenerationSoftware,Kicad,Pcbnew,8.0.6
; #@! TF.FileFunction,Plated,1,2,PTH
FMAT,2
INCH
; #@! TA.AperFunction,Plated,PTH,ComponentDrill
T1C0.0118
; #@! TA.AperFunction,Plated,PTH,ViaDrill
T2C0.0157
; #@! TA.AperFunction,Plated,PTH,ComponentDrill
T3C0.0197
; #@! TA.AperFunction,Plated,PTH,ComponentDrill
T4C0.0276
; #@! TA.AperFunction,Plated,PTH,ComponentDrill
T5C0.0276
; #@! TA.AperFunction,Plated,PTH,ComponentDrill
T6C0.0394
; #@! TA.AperFunction,Plated,PTH,ComponentDrill
T7C0.0433
; #@! TA.AperFunction,Plated,PTH,ComponentDrill
T8C0.1181
%
G90
G05
T1
X1.8878Y-3.1348
X1.8878Y-3.19
X1.9154Y-3.1073
X1.9154Y-3.1624
X1.9154Y-3.2175
X1.9429Y-3.1348
X1.9429Y-3.19
X1.9705Y-3.1073
X1.9705Y-3.1624
X1.9705Y-3.2175
X1.998Y-3.1348
X1.998Y-3.19
T2
X1.6047Y-3.8512
X1.6535Y-2.8622
X1.6555Y-2.6996
X1.6768Y-4.8287
X1.685Y-3.8776
X1.6941Y-4.528
X1.6945Y-4.5642
X1.7154Y-3.8228
X1.7437Y-4.0795
X1.7465Y-4.1445
X1.7471Y-4.1844
X1.749Y-3.6494
X1.761Y-3.8819
X1.7917Y-2.861
X1.8307Y-2.8142
X1.8354Y-3.9835
X1.8373Y-3.3861
X1.877Y-2.8238
X1.8909Y-4.1697
X1.8947Y-3.3589
X1.8972Y-3.5063
X1.9281Y-2.8228
X1.936Y-3.8589
X1.9429Y-3.5071
X1.9498Y-3.8583
X1.95Y-3.324
X1.9606Y-3.9902
X1.9606Y-4.3476
X1.9606Y-4.3839
X1.9732Y-5.2713
X1.9748Y-4.6346
X1.9772Y-5.2211
X1.9774Y-4.8935
X1.9783Y-2.8228
X1.9917Y-3.3248
X2.0008Y-5.3195
X2.001Y-4.9919
X2.0098Y-4.6339
X2.0305Y-2.8219
X2.0457Y-4.1551
X2.0496Y-4.2272
X2.0797Y-4.5364
X2.085Y-3.7984
X2.0984Y-3.5539
X2.1071Y-5.2722
X2.1073Y-4.9447
X2.124Y-2.9913
X2.1339Y-4.0098
X2.1571Y-4.5057
X2.174Y-5.2211
X2.1742Y-3.8878
X2.1742Y-4.8935
X2.1858Y-5.3195
X2.186Y-4.9919
X2.2Y-3.6287
X2.2Y-3.7157
X2.2087Y-4.7732
X2.2209Y-3.8866
X2.2309Y-3.5884
X2.2319Y-4.0177
X2.2484Y-3.3815
X2.2724Y-3.8433
X2.2744Y-3.5843
X2.2805Y-4.2303
X2.2988Y-4.0724
X2.3039Y-5.2722
X2.3041Y-4.9447
X2.3201Y-4.7697
X2.3311Y-4.3173
X2.3389Y-3.4204
X2.3488Y-4.2161
X2.3709Y-5.2211
X2.3711Y-4.8935
X2.3717Y-4.2854
X2.3827Y-3.5209
X2.3827Y-5.3156
X2.3829Y-4.988
X2.4024Y-3.8035
X2.4417Y-3.1307
X2.4508Y-5.1217
X2.5008Y-5.2722
X2.501Y-4.9447
X2.5677Y-5.2211
X2.5679Y-4.8935
X2.5874Y-5.3156
X2.5876Y-4.988
X2.5929Y-3.3937
X2.6701Y-3.7634
X2.6976Y-5.2722
X2.6978Y-4.9447
X2.7327Y-3.763
X2.7646Y-5.2211
X2.7648Y-4.8935
X2.7843Y-5.3156
X2.7844Y-4.988
X2.7921Y-3.7614
X2.8945Y-5.2722
X2.8947Y-4.9447
X2.9028Y-4.0988
X2.9039Y-4.0067
X2.9614Y-5.2211
X2.9616Y-4.8935
X2.9772Y-5.3156
X2.9774Y-4.988
X3.0913Y-5.2722
X3.0915Y-4.9447
X3.1583Y-5.2211
X3.1585Y-4.8935
X3.178Y-5.3156
X3.1781Y-4.988
X3.2882Y-5.2722
X3.2884Y-4.9447
X3.3551Y-5.2211
X3.3553Y-4.8935
X3.3709Y-5.3156
X3.3711Y-4.988
X3.4224Y-4.7732
X3.4256Y-5.1244
X3.485Y-5.2722
X3.4852Y-4.9447
X3.552Y-5.2211
X3.5522Y-4.8935
X3.5717Y-5.3156
X3.5719Y-4.988
X3.6819Y-5.2722
X3.6821Y-4.9447
X3.7488Y-5.2211
X3.749Y-4.8935
X3.7606Y-5.3156
X3.7608Y-4.988
X3.8787Y-5.2722
X3.8789Y-4.9447
X3.9457Y-4.8933
X3.9457Y-5.2211
X3.9693Y-4.9917
X3.9693Y-5.3195
X4.0756Y-4.9445
X4.0756Y-5.2722
X4.1425Y-4.8933
X4.1425Y-5.2211
X4.1543Y-4.9917
X4.1543Y-5.3195
X4.2724Y-4.9445
X4.2724Y-5.2722
X4.3394Y-4.8933
X4.3394Y-5.2211
X4.3512Y-4.9878
X4.3512Y-5.3156
X4.4693Y-4.9445
X4.4693Y-5.2722
X4.5362Y-4.8933
X4.5362Y-5.2211
X4.5559Y-4.9878
X4.5559Y-5.3156
X4.6661Y-4.9445
X4.6661Y-5.2722
X4.6756Y-2.7669
X4.7331Y-4.8933
X4.7331Y-5.2211
X4.7528Y-4.9878
X4.7528Y-5.3156
X4.863Y-4.9445
X4.863Y-5.2722
X4.8815Y-2.7846
X4.9299Y-4.8933
X4.9299Y-5.2211
X4.9457Y-4.9878
X4.9457Y-5.3156
X5.0598Y-4.9445
X5.0598Y-5.2722
X5.1268Y-4.8933
X5.1268Y-5.2211
X5.1465Y-4.9878
X5.1465Y-5.3156
X5.2567Y-4.9445
X5.2567Y-5.2722
X5.3236Y-4.8933
X5.3236Y-5.2211
X5.3394Y-4.9878
X5.3394Y-5.3156
X5.4323Y-3.5433
X5.4496Y-3.865
X5.4535Y-4.9445
X5.4535Y-5.2722
X5.5205Y-4.8933
X5.5205Y-5.2211
X5.5402Y-4.9878
X5.5402Y-5.3156
X5.5878Y-4.7807
X5.5969Y-5.1307
X5.6504Y-4.9445
X5.6504Y-5.2722
X5.7173Y-4.8933
X5.7173Y-5.2211
X5.7291Y-4.9878
X5.7291Y-5.3156
X5.8472Y-4.9445
X5.8472Y-5.2722
T3
X2.2783Y-3.7057
T4
X1.8577Y-4.3872
X1.8577Y-4.6148
T6
X1.7768Y-4.8831
X1.7768Y-4.9815
X1.7768Y-5.0799
X1.7768Y-5.1783
X1.7768Y-5.2768
T7
X2.4974Y-3.5449
X2.4974Y-3.6449
X2.4974Y-3.7449
X2.4974Y-3.8449
X5.6856Y-3.0449
X5.6856Y-3.1449
X5.6856Y-3.2449
X5.6856Y-3.3449
X5.6856Y-3.4449
X5.6856Y-3.5449
X5.6856Y-3.6449
X5.6856Y-3.7449
X5.6856Y-3.8449
X5.6856Y-3.9449
X5.6856Y-4.0449
X5.6856Y-4.1449
X5.6856Y-4.2449
X5.6856Y-4.3449
T8
X2.4974Y-2.8287
X2.4974Y-4.561
X5.4923Y-2.8287
X5.4923Y-4.561
T5
G00X1.7278Y-4.3309
M15
G01X1.7002Y-4.3309
M16
G05
G00X1.7278Y-4.6711
M15
G01X1.7002Y-4.6711
M16
G05
G00X1.8986Y-4.3309
M15
G01X1.8593Y-4.3309
M16
G05
G00X1.8986Y-4.6711
M15
G01X1.8593Y-4.6711
M16
G05
M30
