%TF.GenerationSoftware,KiCad,Pcbnew,8.0.6*%
%TF.CreationDate,2024-11-10T17:01:15-08:00*%
%TF.ProjectId,veramonitor,76657261-6d6f-46e6-9974-6f722e6b6963,rev?*%
%TF.SameCoordinates,Original*%
%TF.FileFunction,Soldermask,Top*%
%TF.FilePolarity,Negative*%
%FSLAX46Y46*%
G04 Gerber Fmt 4.6, Leading zero omitted, Abs format (unit mm)*
G04 Created by KiCad (PCBNEW 8.0.6) date 2024-11-10 17:01:15*
%MOMM*%
%LPD*%
G01*
G04 APERTURE LIST*
G04 Aperture macros list*
%AMRoundRect*
0 Rectangle with rounded corners*
0 $1 Rounding radius*
0 $2 $3 $4 $5 $6 $7 $8 $9 X,Y pos of 4 corners*
0 Add a 4 corners polygon primitive as box body*
4,1,4,$2,$3,$4,$5,$6,$7,$8,$9,$2,$3,0*
0 Add four circle primitives for the rounded corners*
1,1,$1+$1,$2,$3*
1,1,$1+$1,$4,$5*
1,1,$1+$1,$6,$7*
1,1,$1+$1,$8,$9*
0 Add four rect primitives between the rounded corners*
20,1,$1+$1,$2,$3,$4,$5,0*
20,1,$1+$1,$4,$5,$6,$7,0*
20,1,$1+$1,$6,$7,$8,$9,0*
20,1,$1+$1,$8,$9,$2,$3,0*%
G04 Aperture macros list end*
%ADD10R,0.800000X0.800000*%
%ADD11RoundRect,0.140000X0.140000X0.170000X-0.140000X0.170000X-0.140000X-0.170000X0.140000X-0.170000X0*%
%ADD12R,1.600000X1.600000*%
%ADD13C,1.600000*%
%ADD14RoundRect,0.250000X0.250000X0.475000X-0.250000X0.475000X-0.250000X-0.475000X0.250000X-0.475000X0*%
%ADD15C,3.800000*%
%ADD16C,1.700000*%
%ADD17RoundRect,0.135000X-0.185000X0.135000X-0.185000X-0.135000X0.185000X-0.135000X0.185000X0.135000X0*%
%ADD18RoundRect,0.135000X0.185000X-0.135000X0.185000X0.135000X-0.185000X0.135000X-0.185000X-0.135000X0*%
%ADD19RoundRect,0.140000X-0.170000X0.140000X-0.170000X-0.140000X0.170000X-0.140000X0.170000X0.140000X0*%
%ADD20C,0.500000*%
%ADD21R,0.730000X0.530000*%
%ADD22C,1.625000*%
%ADD23R,0.900000X1.500000*%
%ADD24R,1.500000X0.900000*%
%ADD25R,0.900000X0.900000*%
%ADD26C,0.700000*%
%ADD27O,2.000000X1.200000*%
%ADD28O,1.800000X1.200000*%
%ADD29R,1.300000X0.300000*%
%ADD30RoundRect,0.140000X0.170000X-0.140000X0.170000X0.140000X-0.170000X0.140000X-0.170000X-0.140000X0*%
%ADD31RoundRect,0.250000X-0.475000X0.250000X-0.475000X-0.250000X0.475000X-0.250000X0.475000X0.250000X0*%
%ADD32R,0.500000X0.340000*%
%ADD33R,0.700000X0.250000*%
%ADD34R,0.250000X0.700000*%
%ADD35R,1.700000X1.700000*%
%ADD36RoundRect,0.135000X-0.135000X-0.185000X0.135000X-0.185000X0.135000X0.185000X-0.135000X0.185000X0*%
%ADD37R,1.550000X0.600000*%
%ADD38R,1.800000X1.200000*%
%ADD39R,0.540000X0.640000*%
%ADD40R,2.500000X1.100000*%
%ADD41R,2.340000X3.600000*%
%ADD42RoundRect,0.135000X0.135000X0.185000X-0.135000X0.185000X-0.135000X-0.185000X0.135000X-0.185000X0*%
%ADD43R,0.700000X1.050000*%
%ADD44C,0.990600*%
%ADD45C,0.787400*%
G04 APERTURE END LIST*
D10*
%TO.C,U38*%
X82520000Y-133915000D03*
X82520000Y-132615000D03*
X81220000Y-132615000D03*
X81220000Y-133915000D03*
%TD*%
D11*
%TO.C,C49*%
X142580000Y-135015000D03*
X141620000Y-135015000D03*
%TD*%
%TO.C,C20*%
X97425000Y-126695000D03*
X96465000Y-126695000D03*
%TD*%
%TO.C,C43*%
X112500000Y-135015000D03*
X111540000Y-135015000D03*
%TD*%
D12*
%TO.C,U11*%
X45130000Y-134030000D03*
D13*
X45130000Y-131530000D03*
X45130000Y-129030000D03*
X45130000Y-126530000D03*
X45130000Y-124030000D03*
%TD*%
D14*
%TO.C,C6*%
X43200000Y-93825000D03*
X41300000Y-93825000D03*
%TD*%
D15*
%TO.C,U7*%
X63435000Y-71850000D03*
X63435000Y-115850000D03*
X139505000Y-71850000D03*
X139505000Y-115850000D03*
D16*
X144415000Y-110360000D03*
X144415000Y-107820000D03*
X144415000Y-105280000D03*
X144415000Y-102740000D03*
X144415000Y-100200000D03*
X144415000Y-97660000D03*
X144415000Y-95120000D03*
X144415000Y-92580000D03*
X144415000Y-90040000D03*
X144415000Y-87500000D03*
X144415000Y-84960000D03*
X144415000Y-82420000D03*
X144415000Y-79880000D03*
X144415000Y-77340000D03*
X63435000Y-97660000D03*
X63435000Y-95120000D03*
X63435000Y-92580000D03*
X63435000Y-90040000D03*
%TD*%
D17*
%TO.C,R7*%
X57000000Y-107380000D03*
X57000000Y-108400000D03*
%TD*%
D11*
%TO.C,C41*%
X102600000Y-135115000D03*
X101640000Y-135115000D03*
%TD*%
D10*
%TO.C,U43*%
X107520000Y-133915000D03*
X107520000Y-132615000D03*
X106220000Y-132615000D03*
X106220000Y-133915000D03*
%TD*%
%TO.C,U35*%
X67520000Y-133915000D03*
X67520000Y-132615000D03*
X66220000Y-132615000D03*
X66220000Y-133915000D03*
%TD*%
D11*
%TO.C,C33*%
X62500000Y-135015000D03*
X61540000Y-135015000D03*
%TD*%
D10*
%TO.C,U13*%
X57525000Y-125595000D03*
X57525000Y-124295000D03*
X56225000Y-124295000D03*
X56225000Y-125595000D03*
%TD*%
D11*
%TO.C,C31*%
X52600000Y-135115000D03*
X51640000Y-135115000D03*
%TD*%
D10*
%TO.C,U51*%
X147520000Y-133915000D03*
X147520000Y-132615000D03*
X146220000Y-132615000D03*
X146220000Y-133915000D03*
%TD*%
%TO.C,U19*%
X87525000Y-125595000D03*
X87525000Y-124295000D03*
X86225000Y-124295000D03*
X86225000Y-125595000D03*
%TD*%
D18*
%TO.C,R3*%
X44170000Y-90135000D03*
X44170000Y-89115000D03*
%TD*%
D10*
%TO.C,U37*%
X77520000Y-133915000D03*
X77520000Y-132615000D03*
X76220000Y-132615000D03*
X76220000Y-133915000D03*
%TD*%
D11*
%TO.C,C18*%
X87505000Y-126695000D03*
X86545000Y-126695000D03*
%TD*%
D14*
%TO.C,C2*%
X48320000Y-98015000D03*
X46420000Y-98015000D03*
%TD*%
D11*
%TO.C,C34*%
X67500000Y-135015000D03*
X66540000Y-135015000D03*
%TD*%
%TO.C,C39*%
X92580000Y-135015000D03*
X91620000Y-135015000D03*
%TD*%
%TO.C,C45*%
X122520000Y-135015000D03*
X121560000Y-135015000D03*
%TD*%
%TO.C,C11*%
X52605000Y-126795000D03*
X51645000Y-126795000D03*
%TD*%
D10*
%TO.C,U45*%
X117520000Y-133915000D03*
X117520000Y-132615000D03*
X116220000Y-132615000D03*
X116220000Y-133915000D03*
%TD*%
D11*
%TO.C,C35*%
X72520000Y-135015000D03*
X71560000Y-135015000D03*
%TD*%
D19*
%TO.C,C10*%
X53725000Y-115210000D03*
X53725000Y-116170000D03*
%TD*%
D20*
%TO.C,U3*%
X57870000Y-94125000D03*
D21*
X57030000Y-92055000D03*
X57030000Y-92875000D03*
D22*
X57870000Y-94125000D03*
D21*
X58710000Y-92875000D03*
X58710000Y-92055000D03*
%TD*%
D11*
%TO.C,C25*%
X122520000Y-126690000D03*
X121560000Y-126690000D03*
%TD*%
D20*
%TO.C,U5*%
X48650000Y-81725000D03*
X50050000Y-81725000D03*
X47950000Y-81025000D03*
X49350000Y-81025000D03*
X50750000Y-81025000D03*
X48650000Y-80325000D03*
X50050000Y-80325000D03*
X47950000Y-79625000D03*
X49350000Y-79625000D03*
X50750000Y-79625000D03*
X48650000Y-78925000D03*
X50050000Y-78925000D03*
D23*
X41630000Y-87575000D03*
X42900000Y-87575000D03*
X44170000Y-87575000D03*
X45440000Y-87575000D03*
X46710000Y-87575000D03*
X47980000Y-87575000D03*
X49250000Y-87575000D03*
X50520000Y-87575000D03*
X51790000Y-87575000D03*
X53060000Y-87575000D03*
X54330000Y-87575000D03*
X55600000Y-87575000D03*
X56870000Y-87575000D03*
X58140000Y-87575000D03*
D24*
X59410000Y-85815000D03*
X59410000Y-84545000D03*
X59410000Y-83275000D03*
X59410000Y-82005000D03*
X59410000Y-80735000D03*
X59410000Y-79455000D03*
X59410000Y-78195000D03*
X59410000Y-76925000D03*
X59410000Y-75655000D03*
X59410000Y-74375000D03*
X59410000Y-73105000D03*
X59380000Y-71835000D03*
D23*
X58140000Y-70075000D03*
X56870000Y-70075000D03*
X55600000Y-70075000D03*
X54330000Y-70075000D03*
X53060000Y-70075000D03*
X51790000Y-70075000D03*
X50520000Y-70075000D03*
X49250000Y-70075000D03*
X47980000Y-70075000D03*
X46710000Y-70075000D03*
X45440000Y-70075000D03*
X44170000Y-70075000D03*
X42900000Y-70075000D03*
X41630000Y-70075000D03*
D25*
X47950000Y-81725000D03*
X49350000Y-81725000D03*
X50750000Y-81725000D03*
X47950000Y-80325000D03*
X49350000Y-80325000D03*
X50750000Y-80325000D03*
X47950000Y-78925000D03*
X49350000Y-78925000D03*
X50750000Y-78925000D03*
%TD*%
D26*
%TO.C,U2*%
X47185000Y-111435000D03*
X47185000Y-117215000D03*
D27*
X47725000Y-110005000D03*
X47725000Y-118645000D03*
D28*
X43535000Y-110005000D03*
X43535000Y-118645000D03*
D29*
X48375000Y-110975000D03*
X48375000Y-111775000D03*
X48375000Y-113075000D03*
X48375000Y-114075000D03*
X48375000Y-114575000D03*
X48375000Y-115575000D03*
X48365000Y-116875000D03*
X48375000Y-117675000D03*
X48375000Y-117375000D03*
X48365000Y-116575000D03*
X48375000Y-116075000D03*
X48375000Y-115075000D03*
X48375000Y-113575000D03*
X48375000Y-112575000D03*
X48375000Y-112075000D03*
X48375000Y-111275000D03*
%TD*%
D11*
%TO.C,C30*%
X147420000Y-126690000D03*
X146460000Y-126690000D03*
%TD*%
D10*
%TO.C,U44*%
X112520000Y-133915000D03*
X112520000Y-132615000D03*
X111220000Y-132615000D03*
X111220000Y-133915000D03*
%TD*%
D30*
%TO.C,C1*%
X59790000Y-92070000D03*
X59790000Y-91110000D03*
%TD*%
D10*
%TO.C,U21*%
X97525000Y-125595000D03*
X97525000Y-124295000D03*
X96225000Y-124295000D03*
X96225000Y-125595000D03*
%TD*%
D31*
%TO.C,C3*%
X45170000Y-94265000D03*
X45170000Y-96165000D03*
%TD*%
D10*
%TO.C,U27*%
X127520000Y-125590000D03*
X127520000Y-124290000D03*
X126220000Y-124290000D03*
X126220000Y-125590000D03*
%TD*%
D11*
%TO.C,C50*%
X147420000Y-135015000D03*
X146460000Y-135015000D03*
%TD*%
%TO.C,C32*%
X57500000Y-135115000D03*
X56540000Y-135115000D03*
%TD*%
D10*
%TO.C,U15*%
X67525000Y-125595000D03*
X67525000Y-124295000D03*
X66225000Y-124295000D03*
X66225000Y-125595000D03*
%TD*%
D32*
%TO.C,U10*%
X54900000Y-111175000D03*
D33*
X54830000Y-111675000D03*
X54830000Y-112175000D03*
X54830000Y-112675000D03*
X54830000Y-113175000D03*
D32*
X54900000Y-113675000D03*
D34*
X55530000Y-113875000D03*
X56030000Y-113875000D03*
X56530000Y-113875000D03*
X57030000Y-113875000D03*
D32*
X57660000Y-113675000D03*
D33*
X57730000Y-113175000D03*
X57730000Y-112675000D03*
X57730000Y-112175000D03*
X57730000Y-111675000D03*
D32*
X57660000Y-111175000D03*
D34*
X57030000Y-110975000D03*
X56530000Y-110975000D03*
X56030000Y-110975000D03*
X55530000Y-110975000D03*
D35*
X56280000Y-112425000D03*
%TD*%
D11*
%TO.C,C12*%
X57505000Y-126795000D03*
X56545000Y-126795000D03*
%TD*%
D19*
%TO.C,C7*%
X54725000Y-115230000D03*
X54725000Y-116190000D03*
%TD*%
D10*
%TO.C,U28*%
X132520000Y-125590000D03*
X132520000Y-124290000D03*
X131220000Y-124290000D03*
X131220000Y-125590000D03*
%TD*%
%TO.C,U41*%
X97520000Y-133915000D03*
X97520000Y-132615000D03*
X96220000Y-132615000D03*
X96220000Y-133915000D03*
%TD*%
D11*
%TO.C,C9*%
X53725000Y-114075000D03*
X52765000Y-114075000D03*
%TD*%
D14*
%TO.C,C5*%
X43200000Y-91725000D03*
X41300000Y-91725000D03*
%TD*%
D10*
%TO.C,U30*%
X142520000Y-125590000D03*
X142520000Y-124290000D03*
X141220000Y-124290000D03*
X141220000Y-125590000D03*
%TD*%
D11*
%TO.C,C38*%
X87500000Y-135015000D03*
X86540000Y-135015000D03*
%TD*%
%TO.C,C23*%
X112500000Y-126690000D03*
X111540000Y-126690000D03*
%TD*%
D36*
%TO.C,R1*%
X49687500Y-112825000D03*
X50707500Y-112825000D03*
%TD*%
D10*
%TO.C,U17*%
X77525000Y-125595000D03*
X77525000Y-124295000D03*
X76225000Y-124295000D03*
X76225000Y-125595000D03*
%TD*%
D37*
%TO.C,J1*%
X46000000Y-103670000D03*
X46000000Y-104670000D03*
X46000000Y-105670000D03*
X46000000Y-106670000D03*
D38*
X42120000Y-107970000D03*
X42120000Y-102370000D03*
%TD*%
D11*
%TO.C,C13*%
X62505000Y-126695000D03*
X61545000Y-126695000D03*
%TD*%
D10*
%TO.C,U16*%
X72525000Y-125595000D03*
X72525000Y-124295000D03*
X71225000Y-124295000D03*
X71225000Y-125595000D03*
%TD*%
%TO.C,U18*%
X82525000Y-125595000D03*
X82525000Y-124295000D03*
X81225000Y-124295000D03*
X81225000Y-125595000D03*
%TD*%
%TO.C,U50*%
X142520000Y-133915000D03*
X142520000Y-132615000D03*
X141220000Y-132615000D03*
X141220000Y-133915000D03*
%TD*%
D11*
%TO.C,C36*%
X77520000Y-135015000D03*
X76560000Y-135015000D03*
%TD*%
%TO.C,C40*%
X97420000Y-135015000D03*
X96460000Y-135015000D03*
%TD*%
D39*
%TO.C,U8*%
X55850000Y-108665000D03*
X55850000Y-109745000D03*
%TD*%
D10*
%TO.C,U20*%
X92525000Y-125595000D03*
X92525000Y-124295000D03*
X91225000Y-124295000D03*
X91225000Y-125595000D03*
%TD*%
%TO.C,U22*%
X102520000Y-125590000D03*
X102520000Y-124290000D03*
X101220000Y-124290000D03*
X101220000Y-125590000D03*
%TD*%
D36*
%TO.C,R5*%
X57760000Y-116230000D03*
X58780000Y-116230000D03*
%TD*%
D11*
%TO.C,C47*%
X132600000Y-135015000D03*
X131640000Y-135015000D03*
%TD*%
D10*
%TO.C,U46*%
X122520000Y-133915000D03*
X122520000Y-132615000D03*
X121220000Y-132615000D03*
X121220000Y-133915000D03*
%TD*%
%TO.C,U14*%
X62525000Y-125595000D03*
X62525000Y-124295000D03*
X61225000Y-124295000D03*
X61225000Y-125595000D03*
%TD*%
D11*
%TO.C,C26*%
X127520000Y-126690000D03*
X126560000Y-126690000D03*
%TD*%
D10*
%TO.C,U47*%
X127520000Y-133915000D03*
X127520000Y-132615000D03*
X126220000Y-132615000D03*
X126220000Y-133915000D03*
%TD*%
D11*
%TO.C,C15*%
X72525000Y-126695000D03*
X71565000Y-126695000D03*
%TD*%
D10*
%TO.C,U34*%
X62520000Y-133915000D03*
X62520000Y-132615000D03*
X61220000Y-132615000D03*
X61220000Y-133915000D03*
%TD*%
%TO.C,U32*%
X52520000Y-133915000D03*
X52520000Y-132615000D03*
X51220000Y-132615000D03*
X51220000Y-133915000D03*
%TD*%
%TO.C,U29*%
X137520000Y-125590000D03*
X137520000Y-124290000D03*
X136220000Y-124290000D03*
X136220000Y-125590000D03*
%TD*%
%TO.C,U31*%
X147520000Y-125590000D03*
X147520000Y-124290000D03*
X146220000Y-124290000D03*
X146220000Y-125590000D03*
%TD*%
D19*
%TO.C,C8*%
X55750000Y-115225000D03*
X55750000Y-116185000D03*
%TD*%
D40*
%TO.C,U4*%
X47700000Y-91615000D03*
X47700000Y-93915000D03*
X47700000Y-96215000D03*
D41*
X53640000Y-93915000D03*
%TD*%
D10*
%TO.C,U49*%
X137520000Y-133915000D03*
X137520000Y-132615000D03*
X136220000Y-132615000D03*
X136220000Y-133915000D03*
%TD*%
D11*
%TO.C,C42*%
X107500000Y-135115000D03*
X106540000Y-135115000D03*
%TD*%
D10*
%TO.C,U33*%
X57520000Y-133915000D03*
X57520000Y-132615000D03*
X56220000Y-132615000D03*
X56220000Y-133915000D03*
%TD*%
%TO.C,U48*%
X132520000Y-133915000D03*
X132520000Y-132615000D03*
X131220000Y-132615000D03*
X131220000Y-133915000D03*
%TD*%
D11*
%TO.C,C27*%
X132600000Y-126690000D03*
X131640000Y-126690000D03*
%TD*%
D10*
%TO.C,U23*%
X107520000Y-125590000D03*
X107520000Y-124290000D03*
X106220000Y-124290000D03*
X106220000Y-125590000D03*
%TD*%
D11*
%TO.C,C28*%
X137500000Y-126690000D03*
X136540000Y-126690000D03*
%TD*%
%TO.C,C4*%
X42930000Y-89615000D03*
X41970000Y-89615000D03*
%TD*%
D10*
%TO.C,U42*%
X102520000Y-133915000D03*
X102520000Y-132615000D03*
X101220000Y-132615000D03*
X101220000Y-133915000D03*
%TD*%
D36*
%TO.C,R2*%
X49687500Y-115925000D03*
X50707500Y-115925000D03*
%TD*%
D11*
%TO.C,C37*%
X82600000Y-135015000D03*
X81640000Y-135015000D03*
%TD*%
%TO.C,C21*%
X102600000Y-126790000D03*
X101640000Y-126790000D03*
%TD*%
D42*
%TO.C,R6*%
X55985000Y-107440000D03*
X54965000Y-107440000D03*
%TD*%
D11*
%TO.C,C14*%
X67505000Y-126695000D03*
X66545000Y-126695000D03*
%TD*%
%TO.C,C48*%
X137500000Y-135015000D03*
X136540000Y-135015000D03*
%TD*%
D10*
%TO.C,U26*%
X122520000Y-125590000D03*
X122520000Y-124290000D03*
X121220000Y-124290000D03*
X121220000Y-125590000D03*
%TD*%
D43*
%TO.C,U6*%
X43570000Y-95900000D03*
X43570000Y-100100000D03*
X41430000Y-95900000D03*
X41430000Y-100100000D03*
%TD*%
D10*
%TO.C,U24*%
X112520000Y-125590000D03*
X112520000Y-124290000D03*
X111220000Y-124290000D03*
X111220000Y-125590000D03*
%TD*%
%TO.C,U36*%
X72520000Y-133915000D03*
X72520000Y-132615000D03*
X71220000Y-132615000D03*
X71220000Y-133915000D03*
%TD*%
D11*
%TO.C,C46*%
X127520000Y-135015000D03*
X126560000Y-135015000D03*
%TD*%
%TO.C,C44*%
X117500000Y-135015000D03*
X116540000Y-135015000D03*
%TD*%
D10*
%TO.C,U40*%
X92520000Y-133915000D03*
X92520000Y-132615000D03*
X91220000Y-132615000D03*
X91220000Y-133915000D03*
%TD*%
D11*
%TO.C,C22*%
X107500000Y-126790000D03*
X106540000Y-126790000D03*
%TD*%
%TO.C,C24*%
X117500000Y-126690000D03*
X116540000Y-126690000D03*
%TD*%
%TO.C,C19*%
X92585000Y-126695000D03*
X91625000Y-126695000D03*
%TD*%
%TO.C,C29*%
X142580000Y-126690000D03*
X141620000Y-126690000D03*
%TD*%
%TO.C,C17*%
X82605000Y-126695000D03*
X81645000Y-126695000D03*
%TD*%
%TO.C,C16*%
X77525000Y-126695000D03*
X76565000Y-126695000D03*
%TD*%
D10*
%TO.C,U25*%
X117520000Y-125590000D03*
X117520000Y-124290000D03*
X116220000Y-124290000D03*
X116220000Y-125590000D03*
%TD*%
D39*
%TO.C,U9*%
X54725000Y-108660000D03*
X54725000Y-109740000D03*
%TD*%
D44*
%TO.C,U1*%
X51285000Y-100360000D03*
X58905000Y-99345000D03*
X58905000Y-101375000D03*
D45*
X52555000Y-100995000D03*
X53825000Y-100995000D03*
X55095000Y-100995000D03*
X56365000Y-100995000D03*
X57635000Y-100995000D03*
X57635000Y-99725000D03*
X56365000Y-99725000D03*
X55095000Y-99725000D03*
X53825000Y-99725000D03*
X52555000Y-99725000D03*
%TD*%
D36*
%TO.C,R4*%
X56740000Y-115265000D03*
X57760000Y-115265000D03*
%TD*%
D10*
%TO.C,U39*%
X87520000Y-133915000D03*
X87520000Y-132615000D03*
X86220000Y-132615000D03*
X86220000Y-133915000D03*
%TD*%
%TO.C,U12*%
X52525000Y-125595000D03*
X52525000Y-124295000D03*
X51225000Y-124295000D03*
X51225000Y-125595000D03*
%TD*%
M02*
